<?xml version="1.0" encoding="utf-8"?>
<!-- Generator: Adobe Illustrator 16.0.0, SVG Export Plug-In . SVG Version: 6.00 Build 0)  -->
<!DOCTYPE svg PUBLIC "-//W3C//DTD SVG 1.1//EN" "http://www.w3.org/Graphics/SVG/1.1/DTD/svg11.dtd">
<svg version="1.1" id="Layer_1" xmlns="http://www.w3.org/2000/svg" xmlns:xlink="http://www.w3.org/1999/xlink" x="0px" y="0px"
	 width="130.651px" height="105.328px" viewBox="38.563 31.088 130.651 105.328"
	 enable-background="new 38.563 31.088 130.651 105.328" xml:space="preserve">
<g>
	<path fill="#FBCD00" d="M38.563,100.382c0.941-23.574,20.34-42.401,44.147-42.401h42.356c23.808,0,43.206,18.827,44.147,42.403
		L38.563,100.382L38.563,100.382z"/>
	<path fill="#F3A300" d="M46.182,77.328C54.134,65.654,67.521,57.98,82.711,57.98h42.356c15.19,0,28.578,7.673,36.529,19.346H46.182
		V77.328z"/>
	<path fill="#F3A300" d="M92.495,51.611v45.042c0,8.659,5.519,29.794,11.396,39.763c6.049-10.465,11.394-31.104,11.394-39.763
		V51.611c0-8.661-4.559-16.239-11.394-20.523C97.054,35.372,92.495,42.949,92.495,51.611z"/>
	<path fill="#E62519" d="M94.13,42.89h19.52c-1.902-4.906-5.354-9.04-9.759-11.802C99.484,33.85,96.033,37.983,94.13,42.89z"/>
</g>
</svg>
