<?xml version="1.0" encoding="utf-8"?>
<!-- Generator: Adobe Illustrator 16.0.0, SVG Export Plug-In . SVG Version: 6.00 Build 0)  -->
<!DOCTYPE svg PUBLIC "-//W3C//DTD SVG 1.1//EN" "http://www.w3.org/Graphics/SVG/1.1/DTD/svg11.dtd">
<svg version="1.1" id="Layer_1" xmlns="http://www.w3.org/2000/svg" xmlns:xlink="http://www.w3.org/1999/xlink" x="0px" y="0px"
	 width="1069.682px" height="902.745px" viewBox="0 -83.546 1069.682 902.745" enable-background="new 0 -83.546 1069.682 902.745"
	 xml:space="preserve">
<g>
	<g>
		<path fill="#FFFFFF" d="M970.227-23.167c0-12.702,10.298-23,23.002-23h53.452c12.704,0,23.001,10.298,23.001,23l0,0
			c0,12.705-10.299,23.002-23.001,23.002h-53.452C980.524-0.165,970.227-10.463,970.227-23.167L970.227-23.167z"/>
		<path fill="#FFFFFF" d="M932.364-45.99c0-12.704,10.3-22.999,23.001-22.999h53.455c12.704,0,23.001,10.297,23.001,22.999l0,0
			c0,12.701-10.298,23-23.001,23h-53.455C942.663-22.988,932.364-33.287,932.364-45.99L932.364-45.99z"/>
		<path fill="#FFFFFF" d="M955.38-9.603c-12.703,0-23.001-10.298-23.001-23v-27.941c-0.001-12.702,10.298-23.002,23.001-23.002l0,0
			c12.702,0,23,10.3,23,23.002v27.94C978.38-19.901,968.081-9.603,955.38-9.603L955.38-9.603z"/>
		<path fill="#FFFFFF" d="M905.65-23.167c0-12.702,10.299-23,23.001-23h53.453c12.703,0,23.002,10.298,23.002,23l0,0
			c0,12.705-10.3,23.002-23.002,23.002h-53.453C915.948-0.165,905.65-10.463,905.65-23.167L905.65-23.167z"/>
	</g>
	<g>
		<path fill="#FFFFFF" d="M250.155,52.948c0,8.165-6.619,14.786-14.785,14.786h-34.365c-8.167,0-14.787-6.621-14.787-14.786l0,0
			c0-8.167,6.62-14.787,14.787-14.787h34.365C243.535,38.16,250.155,44.781,250.155,52.948L250.155,52.948z"/>
		<path fill="#FFFFFF" d="M278.118,34.665c0,8.166-6.622,14.784-14.787,14.784h-34.365c-8.167,0-14.787-6.618-14.787-14.784l0,0
			c0-8.17,6.621-14.788,14.787-14.788h34.365C271.496,19.876,278.118,26.495,278.118,34.665L278.118,34.665z"/>
		<path fill="#FFFFFF" d="M291.668,52.948c0,8.165-6.619,14.786-14.786,14.786h-34.365c-8.167,0-14.787-6.621-14.787-14.786l0,0
			c0-8.167,6.62-14.787,14.787-14.787h34.365C285.049,38.16,291.668,44.781,291.668,52.948L291.668,52.948z"/>
	</g>
	<g>
		<path fill="#FFFFFF" d="M104.625,370.344c0,17.143-13.898,31.043-31.042,31.043H60.641c-17.145,0-31.042-13.9-31.042-31.043l0,0
			c0-17.145,13.899-31.044,31.042-31.044h12.942C90.728,339.3,104.625,353.199,104.625,370.344L104.625,370.344z"/>
		<path fill="#FFFFFF" d="M165.269,396.81c0,17.144-13.898,31.042-31.042,31.042H31.04C13.899,427.852,0,413.954,0,396.81l0,0
			c0-17.145,13.898-31.044,31.041-31.044h103.185C151.37,365.766,165.269,379.668,165.269,396.81L165.269,396.81z"/>
	</g>
	<g>
		<path fill="#FFFFFF" d="M120.119,800.588c0,5.548,4.497,10.047,10.045,10.047h4.188c5.549,0,10.045-4.499,10.045-10.047l0,0
			c0-5.55-4.498-10.048-10.045-10.048h-4.188C124.616,790.54,120.119,795.038,120.119,800.588L120.119,800.588z"/>
		<path fill="#FFFFFF" d="M100.492,809.152c0,5.549,4.496,10.047,10.046,10.047h33.395c5.548,0,10.047-4.498,10.047-10.047l0,0
			c0-5.549-4.499-10.046-10.047-10.046h-33.395C104.99,799.106,100.492,803.603,100.492,809.152L100.492,809.152z"/>
	</g>
	<path fill="#FFFFFF" d="M270.959,707.765h22.312c0.8,0,1.578-0.1,2.321-0.283c0.743,0.186,1.52,0.283,2.321,0.283h22.31
		c5.302,0,9.602-4.299,9.602-9.602s-4.3-9.6-9.602-9.6h-3.397c0-5.302-4.299-9.599-9.602-9.599h-4.002
		c-5.302,0-9.601,4.297-9.601,9.599c0,0.003,0,0.007,0,0.009c-0.117-0.003-0.234-0.009-0.353-0.009h-22.312
		c-5.303,0-9.603,4.297-9.603,9.6C261.36,703.468,265.657,707.765,270.959,707.765z"/>
</g>
</svg>
