<?xml version="1.0" encoding="utf-8"?>
<!-- Generator: Adobe Illustrator 16.0.0, SVG Export Plug-In . SVG Version: 6.00 Build 0)  -->
<!DOCTYPE svg PUBLIC "-//W3C//DTD SVG 1.1//EN" "http://www.w3.org/Graphics/SVG/1.1/DTD/svg11.dtd">
<svg version="1.1" id="Layer_1" xmlns="http://www.w3.org/2000/svg" xmlns:xlink="http://www.w3.org/1999/xlink" x="0px" y="0px"
	 width="93.085px" height="92px" viewBox="2.786 236.326 93.085 92" enable-background="new 2.786 236.326 93.085 92"
	 xml:space="preserve">
<g>
	<path fill="#E62519" d="M54.47,240.158c-0.459-2.188-2.4-3.832-4.726-3.832c-2.341,0-4.294,1.667-4.736,3.879
		c-7.696,0.715-13.335,3.032-13.335,5.78c0,3.316,8.212,6.006,18.342,6.006c10.13,0,18.342-2.689,18.342-6.006
		C68.357,243.172,62.447,240.811,54.47,240.158z"/>
	<path fill="#D22417" d="M54.47,240.158c-0.448-2.136-2.308-3.75-4.558-3.828v15.661c0.034,0,0.068,0,0.103,0
		c10.13,0,18.342-2.689,18.342-6.005C68.357,243.172,62.447,240.811,54.47,240.158z"/>
	<path fill="#E3E3E3" d="M49.998,262.55H38.313h-1.517l0.011,0.137L5.66,269.889l0.217,0.029c-1.742,0.211-3.091,1.69-3.091,3.489
		v6.402c0,1.943,1.576,3.519,3.519,3.519h43.692V262.55z"/>
	<path fill="#E3E3E3" d="M48.823,262.55h11.645h1.514l-0.012,0.137l31.04,7.176l-0.217,0.029c1.734,0.21,3.079,1.687,3.079,3.478
		v6.38c0,1.936-1.568,3.507-3.506,3.507H48.823V262.55z"/>
	<path fill="#FFFFFF" d="M62.997,264.01c0-0.471-0.025-0.936-0.074-1.394v-14.305c0-0.147-0.022-0.288-0.065-0.422
		c0.043-0.104,0.065-0.208,0.065-0.315c0-1.731-5.812-3.133-12.979-3.133c-6.919,0-12.572,1.307-12.957,2.954
		c-0.216,0.243-0.348,0.564-0.348,0.915v15.699v5.273v12.584c0,0.351,0.018,0.697,0.044,1.04c-0.028,0.11-0.044,0.227-0.044,0.345
		l4.86,36.964c0.088,4.494,3.757,8.11,8.271,8.11c4.455,0,8.084-3.519,8.268-7.93v-0.002l4.79-36.434
		c0.109-0.682,0.168-1.381,0.168-2.094V264.01z"/>
	<path fill="#E3E3E3" d="M62.923,248.311c0-0.146-0.022-0.287-0.065-0.421c0.043-0.104,0.065-0.21,0.065-0.315
		c0-1.731-5.812-3.133-12.979-3.133c-0.01,0-0.021,0-0.03,0v83.883c4.39-0.076,7.945-3.563,8.126-7.928v-0.002l4.79-36.434
		c0.109-0.682,0.168-1.381,0.168-2.094V264.01c0-0.471-0.025-0.936-0.075-1.394L62.923,248.311L62.923,248.311z"/>
	<path fill="#FBCD00" d="M64.212,271.365c0,4.146-3.359,7.505-7.504,7.505H43.253c-4.145,0-7.506-3.358-7.506-7.505l0,0
		c0-4.145,3.361-7.505,7.506-7.505h13.455C60.852,263.86,64.212,267.221,64.212,271.365L64.212,271.365z"/>
	<path fill="#E3E3E3" d="M66.314,311.785l0.084-0.01l-12.13-2.805l0.004-0.054h-0.591h-4.093H49.13h-4.108H44.43l0.004,0.054
		l-12.172,2.814l0.085,0.012c-0.68,0.082-1.208,0.66-1.208,1.363v7.244c0,0.76,0.615,1.375,1.375,1.375h17.074v-0.027h16.558
		c0.757,0,1.37-0.615,1.37-1.371v-7.234C67.517,312.445,66.992,311.869,66.314,311.785z"/>
	<g>
		<path fill="#C1711B" d="M59.582,271.365c0,5.283-4.283,9.566-9.567,9.566s-9.567-4.283-9.567-9.566s4.283-9.565,9.567-9.565
			C55.299,261.798,59.582,266.082,59.582,271.365z"/>
		<path fill="#844819" d="M50.015,261.798c-0.034,0-0.066,0.004-0.101,0.006v19.122c0.034,0.001,0.066,0.006,0.101,0.006
			c5.284,0,9.566-4.283,9.566-9.566S55.299,261.798,50.015,261.798z"/>
	</g>
	<path fill="#FFFFFF" d="M51.969,321.787c0,0.765-0.62,1.385-1.386,1.385h-1.246c-0.764,0-1.385-0.62-1.385-1.385v-12.535
		c0-0.764,0.621-1.383,1.385-1.383h1.246c0.766,0,1.386,0.619,1.386,1.383V321.787z"/>
	<rect x="42.865" y="259.402" fill="#C1711B" width="4.938" height="6.24"/>
	<rect x="52.279" y="259.402" fill="#844819" width="4.938" height="6.24"/>
</g>
</svg>
