<?xml version="1.0" encoding="utf-8"?>
<!-- Generator: Adobe Illustrator 16.0.0, SVG Export Plug-In . SVG Version: 6.00 Build 0)  -->
<!DOCTYPE svg PUBLIC "-//W3C//DTD SVG 1.1//EN" "http://www.w3.org/Graphics/SVG/1.1/DTD/svg11.dtd">
<svg version="1.1" id="Layer_1" xmlns="http://www.w3.org/2000/svg" xmlns:xlink="http://www.w3.org/1999/xlink" x="0px" y="0px"
	 width="168.271px" height="460px" viewBox="161.687 443.413 168.271 460" enable-background="new 161.687 443.413 168.271 460"
	 xml:space="preserve">
<g>
	<path fill="#FBCD00" d="M214.044,771.953c1.159-0.51,2.431-0.796,3.761-0.796c19.11,0.007,38.208,0.638,57.31,1.091
		c30.866-24.847,52.717-86.469,52.717-158.553c0-94.044-37.191-170.281-83.071-170.281c-45.881,0-83.073,76.237-83.073,170.281
		C161.687,685.497,183.369,746.916,214.044,771.953z"/>
	<path fill="#F3A300" d="M277.505,770.226c29.597-26.049,50.326-86.324,50.326-156.531c0-94.044-37.191-170.281-83.071-170.281l0,0
		v328.323C255.675,771.228,266.582,770.494,277.505,770.226z"/>
	<path fill="#F8BF00" d="M269.325,769.607c21.464-26.38,36.445-86.262,36.445-155.912c0-94.044-27.315-170.282-61.012-170.282l0,0
		v326.375C252.955,770.123,261.145,769.972,269.325,769.607z"/>
	<path fill="#F3A300" d="M220.792,758.441c-0.031,0.048-0.063,0.091-0.096,0.138c-2.311-3.938-5.166-9.096-8.454-15.622
		c-3.408-6.765-5.833-12.607-7.495-17.088c0.056-0.039,0.11-0.082,0.164-0.122c-2.96-8.242-4.389-14.159-4.389-14.159l-3.581,3.317
		c0,0.002-0.001,0.003-0.002,0.005l-16.682,15.445l-0.793,0.733l-12.584,11.651c-1.971,1.826-3.585,5.518-3.585,8.205v16.771
		c0,2.688,2.199,4.883,4.886,4.883h51.449h5.652h4.886C230.169,772.6,226.185,767.385,220.792,758.441z"/>
	<path fill="#F3A300" d="M244.415,742.095c24.128,1.29,39.755,14.992,39.755,14.992l11.641-40.662c0,0-11.22-13.653-25.697-25.603
		c-14.477-11.949-25.353-19.907-25.353-19.907L244.415,742.095z"/>
	<path fill="#FBCD00" d="M248.366,740.285c0,2.121-1.721,3.841-3.842,3.841l0,0c-2.119,0-3.839-1.72-3.839-3.841v-65.529
		c0-2.122,1.72-3.841,3.839-3.841l0,0c2.122,0,3.842,1.719,3.842,3.841V740.285z"/>
	<path fill="#F8BF00" d="M274.389,758.577c0.029,0.044,0.062,0.086,0.092,0.128c2.233-3.661,4.994-8.452,8.171-14.517
		c3.294-6.288,5.637-11.719,7.244-15.88c-0.054-0.039-0.105-0.078-0.159-0.116c2.864-7.658,4.244-13.154,4.244-13.154l3.46,3.08
		c0.002,0.001,0.003,0.002,0.004,0.002l16.121,14.356l0.768,0.683l12.163,10.826c1.904,1.697,3.462,5.129,3.462,7.625v15.587
		c0,2.496-2.125,4.541-4.721,4.541h-49.724h-5.464h-4.722C265.328,771.737,269.178,766.889,274.389,758.577z"/>
	<path fill="#E62519" d="M250.574,776.334c7.309-2.959,15.797-6.726,20.337-9.898c9.011-6.29,13.588-13.293,10.224-15.641
		c-3.364-2.35-13.396,0.848-22.406,7.138c-4.466,3.118-9.762,8.904-13.969,13.952c-4.208-5.047-9.504-10.834-13.97-13.952
		c-9.011-6.291-19.042-9.487-22.407-7.138c-3.363,2.348,1.214,9.352,10.225,15.641c4.54,3.172,13.028,6.938,20.335,9.898
		c-7.307,2.96-15.795,6.729-20.335,9.897c-9.011,6.292-13.587,13.294-10.225,15.644c3.365,2.35,13.396-0.848,22.407-7.14
		c4.466-3.116,9.763-8.902,13.97-13.948c4.208,5.045,9.503,10.832,13.969,13.948c9.011,6.293,19.042,9.489,22.406,7.14
		c3.365-2.349-1.213-9.353-10.224-15.644C266.371,783.064,257.883,779.295,250.574,776.334z"/>
	<path fill="#D22417" d="M230.79,757.933c-9.011-6.291-19.042-9.487-22.407-7.138c-3.363,2.348,1.214,9.352,10.225,15.642
		c4.54,3.171,13.028,6.938,20.335,9.897c-7.307,2.96-15.795,6.729-20.335,9.897c-9.011,6.292-13.587,13.294-10.225,15.645
		c3.365,2.349,13.396-0.849,22.407-7.14c4.466-3.117,9.763-8.903,13.97-13.949v-8.901
		C240.552,766.838,235.256,761.051,230.79,757.933z"/>
	<g>
		<path fill="#D22417" d="M237.035,827.821c0,4.485,3.288,8.191,7.584,8.867v-58.63h-7.584V827.821z"/>
		<path fill="#E62519" d="M251.795,845.552c0-4.483-3.287-8.19-7.585-8.864v39.133h7.585V845.552z"/>
		<path fill="#E62519" d="M251.795,894.547c0,4.485-3.287,8.192-7.585,8.866V864.28h7.585V894.547z"/>
	</g>
</g>
</svg>
