<?xml version="1.0" encoding="utf-8"?>
<!-- Generator: Adobe Illustrator 16.0.0, SVG Export Plug-In . SVG Version: 6.00 Build 0)  -->
<!DOCTYPE svg PUBLIC "-//W3C//DTD SVG 1.1//EN" "http://www.w3.org/Graphics/SVG/1.1/DTD/svg11.dtd">
<svg version="1.1" id="Layer_1" xmlns="http://www.w3.org/2000/svg" xmlns:xlink="http://www.w3.org/1999/xlink" x="0px" y="0px"
	 width="384.412px" height="607.153px" viewBox="0 -56.899 384.412 607.153" enable-background="new 0 -56.899 384.412 607.153"
	 xml:space="preserve">
<g>
	<g>
		<path fill="#FFFFFF" d="M187.287-1.33c0,30.688-24.877,55.567-55.566,55.567h-23.167c-30.688,0-55.568-24.878-55.568-55.567l0,0
			c0-30.688,24.881-55.568,55.568-55.568h23.167C162.41-56.899,187.287-32.019,187.287-1.33L187.287-1.33z"/>
		<path fill="#FFFFFF" d="M295.845,46.049c0,30.688-24.878,55.568-55.567,55.568H55.567C24.88,101.616,0,76.738,0,46.049l0,0
			C0,15.359,24.88-9.519,55.567-9.519h184.71C270.968-9.519,295.845,15.359,295.845,46.049L295.845,46.049z"/>
	</g>
	<path fill="#FFFFFF" d="M324.956,550.255h22.536c0.808,0,1.593-0.102,2.343-0.285c0.751,0.185,1.536,0.285,2.347,0.285h22.534
		c5.354,0,9.696-4.341,9.696-9.696c0-5.357-4.341-9.698-9.696-9.698h-3.434c0-5.354-4.341-9.696-9.699-9.696h-4.041
		c-5.354,0-9.695,4.342-9.695,9.696c0,0.005,0,0.008,0,0.013c-0.119-0.007-0.236-0.013-0.354-0.013h-22.536
		c-5.355,0-9.698,4.341-9.698,9.698C315.257,545.914,319.6,550.255,324.956,550.255z"/>
</g>
</svg>
