<?xml version="1.0" encoding="utf-8"?>
<!-- Generator: Adobe Illustrator 16.0.0, SVG Export Plug-In . SVG Version: 6.00 Build 0)  -->
<!DOCTYPE svg PUBLIC "-//W3C//DTD SVG 1.1//EN" "http://www.w3.org/Graphics/SVG/1.1/DTD/svg11.dtd">
<svg version="1.1" id="Layer_1" xmlns="http://www.w3.org/2000/svg" xmlns:xlink="http://www.w3.org/1999/xlink" x="0px" y="0px"
	 width="287.236px" height="510px" viewBox="0 0 287.236 510" enable-background="new 0 0 287.236 510" xml:space="preserve">
<path fill="#FBCD00" d="M173.311,0C110.393,0,59.387,51.005,59.387,113.924c0,4.251,0.238,8.443,0.693,12.574
	c-0.021,0.374-0.033,0.75-0.033,1.13c0,10.963,8.892,19.855,19.854,19.855h5.126c0.725-9.261,8.454-16.554,17.902-16.554
	c9.447,0,17.176,7.292,17.901,16.554h10.801c0.725-9.261,8.454-16.554,17.901-16.554c9.446,0,17.176,7.292,17.901,16.554h10.799
	c0.726-9.26,8.455-16.553,17.9-16.553c9.446,0,17.176,7.292,17.901,16.553h10.804c0.726-9.261,8.455-16.554,17.901-16.554
	s17.176,7.292,17.901,16.554h5.259c10.137,0,18.492-7.601,19.7-17.41h0.486c0.753-5.276,1.149-10.666,1.149-16.149
	C287.236,51.005,236.231,0,173.311,0z"/>
<path fill="#F8BF00" d="M173.313-0.001c-0.104,0-0.207,0.004-0.312,0.004v147.481h5.232c0.726-9.261,8.454-16.554,17.9-16.554
	c9.447,0,17.176,7.293,17.901,16.554h10.804c0.726-9.262,8.454-16.555,17.901-16.555s17.176,7.293,17.901,16.555h5.261
	c10.137,0,18.492-7.601,19.7-17.41h0.488c0.749-5.276,1.146-10.668,1.146-16.15C287.236,51.005,236.231-0.001,173.313-0.001z"/>
<path fill="#E62519" d="M169.197,315.067h-17.249c-7.109,0-12.894,5.782-12.894,12.891l4.102,27.487
	c0.085,0.012,0.169,0.021,0.255,0.039c3.563,0.743,6.876,0.424,10.31-0.748c0.614-0.212,1.257-0.197,1.853-0.021v-23.189h13.626
	c4.545,0,8.229-3.688,8.229-8.229C177.423,318.752,173.74,315.067,169.197,315.067z"/>
<path fill="#F8CFB1" d="M154.003,300.149c1.059-3.607,2.688-7.612,5.248-10.316h-3.875v-16.278c0-2.132-1.688-3.856-3.817-3.856
	c-2.131,0-3.857,1.727-3.857,3.856l-2.676,18.513c0,4.457,3.626,8.082,8.081,8.082H154.003L154.003,300.149z"/>
<path fill="#F8CFB1" d="M202.997,273.553c0-2.131-1.728-3.855-3.856-3.855s-3.82,1.727-3.82,3.855v16.278h-7.915
	c1.51,1.332,2.707,3.104,3.771,4.76c1.128,1.759,2.131,3.534,2.537,5.558h3.883c4.453,0,8.08-3.625,8.08-8.082L202.997,273.553z"/>
<path fill="#F8CFB1" d="M162.7,270.622c-0.622-1.481-1.717-1.215-2.559-0.903c-0.66,0.238-0.716-0.971-1.07-1.984
	c-0.01,0-0.021,0-0.029,0v-2.469c0-1.146-0.932-2.074-2.075-2.074c-1.145,0-2.071,0.928-2.071,2.074
	c0-1.146-0.932-2.074-2.073-2.074c-1.146,0-2.075,0.928-2.075,2.074c0-1.146-0.93-2.074-2.072-2.074
	c-1.146,0-2.072,0.928-2.072,2.074v3.64c0,0.146,0.017,0.291,0.045,0.43c-0.061,0.751-0.081,1.496,0.046,1.957
	c0.28,1.025,0.376,1.408,0.866,2.045c0.816,1.068,1.985,1.068,1.985,1.068l7.622-0.033l4.795-1.641
	C161.959,272.728,163.324,272.106,162.7,270.622z"/>
<path fill="#F8CFB1" d="M188.977,269.862c0.62-1.483,1.716-1.216,2.558-0.904c0.659,0.239,1.024-0.032,1.071-0.343
	c0.01,0,0.02-2.354,0.027-2.354v-1.76c0-1.146,0.93-2.073,2.074-2.073c1.146,0,2.073,0.93,2.073,2.073
	c0-1.146,0.93-2.073,2.076-2.073c1.145,0,2.073,0.93,2.073,2.073c0-1.146,0.928-2.073,2.072-2.073c1.146,0,2.071,0.93,2.071,2.073
	v3.641c0,0.146-0.016,0.291-0.045,0.431c0.059,0.751,0.082,1.497-0.045,1.957c-0.281,1.022-0.377,1.407-0.868,2.045
	c-0.818,1.065-1.985,1.065-1.985,1.065l-7.619-0.029l-4.798-1.642C189.716,271.969,188.355,271.344,188.977,269.862z"/>
<circle fill="#F8CFB1" cx="167.655" cy="267.68" r="18.294"/>
<path fill="#844819" d="M167.655,249.387c-9.129,0-16.692,6.687-18.07,15.429h20.32c2.645,0,4.785-2.146,4.785-4.787v9.429
	c0,2.644,2.144,4.787,4.787,4.787h5.252c0.782-2.039,1.218-4.25,1.218-6.563C185.947,257.578,177.757,249.387,167.655,249.387z"/>
<path fill="#844819" d="M180.703,258.168v-9.938h-1.731c-2.209,0-4.001,1.792-4.001,4.002v9.938h1.733
	C178.914,262.17,180.703,260.379,180.703,258.168z"/>
<circle fill="#844819" cx="162.846" cy="272.593" r="1.337"/>
<circle fill="#844819" cx="152.809" cy="272.593" r="1.337"/>
<path fill="#E62519" d="M195.318,289.832h-40.764v0.066h-4.574c-2.69,0-4.869,2.181-4.869,4.868v0.444
	c0,2.689,2.179,4.87,4.869,4.87h4.574h0.4v13.438v1.56v8.353c0,4.381,3.552,7.936,7.935,7.936h17.718
	c4.382,0,7.936-3.555,7.936-7.936v-8.353v-2.646v-12.35h6.777L195.318,289.832L195.318,289.832z"/>
<path fill="#D22417" d="M168.108,331.364h12.499c4.382,0,7.936-3.555,7.936-7.936v-8.352v-2.647v-12.348h6.777v-10.25h-27.212
	V331.364L168.108,331.364z"/>
<path fill="#E62519" d="M176.416,315.067c0.079,0,0.154,0.01,0.231,0.012c0.153-0.006,0.309-0.012,0.463-0.012H176.416z"/>
<path fill="#D22417" d="M169.197,315.067h-1.229c-0.829,7.055-5.104,6.601-5.104,6.601s-10.924,0-13.505,0
	c-2.579,0-2.76,3.94-2.76,3.94s1.21,20.569,1.854,32.554c0.647-0.562,1.291-1.125,1.899-1.729c0.992-0.983,2.432-2.25,2.441-3.713
	c0.021-1.938,1.306-3.055,2.772-3.354v-17.843h13.626c4.545,0,8.229-3.688,8.229-8.229
	C177.423,318.752,173.74,315.067,169.197,315.067z"/>
<path fill="#E62519" d="M180.738,355.112v-24.824c2.344-1.448,3.909-4.035,3.909-6.993c0-4.465-3.562-8.093-7.996-8.216
	c-6.896,0.244-12.429,5.928-12.429,12.88l4.197,28.149C172.573,356.191,176.649,355.692,180.738,355.112z"/>
<path fill="#D22417" d="M172.931,358.635c2.602-0.893,5.251-1.646,7.807-2.644v-25.703c2.344-1.448,3.909-4.036,3.909-6.993
	c0-3.256-1.896-6.058-4.64-7.39c-2.277,1.151-2.77,2.324-4.613,3.978c-2.674,2.395-2.463,6.428-2.463,6.428V358.635z"/>
<path fill="#FFFFFF" d="M152.348,357.002c-1.183-2.201-3.918-3.031-6.118-1.854l-6.691,4.861c-2.198,1.181-3.028,3.918-1.851,6.119
	c0.004,0.007,0.008,0.013,0.012,0.019c0.002,0.005,0.002,0.008,0.004,0.011l0.951,1.779c0.365,0.686,1.22,0.941,1.903,0.573
	l11.604-6.418c0.688-0.366,2.052-1.604,1.685-2.289l-1.483-2.773c-0.003-0.005-0.006-0.006-0.008-0.01
	C152.353,357.014,152.35,357.008,152.348,357.002z"/>
<path fill="#FFFFFF" d="M142.105,358.146l9.348,4.237c2.408-0.825,4.116-3.116,4.116-5.821v-8.063L142.105,358.146z"/>
<path fill="#FFFFFF" d="M150.348,354.066c0.621,1.162,0.181,2.608-0.984,3.229l-3.125,1.667c-1.163,0.618-2.607,0.181-3.229-0.983
	l-2.727-5.111c-0.622-1.163-0.18-2.609,0.981-3.23l3.127-1.666c1.163-0.62,2.606-0.18,3.229,0.982L150.348,354.066z"/>
<path fill="#FFFFFF" d="M170.431,357.019c-0.002,0.004-0.006,0.005-0.009,0.01l-1.482,2.773c-0.368,0.685,0.996,1.923,1.684,2.289
	l11.605,6.418c0.684,0.368,1.538,0.111,1.902-0.573l0.951-1.779c0.002-0.003,0.002-0.006,0.004-0.011
	c0.004-0.006,0.009-0.012,0.013-0.019c1.179-2.201,0.348-4.938-1.852-6.119l-6.69-4.861c-2.2-1.178-4.938-0.348-6.118,1.854
	C170.437,357.008,170.434,357.014,170.431,357.019z"/>
<path fill="#FFFFFF" d="M167.218,348.499v8.063c0,2.705,1.708,4.996,4.116,5.821l9.349-4.237L167.218,348.499z"/>
<path fill="#FFFFFF" d="M175.165,348.954c0.622-1.163,2.066-1.604,3.229-0.982l3.127,1.666c1.161,0.621,1.604,2.067,0.98,3.23
	l-2.726,5.111c-0.622,1.164-2.066,1.603-3.229,0.983l-3.125-1.667c-1.165-0.621-1.604-2.067-0.983-3.229L175.165,348.954z"/>
<path fill="#E62519" d="M155.177,321.526h20.09c3.559,0,6.444-2.887,6.444-6.447h-26.534V321.526L155.177,321.526z"/>
<path fill="#F8CFB1" d="M177.927,268.161h-4.929v6.282h1.866v2.193c0,1.69,1.37,3.062,3.062,3.062c1.689,0,3.061-1.372,3.061-3.062
	v-5.417C180.988,269.53,179.616,268.161,177.927,268.161z"/>
<path fill="#FBCD00" d="M156.73,248.908c0,1.812-1.471,3.281-3.279,3.281h-5.642c-1.812,0-3.278-1.469-3.278-3.281v-28.412
	c0-1.812,1.468-3.281,3.278-3.281h5.642c1.812,0,3.279,1.47,3.279,3.281V248.908z"/>
<path fill="#FBCD00" d="M205.078,248.908c0,1.812-1.468,3.281-3.28,3.281h-5.641c-1.812,0-3.279-1.469-3.279-3.281v-28.412
	c0-1.812,1.472-3.281,3.279-3.281h5.641c1.812,0,3.28,1.47,3.28,3.281V248.908z"/>
<path fill="#FBCD00" d="M131.56,150.034c0,2.562-2.077,4.642-4.643,4.642h-1.376c-2.562,0-4.641-2.078-4.641-4.642v-7.272
	c0-2.563,2.077-4.643,4.641-4.643h1.376c2.563,0,4.643,2.078,4.643,4.643V150.034z"/>
<path fill="#FBCD00" d="M178.162,150.034c0,2.562-2.077,4.642-4.642,4.642h-1.377c-2.562,0-4.64-2.078-4.64-4.642v-7.272
	c0-2.563,2.075-4.643,4.64-4.643h1.377c2.562,0,4.642,2.078,4.642,4.643V150.034z"/>
<path fill="#FBCD00" d="M224.766,150.034c0,2.562-2.076,4.642-4.643,4.642h-1.376c-2.562,0-4.64-2.078-4.64-4.642v-7.272
	c0-2.563,2.075-4.643,4.64-4.643h1.376c2.564,0,4.643,2.078,4.643,4.643V150.034z"/>
<line fill="none" stroke="#0097B0" stroke-width="3" stroke-linecap="round" stroke-miterlimit="10" x1="84.955" y1="159.839" x2="140.964" y2="215.283"/>
<line fill="none" stroke="#0097B0" stroke-width="3" stroke-linecap="round" stroke-miterlimit="10" x1="129.145" y1="159.839" x2="149.359" y2="213.031"/>
<line fill="none" stroke="#0097B0" stroke-width="3" stroke-linecap="round" stroke-miterlimit="10" x1="170.214" y1="158.431" x2="158.239" y2="215.283"/>
<line fill="none" stroke="#0097B0" stroke-width="3" stroke-linecap="round" stroke-miterlimit="10" x1="262.926" y1="159.839" x2="206.919" y2="215.283"/>
<line fill="none" stroke="#0097B0" stroke-width="3" stroke-linecap="round" stroke-miterlimit="10" x1="218.741" y1="159.839" x2="198.526" y2="213.031"/>
<line fill="none" stroke="#0097B0" stroke-width="3" stroke-linecap="round" stroke-miterlimit="10" x1="177.67" y1="158.431" x2="189.646" y2="215.283"/>
<g>
	<path fill="#E62519" d="M77.776,327.86c0,15.354-12.446,27.803-27.802,27.803c-15.354,0-27.802-12.446-27.802-27.803
		c0-15.355,12.446-27.802,27.802-27.802C65.329,300.058,77.776,312.508,77.776,327.86z M49.974,357.599
		c-1.717,0-3.108,1.394-3.108,3.106h6.219C53.081,358.992,51.691,357.599,49.974,357.599z"/>
	<g>
		<path fill="#D22417" d="M49.974,357.599v3.106h3.106C53.081,358.992,51.692,357.6,49.974,357.599z"/>
		<path fill="#D22417" d="M49.974,300.058v55.604c15.355,0,27.804-12.446,27.804-27.803
			C77.778,312.504,65.33,300.058,49.974,300.058z"/>
	</g>
</g>
<line fill="none" stroke="#0097B0" stroke-width="3" stroke-linecap="round" stroke-miterlimit="10" x1="50.128" y1="364.067" x2="50.128" y2="445.658"/>
<path fill="#FFFFFF" d="M62.991,453.441c-1.185-1.186-2.556-2.062-4.021-2.641v-10.013l-11.805,11.806
	c-0.326,0.266-0.643,0.543-0.942,0.848l-12.418,12.42c-0.017-0.022-0.026-0.046-0.04-0.067l-6.247,6.243
	c-1.093,1.096-2.854,1.106-3.97,0.043c-0.486-0.511-0.793-1.198-0.793-1.961v-9.907c-5.072,0.728-8.979,5.076-8.979,10.353
	c0,5.782,4.688,10.473,10.471,10.473c0.761,0,1.495-0.09,2.209-0.241v24.396c0,2.655,2.153,4.812,4.812,4.812
	s4.811-2.154,4.811-4.812V492.54l26.914-26.91C67.62,460.993,67.62,458.071,62.991,453.441z"/>
<path fill="#FFFFFF" d="M72.838,464.027c1.878,1.878,1.878,4.924,0,6.804l0,0c-1.882,1.88-4.927,1.88-6.807,0l-10.52-10.521
	c-1.879-1.879-1.879-4.927,0-6.805l0,0c1.88-1.879,4.928-1.879,6.806,0L72.838,464.027z"/>
<path fill="#FFFFFF" d="M74.366,478.717c0,2.655-2.153,4.812-4.81,4.812l0,0c-2.661-0.001-4.814-2.153-4.814-4.812v-11.123
	c0.001-2.656,2.153-4.812,4.812-4.812l0,0c2.656,0.001,4.812,2.154,4.812,4.812V478.717L74.366,478.717z"/>
<g>
	<path fill="#FFFFFF" d="M88.504,431.004v5.817c0,0.079-0.066,0.125-0.08,0.204c-0.225,3.044-2.696,5.468-5.805,5.468H72.011
		c-3.105,0-5.579-2.43-5.806-5.477c-0.014-0.071-0.077-0.124-0.077-0.195v-5.817c0-0.679,0.56-1.224,1.228-1.224h19.925
		C87.957,429.781,88.504,430.325,88.504,431.004z M84.28,447.607c0-0.979-0.795-1.776-1.773-1.776h-11.06
		c-0.979,0-1.774,0.797-1.774,1.776l0,0c0,0.979,0.797,1.773,1.774,1.773h11.06C83.485,449.384,84.28,448.587,84.28,447.607
		L84.28,447.607z"/>
	<path fill="#C1711B" d="M78.213,431.704c-0.226-3.045-2.697-5.476-5.804-5.476h-7.752c-3.106,0-5.581,2.423-5.805,5.469
		c-0.015,0.079-0.08,0.125-0.08,0.203v10.362c0,0.678,0.545,1.223,1.223,1.223h4.45v5.896H78.29v-7.116v-7.496v-2.867
		C78.29,431.829,78.227,431.776,78.213,431.704z"/>
	<path fill="#FFFFFF" d="M79.866,431.704c-0.223-3.045-3.521-5.476-6.63-5.476h-2.479c3.104,0,5.578,2.43,5.803,5.476
		c0.016,0.072,0.08,0.125,0.08,0.197v2.866v7.495v7.117h3.309v-7.117v-7.495v-2.866C79.947,431.829,79.882,431.776,79.866,431.704z"
		/>
</g>
<path fill="#C1711B" d="M73.344,449.279c0,4.855-3.94,8.797-8.788,8.797l0,0c-4.858,0-8.799-3.939-8.799-8.797v-14.252
	c0-4.856,3.938-8.798,8.799-8.798l0,0c4.848,0,8.788,3.938,8.788,8.798V449.279z"/>
<path d="M78.129,432.929c0,0.935-0.76,1.688-1.689,1.688s-1.688-0.756-1.688-1.688c0-0.934,0.758-1.688,1.688-1.688
	C77.369,431.241,78.129,431.997,78.129,432.929z"/>
<path fill="#C1711B" d="M49.828,464.608c-0.004-0.12,0.01-0.238,0-0.356c0.014-0.012-0.011-0.025,0-0.036v-14.247l-2.661,2.629
	c-0.324,0.264-0.643,0.544-0.942,0.847l-12.418,12.419c-0.017-0.022-0.024-0.045-0.04-0.067l-6.246,6.244
	c-0.312,0.312-0.676,0.522-1.062,0.66v8.095l0,0v0.181v0.557c0,2.644,2.146,4.782,4.785,4.782c0.689,0,1.345-0.146,1.937-0.409
	c0.01,0.021,0.021,0.036,0.026,0.058c1.104-0.361,2.087-0.986,2.875-1.808l10.189-10.451c0.002-0.007,0.006-0.014,0.009-0.021
	c2.135-2.147,3.486-5.077,3.576-8.324L49.828,464.608z"/>
<path fill="#844819" d="M31.872,486.552c2.876,0,5.206-2.33,5.206-5.207V464.18c0-0.484-0.07-0.952-0.195-1.397l-9.574,9.34
	c-0.254,0.255-0.544,0.441-0.854,0.579v8.988C26.455,484.565,28.995,486.552,31.872,486.552z"/>
<path fill="#844819" d="M55.762,449.384c0.059,4.812,3.97,8.693,8.794,8.693c4.812,0,8.728-3.883,8.781-8.693H55.762z"/>
<g>
	<path fill="#E62519" d="M55.604,393.383c0,15.355-12.446,27.805-27.802,27.805c-15.354,0-27.804-12.446-27.804-27.805
		c0-15.354,12.447-27.801,27.804-27.801C43.157,365.584,55.604,378.028,55.604,393.383z M27.802,423.122
		c-1.72,0-3.107,1.395-3.107,3.107h6.218C30.909,424.514,29.517,423.122,27.802,423.122z"/>
	<g>
		<path fill="#D22417" d="M27.803,423.122v3.107h3.105C30.909,424.514,29.518,423.123,27.803,423.122z"/>
		<path fill="#D22417" d="M27.803,365.584v55.604c15.354-0.001,27.801-12.446,27.801-27.805
			C55.604,378.028,43.157,365.584,27.803,365.584z"/>
	</g>
</g>
<line fill="none" stroke="#0097B0" stroke-width="3" stroke-linecap="round" stroke-miterlimit="10" x1="27.803" y1="431.576" x2="27.803" y2="465.86"/>
<path fill="#1C1B1A" d="M87.364,429.78h-2.752c0,0.011-0.006,0.023-0.006,0.036c0,1.434,1.165,2.599,2.6,2.599h1.299v-1.495
	C88.504,430.288,87.995,429.78,87.364,429.78z"/>
<path fill="#F3A300" d="M173.313-0.001c40.224,0,72.833,51.006,72.833,113.924c0,5.482-0.253,10.873-0.73,16.15h-0.312
	c-0.027,0.343-0.072,0.676-0.11,1.013c8.396,1.053,14.979,7.886,15.647,16.396h0.033c0.085,2.397,0.45,4.929,1.517,6.166
	c2.346,2.72,5.723,0,5.723,0l12.776-12.744l-0.051,0.002c2.657-2.949,4.454-6.689,4.965-10.833h0.486
	c0.749-5.276,1.146-10.668,1.146-16.15C287.236,51.005,236.231-0.001,173.313-0.001z"/>
</svg>
