<?xml version="1.0" encoding="utf-8"?>
<!-- Generator: Adobe Illustrator 16.0.0, SVG Export Plug-In . SVG Version: 6.00 Build 0)  -->
<!DOCTYPE svg PUBLIC "-//W3C//DTD SVG 1.1//EN" "http://www.w3.org/Graphics/SVG/1.1/DTD/svg11.dtd">
<svg version="1.1" id="Layer_1" xmlns="http://www.w3.org/2000/svg" xmlns:xlink="http://www.w3.org/1999/xlink" x="0px" y="0px"
	 width="165.747px" height="88.809px" viewBox="-89.137 -239.5 165.747 88.809"
	 enable-background="new -89.137 -239.5 165.747 88.809" xml:space="preserve">
<g>
	<path fill="#FFFFFF" d="M15.793-208.368c0,17.193-13.938,31.132-31.133,31.132H-28.32c-17.192,0-31.132-13.938-31.132-31.132l0,0
		c0-17.194,13.939-31.132,31.132-31.132h12.979C1.855-239.5,15.793-225.562,15.793-208.368L15.793-208.368z"/>
	<path fill="#FFFFFF" d="M76.61-181.824c0,17.193-13.938,31.133-31.133,31.133H-58.005c-17.193,0-31.132-13.938-31.132-31.133l0,0
		c0-17.193,13.938-31.132,31.132-31.132H45.478C62.673-212.956,76.61-199.018,76.61-181.824L76.61-181.824z"/>
</g>
</svg>
