<?xml version="1.0" encoding="utf-8"?>
<!-- Generator: Adobe Illustrator 16.0.0, SVG Export Plug-In . SVG Version: 6.00 Build 0)  -->
<!DOCTYPE svg PUBLIC "-//W3C//DTD SVG 1.1//EN" "http://www.w3.org/Graphics/SVG/1.1/DTD/svg11.dtd">
<svg version="1.1" id="Layer_1" xmlns="http://www.w3.org/2000/svg" xmlns:xlink="http://www.w3.org/1999/xlink" x="0px" y="0px"
	 width="685px" height="288.723px" viewBox="71.273 648.353 685 288.723" enable-background="new 71.273 648.353 685 288.723"
	 xml:space="preserve">
<g>
	<path fill="#FFFFFF" d="M258.915,779.838c0,23.967-19.428,43.396-43.396,43.396H114.668c-23.968,0-43.395-19.431-43.395-43.396l0,0
		c0-23.969,19.428-43.397,43.395-43.397h100.851C239.487,736.44,258.915,755.869,258.915,779.838L258.915,779.838z"/>
	<path fill="#FFFFFF" d="M330.348,822.899c0,23.967-19.43,43.396-43.396,43.396H186.1c-23.967,0-43.396-19.429-43.396-43.396l0,0
		c0-23.967,19.428-43.396,43.396-43.396h100.852C310.917,779.504,330.348,798.93,330.348,822.899L330.348,822.899z"/>
	<path fill="#FFFFFF" d="M380.75,779.838c0,23.967-19.427,43.396-43.396,43.396H236.503c-23.965,0-43.395-19.429-43.395-43.396l0,0
		c0-23.967,19.429-43.397,43.395-43.397h100.852C361.323,736.44,380.75,755.869,380.75,779.838L380.75,779.838z"/>
	<path fill="#FFFFFF" d="M364.411,720.586c0,23.967-19.43,43.396-43.396,43.396h-40.403c-23.967,0-43.395-19.429-43.395-43.396l0,0
		c0-23.967,19.427-43.396,43.395-43.396h40.403C344.981,677.188,364.411,696.619,364.411,720.586L364.411,720.586z"/>
	<path fill="#FFFFFF" d="M439.358,767.662c0,30.69-24.882,55.571-55.573,55.571h-97.083c-30.691,0-55.572-24.881-55.572-55.571l0,0
		c0-30.691,24.881-55.572,55.572-55.572h97.083C414.478,712.09,439.358,736.97,439.358,767.662L439.358,767.662z"/>
	<circle fill="#FFFFFF" cx="227.068" cy="717.382" r="69.028"/>
	<g>
		<path fill="#FFFFFF" d="M655.769,731.413c0,16.32-13.231,29.552-29.552,29.552h-12.319c-16.319,0-29.551-13.231-29.551-29.552l0,0
			c0-16.32,13.233-29.551,29.551-29.551h12.319C642.537,701.862,655.769,715.094,655.769,731.413L655.769,731.413z"/>
		<path fill="#FFFFFF" d="M713.498,756.61c0,16.32-13.231,29.551-29.551,29.551h-98.229c-16.32,0-29.552-13.23-29.552-29.551l0,0
			c0-16.318,13.232-29.551,29.552-29.551h98.229C700.268,727.059,713.498,740.29,713.498,756.61L713.498,756.61z"/>
	</g>
	<path fill="#FFFFFF" d="M682.719,937.076h27.878c1.001,0,1.972-0.124,2.901-0.354c0.929,0.229,1.9,0.354,2.899,0.354h27.88
		c6.625,0,11.996-5.369,11.996-11.995s-5.371-11.997-11.996-11.997h-4.247c0-6.624-5.37-11.995-11.995-11.995h-5.001
		c-6.626,0-11.996,5.371-11.996,11.995c0,0.006,0,0.008,0,0.014c-0.147-0.006-0.293-0.014-0.439-0.014h-27.877
		c-6.626,0-11.997,5.371-11.997,11.997C670.723,931.707,676.093,937.076,682.719,937.076z"/>
</g>
</svg>
