<?xml version="1.0" encoding="utf-8"?>
<!-- Generator: Adobe Illustrator 16.0.0, SVG Export Plug-In . SVG Version: 6.00 Build 0)  -->
<!DOCTYPE svg PUBLIC "-//W3C//DTD SVG 1.1//EN" "http://www.w3.org/Graphics/SVG/1.1/DTD/svg11.dtd">
<svg version="1.1" id="Layer_1" xmlns="http://www.w3.org/2000/svg" xmlns:xlink="http://www.w3.org/1999/xlink" x="0px" y="0px"
	 width="789px" height="167.542px" viewBox="623.485 575.194 789 167.542" enable-background="new 623.485 575.194 789 167.542"
	 xml:space="preserve">
<g id="Layer_2">
</g>
<g id="Layer_1_1_">
	<polygon fill="#FBCD00" points="623.485,671.232 954.376,671.232 954.376,602.015 	"/>
	<polygon fill="#F3A300" points="623.485,671.233 954.376,671.233 954.376,707.349 	"/>
	<g>
		<path fill="#F8CFB1" d="M736.392,725.281c-0.242-1.024,0.059-1.872,0.621-2.47c-1.021-0.89-2.354-1.434-3.816-1.434
			c-3.216,0-5.823,2.608-5.823,5.825c0,2.057,1.07,3.86,2.683,4.896c0.018-0.008,0.037-0.011,0.056-0.019
			c0.278,0.129,0.589,0.205,0.916,0.205c1.198,0,2.17-0.971,2.17-2.169c0-0.073-0.004-0.146-0.011-0.215
			c0.004-0.004,0.006-0.011,0.01-0.017v-2.682h2.677c0.083,0.009,0.167,0.016,0.252,0.016c0.251,0,0.488-0.051,0.715-0.131
			C736.686,726.489,736.533,725.886,736.392,725.281z"/>
		<circle fill="#F8CFB1" cx="764.342" cy="691.273" r="15.672"/>
		<circle fill="#844819" cx="768.413" cy="695.433" r="1.145"/>
		<circle fill="#844819" cx="777.011" cy="695.433" r="1.145"/>
		<path fill="#FFFFFF" d="M782.194,686.178c0-0.206-0.029-0.402-0.075-0.594c0.003-0.003,0.005-0.005,0.007-0.006
			c-2.049-8.036-9.333-13.981-18.006-13.981c-10.264,0-18.584,8.321-18.584,18.583c0,0.342,0.012,0.679,0.029,1.015
			c-0.018,0.198-0.029,0.399-0.029,0.602c0,3.521,2.855,6.378,6.378,6.378s6.378-2.856,6.378-6.378c0-0.178-0.012-0.352-0.025-0.523
			v-2.502h21.508c0-0.007-0.003-0.014-0.004-0.019C781.121,688.666,782.194,687.552,782.194,686.178z"/>
		<path fill="#FFFFFF" d="M787.83,687.263c0,0.898-0.728,1.627-1.627,1.627h-24.17c-0.898,0-1.627-0.729-1.627-1.627l0,0
			c0-0.898,0.729-1.629,1.627-1.629h24.17C787.103,685.635,787.83,686.366,787.83,687.263L787.83,687.263z"/>
		<path fill="#FFFFFF" d="M810.242,717.396c0,4.662-3.779,8.237-8.441,8.237h-25.624c-4.663,0-8.443-3.574-8.443-8.237l0,0
			c0-4.661,3.78-8.441,8.443-8.441h25.624C806.463,708.956,810.242,712.736,810.242,717.396L810.242,717.396z"/>
		<path fill="#FFFFFF" d="M762.768,733.403l-18.094-1.856c-2.215,0-4.012-1.796-4.012-4.012c0-2.217,1.797-4.014,4.012-4.014
			l15.556-1.855l9.842-10.463c2.218-2.36,5.934-2.475,8.295-0.254c2.362,2.221,2.474,5.935,0.254,8.296l-11.579,12.31
			C765.933,732.734,764.385,733.403,762.768,733.403z"/>
		<path fill="#546E72" d="M772.635,725.634h4.182c0,0,7.839-4.256,7.839-12.021v-4.656h-4.222v3.971c0,0,0.227,3.509-2.095,6.339
			C775.662,722.524,772.635,725.634,772.635,725.634z"/>
		<path fill="#E62519" d="M839.735,725.922h-17.531l-13.62-16.009c-1.538-2.51-3.999-4.146-6.782-4.146h-11.185v20.154h10.668
			l13.883,14.76c1.327,1.328,2.994,2.055,4.718,2.055l19.851-3.938c4.082,0,7.39-3.051,7.39-6.812S843.817,725.922,839.735,725.922z
			"/>
		<path fill="#D22417" d="M822.349,736.303c-3.26,0.132-5.324-1.97-5.324-1.97l-15.975-19.435h-10.433v11.022h10.668l13.883,14.761
			c1.327,1.327,2.994,2.054,4.718,2.054l19.851-3.938c3.873,0,7.045-2.749,7.358-6.244
			C840.794,733.79,824.771,736.204,822.349,736.303z"/>
		<path fill="#546E72" d="M733.283,671.233c-0.028,0.141-0.043,0.284-0.043,0.435v58.463c0,1.201,0.973,2.175,2.173,2.175
			c1.201,0,2.174-0.975,2.174-2.175v-58.463c0-0.149-0.016-0.294-0.044-0.435H733.283z"/>
	</g>
	<polygon fill="#F19500" points="882.215,671.233 954.376,707.349 954.376,671.233 	"/>
	<polygon fill="#F8BF00" points="954.376,602.015 882.214,671.232 954.376,671.232 	"/>
	<path fill="#844819" d="M801.793,688.891h-21.779c0.658,4.955,4.893,8.783,10.027,8.783h21.777
		C811.161,692.718,806.928,688.891,801.793,688.891z"/>
	<path fill="#E62519" d="M794.488,711.395c0,1.07-0.865,1.935-1.936,1.935l0,0c-1.067,0-1.935-0.864-1.935-1.935v-5.801
		c0-1.07,0.866-1.936,1.935-1.936l0,0c1.07,0,1.936,0.865,1.936,1.936V711.395z"/>
	<path fill="#D22417" d="M794.488,726.446c0,1.069-0.865,1.935-1.936,1.935l0,0c-1.067,0-1.935-0.865-1.935-1.935v-5.802
		c0-1.069,0.866-1.935,1.935-1.935l0,0c1.07,0,1.936,0.865,1.936,1.935V726.446z"/>
	<g>
		<rect x="1122.892" y="652.424" fill="#FFFFFF" width="19.358" height="5.351"/>
		<rect x="1135.046" y="653.512" fill="#FFFFFF" width="3.764" height="3.536"/>
		<path fill="#FFFFFF" d="M1162.735,649.252h-19.071c-2.353,0-4.261,1.906-4.261,4.261c0,2.353,1.908,4.262,4.261,4.262h17.75h1.321
			h4.26v-4.262C1166.994,651.158,1165.085,649.252,1162.735,649.252z"/>
		<path fill="#C1711B" d="M1162.735,649.252h-5.095c2.352,0,4.262,1.906,4.262,4.261v4.262h0.833h4.26v-4.262
			C1166.994,651.158,1165.085,649.252,1162.735,649.252z"/>
		<path fill="#FFFFFF" d="M1142.612,632.026h-7.564v7.566v2.343v15.838h15.133v-18.182
			C1150.178,635.415,1146.79,632.026,1142.612,632.026z"/>
		<path fill="#C1711B" d="M1142.612,632.026h-7.564v6.654h7.564c4.18,0,7.566,3.391,7.566,7.566v-6.654
			C1150.178,635.415,1146.79,632.026,1142.612,632.026z"/>
		<path fill="#E62519" d="M1126.282,656.121c0,0.914-0.738,1.653-1.652,1.653h-10.378c-0.914,0-1.652-0.738-1.652-1.653l0,0
			c0-0.913,0.738-1.652,1.652-1.652h10.378C1125.544,654.469,1126.282,655.208,1126.282,656.121L1126.282,656.121z"/>
		<path fill="#FFFFFF" d="M1127.706,655.098c0,1.478-1.198,2.675-2.676,2.675h-5.044c-1.477,0-2.675-1.197-2.675-2.675l0,0
			c0-1.478,1.198-2.676,2.675-2.676h5.044C1126.509,652.424,1127.706,653.622,1127.706,655.098L1127.706,655.098z"/>
	</g>
	<g>
		<rect x="1277.092" y="699.152" fill="#FFFFFF" width="19.358" height="5.352"/>
		<rect x="1289.245" y="700.241" fill="#FFFFFF" width="3.766" height="3.536"/>
		<path fill="#FFFFFF" d="M1316.932,695.98h-19.069c-2.353,0-4.261,1.907-4.261,4.261c0,2.354,1.908,4.263,4.261,4.263h17.75h1.319
			h4.263v-4.263C1321.195,697.887,1319.286,695.98,1316.932,695.98z"/>
		<path fill="#C1711B" d="M1316.932,695.98h-5.094c2.354,0,4.263,1.907,4.263,4.261v4.263h0.831h4.263v-4.263
			C1321.195,697.887,1319.286,695.98,1316.932,695.98z"/>
		<path fill="#FFFFFF" d="M1296.812,678.755h-7.565v7.566v2.344v15.838h15.131V686.32
			C1304.376,682.146,1300.99,678.755,1296.812,678.755z"/>
		<path fill="#C1711B" d="M1296.812,678.755h-7.565v6.655h7.565c4.179,0,7.564,3.39,7.564,7.566v-6.655
			C1304.376,682.146,1300.99,678.755,1296.812,678.755z"/>
		<path fill="#E62519" d="M1280.482,702.85c0,0.911-0.737,1.653-1.652,1.653h-10.378c-0.914,0-1.652-0.741-1.652-1.653l0,0
			c0-0.914,0.738-1.652,1.652-1.652h10.378C1279.744,701.199,1280.482,701.936,1280.482,702.85L1280.482,702.85z"/>
		<path fill="#FFFFFF" d="M1281.906,701.829c0,1.477-1.198,2.675-2.675,2.675h-5.044c-1.477,0-2.675-1.198-2.675-2.675l0,0
			c0-1.478,1.198-2.677,2.675-2.677h5.044C1280.708,699.152,1281.906,700.351,1281.906,701.829L1281.906,701.829z"/>
	</g>
	<g>
		<rect x="1345.862" y="722.17" fill="#FFFFFF" width="19.358" height="5.352"/>
		<rect x="1358.016" y="723.259" fill="#FFFFFF" width="3.765" height="3.535"/>
		<path fill="#FFFFFF" d="M1385.702,718.998h-19.069c-2.352,0-4.262,1.907-4.262,4.261s1.91,4.263,4.262,4.263h17.75h1.319h4.262
			v-4.263C1389.964,720.905,1388.056,718.998,1385.702,718.998z"/>
		<path fill="#C1711B" d="M1385.702,718.998h-5.095c2.354,0,4.263,1.907,4.263,4.261v4.263h0.832h4.262v-4.263
			C1389.964,720.905,1388.056,718.998,1385.702,718.998z"/>
		<path fill="#FFFFFF" d="M1365.582,701.773h-7.566v7.565v2.344v15.838h15.132v-18.183
			C1373.147,705.163,1369.759,701.773,1365.582,701.773z"/>
		<path fill="#C1711B" d="M1365.582,701.773h-7.566v6.654h7.566c4.177,0,7.564,3.391,7.564,7.566v-6.655
			C1373.147,705.163,1369.759,701.773,1365.582,701.773z"/>
		<path fill="#E62519" d="M1349.253,725.868c0,0.912-0.739,1.653-1.653,1.653h-10.377c-0.914,0-1.654-0.74-1.654-1.653l0,0
			c0-0.914,0.739-1.654,1.654-1.654h10.377C1348.513,724.215,1349.253,724.954,1349.253,725.868L1349.253,725.868z"/>
		<path fill="#FFFFFF" d="M1350.676,724.846c0,1.478-1.197,2.675-2.675,2.675h-5.045c-1.477,0-2.675-1.197-2.675-2.675l0,0
			c0-1.478,1.198-2.677,2.675-2.677h5.045C1349.479,722.17,1350.676,723.369,1350.676,724.846L1350.676,724.846z"/>
	</g>
	<rect x="1227.018" y="625.286" fill="#FFFFFF" width="19.358" height="5.352"/>
	<rect x="1239.17" y="626.376" fill="#FFFFFF" width="3.766" height="3.535"/>
	<path fill="#FFFFFF" d="M1266.861,622.114h-23.428c-2.351,0-4.263,1.907-4.263,4.262c0,2.354,1.912,4.261,4.263,4.261h22.105h1.321
		h4.261v-4.261C1271.12,624.021,1269.213,622.114,1266.861,622.114z"/>
	<path fill="#C1711B" d="M1266.861,622.114h-5.096c2.354,0,4.262,1.907,4.262,4.262v4.261h0.834h4.26v-4.261
		C1271.12,624.021,1269.213,622.114,1266.861,622.114z"/>
	<path fill="#FFFFFF" d="M1246.739,653.078h-7.566v-7.565v-2.343v-15.838h15.133v18.181
		C1254.302,649.69,1250.917,653.078,1246.739,653.078z"/>
	<path fill="#C1711B" d="M1246.739,653.078h-7.566v-6.654h7.566c4.179,0,7.564-3.388,7.564-7.565v6.654
		C1254.302,649.69,1250.917,653.078,1246.739,653.078z"/>
	<path fill="#E62519" d="M1230.408,628.984c0,0.914-0.739,1.653-1.652,1.653h-10.377c-0.914,0-1.654-0.739-1.654-1.653l0,0
		c0-0.914,0.739-1.652,1.654-1.652h10.377C1229.669,627.332,1230.408,628.07,1230.408,628.984L1230.408,628.984z"/>
	<path fill="#FFFFFF" d="M1231.833,627.963c0,1.476-1.198,2.674-2.675,2.674h-5.045c-1.476,0-2.675-1.198-2.675-2.674l0,0
		c0-1.478,1.199-2.677,2.675-2.677h5.045C1230.635,625.286,1231.833,626.485,1231.833,627.963L1231.833,627.963z"/>
	<rect x="1182.914" y="678.775" fill="#FFFFFF" width="19.359" height="5.351"/>
	<rect x="1195.069" y="679.863" fill="#FFFFFF" width="3.765" height="3.535"/>
	<path fill="#FFFFFF" d="M1222.757,675.602h-23.427c-2.353,0-4.262,1.908-4.262,4.261c0,2.354,1.909,4.263,4.262,4.263h22.105h1.321
		h4.261v-4.263C1227.018,677.51,1225.111,675.602,1222.757,675.602z"/>
	<path fill="#C1711B" d="M1222.757,675.602h-5.093c2.352,0,4.261,1.908,4.261,4.261v4.263h0.832h4.261v-4.263
		C1227.018,677.51,1225.111,675.602,1222.757,675.602z"/>
	<path fill="#FFFFFF" d="M1202.634,706.565h-7.565V699v-2.344v-15.838h15.132v18.183
		C1210.2,703.179,1206.813,706.565,1202.634,706.565z"/>
	<path fill="#C1711B" d="M1202.634,706.565h-7.565v-6.653h7.565c4.179,0,7.565-3.39,7.565-7.565v6.654
		C1210.2,703.179,1206.813,706.565,1202.634,706.565z"/>
	<path fill="#E62519" d="M1186.307,682.472c0,0.912-0.74,1.653-1.653,1.653h-10.377c-0.914,0-1.653-0.74-1.653-1.653l0,0
		c0-0.913,0.738-1.653,1.653-1.653h10.377C1185.566,680.819,1186.307,681.559,1186.307,682.472L1186.307,682.472z"/>
	<path fill="#FFFFFF" d="M1187.731,681.449c0,1.478-1.199,2.677-2.678,2.677h-5.041c-1.478,0-2.676-1.199-2.676-2.677l0,0
		c0-1.478,1.198-2.675,2.676-2.675h5.041C1186.531,678.775,1187.731,679.971,1187.731,681.449L1187.731,681.449z"/>
	<rect x="1288.61" y="597.496" fill="#FFFFFF" width="19.358" height="5.35"/>
	<rect x="1300.764" y="598.584" fill="#FFFFFF" width="3.765" height="3.535"/>
	<path fill="#FFFFFF" d="M1328.451,594.323h-23.427c-2.354,0-4.261,1.906-4.261,4.261c0,2.354,1.907,4.261,4.261,4.261h22.106h1.32
		h4.262v-4.261C1332.713,596.23,1330.804,594.323,1328.451,594.323z"/>
	<path fill="#C1711B" d="M1328.451,594.323h-5.094c2.352,0,4.261,1.906,4.261,4.261v4.261h0.833h4.262v-4.261
		C1332.713,596.23,1330.804,594.323,1328.451,594.323z"/>
	<path fill="#FFFFFF" d="M1308.329,625.286h-7.564v-7.564v-2.344v-15.839h15.131v18.183
		C1315.895,621.899,1312.507,625.286,1308.329,625.286z"/>
	<path fill="#C1711B" d="M1308.329,625.286h-7.564v-6.653h7.564c4.179,0,7.565-3.39,7.565-7.565v6.655
		C1315.895,621.899,1312.507,625.286,1308.329,625.286z"/>
	<path fill="#E62519" d="M1292,601.193c0,0.913-0.738,1.652-1.652,1.652h-10.378c-0.912,0-1.653-0.739-1.653-1.652l0,0
		c0-0.913,0.739-1.653,1.653-1.653h10.378C1291.262,599.54,1292,600.279,1292,601.193L1292,601.193z"/>
	<path fill="#FFFFFF" d="M1293.424,600.17c0,1.478-1.198,2.676-2.676,2.676h-5.044c-1.477,0-2.675-1.197-2.675-2.676l0,0
		c0-1.477,1.198-2.674,2.675-2.674h5.044C1292.227,597.496,1293.424,598.691,1293.424,600.17L1293.424,600.17z"/>
	<rect x="1368.381" y="578.366" fill="#FFFFFF" width="19.359" height="5.351"/>
	<rect x="1380.534" y="579.456" fill="#FFFFFF" width="3.765" height="3.535"/>
	<path fill="#FFFFFF" d="M1408.223,575.194h-23.427c-2.353,0-4.263,1.907-4.263,4.262c0,2.353,1.91,4.261,4.263,4.261h22.104h1.32
		h4.264v-4.261C1412.485,577.101,1410.576,575.194,1408.223,575.194z"/>
	<path fill="#C1711B" d="M1408.223,575.194h-5.095c2.352,0,4.262,1.907,4.262,4.262v4.261h0.833h4.262v-4.261
		C1412.485,577.101,1410.576,575.194,1408.223,575.194z"/>
	<path fill="#FFFFFF" d="M1388.101,606.158h-7.565v-7.565v-2.345v-15.837h15.133v18.181
		C1395.666,602.769,1392.28,606.158,1388.101,606.158z"/>
	<path fill="#C1711B" d="M1388.101,606.158h-7.565v-6.655h7.565c4.178,0,7.565-3.39,7.565-7.565v6.655
		C1395.666,602.769,1392.28,606.158,1388.101,606.158z"/>
	<path fill="#E62519" d="M1371.774,582.064c0,0.914-0.741,1.652-1.655,1.652h-10.377c-0.913,0-1.653-0.738-1.653-1.652l0,0
		c0-0.914,0.739-1.653,1.653-1.653h10.377C1371.032,580.412,1371.774,581.15,1371.774,582.064L1371.774,582.064z"/>
	<path fill="#FFFFFF" d="M1373.195,581.042c0,1.478-1.197,2.675-2.675,2.675h-5.045c-1.477,0-2.675-1.197-2.675-2.675l0,0
		c0-1.477,1.198-2.676,2.675-2.676h5.045C1371.998,578.366,1373.195,579.565,1373.195,581.042L1373.195,581.042z"/>
</g>
</svg>
