<?xml version="1.0" encoding="utf-8"?>
<!-- Generator: Adobe Illustrator 16.0.0, SVG Export Plug-In . SVG Version: 6.00 Build 0)  -->
<!DOCTYPE svg PUBLIC "-//W3C//DTD SVG 1.1//EN" "http://www.w3.org/Graphics/SVG/1.1/DTD/svg11.dtd">
<svg version="1.1" id="Layer_1" xmlns="http://www.w3.org/2000/svg" xmlns:xlink="http://www.w3.org/1999/xlink" x="0px" y="0px"
	 width="344.615px" height="706.106px" viewBox="37.908 78.866 344.615 706.106"
	 enable-background="new 37.908 78.866 344.615 706.106" xml:space="preserve">
<g>
	<g>
		<path fill="#FBCD00" d="M199.92,566.415c0,1.176-0.952,2.126-2.125,2.126l0,0c-1.174,0-2.125-0.95-2.125-2.126v-33.296
			c0-1.174,0.952-2.126,2.125-2.126l0,0c1.174,0,2.125,0.952,2.125,2.126V566.415z"/>
		<path fill="#FBCD00" d="M199.92,782.846c0,1.174-0.952,2.126-2.125,2.126l0,0c-1.174,0-2.125-0.952-2.125-2.126v-82.145
			c0-1.174,0.952-2.126,2.125-2.126l0,0c1.174,0,2.125,0.952,2.125,2.126V782.846z"/>
		<path fill="#FBCD00" d="M170.565,782.846c0,1.174-0.952,2.126-2.125,2.126l0,0c-1.174,0-2.125-0.952-2.125-2.126V543.244
			c0-1.174,0.952-2.126,2.125-2.126l0,0c1.174,0,2.125,0.952,2.125,2.126V782.846z"/>
		<path fill="#FBCD00" d="M197.795,559.502c0,1.176-0.954,2.13-2.129,2.13H170.57c-1.176,0-2.13-0.954-2.13-2.13l0,0
			c0-1.177,0.954-2.131,2.13-2.131h25.097C196.842,557.371,197.795,558.325,197.795,559.502L197.795,559.502z"/>
		<path fill="#FBCD00" d="M176.383,573.646c0,1.176-0.954,2.129-2.13,2.129h-4.903c-1.176,0,0-0.953,0-2.129l0,0
			c0-1.177-1.176-2.13,0-2.13h4.903C175.428,571.516,176.383,572.469,176.383,573.646L176.383,573.646z"/>
		<path fill="#FBCD00" d="M176.383,587.79c0,1.177-0.954,2.131-2.13,2.131h-4.903c-1.176,0,0-0.954,0-2.131l0,0
			c0-1.176-1.176-2.129,0-2.129h4.903C175.428,585.661,176.383,586.614,176.383,587.79L176.383,587.79z"/>
		<path fill="#FBCD00" d="M175.479,601.935c0,1.176-0.954,2.129-2.13,2.129h-4c-1.176,0,0-0.953,0-2.129l0,0
			c0-1.176-1.176-2.13,0-2.13h4C174.526,599.806,175.479,600.76,175.479,601.935L175.479,601.935z"/>
		<path fill="#FBCD00" d="M192.33,616.081c0,1.177-0.954,2.131-2.129,2.131H169.35c-1.176,0,0-0.954,0-2.131l0,0
			c0-1.176-1.176-2.13,0-2.13H190.2C191.376,613.951,192.33,614.905,192.33,616.081L192.33,616.081z"/>
		<path fill="#FBCD00" d="M187.564,630.225c0,1.176-0.953,2.13-2.129,2.13H169.35c-1.176,0,0-0.954,0-2.13l0,0
			c0-1.177-1.176-2.13,0-2.13h16.085C186.611,628.095,187.564,629.05,187.564,630.225L187.564,630.225z"/>
		<path fill="#FBCD00" d="M179.521,644.37c0,1.177-0.953,2.13-2.129,2.13h-8.042c-1.176,0,0-0.953,0-2.13l0,0
			c0-1.176-1.176-2.129,0-2.129h8.042C178.568,642.241,179.521,643.194,179.521,644.37L179.521,644.37z"/>
		<path fill="#FBCD00" d="M179.521,658.516c0,1.176-0.953,2.129-2.129,2.129h-8.042c-1.176,0,0-0.953,0-2.129l0,0
			c0-1.177-1.176-2.13,0-2.13h8.042C178.568,656.386,179.521,657.341,179.521,658.516L179.521,658.516z"/>
		<path fill="#FBCD00" d="M175.479,672.661c0,1.177-0.954,2.13-2.13,2.13h-4c-1.176,0,0-0.953,0-2.13l0,0c0-1.176-1.176-2.13,0-2.13
			h4C174.526,670.531,175.479,671.485,175.479,672.661L175.479,672.661z"/>
		<path fill="#FBCD00" d="M194.152,686.805c0,1.176-0.954,2.129-2.129,2.129H170.57c-1.176,0-2.13-0.953-2.13-2.129l0,0
			c0-1.177,0.954-2.13,2.13-2.13h21.452C193.198,684.677,194.152,685.63,194.152,686.805L194.152,686.805z"/>
		<path fill="#FBCD00" d="M197.795,700.951c0,1.177-0.954,2.13-2.129,2.13H170.57c-1.176,0-2.13-0.953-2.13-2.13l0,0
			c0-1.176,0.954-2.13,2.13-2.13h25.097C196.842,698.821,197.795,699.775,197.795,700.951L197.795,700.951z"/>
		<path fill="#FBCD00" d="M197.795,715.095c0,1.177-0.954,2.13-2.129,2.13H170.57c-1.176,0-2.13-0.953-2.13-2.13l0,0
			c0-1.176,0.954-2.129,2.13-2.129h25.097C196.842,712.968,197.795,713.921,197.795,715.095L197.795,715.095z"/>
		<path fill="#FBCD00" d="M197.795,729.24c0,1.176-0.954,2.131-2.129,2.131H170.57c-1.176,0-2.13-0.955-2.13-2.131l0,0
			c0-1.176,0.954-2.129,2.13-2.129h25.097C196.842,727.111,197.795,728.064,197.795,729.24L197.795,729.24z"/>
		<path fill="#FBCD00" d="M197.795,743.385c0,1.176-0.954,2.129-2.129,2.129H170.57c-1.176,0-2.13-0.953-2.13-2.129l0,0
			c0-1.177,0.954-2.13,2.13-2.13h25.097C196.842,741.258,197.795,742.209,197.795,743.385L197.795,743.385z"/>
		<path fill="#FBCD00" d="M197.795,757.531c0,1.176-0.954,2.13-2.129,2.13H170.57c-1.176,0-2.13-0.954-2.13-2.13l0,0
			c0-1.176,0.954-2.13,2.13-2.13h25.097C196.842,755.401,197.795,756.355,197.795,757.531L197.795,757.531z"/>
		<path fill="#FBCD00" d="M197.795,771.677c0,1.177-0.954,2.13-2.129,2.13H170.57c-1.176,0-2.13-0.953-2.13-2.13l0,0
			c0-1.177,0.954-2.13,2.13-2.13h25.097C196.842,769.547,197.795,770.5,197.795,771.677L197.795,771.677z"/>
	</g>
	<path fill="#FBCD00" d="M198.687,493.276h-32.52h-10.942v10.941v13.483v15.651c0,6.018,4.924,10.942,10.942,10.942h32.52
		c6.02,0,10.942-4.925,10.942-10.942v-15.651v-13.483v-10.941H198.687L198.687,493.276z"/>
	<path fill="#F3A300" d="M182.427,493.276v51.02h16.259c6.02,0,10.941-4.925,10.941-10.941v-15.652v-13.483v-10.941h-10.941
		L182.427,493.276L182.427,493.276z"/>
	<path fill="#FFFFFF" d="M382.524,237.506c0,18.658-15.125,33.785-33.785,33.785h-78.516c-18.659,0-33.784-15.126-33.784-33.785l0,0
		c0-18.658,15.125-33.785,33.784-33.785h78.516C367.398,203.719,382.524,218.845,382.524,237.506L382.524,237.506z"/>
	<g>
		<path fill="#FFE9D8" d="M193.349,610.698l12.815-3.927l7.173,20.461h16.396v-19.395V607.5l-1.023-54.086h-6.984l-2.593,46.341
			h-11.724c-0.095,0-0.188,0.011-0.282,0.015H193.35c-1.259,0-3.275-0.015-3.275-5.521l0.021-17.077h-7.667l-2.29,20.317
			C180.137,604.772,186.064,610.698,193.349,610.698z"/>
		<path fill="#FFE9D8" d="M227.835,599.755h-2.694c0,0-3.529-0.152-3.529-3.266c0-3.11,0-9.791,0-9.791h-4.728h-4.077h-4.728
			c0,0,0,6.681,0,9.791c0,3.112-3.529,3.266-3.529,3.266h-2.694v5.313l12.99-1.215l14.89,1.215L227.835,599.755z"/>
		<path fill="#FFE9D8" d="M227.001,555.144l-4.949-0.94l-2.852-3.617c0,0-0.568-0.812,0.279-1.449
			c0.851-0.64,1.387-0.12,1.765,0.335c0.375,0.456,0.447,0.046,0.559-0.146c0.111-0.191,0.32-0.612-0.107-1.466
			c-0.425-0.854-1.171-2.478-0.33-2.922s1.345-0.424,1.873,0.805c0.529,1.229,0.616,1.499,0.987,1.556
			c0.372,0.057,0.877-0.271,0.975-0.912c0.096-0.646,0.283-1.855,0.283-1.855s0.276-0.94,1.161-0.871
			c0.886,0.072,1.066,0.969,0.946,1.601c-0.119,0.63-0.199,1.421-0.199,1.421s0.018,1.112,0.635,1.254
			c0.619,0.145,1.14-0.552,1.14-0.552l0.552-0.631c0,0,0.854-0.771,1.485-0.265c0.63,0.511,0.55,1.302-0.069,1.979
			c-0.619,0.679-1.36,1.184-1.468,1.646c-0.107,0.466-0.111,2.122-0.417,2.756c-0.308,0.632-0.866,1.455-1.274,1.799
			C227.567,555.009,227.001,555.144,227.001,555.144z"/>
		<path fill="#FFE9D8" d="M194.488,575.029c-0.511-1.217-1.41-0.997-2.101-0.743c-0.542,0.198-0.585-0.794-0.879-1.628
			c-0.008,0-0.017,0-0.026,0v-2.026c0-0.94-0.762-1.703-1.703-1.703c-0.939,0-1.701,0.763-1.701,1.703
			c0-0.94-0.764-1.703-1.704-1.703c-0.941,0-1.703,0.763-1.703,1.703c0-0.94-0.761-1.703-1.703-1.703
			c-0.941,0-1.703,0.763-1.703,1.703v2.985c0,0.121,0.014,0.24,0.038,0.354c-0.048,0.616-0.066,1.229,0.038,1.604
			c0.23,0.844,0.309,1.157,0.711,1.682c0.672,0.876,1.63,0.876,1.63,0.876l6.259-0.025l3.937-1.348
			C193.879,576.76,194.998,576.247,194.488,575.029z"/>
		<path fill="#E62519" d="M226.125,599.755c-1.821,3.641-5.575,6.147-9.924,6.147c-4.345,0-8.096-2.499-9.918-6.134h-12.935v10.93
			c0,0,6.242-1.008,8.504,3.815c1.823,3.889,1.808,12.719,0.989,16.432h-2.801v0.086h-0.85c-8.039,0-14.578,6.539-14.578,14.577
			v16.161h11.842l1.097-10.192c0.322-3.506,2.848-5.711,6.926-4.863l3.626,0.629l-0.801,1.794
			c-3.202,6.956-3.391,17.493-3.391,21.354v13.891h10.514l1.062-10.476c0.76-7.741,2.968-13.51,4.935-16.71l3.333-5.426
			c2.354-3.834,4.729-9.508,5.509-14.247c0.169-0.637,0.269-1.3,0.269-1.991l0.201-0.965v-2.214l0,0v-21.036v-3.48
			c0-0.112,0-0.219,0-0.339C229.733,599.104,226.125,599.755,226.125,599.755z"/>
		<path fill="#FFFFFF" d="M180.137,672.944h15.085c0,0,1.422-1.518,1.422-4.137c0-2.618,0-4.1,0-4.1h-10.133
			c0,0-3.757,0.911-5.92,2.848c-2.163,1.936-1.822,3.528-1.822,3.528s-0.056,0.884,0.399,1.339
			C179.623,672.877,180.137,672.944,180.137,672.944z"/>
		<path fill="#FFFFFF" d="M198.032,695.488h15.084c0,0,1.423-1.518,1.423-4.137s0-4.1,0-4.1h-10.134c0,0-3.757,0.911-5.921,2.848
			c-2.163,1.936-1.821,3.529-1.821,3.529s-0.058,0.882,0.398,1.338S198.032,695.488,198.032,695.488z"/>
		<path fill="#FFE9D8" d="M204.935,589.215c0,1.006-0.815,1.821-1.822,1.821l0,0c-1.006,0-1.82-0.815-1.82-1.821v-5.031
			c0-1.006,0.814-1.822,1.82-1.822l0,0c1.007,0,1.822,0.816,1.822,1.822V589.215z"/>
		<path fill="#FFE9D8" d="M219.385,579.127c0,1.341-1.087,2.428-2.428,2.428l0,0c-1.342,0-2.429-1.087-2.429-2.428v-6.704
			c0-1.341,1.087-2.428,2.429-2.428l0,0c1.341,0,2.428,1.087,2.428,2.428V579.127z"/>
		<path fill="#FFE9D8" d="M232.58,589.215c0,1.006-0.816,1.821-1.822,1.821l0,0c-1.005,0-1.821-0.815-1.821-1.821v-5.031
			c0-1.006,0.816-1.822,1.821-1.822l0,0c1.006,0,1.822,0.816,1.822,1.822V589.215z"/>
		<circle fill="#C1711B" cx="216.958" cy="586.224" r="12.956"/>
		<path fill="#D22417" d="M226.125,599.755c-1.715,3.429-5.144,5.85-9.167,6.122v34.142c0,0-2.481,7.572-8.517,7.515
			c-0.151-0.002-0.302,0.028-0.448,0.062l-0.689,1.54c-3.202,6.957-3.391,17.493-3.391,21.355v13.891h10.514l1.062-10.477
			c0.76-7.741,2.968-13.509,4.935-16.71l3.333-5.426c2.354-3.834,4.729-9.508,5.509-14.247c0.169-0.637,0.269-1.3,0.269-1.991
			l0.201-0.964v-2.215v-21.036v-3.48c0-0.112,0-0.219,0-0.339C229.733,599.104,226.125,599.755,226.125,599.755z"/>
		<path fill="#844819" d="M216.958,573.269c-0.046,0-0.09,0.007-0.134,0.008v25.896c0.045,0.001,0.089,0.009,0.134,0.009
			c7.154,0,12.957-5.801,12.957-12.957C229.915,579.07,224.113,573.269,216.958,573.269z"/>
	</g>
	<g>
		<polygon fill="#FFE9D8" points="227.302,520.469 220.796,520.469 217.607,503.168 226.315,503.168 		"/>
		<path fill="#FFE9D8" d="M226.425,519.036l-4.917,0.627l-3.019,3.387c0,0-0.605,0.765,0.19,1.44s1.354,0.201,1.75-0.225
			c0.397-0.427,0.444-0.019,0.541,0.176c0.097,0.196,0.278,0.622-0.191,1.437c-0.469,0.812-1.3,2.362-0.5,2.85
			s1.296,0.496,1.89-0.678c0.593-1.177,0.693-1.436,1.062-1.47c0.368-0.032,0.847,0.317,0.903,0.955
			c0.055,0.639,0.168,1.84,0.168,1.84s0.215,0.942,1.09,0.925c0.873-0.019,1.104-0.887,1.024-1.515
			c-0.079-0.626-0.111-1.407-0.111-1.407s0.081-1.091,0.697-1.194c0.617-0.104,1.087,0.61,1.087,0.61l0.504,0.652
			c0,0,0.794,0.812,1.444,0.35c0.647-0.464,0.617-1.244,0.05-1.948c-0.568-0.703-1.267-1.243-1.344-1.706
			c-0.077-0.462,0.017-2.092-0.246-2.732c-0.265-0.637-0.766-1.479-1.146-1.842C226.973,519.203,226.425,519.036,226.425,519.036z"
			/>
		<path fill="#E62519" d="M217.207,500.794h9.107v-11.742c0-8.027-6.507-14.534-14.535-14.534H195.84
			c-8.027,0-14.536,6.507-14.536,14.534v0.623h34.08L217.207,500.794z"/>
		<path fill="#D22417" d="M217.207,500.794h9.107v-11.742c0-8.027-6.507-14.534-14.535-14.534h-2.438
			c-8.027,0-14.535,6.507-14.535,14.534v0.623h20.578L217.207,500.794z"/>
		<circle fill="#FFE9D8" cx="220.725" cy="470.532" r="14.535"/>
		<path fill="#C1711B" d="M235.26,470.532c0-8.028-6.509-14.536-14.535-14.536c-8.028,0-14.536,6.508-14.536,14.536
			c0,1.771,0.334,3.462,0.914,5.032l11.641,0.059c2.82-0.475,5.015-2.446,5.446-4.927c0.408,2.484,2.581,4.479,5.397,4.981
			l4.709,0.022C234.911,474.094,235.26,472.355,235.26,470.532z"/>
		<path fill="#844819" d="M250.077,466.978c1.182-0.006,2.135-0.967,2.128-2.149c-0.006-1.181-0.968-2.133-2.149-2.126
			c1.183-0.007,2.134-0.969,2.128-2.148s-0.968-2.133-2.149-2.126c0,0-0.278,0.046-0.723-0.062h-5.645
			c-3.521,0-6.376,2.854-6.376,6.376s2.854,6.307,6.376,6.307h7.362c0.711-0.332,1.199-1.099,1.195-1.941
			C252.22,467.926,251.26,466.973,250.077,466.978z"/>
		<path fill="#C1711B" d="M191.623,466.978c-1.182-0.005-2.135-0.967-2.128-2.149c0.005-1.18,0.968-2.133,2.149-2.126
			c-1.183-0.007-2.135-0.968-2.128-2.147c0.006-1.182,0.967-2.133,2.149-2.127c0,0,0.278,0.046,0.722-0.062h5.644
			c3.522,0,6.377,2.854,6.377,6.376c0,3.522-2.854,6.308-6.377,6.308h-7.361c-0.71-0.332-1.2-1.099-1.195-1.942
			C189.48,467.926,190.441,466.973,191.623,466.978z"/>
		<path fill="#FFE9D8" d="M189.767,489.407c-0.487,1.161-1.345,0.952-2.005,0.709c-0.516-0.188-0.559,0.761-0.839,1.557
			c-0.008,0-0.017-0.001-0.024-0.001v1.936c0,0.896-0.728,1.624-1.626,1.624c-0.896,0-1.624-0.728-1.624-1.624
			c0,0.896-0.728,1.624-1.626,1.624c-0.897,0-1.625-0.728-1.625-1.624c0,0.896-0.727,1.624-1.625,1.624
			c-0.897,0-1.625-0.728-1.625-1.624v-2.852c0-0.116,0.013-0.229,0.037-0.338c-0.046-0.59-0.062-1.173,0.036-1.533
			c0.22-0.804,0.294-1.104,0.68-1.604c0.642-0.837,1.558-0.837,1.558-0.837l5.973,0.026l3.757,1.283
			C189.186,487.757,190.256,488.245,189.767,489.407z"/>
		<path fill="#844819" d="M224.397,456.482v15.012c0.696,2.105,2.685,3.738,5.191,4.185l4.709,0.022
			c0.613-1.607,0.964-3.347,0.964-5.17C235.26,463.774,230.643,458.11,224.397,456.482z"/>
	</g>
	<path fill="#FBCD00" d="M326.036,231.057c0-84.052-64.5-152.19-144.064-152.19c-79.565,0-144.063,68.139-144.063,152.19
		c0,34.724,11.028,66.711,29.561,92.321l64.322,94.134c0,0,0.827,1.396,2.613,2.975l12.618,17.996
		c0.043,0.062,0.091,0.114,0.136,0.173c0.076,0.104,0.153,0.206,0.235,0.304c0.073,0.086,0.149,0.165,0.227,0.246
		c0.07,0.077,0.141,0.154,0.215,0.227c0.089,0.088,0.181,0.17,0.273,0.249c0.07,0.061,0.141,0.123,0.213,0.183
		c0.097,0.077,0.195,0.148,0.296,0.22c0.077,0.058,0.156,0.113,0.237,0.168c0.096,0.061,0.192,0.119,0.29,0.175
		c0.094,0.056,0.188,0.108,0.285,0.161c0.089,0.045,0.178,0.087,0.267,0.128c0.112,0.053,0.224,0.103,0.34,0.147
		c0.08,0.032,0.163,0.061,0.243,0.09c0.125,0.044,0.25,0.089,0.38,0.126c0.079,0.021,0.159,0.041,0.24,0.062
		c0.128,0.032,0.26,0.062,0.391,0.088c0.092,0.02,0.184,0.029,0.276,0.043c0.121,0.018,0.241,0.035,0.364,0.046
		c0.116,0.011,0.23,0.013,0.346,0.02c0.083,0.002,0.166,0.013,0.25,0.013c0.021,0,0.04-0.003,0.062-0.003
		c0.13-0.002,0.258-0.012,0.388-0.021c0.094-0.006,0.188-0.009,0.28-0.019c0.116-0.014,0.231-0.035,0.348-0.055
		c0.104-0.017,0.209-0.029,0.312-0.052c0.087-0.019,0.173-0.044,0.258-0.065c0.13-0.033,0.26-0.062,0.385-0.104
		c0.059-0.018,0.113-0.042,0.17-0.062c0.153-0.054,0.307-0.106,0.455-0.171c0.043-0.02,0.083-0.042,0.126-0.061
		c0.16-0.073,0.32-0.148,0.474-0.235c0.043-0.022,0.085-0.054,0.129-0.078c0.148-0.087,0.297-0.176,0.438-0.274
		c0.012-0.01,0.023-0.015,0.036-0.021c0.047-0.033,0.089-0.071,0.134-0.105c0.119-0.09,0.238-0.178,0.352-0.271
		c0.074-0.063,0.143-0.131,0.214-0.195c0.087-0.082,0.175-0.163,0.259-0.247c0.078-0.081,0.15-0.164,0.223-0.247
		c0.069-0.08,0.141-0.158,0.206-0.24c0.071-0.089,0.138-0.181,0.204-0.272c0.062-0.085,0.125-0.172,0.183-0.261
		s0.11-0.181,0.164-0.271c0.059-0.101,0.117-0.2,0.171-0.304c0.042-0.083,0.082-0.167,0.12-0.252
		c0.056-0.115,0.106-0.232,0.154-0.353c0.031-0.077,0.059-0.153,0.084-0.231c0.046-0.129,0.091-0.258,0.128-0.39
		c0.021-0.077,0.041-0.155,0.061-0.232c0.033-0.132,0.064-0.264,0.09-0.397c0.017-0.09,0.029-0.181,0.042-0.272
		c0.017-0.121,0.036-0.242,0.046-0.365c0.01-0.116,0.013-0.232,0.019-0.349c0.002-0.082,0.013-0.164,0.013-0.247v-9.73v-0.252
		c0-12.927,10.479-23.407,23.408-23.407c12.929,0,23.406,10.48,23.406,23.407v0.252c0.059,0,0.118,0,0.175,0v9.73
		c0,0.083,0.01,0.165,0.014,0.247c0.005,0.115,0.008,0.231,0.018,0.349c0.012,0.124,0.029,0.245,0.046,0.365
		c0.015,0.093,0.025,0.184,0.042,0.272c0.024,0.134,0.058,0.267,0.091,0.397c0.019,0.077,0.037,0.155,0.059,0.232
		c0.038,0.132,0.082,0.261,0.128,0.39c0.027,0.078,0.056,0.154,0.086,0.231c0.047,0.119,0.1,0.236,0.153,0.353
		c0.039,0.085,0.078,0.17,0.121,0.252c0.054,0.104,0.11,0.203,0.17,0.304c0.054,0.09,0.105,0.182,0.165,0.271
		c0.057,0.09,0.119,0.176,0.181,0.261c0.066,0.093,0.133,0.185,0.204,0.272c0.064,0.082,0.136,0.16,0.205,0.24
		c0.074,0.083,0.146,0.166,0.225,0.247c0.083,0.084,0.172,0.166,0.259,0.247c0.071,0.064,0.142,0.132,0.215,0.195
		c0.113,0.094,0.231,0.183,0.352,0.271c0.046,0.034,0.088,0.072,0.135,0.105c0.013,0.008,0.022,0.013,0.034,0.021
		c0.143,0.099,0.289,0.188,0.438,0.274c0.043,0.024,0.086,0.056,0.129,0.078c0.152,0.087,0.312,0.162,0.474,0.235
		c0.043,0.02,0.084,0.042,0.126,0.061c0.149,0.062,0.302,0.117,0.455,0.171c0.057,0.02,0.112,0.045,0.17,0.062
		c0.126,0.04,0.256,0.069,0.386,0.104c0.086,0.021,0.172,0.049,0.259,0.065c0.102,0.021,0.207,0.035,0.312,0.052
		c0.115,0.02,0.231,0.041,0.348,0.055c0.094,0.01,0.188,0.013,0.279,0.019c0.131,0.01,0.259,0.021,0.389,0.021
		c0.021,0,0.04,0.003,0.062,0.003c0.084,0,0.167-0.011,0.25-0.013c0.116-0.007,0.229-0.009,0.346-0.02
		c0.123-0.011,0.244-0.028,0.364-0.046c0.093-0.014,0.185-0.023,0.276-0.043c0.132-0.023,0.262-0.056,0.39-0.088
		c0.081-0.021,0.161-0.039,0.241-0.062c0.129-0.037,0.255-0.082,0.379-0.126c0.081-0.027,0.164-0.057,0.244-0.09
		c0.113-0.046,0.228-0.096,0.339-0.147c0.089-0.041,0.178-0.083,0.267-0.128c0.097-0.053,0.191-0.105,0.284-0.161
		c0.099-0.057,0.195-0.114,0.29-0.175c0.081-0.055,0.16-0.11,0.239-0.168c0.1-0.07,0.197-0.143,0.295-0.22
		c0.073-0.06,0.144-0.122,0.214-0.183c0.092-0.08,0.184-0.162,0.271-0.249c0.075-0.071,0.146-0.148,0.217-0.227
		c0.074-0.081,0.15-0.161,0.225-0.246c0.084-0.098,0.16-0.199,0.236-0.304c0.045-0.059,0.093-0.111,0.136-0.173l16.758-23.903
		c0.412-0.587,0.715-1.22,0.916-1.868c9.377-15.301,63.748-93.85,63.748-93.85h-0.271
		C316.233,294.048,326.036,263.77,326.036,231.057z"/>
	<path fill="#F8BF00" d="M182.652,401.235c12.929,0,23.408,10.48,23.408,23.407v0.252c0.058,0,0.117,0,0.174,0v9.73
		c0,0.082,0.01,0.164,0.014,0.246c0.005,0.116,0.008,0.232,0.018,0.35c0.011,0.124,0.029,0.245,0.046,0.365
		c0.015,0.093,0.025,0.184,0.042,0.272c0.024,0.134,0.058,0.267,0.09,0.397c0.02,0.076,0.038,0.154,0.06,0.232
		c0.038,0.131,0.082,0.26,0.129,0.39c0.026,0.077,0.055,0.154,0.085,0.231c0.047,0.119,0.1,0.235,0.153,0.353
		c0.039,0.085,0.077,0.17,0.121,0.252c0.054,0.104,0.11,0.203,0.17,0.304c0.054,0.09,0.105,0.182,0.165,0.27
		c0.057,0.091,0.118,0.177,0.181,0.262c0.065,0.093,0.133,0.185,0.204,0.272c0.064,0.081,0.136,0.16,0.205,0.24
		c0.073,0.083,0.146,0.166,0.225,0.247c0.083,0.084,0.172,0.166,0.259,0.247c0.071,0.063,0.142,0.132,0.214,0.195
		c0.114,0.094,0.232,0.183,0.353,0.271c0.046,0.034,0.088,0.072,0.135,0.105c0.012,0.008,0.022,0.013,0.034,0.021
		c0.142,0.099,0.289,0.188,0.438,0.275c0.044,0.024,0.087,0.055,0.13,0.078c0.152,0.086,0.312,0.161,0.474,0.234
		c0.043,0.021,0.084,0.043,0.126,0.061c0.149,0.063,0.302,0.117,0.455,0.172c0.057,0.019,0.112,0.045,0.17,0.062
		c0.126,0.04,0.256,0.069,0.386,0.104c0.086,0.021,0.171,0.049,0.258,0.065c0.103,0.021,0.207,0.035,0.312,0.052
		c0.115,0.02,0.23,0.04,0.348,0.055c0.094,0.01,0.188,0.012,0.279,0.019c0.131,0.01,0.259,0.021,0.389,0.021
		c0.021,0,0.04,0.003,0.062,0.003c0.084,0,0.167-0.011,0.25-0.013c0.116-0.007,0.229-0.009,0.346-0.02
		c0.123-0.011,0.244-0.028,0.365-0.046c0.092-0.014,0.184-0.024,0.274-0.042c0.133-0.024,0.263-0.057,0.391-0.09
		c0.081-0.02,0.161-0.038,0.241-0.062c0.129-0.037,0.255-0.081,0.379-0.125c0.082-0.027,0.164-0.057,0.244-0.09
		c0.113-0.046,0.228-0.096,0.339-0.147c0.089-0.041,0.178-0.083,0.267-0.128c0.096-0.053,0.191-0.105,0.284-0.161
		c0.099-0.057,0.195-0.114,0.29-0.175c0.081-0.055,0.16-0.11,0.239-0.169c0.1-0.069,0.197-0.142,0.295-0.219
		c0.072-0.06,0.144-0.122,0.214-0.183c0.092-0.08,0.184-0.162,0.271-0.249c0.075-0.071,0.146-0.149,0.217-0.227
		c0.074-0.082,0.15-0.161,0.225-0.247c0.084-0.097,0.16-0.198,0.236-0.303c0.045-0.059,0.093-0.113,0.136-0.173l16.758-23.902
		c0.412-0.588,0.715-1.221,0.916-1.87c9.377-15.3,63.748-93.849,63.748-93.849h-0.271c16.627-24.814,26.43-55.091,26.43-87.804
		c0-84.053-64.5-152.19-144.064-152.19V401.25C182.198,401.245,182.425,401.235,182.652,401.235z"/>
	<path fill="#F3A300" d="M299.607,318.861c16.626-24.813,26.43-55.091,26.43-87.804c0-84.052-64.5-152.19-144.064-152.19v18.255
		c49.274,33.953,91.402,92.958,70.256,188.724c-14.447,65.421-34.595,107.968-47.634,130.632c0.946,2.542,1.467,5.292,1.467,8.165
		v0.252c0.058,0,0.117,0,0.174,0v9.73c0,0.082,0.01,0.164,0.014,0.246c0.005,0.116,0.008,0.232,0.018,0.35
		c0.011,0.124,0.029,0.245,0.046,0.365c0.015,0.093,0.025,0.184,0.042,0.272c0.024,0.134,0.058,0.267,0.09,0.397
		c0.02,0.076,0.038,0.154,0.06,0.232c0.038,0.131,0.082,0.26,0.129,0.39c0.026,0.077,0.055,0.154,0.085,0.231
		c0.047,0.119,0.1,0.235,0.153,0.353c0.039,0.085,0.078,0.17,0.121,0.252c0.054,0.104,0.11,0.203,0.17,0.304
		c0.054,0.09,0.105,0.182,0.165,0.27c0.057,0.091,0.118,0.177,0.181,0.262c0.066,0.093,0.133,0.185,0.204,0.272
		c0.064,0.081,0.136,0.16,0.205,0.24c0.074,0.083,0.146,0.166,0.225,0.247c0.083,0.084,0.172,0.166,0.259,0.247
		c0.071,0.063,0.142,0.132,0.215,0.195c0.113,0.094,0.231,0.183,0.352,0.271c0.046,0.034,0.088,0.072,0.135,0.105
		c0.012,0.008,0.022,0.013,0.034,0.021c0.142,0.099,0.289,0.188,0.438,0.275c0.043,0.024,0.086,0.055,0.129,0.078
		c0.152,0.086,0.312,0.161,0.474,0.234c0.043,0.021,0.084,0.043,0.126,0.061c0.149,0.063,0.302,0.117,0.455,0.172
		c0.057,0.019,0.112,0.045,0.17,0.062c0.126,0.04,0.256,0.069,0.386,0.104c0.086,0.021,0.171,0.049,0.258,0.065
		c0.103,0.021,0.207,0.035,0.312,0.052c0.115,0.02,0.231,0.04,0.348,0.055c0.094,0.01,0.188,0.012,0.279,0.019
		c0.131,0.01,0.259,0.021,0.389,0.021c0.021,0,0.04,0.003,0.062,0.003c0.084,0,0.167-0.011,0.25-0.013
		c0.116-0.007,0.229-0.009,0.346-0.02c0.123-0.011,0.244-0.028,0.365-0.046c0.092-0.014,0.184-0.024,0.274-0.042
		c0.133-0.024,0.263-0.057,0.391-0.09c0.081-0.02,0.161-0.038,0.241-0.062c0.129-0.037,0.255-0.081,0.379-0.125
		c0.082-0.027,0.164-0.057,0.244-0.09c0.113-0.046,0.228-0.096,0.339-0.147c0.089-0.041,0.178-0.083,0.267-0.128
		c0.096-0.053,0.191-0.105,0.284-0.161c0.099-0.057,0.195-0.114,0.29-0.175c0.081-0.055,0.16-0.11,0.239-0.169
		c0.1-0.069,0.197-0.142,0.295-0.219c0.072-0.06,0.144-0.122,0.214-0.183c0.092-0.08,0.184-0.162,0.271-0.249
		c0.075-0.071,0.146-0.149,0.217-0.227c0.074-0.082,0.15-0.161,0.225-0.247c0.084-0.097,0.16-0.198,0.236-0.303
		c0.045-0.059,0.093-0.113,0.136-0.173l16.758-23.902c0.412-0.588,0.715-1.221,0.916-1.87c9.377-15.3,63.748-93.849,63.748-93.849
		h-0.272v0.001H299.607z"/>
	<path fill="#FFFFFF" d="M347.665,143.941c0,18.659-15.126,33.786-33.785,33.786H175.358c-18.658,0-33.786-15.126-33.786-33.786l0,0
		c0-18.658,15.127-33.784,33.786-33.784H313.88C332.539,110.156,347.665,125.281,347.665,143.941L347.665,143.941z"/>
	<path fill="#FFFFFF" d="M346.425,181.629c0,18.659-15.126,33.786-33.784,33.786h-78.517c-18.658,0-33.785-15.125-33.785-33.786l0,0
		c0-18.656,15.125-33.784,33.785-33.784h78.517C331.298,147.844,346.425,162.972,346.425,181.629L346.425,181.629z"/>
	<path fill="#FBCD00" d="M162.671,501.943c0,2.057-1.667,3.723-3.724,3.723l0,0c-2.056,0-3.723-1.666-3.723-3.723V478.24
		c0-2.057,1.667-3.723,3.723-3.723l0,0c2.057,0,3.724,1.666,3.724,3.723V501.943z"/>
	<path fill="#E62519" d="M160.521,512.008l0.002-0.002l-0.145-0.307c-0.022-0.046-0.041-0.093-0.066-0.139l-5.087-10.767
		l-5.072,10.74c-1.163,2.177-0.827,4.941,1.007,6.775c2.245,2.246,5.886,2.246,8.132,0
		C160.997,516.606,161.404,514.098,160.521,512.008z"/>
	<path fill="#E62519" d="M187.266,512.008l0.003-0.002l-0.144-0.307c-0.022-0.046-0.042-0.093-0.066-0.139l-5.087-10.767
		l-5.072,10.74c-1.163,2.177-0.829,4.941,1.006,6.775c2.246,2.246,5.887,2.246,8.133,0
		C187.743,516.606,188.15,514.098,187.266,512.008z"/>
	<path fill="#E62519" d="M214.924,512.008l0.003-0.002l-0.146-0.307c-0.021-0.046-0.04-0.093-0.063-0.139l-5.087-10.767
		l-5.072,10.74c-1.164,2.177-0.829,4.941,1.005,6.775c2.247,2.246,5.887,2.246,8.133,0
		C215.399,516.606,215.806,514.098,214.924,512.008z"/>
	<circle fill="#546E72" cx="218.034" cy="479.081" r="1.281"/>
	<circle fill="#546E72" cx="227.596" cy="479.081" r="1.281"/>
</g>
</svg>
