<?xml version="1.0" encoding="utf-8"?>
<!-- Generator: Adobe Illustrator 16.0.0, SVG Export Plug-In . SVG Version: 6.00 Build 0)  -->
<!DOCTYPE svg PUBLIC "-//W3C//DTD SVG 1.1//EN" "http://www.w3.org/Graphics/SVG/1.1/DTD/svg11.dtd">
<svg version="1.1" id="Layer_1" xmlns="http://www.w3.org/2000/svg" xmlns:xlink="http://www.w3.org/1999/xlink" x="0px" y="0px"
	 width="1240px" height="487.768px" viewBox="11.993 631.599 1240 487.768" enable-background="new 11.993 631.599 1240 487.768"
	 xml:space="preserve">
<g>
	<g id="Layer_2">
	</g>
	<g id="Layer_1_1_">
		<g>
			<path fill="#FFFFFF" d="M588.374,791.636h-24.473c-0.878,0-1.732,0.109-2.547,0.312c-0.816-0.201-1.668-0.312-2.547-0.312
				h-24.474c-5.816,0-10.531,4.715-10.531,10.531s4.715,10.53,10.531,10.53h3.728c0,5.815,4.715,10.53,10.532,10.53h4.391
				c5.816,0,10.532-4.715,10.532-10.53c0-0.003,0-0.006,0-0.011c0.128,0.005,0.255,0.011,0.385,0.011h24.473
				c5.816,0,10.532-4.714,10.532-10.53C598.905,796.35,594.19,791.636,588.374,791.636z"/>
			<path fill="#FFFFFF" d="M827.044,799.384h30.513c1.095,0,2.155-0.136,3.174-0.39c1.018,0.253,2.079,0.39,3.175,0.39h30.512
				c7.252,0,13.132-5.879,13.132-13.13s-5.879-13.131-13.132-13.131h-4.648c0-7.249-5.877-13.129-13.129-13.129h-5.474
				c-7.251,0-13.131,5.878-13.131,13.129c0,0.003,0,0.007,0,0.013c-0.159-0.007-0.318-0.013-0.479-0.013h-30.514
				c-7.249,0-13.13,5.879-13.13,13.131C813.914,793.504,819.793,799.384,827.044,799.384z"/>
			<path fill="#FFFFFF" d="M552.815,665.465c0,18.705-15.162,33.868-33.867,33.868h-78.704c-18.704,0-33.866-15.162-33.866-33.868
				l0,0c-0.001-18.702,15.162-33.865,33.866-33.865h78.704C537.652,631.599,552.815,646.762,552.815,665.465L552.815,665.465z"/>
			<path fill="#FFFFFF" d="M881.793,672.411c0,18.703-15.162,33.865-33.867,33.865h-78.703c-18.704,0-33.866-15.162-33.866-33.865
				l0,0c0-18.705,15.162-33.867,33.866-33.867h78.703C866.631,638.544,881.793,653.707,881.793,672.411L881.793,672.411z"/>
			<path fill="#FFFFFF" d="M1109.748,665.727c0,18.704-15.162,33.867-33.867,33.867h-78.703c-18.705,0-33.867-15.162-33.867-33.867
				l0,0c0-18.704,15.162-33.867,33.867-33.867h78.703C1094.586,631.86,1109.748,647.023,1109.748,665.727L1109.748,665.727z"/>
			<path fill="#FFFFFF" d="M1165.492,699.333c0,18.702-15.162,33.865-33.865,33.865h-78.706c-18.704,0-33.865-15.162-33.865-33.865
				l0,0c0-18.705,15.161-33.868,33.865-33.868h78.706C1150.33,665.465,1165.492,680.628,1165.492,699.333L1165.492,699.333z"/>
			<path fill="#FFFFFF" d="M1204.828,665.727c0,18.704-15.162,33.867-33.867,33.867h-78.703c-18.704,0-33.866-15.162-33.866-33.867
				l0,0c0-18.704,15.162-33.867,33.866-33.867h78.703C1189.666,631.86,1204.828,647.023,1204.828,665.727L1204.828,665.727z"/>
			<path fill="#FFFFFF" d="M268.635,665.727c0,18.704-15.162,33.867-33.866,33.867H55.952c-18.704,0-33.866-15.162-33.866-33.867
				l0,0c0-18.704,15.162-33.867,33.866-33.867H234.77C253.472,631.86,268.635,647.023,268.635,665.727L268.635,665.727z"/>
			<path fill="#FFFFFF" d="M630.839,711.991c0,18.702-15.162,33.866-33.866,33.866h-78.705c-18.704,0-33.866-15.162-33.866-33.866
				l0,0c0-18.703,15.162-33.866,33.866-33.866h78.705C615.678,678.125,630.839,693.288,630.839,711.991L630.839,711.991z"/>
			<path fill="#FFFFFF" d="M300.543,678.124c0,18.705-15.162,33.867-33.865,33.867h-78.706c-18.702,0-33.865-15.162-33.865-33.867
				l0,0c0-18.703,15.162-33.866,33.865-33.866h78.706C285.382,644.258,300.543,659.421,300.543,678.124L300.543,678.124z"/>
			<g>
				<path fill="#FFFFFF" d="M126.137,900.131c0,18.703-15.161,33.866-33.867,33.866H78.151c-18.703,0-33.866-15.162-33.866-33.866
					l0,0c0-18.704,15.162-33.867,33.866-33.867H92.27C110.976,866.263,126.137,881.426,126.137,900.131L126.137,900.131z"/>
				<path fill="#FFFFFF" d="M192.297,929.007c0,18.702-15.161,33.865-33.867,33.865H45.859
					c-18.705-0.001-33.866-15.163-33.866-33.865l0,0c0-18.704,15.162-33.868,33.866-33.868h112.572
					C177.136,895.138,192.297,910.301,192.297,929.007L192.297,929.007z"/>
			</g>
			<g>
				<path fill="#FFFFFF" d="M1195.66,853.971c0,15.924-12.91,28.835-28.837,28.835h-12.021c-15.926,0-28.835-12.911-28.835-28.835
					l0,0c0-15.925,12.909-28.838,28.835-28.838h12.021C1182.75,825.134,1195.66,838.046,1195.66,853.971L1195.66,853.971z"/>
				<path fill="#FFFFFF" d="M1251.993,878.557c0,15.926-12.91,28.836-28.836,28.836h-95.851c-15.926,0-28.836-12.91-28.836-28.836
					l0,0c0-15.926,12.91-28.835,28.836-28.835h95.851C1239.083,849.721,1251.993,862.631,1251.993,878.557L1251.993,878.557z"/>
			</g>
			<g>
				<path fill="#FFFFFF" d="M840.186,1105.277c0,7.781-6.305,14.09-14.086,14.09h-32.738c-7.778,0-14.086-6.308-14.086-14.09l0,0
					c0-7.78,6.308-14.087,14.086-14.087h32.739C833.881,1091.19,840.186,1097.498,840.186,1105.277L840.186,1105.277z"/>
				<path fill="#FFFFFF" d="M866.827,1087.859c0,7.78-6.308,14.089-14.087,14.089h-32.737c-7.78,0-14.087-6.309-14.087-14.089l0,0
					c0-7.78,6.307-14.088,14.087-14.088h32.737C860.52,1073.771,866.827,1080.079,866.827,1087.859L866.827,1087.859z"/>
				<path fill="#FFFFFF" d="M879.738,1105.277c0,7.781-6.308,14.09-14.088,14.09h-32.737c-7.779,0-14.085-6.308-14.085-14.09l0,0
					c0-7.78,6.306-14.087,14.085-14.087h32.737C873.43,1091.19,879.738,1097.498,879.738,1105.277L879.738,1105.277z"/>
			</g>
		</g>
	</g>
</g>
</svg>
