<?xml version="1.0" encoding="utf-8"?>
<!-- Generator: Adobe Illustrator 16.0.0, SVG Export Plug-In . SVG Version: 6.00 Build 0)  -->
<!DOCTYPE svg PUBLIC "-//W3C//DTD SVG 1.1//EN" "http://www.w3.org/Graphics/SVG/1.1/DTD/svg11.dtd">
<svg version="1.1" id="Layer_1" xmlns="http://www.w3.org/2000/svg" xmlns:xlink="http://www.w3.org/1999/xlink" x="0px" y="0px"
	 width="234px" height="41.672px" viewBox="175.665 62.567 234 41.672" enable-background="new 175.665 62.567 234 41.672"
	 xml:space="preserve">
<g>
	<path fill="#E62519" d="M196.125,86.964c0,1.779-1.366,3.238-3.107,3.387c-0.096,0.009-0.194,0.013-0.292,0.013h-3.595
		c-1.877,0-3.399-1.522-3.399-3.399v-9.191c0-1.878,1.522-3.4,3.399-3.4h3.595c1.877,0,3.4,1.522,3.4,3.4L196.125,86.964
		L196.125,86.964z"/>
	<path fill="#E62519" d="M246.701,63.173c-3.765-1.87-5.434,0.897-6.93,4.114c-1.143,2.456-2.637,5.698-5.745,7.094
		c-13.953-0.077-42.571,0.112-42.571,0.112l0.65,12.966l0.849,2.905c0,0,24.886-0.805,40.478-4.94
		c3.648-0.968,6.283-2.064,8.115-3.182c4.595-1.671,9.025-5.929,9.442-9.197C251.439,69.529,250.467,65.042,246.701,63.173z"/>
	<path fill="#E62519" d="M223.638,69.325c0,0.92-0.745,1.666-1.666,1.666h-24.182c-0.92,0-1.666-0.746-1.666-1.666l0,0
		c0-0.92,0.746-1.666,1.666-1.666h24.182C222.893,67.659,223.638,68.405,223.638,69.325L223.638,69.325z"/>
	<path fill="#D22417" d="M199.291,74.448l7.996,15.001c7.681-0.673,17.099-1.804,24.688-3.655l-6.806-11.432
		C216.481,74.365,206.198,74.41,199.291,74.448z"/>
	<path fill="#E62519" d="M180.351,82.276c0-1.054,0.155-2.095,0.448-3.094c-0.41-0.113-0.85-0.179-1.312-0.179
		c-2.112-0.001-3.823,1.303-3.823,2.91c0,1.608,1.711,2.911,3.822,2.911c0.396,0,0.778-0.046,1.138-0.131
		C180.447,83.904,180.351,83.094,180.351,82.276z"/>
	<circle fill="#E62519" cx="204.953" cy="98.577" r="5.662"/>
	<circle fill="#FFFFFF" cx="204.953" cy="98.577" r="2.164"/>
	<rect x="280.092" y="62.567" fill="#FFFFFF" width="129.574" height="23.688"/>
	<rect x="263.976" y="67.744" fill="#FFFFFF" width="29.754" height="23.69"/>
	<path fill="#E62519" d="M181.365,92.126c-0.92,0-1.666-0.745-1.666-1.666V74.275c0-0.92,0.746-1.666,1.666-1.666l0,0
		c0.919,0,1.666,0.746,1.666,1.666V90.46C183.031,91.381,182.284,92.126,181.365,92.126L181.365,92.126z"/>
</g>
</svg>
