<?xml version="1.0" encoding="utf-8"?>
<!-- Generator: Adobe Illustrator 16.0.0, SVG Export Plug-In . SVG Version: 6.00 Build 0)  -->
<!DOCTYPE svg PUBLIC "-//W3C//DTD SVG 1.1//EN" "http://www.w3.org/Graphics/SVG/1.1/DTD/svg11.dtd">
<svg version="1.1" id="Layer_1" xmlns="http://www.w3.org/2000/svg" xmlns:xlink="http://www.w3.org/1999/xlink" x="0px" y="0px"
	 width="53px" height="27.198px" viewBox="0 0 53 27.198" enable-background="new 0 0 53 27.198" xml:space="preserve">
<g>
	<path fill="#FFFFFF" d="M53,21.548c0,3.121-2.529,5.65-5.649,5.65H19.694c-3.121,0-5.65-2.529-5.65-5.65V19.56
		c0-4.893,3.416-7.643,8.308-7.643h22.342c6.664,0,8.307,4.079,8.307,8.971V21.548z"/>
	<path fill="#FFFFFF" d="M25.135,24.319c0,1.59-1.289,2.879-2.879,2.879H2.879C1.289,27.198,0,25.909,0,24.319l0,0
		c0-1.59,1.289-2.879,2.879-2.879h19.377C23.847,21.44,25.135,22.729,25.135,24.319L25.135,24.319z"/>
	<circle fill="#FFFFFF" cx="38.465" cy="11.142" r="9.08"/>
	<path fill="#FFFFFF" d="M31.696,0c-2.242,2.491-1.804,8.145-1.804,8.145l6.454-1.003c0,0,1.304-1.655-0.664-4.645
		C34.396,0.54,31.696,0,31.696,0z"/>
	<path fill="#FFFFFF" d="M44.842,0c2.242,2.491,1.804,8.145,1.804,8.145l-6.454-1.003c0,0-1.304-1.655,0.664-4.645
		C42.143,0.54,44.842,0,44.842,0z"/>
	<path fill="#1872A8" d="M36.223,8.401c0,0.26-0.211,0.47-0.471,0.47h-3.544c-0.259,0-0.47-0.21-0.47-0.47l0,0
		c0-0.26,0.211-0.471,0.47-0.471h3.544C36.012,7.931,36.223,8.141,36.223,8.401L36.223,8.401z"/>
	<path fill="#1872A8" d="M43.503,8.401c0,0.26-0.211,0.47-0.471,0.47h-3.543c-0.259,0-0.47-0.21-0.47-0.47l0,0
		c0-0.26,0.211-0.471,0.47-0.471h3.543C43.292,7.931,43.503,8.141,43.503,8.401L43.503,8.401z"/>
	<path fill="#1872A8" d="M38.838,10.637c0,0.278-0.226,0.505-0.505,0.505h-2.229c-0.279,0-0.505-0.227-0.505-0.505l0,0
		c0-0.279,0.226-0.505,0.505-0.505h2.229C38.612,10.131,38.838,10.357,38.838,10.637L38.838,10.637z"/>
	<rect x="45.606" y="20.889" fill="#FFFFFF" width="7.394" height="6.309"/>
</g>
</svg>
