<?xml version="1.0" encoding="utf-8"?>
<!-- Generator: Adobe Illustrator 16.0.0, SVG Export Plug-In . SVG Version: 6.00 Build 0)  -->
<!DOCTYPE svg PUBLIC "-//W3C//DTD SVG 1.1//EN" "http://www.w3.org/Graphics/SVG/1.1/DTD/svg11.dtd">
<svg version="1.1" id="Layer_1" xmlns="http://www.w3.org/2000/svg" xmlns:xlink="http://www.w3.org/1999/xlink" x="0px" y="0px"
	 width="64px" height="32.671px" viewBox="0 0 64 32.671" enable-background="new 0 0 64 32.671" xml:space="preserve">
<g>
	<path fill="#FFFFFF" d="M61.211,6.6h-26.62V2.22c0-1.227-0.993-2.22-2.219-2.22c-1.227,0-2.22,0.993-2.22,2.22V6.6H2.79
		C1.249,6.6,0,7.849,0,9.389s1.249,2.789,2.79,2.789h7.678l15.747,9.703c1.538,1.49,3.632,2.408,5.942,2.408
		c1.392,0,2.705-0.335,3.865-0.925l0.013,0.021l0.357-0.221l0.516-0.317l17.314-10.669h6.989c1.54,0,2.789-1.249,2.789-2.789
		S62.751,6.6,61.211,6.6z M14.615,12.178h9.78c-0.5,1.087-0.781,2.295-0.781,3.568c0,0.74,0.094,1.459,0.271,2.144L14.615,12.178z
		 M26.522,15.746c0-1.354,0.478-2.597,1.274-3.568c0.661-0.806,1.542-1.425,2.549-1.767c0.569-0.193,1.177-0.299,1.811-0.299
		c0.771,0,1.506,0.155,2.175,0.436c0.856,0.358,1.605,0.923,2.186,1.63c0.796,0.972,1.274,2.215,1.274,3.568
		c0,3.112-2.522,5.635-5.635,5.635C29.045,21.381,26.522,18.858,26.522,15.746z M40.348,18.171c0.228-0.77,0.352-1.582,0.352-2.425
		c0-1.273-0.281-2.481-0.781-3.568h10.155L40.348,18.171z"/>
	<path fill="#FFFFFF" d="M23.075,24.289c-0.876,0-1.587,0.71-1.587,1.587v5.208c0,0.877,0.71,1.587,1.587,1.587
		c0.876,0,1.586-0.71,1.586-1.587v-5.208C24.661,24.999,23.951,24.289,23.075,24.289z"/>
	<path fill="#FFFFFF" d="M40.699,24.289c-0.877,0-1.587,0.71-1.587,1.587v5.208c0,0.877,0.71,1.587,1.587,1.587
		c0.876,0,1.587-0.71,1.587-1.587v-5.208C42.286,24.999,41.575,24.289,40.699,24.289z"/>
	<circle fill="#FFFFFF" cx="32.156" cy="15.747" r="3.045"/>
</g>
</svg>
