<?xml version="1.0" encoding="utf-8"?>
<!-- Generator: Adobe Illustrator 16.0.0, SVG Export Plug-In . SVG Version: 6.00 Build 0)  -->
<!DOCTYPE svg PUBLIC "-//W3C//DTD SVG 1.1//EN" "http://www.w3.org/Graphics/SVG/1.1/DTD/svg11.dtd">
<svg version="1.1" id="Layer_1" xmlns="http://www.w3.org/2000/svg" xmlns:xlink="http://www.w3.org/1999/xlink" x="0px" y="0px"
	 width="52px" height="25.672px" viewBox="0 0 52 25.672" enable-background="new 0 0 52 25.672" xml:space="preserve">
<g>
	<path fill="#97DDE4" d="M50.318,7.389c0.006-0.004,0.012-0.008,0.017-0.012c-0.467-0.285-1.079-0.639-1.854-1.045
		c-0.803-0.42-1.496-0.721-2.028-0.926c-0.005,0.008-0.011,0.014-0.015,0.021c-0.979-0.367-1.682-0.543-1.682-0.543l0.395-0.441l0,0
		l1.834-2.061l0.088-0.098l1.384-1.555c0.217-0.244,0.655-0.443,0.974-0.443h1.991C51.738,0.287,52,0.559,52,0.891v6.354v0.699
		v0.604C52,8.547,51.38,8.055,50.318,7.389z"/>
	<path fill="#97DDE4" d="M50.318,10.611c0.006,0.004,0.012,0.008,0.017,0.012c-0.467,0.285-1.079,0.637-1.854,1.043
		c-0.803,0.422-1.496,0.721-2.028,0.926c-0.005-0.008-0.011-0.014-0.015-0.02c-0.979,0.365-1.682,0.541-1.682,0.541l0.395,0.444l0,0
		l1.834,2.061l0.088,0.098l1.384,1.553c0.217,0.244,0.655,0.443,0.974,0.443h1.991c0.319,0,0.581-0.271,0.581-0.604v-6.354v-0.697
		V9.453C52,9.453,51.38,9.945,50.318,10.611z"/>
	<path fill="#97DDE4" d="M52,9.402c0,5.192-21.247,9.403-32.322,9.403h-4.991C3.611,18.805,0,14.594,0,9.402l0,0
		C0,4.209,3.611,0,14.688,0h4.991C30.753,0,52,4.209,52,9.402L52,9.402z"/>
	<path fill="#97DDE4" d="M31.825,23.492c0,1.203-0.976,2.18-2.179,2.18h-12.66c-1.203,0-2.179-0.977-2.179-2.18l0,0
		c0-1.203,0.976-2.178,2.179-2.178h12.66C30.85,21.314,31.825,22.289,31.825,23.492L31.825,23.492z"/>
</g>
</svg>
