<?xml version="1.0" encoding="utf-8"?>
<!-- Generator: Adobe Illustrator 16.0.0, SVG Export Plug-In . SVG Version: 6.00 Build 0)  -->
<!DOCTYPE svg PUBLIC "-//W3C//DTD SVG 1.1//EN" "http://www.w3.org/Graphics/SVG/1.1/DTD/svg11.dtd">
<svg version="1.1" id="Layer_1" xmlns="http://www.w3.org/2000/svg" xmlns:xlink="http://www.w3.org/1999/xlink" x="0px" y="0px"
	 width="1167px" height="388.741px" viewBox="0 0 1167 388.741" enable-background="new 0 0 1167 388.741" xml:space="preserve">
<g>
	<g>
		<path fill="#FFFFFF" d="M760.899,342.001h-3.782c0-0.015-0.002-0.031-0.002-0.046v-14.562c0-12.906-10.465-23.368-23.369-23.368
			c-9.876,0-18.3,6.133-21.722,14.787h-32.58c-12.844,0-23.262,10.367-23.361,23.189h-15.105c-12.909,0-23.372,10.462-23.372,23.372
			c0,12.906,10.463,23.368,23.372,23.368h54.311c1.952,0,3.838-0.267,5.65-0.717c1.812,0.45,3.699,0.717,5.651,0.717h54.31
			c12.908,0,23.37-10.462,23.37-23.368C784.27,352.463,773.808,342.001,760.899,342.001z"/>
	</g>
	<g>
		<path fill="#FFFFFF" d="M1134.302,128.541h-11.647c1.453-3.7,2.278-7.715,2.278-11.931c0-18.058-14.638-32.698-32.695-32.698
			H945.726c-18.059,0-32.697,14.64-32.697,32.698c0,18.057,14.639,32.695,32.697,32.695h82.175c-1.453,3.7-2.278,7.715-2.278,11.932
			c0,18.057,14.639,32.695,32.695,32.695h75.985c18.06,0,32.698-14.638,32.698-32.695
			C1167,143.177,1152.362,128.541,1134.302,128.541z"/>
	</g>
	<g>
		<path fill="#FFFFFF" d="M969.737,303.893h-4.488c0-7-5.675-12.678-12.677-12.678h-5.283c-7.001,0-12.677,5.678-12.677,12.678
			l0.001,0.011c-0.154-0.005-0.309-0.011-0.463-0.011h-29.459c-7.002,0-12.676,5.678-12.676,12.676
			c0,7.002,5.674,12.68,12.676,12.68h29.459c1.058,0,2.083-0.137,3.064-0.38c0.981,0.243,2.007,0.38,3.065,0.38h29.458
			c7.001,0,12.677-5.678,12.677-12.68C982.414,309.57,976.738,303.893,969.737,303.893z"/>
	</g>
	<g>
		<path fill="#FFFFFF" d="M142.123,269.212h-33.805c0-15.896-12.887-28.786-28.783-28.786H61.097
			c-15.896,0-28.781,12.89-28.781,28.786v0.022c-0.35-0.01-0.7-0.022-1.05-0.022h-2.484C12.883,269.212,0,282.102,0,297.993
			c0,15.899,12.883,28.789,28.781,28.789h32.54c2.4,0,4.729-0.308,6.956-0.861c2.229,0.554,4.561,0.861,6.961,0.861h66.885
			c15.897,0,28.783-12.89,28.783-28.789C170.906,282.102,158.021,269.212,142.123,269.212z"/>
	</g>
	<g>
		<path fill="#FFFFFF" d="M425.645,86.05h-66.392c-5.865-8.761-15.849-14.535-27.186-14.535h-75.984
			c-18.059,0-32.697,14.64-32.697,32.695c0,18.06,14.638,32.695,32.697,32.695h50.547c-6.229,5.954-10.126,14.326-10.126,23.622
			c0,18.056,14.638,32.695,32.696,32.695h75.986c18.056,0,32.694-14.64,32.694-32.695c0-3.786-0.676-7.409-1.861-10.791
			c12.966-4.342,22.322-16.562,22.322-30.991C458.342,100.69,443.701,86.05,425.645,86.05z"/>
	</g>
	<g>
		<path fill="#FFFFFF" d="M860.549,23.895h-25.408C831.294,10.118,818.681,0,803.676,0h-75.984
			c-18.057,0-32.695,14.636-32.695,32.696c0,18.057,14.639,32.697,32.695,32.697h25.409c2.148,7.69,7.018,14.235,13.53,18.519
			h-36.672c-7.311,0-14.037,2.428-19.481,6.482c-5.445-4.055-12.172-6.482-19.483-6.482h-75.985
			c-18.06,0-32.697,14.64-32.697,32.698c0,18.057,14.638,32.695,32.697,32.695h53.211c-1.452,3.7-2.278,7.715-2.278,11.932
			c0,18.057,14.639,32.695,32.697,32.695h75.986c18.057,0,32.695-14.638,32.695-32.695c0-4.216-0.825-8.231-2.278-11.932h0.9
			c18.059,0,32.697-14.638,32.697-32.695c0-11.431-5.876-21.479-14.764-27.324h36.672c18.059,0,32.697-14.64,32.697-32.695
			C893.246,38.532,878.607,23.895,860.549,23.895z"/>
	</g>
</g>
</svg>
