<?xml version="1.0" encoding="utf-8"?>
<!-- Generator: Adobe Illustrator 16.0.0, SVG Export Plug-In . SVG Version: 6.00 Build 0)  -->
<!DOCTYPE svg PUBLIC "-//W3C//DTD SVG 1.1//EN" "http://www.w3.org/Graphics/SVG/1.1/DTD/svg11.dtd">
<svg version="1.1" id="Layer_1" xmlns="http://www.w3.org/2000/svg" xmlns:xlink="http://www.w3.org/1999/xlink" x="0px" y="0px"
	 width="189px" height="139.633px" viewBox="0 0 189 139.633" enable-background="new 0 0 189 139.633" xml:space="preserve">
<g>
	<path fill="#F3A300" d="M58.238,118.803c0,1.441-1.168,2.609-2.609,2.609l0,0c-1.44,0-2.609-1.168-2.609-2.609V59.045
		c0-1.439,1.169-2.608,2.609-2.608l0,0c1.441,0,2.609,1.169,2.609,2.608V118.803z"/>
	<path fill="#F3A300" d="M137.061,118.803c0,1.441-1.167,2.609-2.608,2.609l0,0c-1.44,0-2.608-1.168-2.608-2.609V59.045
		c0-1.439,1.168-2.608,2.608-2.608l0,0c1.441,0,2.608,1.169,2.608,2.608V118.803z"/>
	<path fill="#FBCD00" d="M177.211,27.045l0.828-0.104l-64.301-11.843c0,0-6.4-1.679-19.443-1.679s-19.016,1.675-19.016,1.675
		L10.959,26.94l0.829,0.104C5.146,27.809,0,33.154,0,39.648V62.77c0,7.016,6.008,12.707,13.42,12.707H94.5h81.08
		c7.412,0,13.42-5.691,13.42-12.707V39.648C189,33.154,183.852,27.809,177.211,27.045z"/>
	<path fill="#FBCD00" d="M143.606,115.137l0.419-0.052H44.635l0.419,0.052c-3.358,0.387-5.962,3.092-5.962,6.375v11.694
		c0,3.548,3.039,6.427,6.787,6.427h81.034h15.868c3.749,0,6.787-2.879,6.787-6.427v-11.694
		C149.568,118.229,146.965,115.523,143.606,115.137z"/>
	<path fill="#F3A300" d="M82.529,75.477H94.5h53.402l-14.359-56.73l-19.805-3.648c0,0-6.4-1.679-19.443-1.679
		c-5.819,0-14.699,0.893-17.801,1.261l-0.242,14.668l5.17,2.646L82.529,75.477z"/>
	<path fill="#FFE9D8" d="M70.216,14.783c-0.019-0.09-0.028-0.184-0.028-0.277v-2.34c0-0.738,0.596-1.336,1.333-1.336
		s1.335,0.598,1.335,1.336c0-0.738,0.597-1.336,1.334-1.336c0.736,0,1.335,0.598,1.335,1.336c0-0.738,0.597-1.336,1.334-1.336
		s1.378,0.598,1.378,1.336v5.414l-1.25,0.443l-4.904,0.021c0,0-0.752,0-1.279-0.687c-0.314-0.41-0.376-0.656-0.558-1.315
		C70.164,15.745,70.179,15.266,70.216,14.783z"/>
	<path fill="#FFE9D8" d="M78.452,36.916c0.958-3.271,1.879-6.902,4.199-9.354h-4.508V16.838c0-1.447-1.024-2.621-2.472-2.621
		c-1.448,0-2.622,1.174-2.622,2.621l-4.417,12.75c0,4.041,3.288,7.328,7.329,7.328H78.452z"/>
	<path fill="#FFE9D8" d="M118.804,14.783c0.019-0.09,0.028-0.184,0.028-0.277v-2.34c0-0.738-0.596-1.336-1.333-1.336
		s-1.335,0.598-1.335,1.336c0-0.738-0.597-1.336-1.334-1.336c-0.736,0-1.335,0.598-1.335,1.336c0-0.738-0.597-1.336-1.334-1.336
		s-1.378,0.598-1.378,1.336v5.414l1.25,0.443l4.904,0.021c0,0,0.752,0,1.278-0.687c0.315-0.41,0.377-0.656,0.558-1.315
		C118.854,15.745,118.841,15.266,118.804,14.783z"/>
	<path fill="#E62519" d="M103.333,27.562H77.196v0.061h-4.147c-2.439,0-4.415,1.977-4.415,4.414v0.404
		c0,2.438,1.976,4.414,4.415,4.414h5.824h1.482v12.184v1.414v9.249c0,3.974,3.222,7.192,7.193,7.192h14.107L103.333,27.562z"/>
	<path fill="#FFE9D8" d="M110.566,36.916c-0.957-3.271-1.878-6.902-4.199-9.354h4.508V16.838c0-1.447,1.025-2.621,2.473-2.621
		c1.448,0,2.622,1.174,2.622,2.621l4.417,12.75c0,4.041-3.288,7.328-7.329,7.328H110.566z"/>
	<path fill="#D22417" d="M94.191,27.562h17.555v0.061h4.146c2.439,0,4.416,1.977,4.416,4.414v0.404c0,2.438-1.977,4.414-4.416,4.414
		h-5.824h-1.482v12.184v1.414v9.249c0,3.974-3.221,7.192-7.193,7.192h-7.201V27.562z"/>
	<polygon fill="#E62519" points="80.412,52.986 92.656,59.742 94.5,66.043 88.295,95.727 80.412,95.727 	"/>
	<polygon fill="#D22417" points="108.586,52.986 96.342,59.742 94.5,66.043 100.704,95.727 108.586,95.727 	"/>
	<path fill="#FFFFFF" d="M88.48,101.252c0,2.229-1.807,4.034-4.033,4.034l0,0c-2.229,0-4.035-1.806-4.035-4.034v-8.293
		c0-2.229,1.807-4.035,4.035-4.035l0,0c2.227,0,4.033,1.807,4.033,4.035V101.252z"/>
	<path fill="#FFFFFF" d="M108.678,101.252c0,2.229-1.807,4.034-4.035,4.034l0,0c-2.229,0-4.033-1.806-4.033-4.034v-8.293
		c0-2.229,1.805-4.035,4.033-4.035l0,0c2.229,0,4.035,1.807,4.035,4.035V101.252z"/>
	<path fill="#E62519" d="M102.623,62.09c0,2.627-2.129,4.754-4.754,4.754h-7.475c-2.625,0-4.754-2.127-4.754-4.754l-1.678-29.625
		c0-2.626,2.129-4.754,4.754-4.754h15.861c2.625,0,4.195,2.128,4.195,4.754L102.623,62.09z"/>
	<g>
		<path fill="#FFE9D8" d="M84.535,14.832c0,0.834-0.676,1.512-1.511,1.512l0,0c-0.834,0-1.511-0.678-1.511-1.512v-4.455
			c0-0.834,0.677-1.51,1.511-1.51l0,0c0.835,0,1.511,0.676,1.511,1.51V14.832z"/>
		<path fill="#FFE9D8" d="M107.352,14.832c0,0.834-0.676,1.512-1.512,1.512l0,0c-0.834,0-1.511-0.678-1.511-1.512v-4.455
			c0-0.834,0.677-1.51,1.511-1.51l0,0c0.836,0,1.512,0.676,1.512,1.51V14.832z"/>
		<path fill="#FFE9D8" d="M96.011,5.965c0,0.834-0.677,1.512-1.511,1.512l0,0c-0.834,0-1.512-0.678-1.512-1.512V1.51
			C92.988,0.676,93.666,0,94.5,0l0,0c0.834,0,1.511,0.676,1.511,1.51V5.965z"/>
		<path fill="#844819" d="M94.906,1.272h9.012v1.572c0,2.003-1.625,3.628-3.629,3.628H95.75V4.9
			C95.75,2.896,92.902,1.272,94.906,1.272z"/>
		<path fill="#C1711B" d="M105.84,12.922c0,10.906-9.686,11.648-11.648,11.648c-6.434,0-11.648-5.215-11.648-11.648
			S87.758,1.272,94.191,1.272S105.84,6.488,105.84,12.922z"/>
		<path fill="#844819" d="M105.84,12.922c0-6.434-5.215-11.649-11.648-11.649V24.57C96.154,24.57,105.84,23.828,105.84,12.922z"/>
	</g>
</g>
</svg>
