<?xml version="1.0" encoding="utf-8"?>
<!-- Generator: Adobe Illustrator 16.0.0, SVG Export Plug-In . SVG Version: 6.00 Build 0)  -->
<!DOCTYPE svg PUBLIC "-//W3C//DTD SVG 1.1//EN" "http://www.w3.org/Graphics/SVG/1.1/DTD/svg11.dtd">
<svg version="1.1" id="Layer_1" xmlns="http://www.w3.org/2000/svg" xmlns:xlink="http://www.w3.org/1999/xlink" x="0px" y="0px"
	 width="361px" height="300.711px" viewBox="0 0 361 300.711" enable-background="new 0 0 361 300.711" xml:space="preserve">
<g>
	<path fill="#169AB1" d="M121.337,89.138c0,4.562-3.697,8.259-8.258,8.259l0,0c-4.562,0-8.259-3.697-8.259-8.259V52.651
		c0-4.561,3.697-8.258,8.259-8.258l0,0c4.561,0,8.258,3.697,8.258,8.258V89.138z"/>
	<path fill="#169AB1" d="M252.914,89.138c0,4.562-3.698,8.259-8.259,8.259l0,0c-4.561,0-8.259-3.697-8.259-8.259V52.651
		c0-4.561,3.698-8.258,8.259-8.258l0,0c4.561,0,8.259,3.697,8.259,8.258V89.138z"/>
	<path fill="#FBCD00" d="M166.294,282.701v-27.175h-50.798c-3.354,0-6.072,2.716-6.072,6.069v27.36c0,3.354,2.719,6.071,6.072,6.071
		h38.474C160.776,295.027,166.294,289.509,166.294,282.701z"/>
	<path fill="#FBCD00" d="M191.269,282.701v-27.175h50.799c3.354,0,6.071,2.716,6.071,6.069v27.36c0,3.354-2.718,6.071-6.071,6.071
		h-38.474C196.787,295.027,191.269,289.509,191.269,282.701z"/>
	<path fill="#F3A300" d="M191.269,255.526v27.175c0,6.808,5.519,12.326,12.325,12.326h24.086l-17.587-39.501H191.269z"/>
	<path fill="#FBCD00" d="M154.152,157.397h51.197h6.647l-0.047-0.567l136.459-29.878l-0.951-0.119
		c7.629-0.877,13.542-7.02,13.542-14.48v-26.56c0-8.062-6.901-14.6-15.415-14.6H154.152V157.397z"/>
	<polygon fill="#F3A300" points="236.393,71.193 197.536,71.193 196.451,157.397 205.35,157.397 211.997,157.397 211.95,156.83 
		265.483,145.108 	"/>
	<path fill="#FBCD00" d="M207.564,157.397h-51.375h-6.671l0.048-0.57l-136.933-29.98l0.955-0.119C5.934,125.847,0,119.684,0,112.196
		V85.544c0-8.088,6.926-14.648,15.47-14.648h192.095V157.397z"/>
	<g>
		<path fill="#FBCD00" d="M213.228,42.399c0-5.17-4.021-9.359-9.192-9.359h-49.197c-5.169,0-9.488,4.189-9.488,9.359v107.479
			c0,39.998,14.946,150.832,33.7,150.832c18.753,0,34.178-110.834,34.178-150.832V42.399z"/>
		<path fill="#F8BF00" d="M204.035,33.04H178.97v267.668c0.027,0,0.053,0.003,0.08,0.003c18.753,0,34.178-110.834,34.178-150.832
			v-16.248c0.253-0.849,0-1.745,0-2.676V42.399C213.228,37.229,209.206,33.04,204.035,33.04z"/>
	</g>
	<path fill="#F19500" d="M198.37,117.843c0,10.682-8.659,19.342-19.343,19.342l0,0c-10.683,0-19.342-8.66-19.342-19.342v-12.408
		c0-10.684,8.659-19.342,19.342-19.342l0,0c10.684,0,19.343,8.658,19.343,19.342V117.843z"/>
	<path fill="#FFE9D8" d="M193.51,106.597l-7.471-19.188c-2.174-0.846-4.536-1.316-7.012-1.316c-0.299,0-0.597,0.009-0.892,0.022
		c-0.008,0.05-0.018,0.099-0.022,0.15h-0.028c-0.005-0.052-0.014-0.099-0.021-0.148c-3.027,0.148-5.872,0.995-8.378,2.38
		c-1.48,3.623-4.25,10.425-4.25,10.643c0,2.895-0.421,17.111,2.858,17.111h20.452c1.698,0,2.908-0.709,3.772-1.644v-0.001
		C195.186,111.595,193.51,106.597,193.51,106.597z"/>
	<path fill="#D22417" d="M198.37,117.154c0-6.641-7.833-18.015-7.833-18.015h-10.654h-1.71h-12.737c0,0-5.75,11.374-5.75,18.015
		c0,2.198,0.752,5.812,2.179,9.605c0.868,1.665,1.973,3.188,3.266,4.525c0.002,0.003,0.004,0.005,0.004,0.005
		c0.014,0.016,0.027,0.028,0.041,0.041c0.414,0.426,0.849,0.832,1.3,1.22c0.027,0.022,0.055,0.047,0.082,0.069
		c0.458,0.387,0.934,0.753,1.427,1.098c0.027,0.018,0.055,0.037,0.083,0.056c0.495,0.343,1.008,0.662,1.534,0.958
		c0.03,0.016,0.061,0.031,0.09,0.049c0.258,0.144,0.52,0.281,0.783,0.411c0.006,0.003,0.01,0.005,0.01,0.005
		c0.278,0.138,0.555,0.266,0.834,0.388c0.034,0.014,0.068,0.027,0.104,0.044c0.252,0.106,0.506,0.211,0.765,0.308
		c0.031,0.013,0.062,0.024,0.092,0.036c0.28,0.104,0.563,0.202,0.851,0.295c0.037,0.01,0.075,0.022,0.111,0.034
		c0.253,0.079,0.506,0.151,0.762,0.222c0.051,0.012,0.102,0.027,0.154,0.041c0.285,0.074,0.575,0.144,0.866,0.203
		c0.037,0.009,0.075,0.016,0.113,0.023c0.256,0.053,0.513,0.099,0.772,0.143c0.066,0.009,0.133,0.02,0.201,0.03
		c0.291,0.044,0.587,0.083,0.884,0.115c0.027,0.003,0.057,0.005,0.085,0.008c0.27,0.027,0.541,0.047,0.814,0.063
		c0.076,0.004,0.153,0.008,0.23,0.012c0.299,0.014,0.602,0.023,0.905,0.023l0,0h0.001c0.305,0,0.605-0.01,0.906-0.023
		c0.077-0.004,0.153-0.008,0.23-0.012c0.273-0.017,0.544-0.036,0.813-0.063c0.028-0.003,0.058-0.005,0.085-0.008
		c0.299-0.032,0.592-0.071,0.885-0.115c0.068-0.011,0.135-0.021,0.201-0.03c0.26-0.044,0.516-0.09,0.771-0.143
		c0.038-0.008,0.076-0.015,0.114-0.023c0.292-0.06,0.58-0.129,0.866-0.203c0.052-0.014,0.102-0.029,0.154-0.041
		c0.256-0.07,0.508-0.143,0.76-0.222c0.037-0.012,0.076-0.024,0.113-0.034c0.285-0.093,0.57-0.191,0.85-0.295
		c0.031-0.012,0.062-0.023,0.092-0.036c0.258-0.097,0.514-0.201,0.766-0.308c0.034-0.017,0.068-0.03,0.103-0.044
		c0.28-0.122,0.556-0.25,0.828-0.386c0,0,0.011-0.004,0.017-0.007c0.265-0.13,0.523-0.268,0.782-0.411
		c0.03-0.018,0.061-0.033,0.091-0.049c0.527-0.296,1.038-0.615,1.535-0.958c0.026-0.019,0.053-0.038,0.082-0.056
		c0.492-0.345,0.968-0.711,1.426-1.098c0.027-0.022,0.055-0.047,0.082-0.07c0.452-0.387,0.886-0.793,1.301-1.219
		c0.013-0.013,0.027-0.025,0.039-0.039c0.002-0.002,0.002-0.004,0.005-0.007c1.294-1.337,2.397-2.86,3.266-4.525
		C197.618,122.967,198.37,119.353,198.37,117.154z"/>
	<polygon fill="#FFE9D8" points="194.659,75.311 190.084,76.825 194.338,95.425 203.419,92.405 	"/>
	<path fill="#FFFFFF" d="M159.35,69.718h39.358c-1.385-9.633-9.665-17.033-19.681-17.033
		C169.015,52.685,160.732,60.085,159.35,69.718z"/>
	<path fill="#E3E3E3" d="M179.027,69.718h19.681c-1.385-9.633-9.665-17.033-19.681-17.033V69.718z"/>
	<path fill="#E62519" d="M202.573,90.892c-1.996-2.14-5.35-2.26-7.491-0.264l-17.591,16.381c0,0-5.804,5.334-8.644,8.01
		c-0.5,0.407-0.965,0.854-1.394,1.336c-0.087,0.088-0.137,0.141-0.139,0.154c0,0,0.001,0.002,0,0.004
		c-1.851,2.146-2.971,4.939-2.971,7.996c0,5.522,3.652,10.189,8.672,11.723c0.179,0.474,0.446,0.924,0.811,1.318
		c1.524,1.663,4.104,1.773,5.765,0.252l2.612-2.395c1.954-1.008,3.6-2.521,4.766-4.371l1.27-1.164
		c1.512-1.387,1.734-3.647,0.614-5.297c0-0.021,0.001-0.045,0.001-0.066c0-1.441-0.251-2.825-0.709-4.109l7.225-6.344
		c3.046-2.791,3.613-7.272,1.591-10.692l5.347-4.979C204.45,96.388,204.567,93.034,202.573,90.892z"/>
	<path fill="#E62519" d="M170.728,129.895c0.109,0.073,0.217,0.151,0.319,0.237c2.512,2.137,4.623,4.686,7.085,6.877
		c0.059,0.053,0.109,0.107,0.162,0.162c0.243,0.007,0.488,0.014,0.733,0.014c10.684,0,19.343-8.66,19.343-19.342v-11.108
		L170.728,129.895z"/>
	<path fill="#FFE9D8" d="M207.163,126.703l3.233-7.454c0,0,1.19-2.153-0.531-2.9c-1.722-0.746-4.622,2.992-4.622,2.992l-4.51,9.676
		L207.163,126.703z"/>
	<circle fill="#FFE9D8" cx="194.824" cy="114.13" r="13.218"/>
	<circle fill="#844819" cx="192.06" cy="110.008" r="1.098"/>
	<circle fill="#844819" cx="192.06" cy="118.252" r="1.098"/>
	<path fill="#844819" d="M197.897,133.405v15.856c0,4.235-2.524,7.876-6.147,9.519v-15.859
		C191.75,138.685,194.274,135.046,197.897,133.405z"/>
	<path fill="#FFE9D8" d="M207.354,125.153c0.296,1.129-0.381,2.283-1.51,2.578l-27.553,11.394c-2.356,0.614-4.764-0.798-5.378-3.151
		l0,0c-0.615-2.355,0.796-4.764,3.151-5.379l27.044-7.573c1.129-0.294,1.689,1.917,1.983,3.044L207.354,125.153z"/>
	<path fill="#C1711B" d="M198.199,119.979l-0.013,6.938c5.672-1.488,9.855-6.648,9.855-12.787c0-6.099-4.133-11.23-9.749-12.755
		l-0.043,8.442c0.444,2.645,2.292,4.699,4.616,5.105C200.54,115.305,198.669,117.34,198.199,119.979z"/>
	<path fill="#844819" d="M202.847,114.92c0,0,0.013,0.001,0.02,0.003c-2.326,0.382-4.197,2.417-4.667,5.057l-0.013,6.938
		c5.427-1.424,9.489-6.211,9.83-11.997H202.847z"/>
	<path fill="#D22417" d="M171.96,7.149v5.399h14.3V7.149c0-3.948-3.202-7.149-7.15-7.149C175.16,0,171.96,3.201,171.96,7.149z"/>
	<path fill="#E62519" d="M206.1,6.6l-1.062,0.189c-0.16,0.03-0.322,0.056-0.482,0.087l-25.585,4.582l-25.583-4.582
		c-0.164-0.031-0.324-0.057-0.481-0.087L151.843,6.6l-0.003,0.003c-7.263-1.16-15.968-0.624-21.883,1.617
		c-7.798,2.951-7.798,7.742,0,10.696c6.366,2.413,15.966,2.854,23.52,1.322l25.494-4.561l25.495,4.561
		c7.555,1.532,17.152,1.091,23.518-1.322c7.798-2.954,7.798-7.745,0-10.696c-5.915-2.241-14.618-2.777-21.882-1.617L206.1,6.6z"/>
	<path fill="#D22417" d="M206.1,6.6l-1.062,0.189c-0.16,0.03-0.322,0.056-0.482,0.087l-25.585,4.582l-9.013-1.615l37.405,6.785
		c0,0,9.884,2.753,18.376,3.018c0.781-0.221,1.537-0.459,2.244-0.729c7.798-2.954,7.798-7.745,0-10.696
		c-5.915-2.241-14.618-2.777-21.882-1.617L206.1,6.6z"/>
	<path fill="#E62519" d="M171.96,7.149v5.399h7.149V0C175.16,0,171.96,3.201,171.96,7.149z"/>
	<path fill="#FFE9D8" d="M192.31,77.115c0.675-0.159,1.23,0.039,1.623,0.409c0.584-0.672,0.94-1.547,0.94-2.507
		c0-2.112-1.712-3.824-3.824-3.824c-1.351,0-2.534,0.704-3.214,1.763c0.005,0.01,0.008,0.023,0.013,0.036
		c-0.087,0.183-0.135,0.386-0.135,0.603c0,0.785,0.638,1.423,1.423,1.423c0.048,0,0.096-0.003,0.142-0.007
		c0.003,0.002,0.007,0.004,0.011,0.007h1.761v1.758c-0.006,0.054-0.011,0.109-0.011,0.164c0,0.165,0.035,0.322,0.086,0.47
		C191.52,77.308,191.914,77.209,192.31,77.115z"/>
	<path fill="#844819" d="M191.758,75.569c0,0.992-0.806,1.797-1.799,1.797h-21.978c-0.994,0-1.799-0.805-1.799-1.797l0,0
		c0-0.994,0.805-1.799,1.799-1.799h21.978C190.952,73.771,191.758,74.575,191.758,75.569L191.758,75.569z"/>
</g>
</svg>
