<?xml version="1.0" encoding="utf-8"?>
<!-- Generator: Adobe Illustrator 16.0.0, SVG Export Plug-In . SVG Version: 6.00 Build 0)  -->
<!DOCTYPE svg PUBLIC "-//W3C//DTD SVG 1.1//EN" "http://www.w3.org/Graphics/SVG/1.1/DTD/svg11.dtd">
<svg version="1.1" id="Layer_1" xmlns="http://www.w3.org/2000/svg" xmlns:xlink="http://www.w3.org/1999/xlink" x="0px" y="0px"
	 width="269.369px" height="550px" viewBox="-491.898 86.172 269.369 550" enable-background="new -491.898 86.172 269.369 550"
	 xml:space="preserve">
<g>
	<g>
		<path fill="#FFFFFF" d="M-263.906,119.133c0,8.139-6.597,14.737-14.738,14.737h-34.25c-8.137,0-14.738-6.598-14.738-14.737l0,0
			c0-8.14,6.601-14.737,14.738-14.737h34.25C-270.503,104.395-263.906,110.993-263.906,119.133L-263.906,119.133z"/>
		<path fill="#FFFFFF" d="M-236.036,100.908c0,8.139-6.598,14.737-14.737,14.737h-34.249c-8.14,0-14.738-6.598-14.738-14.737l0,0
			c0-8.139,6.598-14.737,14.738-14.737h34.249C-242.634,86.172-236.036,92.77-236.036,100.908L-236.036,100.908z"/>
		<path fill="#FFFFFF" d="M-222.53,119.133c0,8.139-6.598,14.737-14.738,14.737h-34.249c-8.14,0-14.738-6.598-14.738-14.737l0,0
			c0-8.14,6.598-14.737,14.738-14.737h34.249C-229.128,104.395-222.53,110.993-222.53,119.133L-222.53,119.133z"/>
	</g>
	<g>
		<path fill="#FFFFFF" d="M-389.499,320.576c0,16.778-13.602,30.381-30.383,30.381h-12.665c-16.779,0-30.382-13.603-30.382-30.381
			l0,0c0-16.779,13.603-30.381,30.382-30.381h12.665C-403.101,290.195-389.499,303.797-389.499,320.576L-389.499,320.576z"/>
		<path fill="#FFFFFF" d="M-330.146,346.479c0,16.779-13.603,30.382-30.382,30.382h-100.987
			c-16.78-0.001-30.382-13.603-30.382-30.382l0,0c0-16.779,13.602-30.381,30.382-30.381h100.988
			C-343.749,316.098-330.146,329.7-330.146,346.479L-330.146,346.479z"/>
	</g>
	<path fill="#FFFFFF" d="M-326.429,636.172h22.417c0.804,0,1.585-0.1,2.332-0.285c0.746,0.186,1.527,0.285,2.331,0.285h22.417
		c5.327,0,9.646-4.318,9.646-9.646s-4.319-9.646-9.646-9.646h-3.415c0-5.327-4.319-9.645-9.646-9.645h-4.021
		c-5.327,0-9.646,4.317-9.646,9.645c0,0.004,0,0.006,0,0.01c-0.118-0.005-0.235-0.01-0.353-0.01h-22.417
		c-5.329,0-9.646,4.319-9.646,9.646C-336.076,631.853-331.758,636.172-326.429,636.172z"/>
</g>
</svg>
