<?xml version="1.0" encoding="utf-8"?>
<!-- Generator: Adobe Illustrator 16.0.0, SVG Export Plug-In . SVG Version: 6.00 Build 0)  -->
<!DOCTYPE svg PUBLIC "-//W3C//DTD SVG 1.1//EN" "http://www.w3.org/Graphics/SVG/1.1/DTD/svg11.dtd">
<svg version="1.1" id="Layer_1" xmlns="http://www.w3.org/2000/svg" xmlns:xlink="http://www.w3.org/1999/xlink" x="0px" y="0px"
	 width="1280px" height="549.406px" viewBox="0 0 1280 549.406" enable-background="new 0 0 1280 549.406" xml:space="preserve">
<g>
	<path fill="#FFFFFF" d="M723.505,296.15c0,18.3-14.833,33.136-33.133,33.136h-77c-18.299,0-33.131-14.834-33.131-33.136l0,0
		c-0.001-18.296,14.833-33.132,33.131-33.132h77C708.671,263.019,723.505,277.853,723.505,296.15L723.505,296.15z"/>
	<path fill="#FFFFFF" d="M799.84,311.34c0,18.298-14.833,33.133-33.132,33.133h-77c-18.299,0-33.133-14.833-33.133-33.133l0,0
		c0-18.299,14.834-33.132,33.133-33.132h77C785.007,278.208,799.84,293.041,799.84,311.34L799.84,311.34z"/>
	<path fill="#FFFFFF" d="M799.84,256.441c0,18.298-14.833,33.134-33.132,33.134h-77c-18.299,0-33.133-14.834-33.133-33.134l0,0
		c0-18.298,14.834-33.132,33.133-33.132h77C785.007,223.31,799.84,238.144,799.84,256.441L799.84,256.441z"/>
	<path fill="#FFFFFF" d="M871.473,289.575c0,18.298-14.833,33.134-33.133,33.134h-77c-18.299,0-33.133-14.834-33.133-33.134l0,0
		c0-18.298,14.834-33.132,33.133-33.132h77C856.64,256.443,871.473,271.277,871.473,289.575L871.473,289.575z"/>
	<path fill="#FFFFFF" d="M871.671,108.912c0,18.298-14.833,33.134-33.133,33.134h-8.51c-18.299,0-33.132-14.834-33.132-33.134l0,0
		c0-18.298,14.833-33.132,33.132-33.132h8.51C856.839,75.78,871.671,90.614,871.671,108.912L871.671,108.912z"/>
	<path fill="#FFFFFF" d="M885.777,68.78c0,18.298-14.833,33.134-33.132,33.134H697.37c-18.299,0-33.133-14.834-33.133-33.134l0,0
		c0-18.298,14.833-33.132,33.133-33.132h155.275C870.944,35.648,885.777,50.482,885.777,68.78L885.777,68.78z"/>
	<g>
		<path fill="#FFFFFF" d="M566.742,496.605c0-14.324-11.612-25.937-25.938-25.937h-60.277c-14.325,0-25.938,11.612-25.938,25.937
			l0,0c0,14.324,11.612,25.938,25.938,25.938h60.277C555.13,522.543,566.742,510.93,566.742,496.605L566.742,496.605z"/>
		<path fill="#FFFFFF" d="M609.438,470.869c0-14.325-11.614-25.937-25.938-25.937h-60.278c-14.325,0-25.938,11.611-25.938,25.937
			l0,0c0,14.324,11.612,25.938,25.938,25.938h60.278C597.823,496.807,609.438,485.193,609.438,470.869L609.438,470.869z"/>
		<path fill="#FFFFFF" d="M583.487,511.901c14.323,0,25.936-11.613,25.936-25.938v-31.507c0-14.325-11.613-25.938-25.936-25.938l0,0
			c-14.326,0-25.938,11.612-25.938,25.938v31.507C557.549,500.288,569.161,511.901,583.487,511.901L583.487,511.901z"/>
		<path fill="#FFFFFF" d="M639.562,496.605c0-14.324-11.611-25.937-25.938-25.937h-60.277c-14.324,0-25.938,11.612-25.938,25.937
			l0,0c0,14.324,11.613,25.938,25.938,25.938h60.277C627.95,522.543,639.562,510.93,639.562,496.605L639.562,496.605z"/>
	</g>
	<path fill="#FFFFFF" d="M135.429,471.252h23.942c0.859,0,1.694-0.105,2.492-0.304c0.798,0.196,1.632,0.304,2.491,0.304H188.3
		c5.689,0,10.302-4.613,10.302-10.303s-4.613-10.302-10.302-10.302h-3.648c0-5.688-4.613-10.301-10.304-10.301h-4.296
		c-5.69,0-10.304,4.612-10.304,10.301c0,0,0,0.006,0,0.012c-0.125-0.006-0.25-0.012-0.377-0.012h-23.942
		c-5.69,0-10.304,4.612-10.304,10.302C125.126,466.641,129.739,471.252,135.429,471.252z"/>
	<path fill="#FFFFFF" d="M895.066,33.132c0,18.298-14.833,33.132-33.133,33.132H589.248c-18.299,0-33.132-14.834-33.132-33.132l0,0
		c0-18.3,14.833-33.132,33.132-33.132h272.686C880.233,0,895.066,14.834,895.066,33.132L895.066,33.132z"/>
	<path fill="#FFFFFF" d="M757.035,68.523c0,18.298-14.833,33.131-33.133,33.131h-76.999c-18.299,0-33.133-14.833-33.133-33.131l0,0
		c0-18.301,14.834-33.132,33.133-33.132h76.999C742.201,35.392,757.035,50.225,757.035,68.523L757.035,68.523z"/>
	<path fill="#FFFFFF" d="M1186.98,35.646c0,18.3-14.834,33.134-33.134,33.134h-76.998c-18.3,0-33.134-14.834-33.134-33.134l0,0
		c0-18.298,14.833-33.134,33.134-33.134h76.998C1172.146,2.513,1186.98,17.349,1186.98,35.646L1186.98,35.646z"/>
	<path fill="#FFFFFF" d="M1241.516,68.525c0,18.297-14.833,33.13-33.131,33.13h-77.002c-18.298,0-33.131-14.833-33.131-33.13l0,0
		c0-18.3,14.833-33.135,33.131-33.135h77.002C1226.683,35.391,1241.516,50.226,1241.516,68.525L1241.516,68.525z"/>
	<path fill="#FFFFFF" d="M1280,35.646c0,18.3-14.833,33.134-33.133,33.134h-76.998c-18.299,0-33.133-14.834-33.133-33.134l0,0
		c0-18.298,14.833-33.134,33.133-33.134h76.998C1265.167,2.513,1280,17.349,1280,35.646L1280,35.646z"/>
	<path fill="#FFFFFF" d="M310.649,39.481c0,18.3-14.833,33.134-33.133,33.134H102.574c-18.299,0-33.133-14.834-33.133-33.134l0,0
		c0-18.298,14.834-33.134,33.133-33.134h174.944C295.815,6.348,310.649,21.184,310.649,39.481L310.649,39.481z"/>
	<path fill="#FFFFFF" d="M341.866,51.611c0,18.298-14.833,33.132-33.131,33.132h-77.001c-18.297,0-33.131-14.834-33.131-33.132l0,0
		c0-18.298,14.833-33.134,33.131-33.134h77.001C327.034,18.478,341.866,33.313,341.866,51.611L341.866,51.611z"/>
	<g>
		<path fill="#FFFFFF" d="M111.671,269.768c0,18.298-14.833,33.132-33.134,33.132H64.724c-18.298,0-33.132-14.832-33.132-33.132l0,0
			c0-18.298,14.833-33.134,33.132-33.134h13.813C96.838,236.634,111.671,251.468,111.671,269.768L111.671,269.768z"/>
		<path fill="#FFFFFF" d="M176.398,298.02c0,18.296-14.833,33.129-33.133,33.129H33.131C14.832,331.148,0,316.315,0,298.02l0,0
			c0-18.301,14.833-33.136,33.131-33.136h110.134C161.565,264.884,176.398,279.717,176.398,298.02L176.398,298.02z"/>
	</g>
	<g>
		<path fill="#FFFFFF" d="M1195.949,376.254c0,15.578-12.629,28.211-28.212,28.211h-11.76c-15.582,0-28.21-12.633-28.21-28.211l0,0
			c0-15.579,12.629-28.214,28.21-28.214h11.76C1183.319,348.042,1195.949,360.675,1195.949,376.254L1195.949,376.254z"/>
		<path fill="#FFFFFF" d="M1251.062,400.307c0,15.581-12.63,28.212-28.211,28.212h-93.774c-15.581,0-28.211-12.631-28.211-28.212
			l0,0c0-15.58,12.63-28.209,28.211-28.209h93.774C1238.431,372.096,1251.062,384.727,1251.062,400.307L1251.062,400.307z"/>
	</g>
	<g>
		<path fill="#FFFFFF" d="M825.384,535.622c0,7.612-6.168,13.784-13.781,13.784h-32.029c-7.609,0-13.781-6.172-13.781-13.784l0,0
			c0-7.613,6.172-13.783,13.781-13.783h32.03C819.216,521.839,825.384,528.011,825.384,535.622L825.384,535.622z"/>
		<path fill="#FFFFFF" d="M851.447,518.581c0,7.61-6.171,13.782-13.782,13.782h-32.027c-7.612,0-13.782-6.172-13.782-13.782l0,0
			c0-7.612,6.17-13.783,13.782-13.783h32.027C845.277,504.798,851.447,510.969,851.447,518.581L851.447,518.581z"/>
		<path fill="#FFFFFF" d="M864.079,535.622c0,7.612-6.171,13.784-13.783,13.784h-32.028c-7.61,0-13.78-6.172-13.78-13.784l0,0
			c0-7.613,6.17-13.783,13.78-13.783h32.028C857.908,521.839,864.079,528.011,864.079,535.622L864.079,535.622z"/>
	</g>
</g>
</svg>
