<?xml version="1.0" encoding="utf-8"?>
<!-- Generator: Adobe Illustrator 16.0.0, SVG Export Plug-In . SVG Version: 6.00 Build 0)  -->
<!DOCTYPE svg PUBLIC "-//W3C//DTD SVG 1.1//EN" "http://www.w3.org/Graphics/SVG/1.1/DTD/svg11.dtd">
<svg version="1.1" id="Layer_1" xmlns="http://www.w3.org/2000/svg" xmlns:xlink="http://www.w3.org/1999/xlink" x="0px" y="0px"
	 width="503px" height="236.09px" viewBox="0 0 503 236.09" enable-background="new 0 0 503 236.09" xml:space="preserve">
<g>
	<g>
		<path fill="#FBCD00" d="M470.278,52.701l-350.763-0.195c0,0.16-0.023,0.319-0.023,0.479c0.261,35.753,29.316,64.679,65.137,64.679
			h285.649c17.992,0,32.58-14.526,32.709-32.481C502.858,67.221,488.271,52.701,470.278,52.701z"/>
		<path fill="#FBCD00" d="M503,84.942c0,0.082-0.011,0.161-0.013,0.242c0.002,0.08,0.013,0.161,0.013,0.24V84.942z"/>
		<path fill="#FBCD00" d="M119.467,53.465c0-0.16,0.025-0.318,0.025-0.479c0-0.161-0.025-0.319-0.025-0.479V53.465z"/>
	</g>
	<path fill="#F3A300" d="M487.772,57.778c-1.622,16.549-15.564,25.839-32.546,25.839H327.188c-0.693,2.134-1.412,4.262-2.189,6.373
		c-0.475,1.289-1.286,5.918-2.264,6.588c-0.349,0.981-0.7,1.958-1.045,2.942c-2.093,5.975-4.029,12.314-6.824,18.144h155.413
		c17.992,0,32.58-14.526,32.709-32.481C502.904,73.648,496.854,63.541,487.772,57.778z"/>
	<g>
		<path fill="#FBCD00" d="M296.793,54.184l-115.784-0.346c0,0.284,0,0.566,0,0.851c0.463,63.429-63.55,114.748,0,114.748h115.784
			c31.92,0,57.801-25.771,58.03-57.625C354.594,79.944,328.713,54.184,296.793,54.184z"/>
		<path fill="#FBCD00" d="M354.846,111.383c0,0.144-0.019,0.285-0.022,0.429c0.004,0.141,0.022,0.286,0.022,0.425V111.383z"/>
		<path fill="#FBCD00" d="M181.009,55.54c0-0.285,0-0.565,0-0.851c0-0.285,0-0.566,0-0.851V55.54z"/>
	</g>
	<path fill="#F3A300" d="M289.341,134.417H173.557c-6.175,0-11.133-0.49-15.075-1.423c-9.052,22.427-10.677,36.442,22.527,36.442
		h115.784c31.92,0,57.801-25.771,58.03-57.625c-0.075-10.465-2.931-20.264-7.845-28.715
		C343.644,111.977,319.126,134.417,289.341,134.417z"/>
	<path fill="#8BCED1" d="M271.1,52.506H192.61h-72.854H59.156C26.49,52.506,0,78.901,0,111.566c0,32.665,26.49,59.156,59.156,59.156
		h13.506c1.143,0.283,2.373,0.447,3.704,0.447h151.341c9.587,0,20.197-7.772,23.699-17.357L288.4,52.506H271.1z"/>
	<path fill="#FFE9D8" d="M166.485,102.57c-1.219-0.89-3.759-0.642-4.098,0.119c-0.096,0.216,2.148,0.021,2.062,0.229
		c-0.451,1.131-0.102,2.465,0.925,3.216l17.816,11.243l0.692,0.164l4.444-5.959L166.485,102.57z"/>
	<path fill="#FFE9D8" d="M167.458,110.818c0.923-0.702,1.908-0.776,2.761-0.477c0.438-1.424,0.39-3.006-0.262-4.476
		c-1.436-3.234-5.22-4.693-8.454-3.258c-2.069,0.918-3.403,2.799-3.725,4.881c0.016,0.016,0.026,0.032,0.042,0.047
		c-0.007,0.338,0.058,0.684,0.204,1.013c0.533,1.204,1.944,1.748,3.147,1.213c0.073-0.033,0.144-0.068,0.212-0.107
		c0.007,0.001,0.013,0.003,0.02,0.004l2.697-1.196l1.193,2.689c0.027,0.087,0.059,0.175,0.097,0.26
		c0.112,0.253,0.271,0.469,0.45,0.66C166.377,111.652,166.913,111.231,167.458,110.818z"/>
	<path fill="#169AB1" d="M157.516,149.299c-1.536,3.798-5.861,5.629-9.658,4.092l0,0c-3.799-1.536-5.631-5.861-4.093-9.659
		l13.729-33.919c1.537-3.798,5.861-5.631,9.661-4.093l0,0c3.797,1.537,5.63,5.862,4.092,9.66L157.516,149.299z"/>
	<path fill="#169AB1" d="M124.435,153.867c-4.097-0.006-7.411-3.333-7.404-7.431l0,0c0.007-4.099,3.335-7.413,7.432-7.405
		l25.637,0.069c4.097,0.007,7.413,3.334,7.406,7.432l0,0c-0.008,4.097-3.336,7.413-7.433,7.404L124.435,153.867z"/>
	<path fill="#169AB1" d="M229.989,149.299c-1.536,3.798-5.861,5.629-9.658,4.092l0,0c-3.8-1.536-5.632-5.861-4.094-9.659
		l13.73-33.919c1.537-3.798,5.861-5.631,9.661-4.093l0,0c3.796,1.537,5.629,5.862,4.091,9.66L229.989,149.299z"/>
	<path fill="#169AB1" d="M193.562,153.867c-4.097-0.006-7.412-3.333-7.405-7.431l0,0c0.008-4.099,3.335-7.413,7.432-7.405
		l29.289,0.069c4.097,0.007,7.412,3.334,7.406,7.432l0,0c-0.008,4.097-3.336,7.413-7.433,7.404L193.562,153.867z"/>
	<path fill="#FFE9D8" d="M136.039,129.555l-16.656-0.845c-2.1,0.233-7.419,0.938-7.652-1.161c-0.233-2.1,1.28-3.99,3.379-4.224
		l16.483-3.613l10.52-13.824c1.854-2.472,5.361-2.971,7.832-1.116c2.472,1.855,2.971,5.363,1.114,7.833l-11.164,14.749
		C138.968,128.589,137.573,129.385,136.039,129.555z"/>
	<path fill="#D22417" d="M142.112,105.889l-10.59,13.84c2.285,3.092,5.71,5.244,9.579,5.906l9.957-13.029
		c1.856-2.47,1.357-5.978-1.114-7.833C147.474,102.918,143.966,103.417,142.112,105.889z"/>
	<path fill="#E62519" d="M132.48,130.826c-1.629,4.351,0.579,9.198,4.933,10.826l0,0c4.353,1.628,9.2-0.581,10.828-4.934
		l8.406-22.481c1.628-4.354-0.581-9.199-4.934-10.828l0,0c-4.354-1.627-9.198,0.582-10.827,4.936L132.48,130.826z"/>
	<path fill="#E62519" d="M215.772,128.586c3.999,2.368,9.157,1.044,11.523-2.956l0,0c2.368-4,1.044-9.159-2.956-11.525
		l-20.656-12.222c-4.001-2.368-9.159-1.043-11.526,2.957l0,0c-2.365,3.999-1.042,9.157,2.958,11.525L215.772,128.586z"/>
	<path fill="#E62519" d="M223.659,129.844c4.07-2.242,5.551-7.358,3.308-11.427l0,0c-2.241-4.071-7.359-5.552-11.43-3.309
		l-21.445,14.281c-2.477,1.364-3.379,4.48-2.014,6.957l0,0c1.365,2.477,4.479,3.377,6.956,2.013L223.659,129.844z"/>
	<path fill="#FFE9D8" d="M196.184,129.463c-2.611-0.009-4.734,2.102-4.742,4.715l0,0c-0.01,2.61,2.103,4.734,4.715,4.743
		l37.565-0.391c1.847,0.005,3.349-1.487,3.355-3.334l0,0c0.005-1.848-1.487-3.347-3.335-3.353L196.184,129.463z"/>
	<g>
		<circle fill="#FFE9D8" cx="145.784" cy="85.889" r="14.321"/>
		<circle fill="#433020" cx="135.344" cy="84.996" r="0.985"/>
		<path fill="#C1711B" d="M160.033,84.459c-0.016-0.142-0.043-0.277-0.062-0.416c-0.04-0.316-0.082-0.63-0.143-0.938l0,0
			l-0.001-0.003v-0.004c-0.003-0.01-0.006-0.02-0.006-0.03c-0.082-0.399-0.183-0.794-0.295-1.182
			c-0.01-0.034-0.017-0.069-0.027-0.101c-0.015-0.05-0.033-0.096-0.049-0.146c-0.6-1.937-1.592-3.697-2.896-5.187l-0.004-0.002
			c-0.111-0.13-0.228-0.257-0.344-0.381l-0.002-0.002c-0.087-0.091-0.177-0.178-0.262-0.265c-0.021-0.022-0.043-0.046-0.064-0.065
			v-0.001c-0.011-0.011-0.022-0.023-0.033-0.034c-0.004-0.005-0.01-0.009-0.015-0.016c-0.118-0.115-0.239-0.229-0.36-0.342
			l-0.006-0.005c-0.125-0.114-0.249-0.227-0.378-0.333c-0.009-0.009-0.02-0.016-0.027-0.025c-0.065-0.055-0.131-0.107-0.196-0.16
			c-0.008-0.007-0.016-0.013-0.024-0.021l-0.001-0.001c-0.053-0.041-0.103-0.084-0.153-0.125l-0.013-0.012
			c-0.13-0.102-0.26-0.201-0.394-0.3c-0.014-0.011-0.028-0.021-0.042-0.031c-0.127-0.092-0.255-0.183-0.385-0.272
			c-0.006-0.003-0.013-0.009-0.02-0.013l-0.015-0.008l-0.004-0.002c-0.019-0.013-0.033-0.024-0.053-0.035
			c-0.111-0.077-0.225-0.15-0.337-0.223c-0.02-0.009-0.038-0.022-0.058-0.035c-0.128-0.08-0.26-0.161-0.393-0.236
			c-0.008-0.005-0.018-0.011-0.025-0.016c-0.093-0.055-0.189-0.105-0.284-0.16l-0.006,0c0,0-0.013-0.008-0.018-0.012
			c-0.037-0.021-0.075-0.044-0.113-0.062l-0.071-0.039c-0.134-0.07-0.267-0.138-0.404-0.204c-0.009-0.003-0.018-0.009-0.026-0.014
			c-0.146-0.069-0.29-0.137-0.435-0.203c-0.029-0.011-0.059-0.022-0.084-0.034c-0.031-0.016-0.064-0.027-0.096-0.04v-0.002
			c-0.015-0.005-0.03-0.011-0.044-0.017c-0.091-0.039-0.18-0.078-0.273-0.115c-0.011-0.003-0.022-0.009-0.032-0.011
			c-0.146-0.061-0.296-0.116-0.446-0.171c-0.031-0.009-0.062-0.02-0.095-0.032c-0.141-0.048-0.281-0.096-0.423-0.141
			c-0.013-0.004-0.024-0.007-0.034-0.013c-0.012-0.002-0.022-0.005-0.035-0.01l-0.017-0.004h-0.003
			c-0.136-0.043-0.27-0.082-0.403-0.119c-0.033-0.009-0.069-0.018-0.104-0.028c-0.145-0.039-0.289-0.076-0.437-0.111
			c-0.01-0.001-0.021-0.004-0.032-0.008c-0.1-0.022-0.199-0.041-0.297-0.062l-0.009-0.002c-0.018-0.005-0.038-0.01-0.054-0.011
			c-0.037-0.008-0.073-0.016-0.107-0.023c-0.038-0.008-0.074-0.015-0.112-0.021c-0.151-0.03-0.301-0.056-0.451-0.08
			c-0.01,0-0.019-0.002-0.028-0.002c-0.158-0.027-0.316-0.046-0.477-0.066l-0.117-0.014c-0.16-0.015-0.316-0.032-0.474-0.044
			l-0.017-0.001c-0.161-0.014-0.326-0.021-0.488-0.028c-0.041-0.002-0.08-0.002-0.122-0.005c-0.164-0.006-0.328-0.009-0.496-0.009
			c-0.236,0-0.472,0.007-0.705,0.018c-0.136-0.021-0.271-0.041-0.414-0.041h-2.447c-0.918,0-1.714,0.491-2.159,1.218
			c-2.011,0.881-3.783,2.202-5.187,3.853h7.346h2.447h1.119v0.706v6.087v2.305v0.08v0.712c0,3.702,3.001,6.699,6.699,6.699h5.594
			c1.28-2.143,2.028-4.642,2.028-7.318C160.105,85.407,160.079,84.93,160.033,84.459z"/>
		<g>
			<path fill="#844819" d="M160.033,84.459c-0.016-0.142-0.043-0.277-0.062-0.416c-0.04-0.316-0.082-0.63-0.143-0.938l-0.001-0.003
				v-0.004c-0.003-0.01-0.006-0.02-0.006-0.03c-0.082-0.399-0.183-0.794-0.295-1.182c-0.01-0.034-0.017-0.069-0.027-0.101
				c-0.015-0.05-0.033-0.096-0.049-0.146c-0.6-1.937-1.592-3.697-2.896-5.187l-0.004-0.002c-0.111-0.13-0.228-0.257-0.344-0.381
				l-0.002-0.002c-0.087-0.091-0.177-0.178-0.262-0.265c-0.021-0.022-0.043-0.046-0.064-0.065v-0.001
				c-0.011-0.011-0.022-0.023-0.033-0.034c-0.004-0.005-0.01-0.009-0.015-0.016c-0.118-0.115-0.239-0.229-0.36-0.342l-0.006-0.005
				c-0.125-0.114-0.249-0.227-0.378-0.333c-0.009-0.009-0.02-0.016-0.027-0.025c-0.065-0.055-0.131-0.107-0.196-0.16
				c-0.008-0.007-0.016-0.013-0.024-0.021l-0.001-0.001c-0.053-0.041-0.103-0.084-0.153-0.125l-0.013-0.012
				c-0.13-0.102-0.26-0.201-0.394-0.3c-0.014-0.011-0.028-0.021-0.042-0.031c-0.127-0.092-0.255-0.183-0.385-0.272
				c-0.006-0.003-0.013-0.009-0.02-0.013l-0.015-0.008l-0.004-0.002c-0.019-0.013-0.033-0.024-0.053-0.035
				c-0.111-0.077-0.225-0.15-0.337-0.223c-0.02-0.009-0.038-0.022-0.058-0.035c-0.128-0.08-0.26-0.161-0.393-0.236
				c-0.008-0.005-0.018-0.011-0.025-0.016c-0.093-0.055-0.189-0.105-0.284-0.16l-0.006,0c0,0-0.013-0.008-0.018-0.012
				c-0.037-0.021-0.075-0.044-0.113-0.062l-0.071-0.039c-0.134-0.07-0.267-0.138-0.404-0.204c-0.009-0.003-0.018-0.009-0.026-0.014
				c-0.146-0.069-0.29-0.137-0.435-0.203c-0.029-0.011-0.059-0.022-0.084-0.034c-0.031-0.016-0.064-0.027-0.096-0.04v-0.002
				c-0.015-0.005-0.03-0.011-0.044-0.017c-0.091-0.039-0.18-0.078-0.273-0.115c-0.011-0.003-0.022-0.009-0.032-0.011
				c-0.146-0.061-0.296-0.116-0.446-0.171c-0.031-0.009-0.062-0.02-0.095-0.032c-0.058-0.02-0.117-0.039-0.176-0.059
				c0.089,0.121,0.178,0.244,0.262,0.369l0.005,0.005c1.305,1.896,2.296,4.14,2.896,6.61c0.016,0.062,0.034,0.123,0.048,0.184
				c0.012,0.045,0.019,0.089,0.027,0.13c0.112,0.496,0.213,0.997,0.295,1.507c0.002,0.015,0.005,0.024,0.008,0.039v0.003
				c0,0,0.001,0.004,0.001,0.005c0.061,0.391,0.102,0.793,0.142,1.195c0.02,0.177,0.048,0.35,0.061,0.53
				c0.048,0.6,0.073,1.208,0.073,1.824c0,3.073-0.61,5.954-1.664,8.492h5.579c1.28-2.143,2.028-4.642,2.028-7.318
				C160.105,85.407,160.079,84.93,160.033,84.459z"/>
		</g>
		<path fill="#C1711B" d="M135.193,76.618h15.152c0-2.784-2.258-5.041-5.04-5.041h-15.153
			C130.152,74.361,132.408,76.618,135.193,76.618z"/>
		<path fill="#FFE9D8" d="M149.154,88.1c0,1.055-0.854,1.908-1.909,1.908h-4.494c-1.056,0-1.91-0.853-1.91-1.908v-2.776
			c0-1.058,0.854-1.913,1.91-1.913h4.494c1.055,0,1.909,0.855,1.909,1.913V88.1z"/>
	</g>
	<path fill="#FFE9D8" d="M116.887,127.851c-0.268-1.128,0.065-2.06,0.685-2.717c-1.125-0.979-2.591-1.576-4.198-1.576
		c-3.538,0-6.406,2.868-6.406,6.406c0,2.264,1.178,4.247,2.951,5.384c0.02-0.008,0.04-0.012,0.061-0.02
		c0.307,0.144,0.648,0.226,1.009,0.226c1.317,0,2.386-1.069,2.386-2.386c0-0.08-0.004-0.159-0.013-0.236
		c0.005-0.006,0.009-0.011,0.009-0.011l0.004-2.957h2.942c0.091,0.011,0.184,0.018,0.277,0.018c0.276,0,0.538-0.057,0.785-0.144
		C117.21,129.176,117.043,128.516,116.887,127.851z"/>
	<path fill="#D22417" d="M133.479,6.695v5.057h13.392V6.695c0-3.697-2.998-6.695-6.695-6.695C136.478,0,133.479,2.998,133.479,6.695
		z"/>
	<path fill="#E62519" d="M175.967,21.806l-1.425-0.248c-0.213-0.038-0.432-0.072-0.648-0.112l-34.379-5.983l-34.381,5.983
		c-0.218,0.041-0.434,0.075-0.646,0.112l-1.429,0.248l-0.005-0.001c-9.758,1.514-21.457,0.814-29.408-2.111
		c-10.476-3.857-10.476-10.112,0-13.969c8.558-3.151,21.458-3.725,31.609-1.728l34.259,5.958l34.259-5.958
		c10.15-1.997,23.049-1.423,31.606,1.728c10.476,3.857,10.476,10.112,0,13.969c-7.951,2.926-19.648,3.625-29.408,2.111
		L175.967,21.806z"/>
	<path fill="#D22417" d="M175.967,21.806l-1.425-0.248c-0.213-0.038-0.432-0.072-0.648-0.112l-34.379-5.983l-12.113,2.11
		l50.265-8.862c0,0,13.283-3.593,24.692-3.939c1.053,0.287,2.069,0.601,3.021,0.952c10.476,3.857,10.476,10.112,0,13.969
		c-7.951,2.926-19.648,3.625-29.408,2.111L175.967,21.806z"/>
	<path fill="#E62519" d="M133.479,6.695v5.057h6.696V0C136.478,0,133.479,2.998,133.479,6.695z"/>
	<g>
		<path fill="#FFFFFF" d="M43.163,167.142c0,1.955,1.585,3.54,3.54,3.54l0,0c1.955,0,3.541-1.585,3.541-3.54v-20.611
			c0-1.954-1.586-3.54-3.541-3.54l0,0c-1.955,0-3.54,1.586-3.54,3.54V167.142z"/>
		<path fill="#FFFFFF" d="M31.451,157.488c-1.383,1.383-1.383,3.625,0,5.006l0,0c1.383,1.384,3.624,1.384,5.007,0l14.574-14.574
			c1.382-1.382,1.383-3.624,0-5.007l0,0c-1.383-1.382-3.626-1.382-5.008,0L31.451,157.488z"/>
		<path fill="#FFFFFF" d="M44.21,144.075c-1.396,1.398-1.396,3.663,0,5.059l19.628,19.629c1.397,1.396,9.214-0.432,10.611-1.83v-3.4
			c1.396-1.397,2.177-4.765-1.004-7.946l-24.159-24.042c0.388,0.389,2.653,4.802,1.256,6.198L44.21,144.075z"/>
		<path fill="#FFFFFF" d="M58.474,163.533c-1.984-0.057-3.538,1.61-3.594,3.593l0,0c-0.058,1.986,1.607,3.539,3.594,3.595h12.38
			c1.985,0.056,3.538-1.61,3.594-3.595l0,0c0.056-1.986-1.609-3.536-3.594-3.593H58.474z"/>
		<path fill="#FFFFFF" d="M81.348,156.777c0.011,4.321-3.482,7.832-7.807,7.84c-0.566,0.002-1.116-0.063-1.649-0.176l-0.334-5.984
			c1.493-0.002,1.896,0.04,2.492-0.529c0.363-0.382,0.59-0.899,0.588-1.467l-0.016-7.406
			C78.415,149.589,81.341,152.836,81.348,156.777z"/>
		
			<rect x="72.226" y="158.331" transform="matrix(0.7071 0.7071 -0.7071 0.7071 134.9993 -6.768)" fill="#FFFFFF" width="6.887" height="2.511"/>
		<path fill="#C1711B" d="M74.004,156.146l-7.085,3.17c0,0-3.234,0.654-4.722-0.833c-1.485-1.486-8.761-8.762-8.761-8.762
			s-2.339-2.224,0.169-4.73c1.252-1.252,3.093-3.094,4.622-4.622L74.004,156.146z"/>
		<path fill="#844819" d="M71.572,157.921l-4.653,1.396c0,0-3.234,0.654-4.722-0.833c-0.172-0.172-0.384-0.384-0.622-0.622
			c-0.635-1.808,0.259-3.811,2.055-4.527l5.416-2.147l5.538,5.539L71.572,157.921z"/>
		<path fill="#FFFFFF" d="M29.584,126.07h14.888c0.501,0,0.918,0.408,0.918,0.913v4.349c0,0.053-0.049,0.093-0.059,0.146
			c-0.167,2.277-2.017,6.255-4.337,6.255h-7.929c-2.32,0-4.17-1.854-4.336-4.13c-0.009-0.059-0.06-0.094-0.06-0.152v-6.468
			C28.67,126.479,29.078,126.07,29.584,126.07z"/>
		<path fill="#C1711B" d="M36.36,127.507c0.167-2.275,2.017-4.09,4.336-4.09h5.794c2.32,0,4.17,1.81,4.338,4.087
			c0.008,0.058,0.059,0.093,0.059,0.151v7.744c0,0.506-0.408,0.913-0.913,0.913h-3.326v1.421H36.301v-2.334v-5.601v-2.144
			C36.301,127.601,36.351,127.562,36.36,127.507z"/>
		<path fill="#C1711B" d="M39.998,137.734c0,3.63,2.944,6.537,6.568,6.537l0,0c3.631,0,6.575-2.907,6.575-6.537v-7.743
			c0-3.63-2.944-6.574-6.575-6.574l0,0c-3.624,0-6.568,2.944-6.568,6.574V137.734z"/>
		<path fill="#C1711B" d="M35.439,126.848c0.168-2.275,2.436-3.431,4.755-3.431h6.296c2.32,0,4.17,1.81,4.338,4.087
			c0.008,0.058,0.059,0.093,0.059,0.151v7.744c0,0.506-0.408,0.913-0.913,0.913h-3.326v1.421H36.301v-2.334v-5.601v-2.144
			C36.301,127.601,35.43,126.902,35.439,126.848z"/>
		<path fill="#C1711B" d="M39.998,137.734c0,3.63,2.944,6.537,6.568,6.537l0,0c3.631,0,6.575-2.907,6.575-6.537v-7.743
			c0-3.63-2.944-6.574-6.575-6.574l0,0c-3.624,0-6.568,2.944-6.568,6.574V137.734z"/>
		<path d="M29.584,126.07h2.202c0,0.011,0.006,0.021,0.006,0.029c0,1.149-0.934,2.08-2.081,2.08H28.67v-1.196
			C28.67,126.479,29.078,126.07,29.584,126.07z"/>
		<circle cx="37.685" cy="128.675" r="1.262"/>
		<path fill="#844819" d="M53.137,137.729c-0.05,4.266-3.519,7.709-7.798,7.709c-4.27,0-7.74-3.443-7.79-7.709H53.137z"/>
		<path d="M40.048,129.216h13.044c-0.138-1.172-0.586-2.245-1.257-3.146H41.304C40.634,126.971,40.186,128.044,40.048,129.216z"/>
		<path fill="#FFFFFF" d="M35.124,127.507c0.166-2.275,2.634-4.09,4.954-4.09h1.855c-2.32,0-4.169,1.815-4.336,4.09
			c-0.011,0.055-0.059,0.094-0.059,0.148v2.144v5.601v2.334h-2.474v-2.334v-5.601v-2.144
			C35.065,127.601,35.113,127.562,35.124,127.507z"/>
		<circle cx="39.261" cy="127.448" r="4.097"/>
		<ellipse fill="#6A6C6C" cx="37.4" cy="127.448" rx="2.236" ry="4.097"/>
	</g>
	<g>
		<path fill="#E62519" d="M146.576,135.37c0,3.738-3.03,6.769-6.768,6.769h-23.976c-3.738,0-6.768-3.031-6.768-6.769l0,0
			c0-3.737,3.029-6.768,6.768-6.768h23.976C143.546,128.603,146.576,131.633,146.576,135.37L146.576,135.37z"/>
		<path fill="#E62519" d="M102.595,168.857c-2.372-0.921-3.55-3.592-2.63-5.965l9.042-29.782c1.352-3.485,5.273-5.214,8.758-3.862
			l0,0c3.484,1.352,5.214,5.272,3.862,8.757l-13.066,28.222C107.64,168.6,104.969,169.777,102.595,168.857L102.595,168.857z"/>
	</g>
	<path fill="#FFE9D8" d="M153.395,124.745c-1.302,1.615-3.71,2.402-5.685,2.079l-9.832,12.374c-1.379,1.343-1.409,3.548-0.065,4.925
		c1.343,1.379,4.771-2.104,6.147-3.447l12.652-9.515c1.007-0.982,1.564-2.334,1.539-3.741l-0.06-2.849
		C156.578,125.236,154.843,125.346,153.395,124.745z"/>
	<g>
		<path fill="#FFFFFF" d="M90.56,170.722L90.56,170.722c0-3.872,3.14-7.012,7.012-7.012h6.214c3.873,0,6.1,3.14,6.1,7.012l0,0H90.56
			z"/>
		<path fill="#FFFFFF" d="M102.702,164.929c-0.379,1.291-1.73,2.033-3.022,1.655l0,0c-1.291-0.379-2.032-1.731-1.654-3.022
			l1.697-5.807c0.378-1.291,1.732-2.031,3.022-1.654l0,0c1.291,0.378,2.032,1.73,1.655,3.021L102.702,164.929z"/>
		<rect x="103.785" y="163.71" fill="#FFFFFF" width="6.1" height="7.012"/>
	</g>
	<path fill="#E62519" d="M158.137,126.746l-0.392-18.795c-0.048-2.813-2.37-5.053-5.184-5.004c-2.812,0.049-5.055,2.37-5.004,5.184
		l0.352,18.443l-0.512,0.646C151.194,127.928,154.896,127.713,158.137,126.746z"/>
	<circle fill="#FBCD00" cx="143.231" cy="143.489" r="4.512"/>
	<line fill="none" stroke="#000000" stroke-width="2" stroke-miterlimit="10" x1="145.633" y1="147.304" x2="156.865" y2="169.17"/>
	<circle fill="#FFE9D8" cx="181.821" cy="84.296" r="12.725"/>
	<path fill="#C1711B" d="M188.388,73.396c-5.214-3.141-11.771-2.099-15.793,2.143c-0.026,1.727,0.798,3.509,2.303,4.798
		l17.751,10.633c0.022-0.037,0.05-0.07,0.072-0.107C196.346,84.843,194.405,77.021,188.388,73.396z"/>
	<path fill="#844819" d="M192.721,90.862c3.625-6.019,1.685-13.841-4.333-17.466c-0.38-0.228-0.768-0.429-1.159-0.612
		c2.318,4.094,2.432,9.283-0.169,13.601c-0.149,0.248-0.317,0.477-0.479,0.711c-0.049,0.041-0.097,0.086-0.147,0.127l-11.597-6.945
		c0.021,0.016,0.039,0.039,0.062,0.059l17.751,10.633C192.671,90.933,192.698,90.899,192.721,90.862z"/>
	<path fill="#844819" d="M206.057,94.177c0.924,0.464,2.049,0.095,2.515-0.826c0.467-0.925,0.096-2.05-0.827-2.519
		c0.923,0.469,2.049,0.097,2.516-0.825c0.464-0.924,0.097-2.047-0.828-2.514c0,0-0.236-0.074-0.539-0.334l-4.4-2.249
		c-2.744-1.403-6.105-0.318-7.509,2.427c-1.404,2.745-0.287,6.054,2.456,7.455l5.74,2.935c0.685,0.021,1.371-0.378,1.704-1.035
		C207.351,95.768,206.98,94.641,206.057,94.177z"/>
	<path fill="#546E72" d="M172.521,85.981c0,0.62,0.502,1.123,1.119,1.123c0.622,0,1.123-0.503,1.123-1.123
		c0-0.619-0.501-1.123-1.123-1.123C173.023,84.859,172.521,85.363,172.521,85.981z"/>
	<path fill="#FFE9D8" d="M233.312,134.84l-4.345-3.037c-0.514-0.36-1.112-0.496-1.692-0.451c-0.221,1.348,0.312,2.762,1.506,3.597
		l5.124,3.582c0.016-0.021,0.035-0.038,0.052-0.061C234.779,137.29,234.492,135.666,233.312,134.84z"/>
	<g>
		<path fill="#D22417" d="M239.045,133.418l-6.59-4.271c-1.35-1.161-3.207-0.758-4.149,0.902c-0.266,0.466-0.995,0.983-1.08,1.51
			c0.58-0.044,1.179,0.091,1.693,0.452l4.345,3.036c1.181,0.827,1.468,2.45,0.644,3.63c-0.011,0.016-0.024,0.03-0.038,0.044
			c0.001,0.01,0.002,0.019,0.003,0.029l0.97,0.678c1.662,1.161,3.948,0.756,5.107-0.904
			C241.109,136.865,240.705,134.581,239.045,133.418z"/>
	</g>
	<path fill="#E62519" d="M202.688,103.446c-1.41-2.557-4.626-3.49-7.185-2.079l-11.62,8.324v7.851
		c1.027-0.058,1.749,0.016,2.709-0.514l14.017-6.399C203.168,109.22,204.098,106.003,202.688,103.446z"/>
	<path fill="#169AB1" d="M130.04,52.534c0-5.213,4.227-9.439,9.439-9.439h-0.62c5.213,0,9.439,4.226,9.439,9.439H130.04z"/>
	<path fill="#169AB1" d="M142.675,33.191c0,1.744-1.414,3.159-3.159,3.159l0,0c-1.744,0-3.158-1.415-3.158-3.159v-9.278
		c0-1.745,1.414-3.159,3.158-3.159l0,0c1.745,0,3.159,1.414,3.159,3.159V33.191z"/>
	<path fill="#D22417" d="M416.48,6.695v5.057h13.392V6.695c0-3.697-2.998-6.695-6.695-6.695C419.479,0,416.48,2.998,416.48,6.695z"
		/>
	<path fill="#E62519" d="M458.968,21.806l-1.425-0.248c-0.213-0.038-0.432-0.072-0.648-0.112l-34.379-5.983l-34.381,5.983
		c-0.218,0.041-0.434,0.075-0.646,0.112l-1.429,0.248l-0.005-0.001c-9.758,1.514-21.457,0.814-29.408-2.111
		c-10.476-3.857-10.476-10.112,0-13.969c8.558-3.151,21.458-3.725,31.609-1.728l34.259,5.958l34.259-5.958
		c10.15-1.997,23.049-1.423,31.606,1.728c10.477,3.857,10.477,10.112,0,13.969c-7.951,2.926-19.648,3.625-29.408,2.111
		L458.968,21.806z"/>
	<path fill="#D22417" d="M458.968,21.806l-1.425-0.248c-0.213-0.038-0.432-0.072-0.648-0.112l-34.379-5.983l-12.113,2.11
		l50.265-8.862c0,0,13.283-3.593,24.692-3.939c1.053,0.287,2.069,0.601,3.021,0.952c10.477,3.857,10.477,10.112,0,13.969
		c-7.951,2.926-19.648,3.625-29.408,2.111L458.968,21.806z"/>
	<path fill="#E62519" d="M416.48,6.695v5.057h6.696V0C419.479,0,416.48,2.998,416.48,6.695z"/>
	<path fill="#169AB1" d="M413.041,52.534c0-5.213,4.227-9.439,9.439-9.439h-0.62c5.214,0,9.439,4.226,9.439,9.439H413.041z"/>
	<path fill="#169AB1" d="M425.676,33.191c0,1.744-1.414,3.159-3.159,3.159l0,0c-1.744,0-3.158-1.415-3.158-3.159v-9.278
		c0-1.745,1.414-3.159,3.158-3.159l0,0c1.745,0,3.159,1.414,3.159,3.159V33.191z"/>
	<path fill="#FBCD00" d="M265.496,212.789c0,12.869-10.433,23.301-23.302,23.301H48.497c-12.868,0-23.302-10.432-23.302-23.301l0,0
		c0-12.87,10.434-23.301,23.302-23.301h193.697C255.063,189.488,265.496,199.919,265.496,212.789L265.496,212.789z"/>
	<path fill="#F3A300" d="M48.497,236.09h193.697c12.869,0,23.302-10.432,23.302-23.301H25.195
		C25.195,225.658,35.629,236.09,48.497,236.09z"/>
	<path fill="#169AB1" d="M139.514,162.047c-1.745,0-3.159,1.414-3.159,3.159v6.112h6.317v-6.112
		C142.672,163.461,141.258,162.047,139.514,162.047z"/>
	<path fill="#169AB1" d="M214.259,162.047c-1.744,0-3.158,1.414-3.158,3.159v6.112h6.317v-6.112
		C217.418,163.461,216.004,162.047,214.259,162.047z"/>
	<path fill="#FBCD00" d="M503,84.942c0,0.082-0.011,0.161-0.013,0.242c0.002,0.08,0.013,0.161,0.013,0.24V84.942z"/>
	<path fill="#FBCD00" d="M119.467,53.465c0-0.16,0.025-0.318,0.025-0.479c0-0.161-0.025-0.319-0.025-0.479V53.465z"/>
</g>
</svg>
