<?xml version="1.0" encoding="utf-8"?>
<!-- Generator: Adobe Illustrator 16.0.0, SVG Export Plug-In . SVG Version: 6.00 Build 0)  -->
<!DOCTYPE svg PUBLIC "-//W3C//DTD SVG 1.1//EN" "http://www.w3.org/Graphics/SVG/1.1/DTD/svg11.dtd">
<svg version="1.1" id="Layer_1" xmlns="http://www.w3.org/2000/svg" xmlns:xlink="http://www.w3.org/1999/xlink" x="0px" y="0px"
	 width="158px" height="79.062px" viewBox="596.99 597.454 158 79.062" enable-background="new 596.99 597.454 158 79.062"
	 xml:space="preserve">
<g>
	<path fill="#F3A300" d="M596.99,675.178h158c-8.92-35.322-40.906-61.466-79-61.466S605.91,639.856,596.99,675.178z"/>
	<circle fill="#FFFFFF" cx="675.99" cy="636.985" r="39.531"/>
	<circle fill="#FFFFFF" cx="675.99" cy="636.985" r="39.531"/>
	<path fill="#FFFFFF" d="M678.441,675.371c4.83-1.823,9.844-4.44,14.447-7.383c0.572-0.366,1.145-0.73,1.696-1.127
		c0.193-0.14,0.388-0.279,0.579-0.422c0.05-0.037,0.328-0.253,0.38-0.29c0.702-0.559,1.391-1.134,2.056-1.735
		c1.58-1.43,3.072-2.958,4.453-4.58c0.397-0.466,0.789-0.937,1.17-1.416c0.027-0.034,0.344-0.441,0.326-0.415
		c0.116-0.152,0.232-0.306,0.348-0.46c0.635-0.858,1.252-1.73,1.837-2.623c1.23-1.877,2.364-3.819,3.36-5.83
		c0.279-0.563,0.554-1.129,0.812-1.702c0.111-0.245,0.223-0.49,0.33-0.737c0.016-0.035,0.181-0.43,0.207-0.489
		c0.377-0.925,0.733-1.857,1.054-2.803c0.235-0.693,0.455-1.392,0.661-2.095c-0.475-0.018-0.944-0.147-1.36-0.391
		c-0.939-0.55-1.372-1.475-1.448-2.525c-0.041-0.558-0.076-1.114-0.104-1.672c-0.107-2.141-0.157-4.284-0.294-6.424
		c-0.074-1.146-0.164-2.294-0.307-3.435c-0.008-0.066-0.015-0.118-0.02-0.159c-0.005-0.032-0.01-0.067-0.017-0.11
		c-0.039-0.26-0.078-0.52-0.123-0.778c-0.09-0.513-0.185-1.025-0.3-1.533c-0.246-1.074-0.539-2.144-0.94-3.172
		c-0.033-0.083-0.056-0.141-0.07-0.182c-0.006-0.014-0.012-0.026-0.019-0.041c-0.104-0.226-0.207-0.45-0.32-0.671
		c-0.227-0.438-0.462-0.871-0.731-1.284c-0.137-0.21-0.277-0.416-0.423-0.619c-0.062-0.073-0.265-0.324-0.3-0.365
		c-0.333-0.387-0.667-0.772-1.004-1.155c-0.701-0.794-1.408-1.583-2.131-2.356c-3.175-3.402-6.582-6.619-10.073-8.93
		c-0.998-0.661-2.02-1.289-3.079-1.847c-0.482-0.254-0.968-0.502-1.463-0.729c-0.181-0.082-0.361-0.164-0.542-0.244
		c-0.042-0.014-0.461-0.185-0.497-0.198c-1.08-0.408-2.183-0.763-3.312-1.008c-0.436-0.095-0.872-0.182-1.312-0.25
		c-0.056-0.004-0.47-0.054-0.525-0.059c-0.265-0.022-0.529-0.041-0.795-0.056c-1.591-0.091-2.925-1.263-2.925-2.926
		c0-0.218,0.03-0.435,0.081-0.647c-0.602-0.026-1.206-0.043-1.814-0.043c-21.832,0-39.531,17.698-39.531,39.531
		c0,21.832,17.699,39.53,39.531,39.53c0.295,0,0.589-0.005,0.882-0.012C677.256,676.006,677.803,675.612,678.441,675.371z"/>
	<path fill="#DCE0E3" d="M715.521,636.985c0-21.833-17.699-39.531-39.531-39.531v79.062
		C697.822,676.515,715.521,658.817,715.521,636.985z"/>
	<path fill="#FBCD00" d="M659.092,608.004v-6.765c4.098-1.941,8.584-3.198,13.309-3.624v10.39c0,1.41-1.144,2.554-2.554,2.554h-8.2
		C660.235,610.558,659.092,609.415,659.092,608.004z M698.698,659.344c0.09-0.261,0.14-0.54,0.14-0.831v-15.602
		c0-0.291-0.05-0.57-0.14-0.831v-7.981h16.718c-1.169-16.218-12.122-29.724-26.986-34.647v14.491h-9.729
		c-1.41,0-2.555,1.145-2.555,2.555v15.047c0,1.411,1.145,2.555,2.555,2.555h11.126v6.258h-34.95c-1.411,0-2.555,1.145-2.555,2.555
		v15.602c0,1.411,1.144,2.555,2.555,2.555h21.298v12.893c0,1.169,0.786,2.153,1.857,2.457c0.919,0.064,1.848,0.098,2.782,0.098
		c8.452,0,11.459-2.653,17.884-7.17V659.344L698.698,659.344z M642.422,616.097h8.193c1.411,0,2.554-1.144,2.554-2.555v-8.84
		C648.874,607.745,645.213,611.622,642.422,616.097z"/>
	<path fill="#F8BF00" d="M715.416,634.099c-1.169-16.218-12.122-29.724-26.986-34.648v14.492h-9.729
		c-1.41,0-2.555,1.145-2.555,2.555v15.047c0,1.411,1.145,2.555,2.555,2.555h11.126v6.258H675.99v36.158
		c8.451,0,16.283-2.653,22.708-7.17v-10.001c0.09-0.261,0.14-0.54,0.14-0.831v-15.602c0-0.291-0.05-0.57-0.14-0.831v-7.981H715.416
		L715.416,634.099z"/>
</g>
</svg>
