<?xml version="1.0" encoding="utf-8"?>
<!-- Generator: Adobe Illustrator 16.0.0, SVG Export Plug-In . SVG Version: 6.00 Build 0)  -->
<!DOCTYPE svg PUBLIC "-//W3C//DTD SVG 1.1//EN" "http://www.w3.org/Graphics/SVG/1.1/DTD/svg11.dtd">
<svg version="1.1" id="Layer_1" xmlns="http://www.w3.org/2000/svg" xmlns:xlink="http://www.w3.org/1999/xlink" x="0px" y="0px"
	 width="27.19px" height="33px" viewBox="0 0 27.19 33" enable-background="new 0 0 27.19 33" xml:space="preserve">
<path fill="#A3D7E0" d="M17.743,10.923c0,1.837-1.688,3.327-3.771,3.327S10.2,12.76,10.2,10.923c0-1.838,1.688-3.327,3.771-3.327
	S17.743,9.085,17.743,10.923z M14.021,8.543c-0.961,0-1.74,0.447-1.74,0.999c0,0.553,0.779,1,1.74,1c0.962,0,1.741-0.447,1.741-1
	C15.762,8.99,14.982,8.543,14.021,8.543z M23.921,14.833l0.122-0.091c-0.305-0.24-0.631-0.472-0.979-0.689
	c-1.321-0.828-2.396-1.485-3.259-2.002c1.097-1.458,1.761-3.263,1.772-5.05c1.239-0.592,2.096-1.856,2.096-3.321
	c0-2.032-1.647-3.68-3.68-3.68c-0.965,0-1.844,0.373-2.5,0.981c-1.04-0.435-2.221-0.667-3.473-0.667
	c-1.498,0-2.894,0.332-4.068,0.946C9.278,0.488,8.287,0,7.182,0C5.15,0,3.502,1.647,3.502,3.68c0,1.789,1.277,3.279,2.969,3.61
	c0.074,1.634,0.684,3.267,1.661,4.619C7.19,12.467,5.935,13.229,4.3,14.253c-4.654,2.916-5.355,8.058-2.944,9.252
	c0.844,0.418,1.574,0.548,2.212,0.438c-0.612,1.292-0.711,3.035-0.147,4.776c0.968,2.988,3.522,4.838,5.705,4.131
	c0.275-0.089,0.532-0.215,0.768-0.373C10.902,32.818,12.122,33,13.596,33c1.715,0,3.099-0.273,4.211-0.761
	c0.315,0.271,0.677,0.479,1.079,0.61c2.183,0.707,4.737-1.143,5.705-4.131c0.583-1.8,0.457-3.602-0.211-4.905
	c0.444-0.048,0.928-0.196,1.456-0.458C28.056,22.255,27.637,17.808,23.921,14.833z"/>
</svg>
