<?xml version="1.0" encoding="utf-8"?>
<!-- Generator: Adobe Illustrator 16.0.0, SVG Export Plug-In . SVG Version: 6.00 Build 0)  -->
<!DOCTYPE svg PUBLIC "-//W3C//DTD SVG 1.1//EN" "http://www.w3.org/Graphics/SVG/1.1/DTD/svg11.dtd">
<svg version="1.1" id="Layer_1" xmlns="http://www.w3.org/2000/svg" xmlns:xlink="http://www.w3.org/1999/xlink" x="0px" y="0px"
	 width="122.546px" height="335px" viewBox="0 0 122.546 335" enable-background="new 0 0 122.546 335" xml:space="preserve">
<g>
	<path fill="#FBCD00" d="M38.129,239.264c0.844-0.372,1.771-0.581,2.74-0.58c13.917,0.005,27.825,0.463,41.736,0.795
		c22.479-18.096,38.393-62.973,38.393-115.469C120.997,55.521,93.911,0,60.499,0S0,55.521,0,124.009
		C0,176.3,15.79,221.03,38.129,239.264z"/>
	<path fill="#F3A300" d="M84.346,238.006c21.554-18.97,36.651-62.867,36.651-113.997C120.997,55.521,93.911,0,60.499,0l0,0v239.104
		C68.447,238.734,76.392,238.2,84.346,238.006z"/>
	<path fill="#F8BF00" d="M78.39,237.554c15.629-19.211,26.541-62.821,26.541-113.544C104.931,55.521,85.038,0,60.499,0l0,0v237.687
		C66.468,237.93,72.43,237.821,78.39,237.554z"/>
	<path fill="#F3A300" d="M43.044,229.422c-0.023,0.034-0.046,0.066-0.069,0.101c-1.684-2.867-3.762-6.623-6.157-11.376
		c-2.482-4.928-4.248-9.184-5.458-12.444c0.04-0.03,0.08-0.061,0.12-0.091c-2.157-6.002-3.197-10.31-3.197-10.31l-2.608,2.416
		c0,0.001-0.001,0.001-0.002,0.002l-12.149,11.249l-0.577,0.534l-9.165,8.485c-1.436,1.329-2.611,4.019-2.611,5.976v12.213
		c0,1.957,1.601,3.559,3.558,3.559h37.468h4.116h3.558C49.872,239.735,46.971,235.937,43.044,229.422z"/>
	<path fill="#F3A300" d="M60.248,217.519c17.572,0.94,28.952,10.92,28.952,10.92l8.478-29.614c0,0-8.172-9.942-18.715-18.646
		c-10.543-8.702-18.464-14.498-18.464-14.498L60.248,217.519z"/>
	<path fill="#FBCD00" d="M63.125,216.2c0,1.545-1.252,2.797-2.797,2.797l0,0c-1.545,0-2.797-1.252-2.797-2.797v-47.723
		c0-1.545,1.252-2.797,2.797-2.797l0,0c1.545,0,2.797,1.252,2.797,2.797V216.2z"/>
	<path fill="#F8BF00" d="M82.076,229.521c0.022,0.032,0.045,0.062,0.067,0.094c1.627-2.665,3.636-6.155,5.95-10.572
		c2.399-4.578,4.105-8.533,5.275-11.564c-0.039-0.028-0.077-0.057-0.115-0.085c2.084-5.577,3.089-9.58,3.089-9.58l2.521,2.244
		c0,0.001,0.001,0.002,0.002,0.002l11.742,10.454l0.558,0.497l8.857,7.886c1.388,1.235,2.523,3.734,2.523,5.553v11.351
		c0,1.818-1.547,3.306-3.439,3.306H82.895h-3.979h-3.438C75.478,239.104,78.281,235.575,82.076,229.521z"/>
	<path fill="#E62519" d="M64.734,242.454c5.322-2.155,11.504-4.899,14.81-7.208c6.562-4.581,9.896-9.682,7.446-11.392
		c-2.45-1.711-9.755,0.616-16.318,5.198c-3.252,2.271-7.11,6.485-10.173,10.159c-3.064-3.674-6.921-7.889-10.173-10.159
		c-6.562-4.582-13.868-6.909-16.318-5.198c-2.45,1.71,0.884,6.811,7.446,11.392c3.306,2.309,9.488,5.053,14.81,7.208
		c-5.322,2.155-11.504,4.899-14.81,7.207c-6.562,4.582-9.896,9.683-7.446,11.393c2.45,1.711,9.755-0.617,16.318-5.198
		c3.252-2.271,7.109-6.485,10.173-10.159c3.063,3.674,6.921,7.889,10.173,10.159c6.562,4.581,13.868,6.909,16.318,5.198
		c2.45-1.71-0.884-6.811-7.446-11.393C76.238,247.354,70.056,244.609,64.734,242.454z"/>
	<path fill="#D22417" d="M50.325,229.053c-6.562-4.582-13.868-6.909-16.318-5.198c-2.45,1.71,0.884,6.811,7.446,11.392
		c3.306,2.309,9.488,5.053,14.81,7.208c-5.322,2.155-11.504,4.899-14.81,7.207c-6.562,4.582-9.896,9.683-7.446,11.393
		c2.45,1.711,9.755-0.617,16.318-5.198c3.252-2.271,7.109-6.485,10.173-10.159v-6.484C57.435,235.538,53.578,231.323,50.325,229.053
		z"/>
	<g>
		<path fill="#D22417" d="M54.873,279.949c0,3.267,2.396,5.966,5.524,6.457v-42.697h-5.524V279.949z"/>
		<path fill="#E62519" d="M65.623,292.862c0-3.266-2.396-5.965-5.524-6.456v28.5h5.524V292.862z"/>
		<path fill="#E62519" d="M65.623,328.543c0,3.267-2.396,5.966-5.524,6.457v-28.5h5.524V328.543z"/>
	</g>
</g>
</svg>
