<?xml version="1.0" encoding="utf-8"?>
<!-- Generator: Adobe Illustrator 16.0.0, SVG Export Plug-In . SVG Version: 6.00 Build 0)  -->
<!DOCTYPE svg PUBLIC "-//W3C//DTD SVG 1.1//EN" "http://www.w3.org/Graphics/SVG/1.1/DTD/svg11.dtd">
<svg version="1.1" id="Layer_1" xmlns="http://www.w3.org/2000/svg" xmlns:xlink="http://www.w3.org/1999/xlink" x="0px" y="0px"
	 width="372.014px" height="175.762px" viewBox="320.441 267.245 372.014 175.762"
	 enable-background="new 320.441 267.245 372.014 175.762" xml:space="preserve">
<g>
	<path fill="#E62519" d="M395.434,325.924l2.051-9.376c0.17-1.355-0.792-2.591-2.146-2.76c-1.356-0.172-2.59-0.964-2.76,0.392
		l-0.821,11.284c-0.127,1.015,0.593,1.939,1.607,2.065c0.079,0.011,0.156,0.017,0.232,0.017
		C394.519,327.546,395.317,326.86,395.434,325.924z"/>
	<path fill="#E62519" d="M400.848,305.967c0.26,0.983,2.862,1.643,3.927,1.643l4.615-0.689c0.606,0,1.098-0.491,1.098-1.099
		s-0.491-1.088-1.11-1.073h-5.95c-0.375,0.348-0.541,0.56-1.043,0.729c-0.263,0.088-0.536,0.145-0.807,0.208
		C401.307,305.746,401.09,305.855,400.848,305.967z"/>
	<path fill="#F8CFB1" d="M409.626,302.86l-0.468,1.364l-0.009,2.171c0,0,0,0.331,0.303,0.563c0.183,0.14,0.29,0.165,0.583,0.246
		c0.132,0.036,0.344,0.029,0.558,0.013c0.04,0.01,0.08,0.015,0.122,0.015h1.036c0.326,0,0.59-0.265,0.59-0.591
		s-0.265-0.589-0.59-0.589c0.326,0,0.59-0.266,0.59-0.591c0-0.326-0.265-0.591-0.59-0.591c0.326,0,0.59-0.265,0.59-0.59
		s-0.265-0.591-0.59-0.591h-0.703c0-0.004,0-0.006,0-0.009c-0.289-0.103-0.635-0.117-0.564-0.307
		c0.088-0.238,0.165-0.551-0.258-0.728C409.803,302.472,409.626,302.86,409.626,302.86z"/>
	<circle fill="#F8CFB1" cx="397.425" cy="297.615" r="6.026"/>
	<path fill="#844819" d="M391.399,297.615c0,0.553,0.077,1.088,0.216,1.596c0.752-0.12,1.327-0.77,1.327-1.556v-3.105
		c0,0.87,0.705,1.576,1.577,1.576h3.037h2.417h1.576v1.529c0,0.871,0.707,1.577,1.576,1.577h0.105
		c0.142-0.516,0.221-1.058,0.221-1.617c0-3.328-2.697-6.026-6.024-6.026C394.096,291.588,391.399,294.286,391.399,297.615z"/>
	<path fill="#844819" d="M394.131,295.409h0.571v-3.273c0-0.729-0.591-1.317-1.318-1.317h-0.571v3.273
		C392.812,294.82,393.402,295.409,394.131,295.409z"/>
	<path fill="#E62519" d="M394.284,307.645h-1.757v3.514v0.753v2.378c0,1.246,1.011,2.259,2.258,2.259h5.042
		c1.246,0,2.259-1.013,2.259-2.259v-2.378v-0.442v-3.823h0.112h2.53v-2.897h-2.53v-0.02h-6.896L394.284,307.645z"/>
	<path fill="#E62519" d="M395.78,311.909c0.045,0,0.089,0.001,0.133,0.003c0.021,0,0.043-0.003,0.064-0.003H395.78z"/>
	<path fill="#E62519" d="M390.807,307.719v2.367h4.3l1.435-5.354h-2.749C392.143,304.733,390.807,306.069,390.807,307.719z"/>
	<path fill="#E62519" d="M391.801,313.95l-3.304-2.896c-0.379-0.333-0.598-0.813-0.598-1.319s0.219-0.987,0.598-1.319l3.304-2.896
		c0.729-0.641,1.838-0.566,2.477,0.162c0.64,0.728,0.565,1.838-0.161,2.477l-1.799,1.576l1.799,1.576
		c0.728,0.639,0.8,1.746,0.161,2.476c-0.348,0.397-0.833,0.6-1.319,0.6C392.546,314.385,392.134,314.242,391.801,313.95z"/>
	<path fill="#F8CFB1" d="M392.832,311.08h-1.036c-0.041,0-0.083,0.006-0.122,0.014c-0.041-0.002-0.081-0.006-0.121-0.008
		c-0.557,0.13-0.972,0.628-0.972,1.225v1.072c0,0.644,0.481,1.174,1.105,1.247c0.12-0.002,0.646-0.005,0.646-0.009h0.5
		c0.327,0,0.59-0.265,0.59-0.59c0-0.326-0.265-0.59-0.59-0.59c0.327,0,0.59-0.266,0.59-0.59c0-0.327-0.265-0.591-0.59-0.591
		c0.327,0,0.59-0.264,0.59-0.59C393.423,311.345,393.159,311.08,392.832,311.08z"/>
	<path fill="#E62519" d="M399.286,325.924l-2.052-9.376c-0.169-1.355,0.792-2.591,2.146-2.76c1.356-0.172,2.591-0.964,2.76,0.392
		l0.821,11.284c0.126,1.015-0.594,1.939-1.608,2.065c-0.079,0.011-0.156,0.017-0.231,0.017
		C400.201,327.546,399.405,326.86,399.286,325.924z"/>
	<path fill="#E62519" d="M399.238,326.919c0,0.221,0.042,0.433,0.116,0.627h5.261c0.074-0.194,0.115-0.406,0.115-0.627
		c0-0.981-0.796-1.779-1.779-1.779h-1.934C400.034,325.139,399.238,325.937,399.238,326.919z"/>
	<path fill="#E62519" d="M389.922,326.919c0,0.221,0.042,0.433,0.117,0.627h5.26c0.074-0.194,0.116-0.406,0.116-0.627
		c0-0.981-0.796-1.779-1.778-1.779H391.7C390.718,325.139,389.922,325.937,389.922,326.919z"/>
	<rect x="410.543" y="270.289" fill="#0097B0" width="0.879" height="58.291"/>
	<path fill="#FFFFFF" d="M410.489,283.449c3.146,0.097,4.489-3.209,8.817-3.209c5.155,0,5.155,2.845,10.309,2.845
		c4.819,0,4.997-0.69,8.902-2.374v-7.185c-0.01-0.09-0.017-0.182-0.017-0.283c0-0.078,0.007-0.155,0.017-0.234v-5.758
		c-3.208-0.159-4.536,3.206-8.904,3.206c-5.153,0-5.153-2.844-10.309-2.844c-4.782,0-4.995,0.681-8.815,2.336V283.449z"/>
	<g>
		<path fill="#0097B0" d="M349.46,367.389l-6.538-6.539c1.021-0.74,2.456-0.651,3.377,0.269l2.891,2.894
			C350.112,364.932,350.199,366.366,349.46,367.389z"/>
		
			<rect x="342.644" y="362.769" transform="matrix(-0.7068 -0.7074 0.7074 -0.7068 326.7196 868.8511)" fill="#0097B0" width="1.549" height="7.896"/>
		<path fill="#D22417" d="M322.363,367.287c-1.117,1.117-1.117,2.931,0,4.05l2.066,1.339c1.118,1.117,2.932,1.117,4.049,0
			l5.077-5.078c1.119-1.118,1.119-2.932,0-4.049l-1.646-1.647c-1.119-1.118-2.931-1.118-4.05-0.001L322.363,367.287z"/>
		<circle fill="#F8CFB1" cx="332.677" cy="353.69" r="6.027"/>
		<path fill="#D22417" d="M340.187,369.715c1.081,0,1.979-0.621,2.027-1.414c0.049-0.815-0.819-1.506-1.94-1.542l-3.844-0.111
			l-4.314-4.345c-0.791-0.795-2.076-0.8-2.872-0.01c-0.797,0.79-0.801,2.075-0.012,2.872l4.875,4.503
			c0.36,0.36,0.843,0.573,1.353,0.598l4.638-0.552C340.127,369.714,340.157,369.715,340.187,369.715z"/>
		<path fill="#D22417" d="M323.463,385.441c0.722,0,1.306-0.585,1.306-1.306l0.728-14.563c0-1.122-0.911-2.029-2.031-2.029
			c-1.122,0-2.032,0.907-2.032,2.029l0.728,14.563C322.158,384.856,322.742,385.441,323.463,385.441z"/>
		<path fill="#D22417" d="M330.369,381.253c0.731,0,1.324-0.594,1.324-1.325l0.706-5.836c0-0.568-0.236-1.108-0.652-1.492
			l-3.39-1.91c-0.823-0.761-2.108-0.71-2.87,0.115c-0.761,0.824-1.815,1.51-0.991,2.271l3.842,2.312l0.705,4.541
			C329.043,380.659,329.636,381.253,330.369,381.253z"/>
		<path fill="#844819" d="M323.357,361.063c-0.368,0.364-0.961,0.361-1.325-0.007c-0.363-0.368-0.36-0.96,0.007-1.324
			c-0.368,0.364-0.96,0.361-1.326-0.007c-0.363-0.369-0.361-0.96,0.008-1.324c0,0,0.101-0.072,0.204-0.243l1.749-1.749
			c1.091-1.091,2.86-1.092,3.952,0c1.09,1.091,1.067,2.839-0.022,3.93l-2.282,2.281c-0.321,0.117-0.711,0.031-0.971-0.231
			C322.986,362.02,322.989,361.427,323.357,361.063z"/>
		<path fill="#844819" d="M328.271,357.799c-2.205-2.362-2.158-6.065,0.146-8.37c1.538-1.535,3.698-2.069,5.669-1.599l0.075,0.076
			c1.188,1.188,1.188,3.114,0,4.301l-4.956,4.956C328.928,357.44,328.609,357.65,328.271,357.799z"/>
		<path fill="#F8CFB1" d="M343.468,368.422c-0.23,0.231-0.604,0.229-0.835,0c0.229,0.229,0.229,0.604,0,0.836
			c-0.23,0.229-0.604,0.229-0.835-0.002c0.229,0.23,0.23,0.604,0,0.835s-0.604,0.23-0.834,0l-0.354-0.354
			c-0.002,0.002-0.375-0.369-0.46-0.45c-0.389-0.494-0.356-1.21,0.1-1.665l0.758-0.758c0.422-0.424,1.068-0.479,1.554-0.178
			c0.027,0.029,0.054,0.061,0.081,0.09c0.033,0.023,0.065,0.049,0.095,0.078l0.733,0.731
			C343.698,367.818,343.698,368.191,343.468,368.422z"/>
		<path fill="#844819" d="M330.422,379.267h1.935c0.982,0,1.779,0.797,1.779,1.778c0,0.222-0.043,0.433-0.117,0.627h-5.261
			c-0.074-0.194-0.116-0.405-0.116-0.627C328.643,380.064,329.439,379.267,330.422,379.267z"/>
		<path fill="#844819" d="M323.982,383.299h1.936c0.981,0,1.778,0.796,1.778,1.778c0,0.222-0.042,0.432-0.115,0.627h-5.262
			c-0.072-0.195-0.115-0.405-0.115-0.627C322.204,384.094,323,383.299,323.982,383.299z"/>
	</g>
	<path fill="#AFDCE1" d="M687.152,432.252h-6.836v-0.474c0-0.974-0.789-1.764-1.764-1.764h-3.365c-0.975,0-1.766,0.79-1.766,1.764
		v4.095v1.506v5.629h5.866v-1.177c0-1.022,0.83-1.854,1.855-1.854h1.912c1.022,0,1.854,0.831,1.854,1.854v1.177h5.867v-7.135
		C690.775,433.873,689.154,432.252,687.152,432.252z"/>
	<path fill="#3FA8AC" d="M675.97,427.35v2.677h-1.404v-2.677c0-0.388,0.314-0.7,0.701-0.7
		C675.656,426.65,675.97,426.963,675.97,427.35z M677.816,426.65c-0.389,0-0.703,0.312-0.703,0.7v2.677h1.404v-2.677
		C678.517,426.963,678.203,426.65,677.816,426.65z"/>
	<path fill="#3FA8AC" d="M678.363,434.141c0,0.375-0.303,0.679-0.678,0.679h-0.465c-0.375,0-0.681-0.304-0.681-0.679l0,0
		c0-0.376,0.306-0.679,0.681-0.679h0.465C678.06,433.463,678.363,433.765,678.363,434.141L678.363,434.141z"/>
	<path fill="#AFDCE1" d="M672.625,431.851c-0.506,0-0.918-0.41-0.918-0.918l0,0c0-0.508,0.412-0.918,0.918-0.918h3.103
		c0.508,0,0.918,0.411,0.918,0.918l0,0c0,0.508-0.41,0.918-0.918,0.918H672.625z"/>
	<path fill="#AFDCE1" d="M692.455,437.371c0,0.922-0.745,1.669-1.668,1.669c-0.922,0-1.668-0.747-1.668-1.669
		c0-0.921,0.746-1.668,1.668-1.668C691.71,435.703,692.455,436.45,692.455,437.371z"/>
</g>
</svg>
