<?xml version="1.0" encoding="utf-8"?>
<!-- Generator: Adobe Illustrator 16.0.0, SVG Export Plug-In . SVG Version: 6.00 Build 0)  -->
<!DOCTYPE svg PUBLIC "-//W3C//DTD SVG 1.1//EN" "http://www.w3.org/Graphics/SVG/1.1/DTD/svg11.dtd">
<svg version="1.1" id="Layer_1" xmlns="http://www.w3.org/2000/svg" xmlns:xlink="http://www.w3.org/1999/xlink" x="0px" y="0px"
	 width="158px" height="82.166px" viewBox="606.738 631.055 158 82.166" enable-background="new 606.738 631.055 158 82.166"
	 xml:space="preserve">
<g>
	<path fill="#F28800" d="M606.738,713.221h158c-8.92-35.322-40.906-61.466-79-61.466
		C647.645,651.755,615.658,677.899,606.738,713.221z"/>
	<path fill="#FFE9D8" d="M720.145,646.921l-9.677-0.876v17.465c0,0,0.455,4.672-0.688,9.761h10.364V646.921L720.145,646.921z"/>
	<path fill="#D22417" d="M684.548,690.814l5.588,12.442c0,0,15.171-4.493,24.027-15.025c4.93-5.861,5.982-14.96,5.982-14.96h-10.364
		c-0.652,2.903-1.824,5.942-3.899,8.326C700.172,688.159,684.548,690.814,684.548,690.814z"/>
	<path fill="#E62519" d="M686.7,689.534l-22.838,1.67c-9.334,0.682-16.901,8.802-16.901,18.136v3.881h56.641V705.2
		C703.601,695.865,696.034,688.853,686.7,689.534z"/>
	<path fill="#D22417" d="M686.7,689.534l-12.598,0.921v22.766h29.499V705.2C703.601,695.865,696.034,688.853,686.7,689.534z"/>
	<circle fill="#FBCD00" cx="629.805" cy="705.041" r="8.18"/>
	<circle fill="#FFFFFF" cx="674.102" cy="667.454" r="16.033"/>
	<circle fill="#FFE9D8" cx="674.102" cy="669.988" r="16.033"/>
	<path fill="#C1711B" d="M674.102,653.955c8.428,0,15.337,6.504,15.983,14.766c0.032-0.418,0.05-0.841,0.05-1.267
		c0-8.855-7.179-16.033-16.033-16.033s-16.033,7.178-16.033,16.033c0,0.426,0.017,0.849,0.05,1.267
		C658.765,660.459,665.674,653.955,674.102,653.955z"/>
	<circle fill="#546E72" cx="672.385" cy="660.686" r="1.517"/>
	<circle fill="#546E72" cx="683.031" cy="660.686" r="1.517"/>
	<path fill="#844819" d="M674.102,651.421v2.208c0,0,0.831-0.054,2.09,0.084h5.926c1.701,0,3.14-1.124,3.614-2.671l0.005-2.251
		c0,0-5.966,0-8.654,0C674.396,648.791,674.102,651.421,674.102,651.421z"/>
	<path fill="#FFE9D8" d="M661.409,674.007c0,0.894-0.725,1.618-1.619,1.618h-1.902c-0.894,0-1.618-0.725-1.618-1.618v-7.611
		c0-0.894,0.725-1.618,1.618-1.618h1.902c0.894,0,1.619,0.725,1.619,1.618V674.007z"/>
	<rect x="694.689" y="693.925" fill="#FBCD00" width="10.102" height="19.296"/>
	<rect x="724.583" y="693.925" fill="#FBCD00" width="10.102" height="19.123"/>
	<rect x="710.258" y="656.598" fill="#FBCD00" width="10.102" height="16.673"/>
	<rect x="690.621" y="686.768" fill="#FBCD00" width="48.211" height="9.677"/>
	<path fill="#FBCD00" d="M697.896,668.531v18.812h7.597c0-5.1,4.134-9.81,9.233-9.81s9.233,4.711,9.233,9.81h9.343v-18.812H697.896z
		"/>
	<polygon fill="#FBCD00" points="706.112,648.359 716.102,631.055 726.094,648.359 	"/>
	<path fill="#FFE9D8" d="M723.07,635.203l0.229,0.485c0.219,0.466,0.198,0.982-0.01,1.411c0.463,0.114,0.873,0.429,1.092,0.895
		l0.228,0.485c0.219,0.466,0.199,0.981-0.009,1.411c0.463,0.114,0.873,0.429,1.091,0.894l0.229,0.486
		c0.385,0.819,0.032,1.795-0.787,2.18l-3.295,1.547c-0.819,0.385-1.795,0.032-2.18-0.787l-0.228-0.486
		c-0.219-0.465-0.198-0.98,0.009-1.41c-0.463-0.115-0.872-0.429-1.091-0.895l-0.229-0.485c-0.218-0.466-0.198-0.981,0.01-1.411
		c-0.463-0.114-0.873-0.429-1.092-0.895l-0.228-0.485c-0.385-0.819-0.032-1.795,0.787-2.18l3.294-1.547
		C721.71,634.032,722.685,634.384,723.07,635.203z"/>
	<path fill="#FFE9D8" d="M711.828,642.324c0.418,0.343,0.479,0.96,0.138,1.379l-0.893,1.09c-0.343,0.419-0.96,0.48-1.378,0.138
		l-1.961-1.604c-0.419-0.343-0.481-0.96-0.139-1.378l0.893-1.091c0.343-0.419,0.96-0.48,1.379-0.138L711.828,642.324z"/>
</g>
</svg>
