<?xml version="1.0" encoding="utf-8"?>
<!-- Generator: Adobe Illustrator 16.0.0, SVG Export Plug-In . SVG Version: 6.00 Build 0)  -->
<!DOCTYPE svg PUBLIC "-//W3C//DTD SVG 1.1//EN" "http://www.w3.org/Graphics/SVG/1.1/DTD/svg11.dtd">
<svg version="1.1" id="Layer_1" xmlns="http://www.w3.org/2000/svg" xmlns:xlink="http://www.w3.org/1999/xlink" x="0px" y="0px"
	 width="158px" height="70.736px" viewBox="606.738 543.269 158 70.736" enable-background="new 606.738 543.269 158 70.736"
	 xml:space="preserve">
<g>
	<path fill="#F8BF00" d="M606.738,613.781h158c-8.92-35.323-40.906-61.466-79-61.466
		C647.645,552.316,615.658,578.458,606.738,613.781z"/>
	<path fill="#E62519" d="M664.219,603.498c0.002-0.049,0.004-0.099,0.004-0.147c0-0.187-0.009-0.371-0.027-0.553
		c-0.517-9.57-8.44-17.17-18.138-17.17c-7.923,0-14.662,5.074-17.145,12.15h-8.761c-3.077,0-5.573,2.495-5.573,5.572
		s2.496,5.572,5.573,5.572h38.5c2.928,0,5.327-2.26,5.553-5.13h0.019C664.223,603.695,664.221,603.597,664.219,603.498z"/>
	<path fill="#D22417" d="M664.223,603.351c0-0.187-0.01-0.371-0.027-0.553c-0.517-9.57-8.44-17.17-18.138-17.17
		c-2.225,0-4.355,0.4-6.325,1.132c7.359,3.954,12.364,11.725,12.364,20.664c0,0.504-0.018,1.003-0.049,1.499h6.604
		c2.928,0,5.328-2.26,5.554-5.13h0.019c0-0.099-0.002-0.196-0.004-0.295C664.221,603.449,664.223,603.4,664.223,603.351z"/>
	<path fill="#844819" d="M706.13,569.231l-0.412-1.378l-3.061,0.508v45.421c11.811-0.324,15.908-7.008,16.812-15.287
		c0.927-8.487-7.787-28.169-7.787-28.169L706.13,569.231z"/>
	<circle fill="#F8BF00" cx="737.189" cy="589.033" r="24.761"/>
	<path fill="#F3A300" d="M761.951,589.032c0-13.675-11.086-24.761-24.762-24.761v49.522
		C750.865,613.794,761.951,602.708,761.951,589.032z"/>
	<path fill="#E62519" d="M712.428,588.456c0,2.217,0.293,4.364,0.839,6.408h47.844c0.547-2.044,0.839-4.191,0.839-6.408
		c0-1.771-0.188-3.5-0.541-5.167H712.97C712.616,584.956,712.428,586.685,712.428,588.456z"/>
	<path fill="#D22417" d="M737.189,583.289v11.575h23.922c0.518-1.937,0.808-3.966,0.836-6.059c-0.017-1.897-0.247-3.744-0.668-5.517
		H737.189z"/>
	<path fill="#C1711B" d="M689.075,578.109c-2.325,11.43-5.581,19.311-13.485,15.394c-5.151-2.553-3.654-13.541,6.293-19.773
		c9.947-6.233,13.344-7.923,13.344-7.923L689.075,578.109z"/>
	<path fill="#844819" d="M714.423,577.789c2.325,11.43,5.58,19.311,13.485,15.394c5.151-2.553,3.654-13.541-6.293-19.774
		c-9.947-6.232-13.344-7.923-13.344-7.923L714.423,577.789z"/>
	<path fill="#FFFFFF" d="M721.984,573.301c-9.991-6.26-13.402-7.956-13.402-7.956l2.322,4.643l-4.473-0.883l-0.414-1.383
		l-3.967,0.657l-3.966-0.657l-0.415,1.383l-4.392,0.967l2.203-4.406c0,0-3.411,1.697-13.402,7.957
		c-1.042,0.653-1.991,1.359-2.851,2.102l8.221,6.112c0,0-1.116,5.538-2.692,9.658c-0.495,2.444-0.722,4.741-0.512,6.656h35.5
		l0.133-0.301c0.104-2.009-0.245-4.532-0.849-7.234c0.168,0.265,0.341,0.515,0.519,0.752l-4.329-9.994l8.857-6.598
		C723.425,574.261,722.728,573.768,721.984,573.301z"/>
	<path fill="#C1711B" d="M723.285,551.132c0-4.343-3.521-7.863-7.863-7.863c-2.063,0-3.94,0.797-5.344,2.098
		c-2.222-0.929-4.745-1.426-7.421-1.426c-3.201,0-6.185,0.71-8.694,2.021c-1.441-1.649-3.559-2.693-5.922-2.693
		c-4.342,0-7.863,3.521-7.863,7.863c0,3.823,2.729,7.008,6.345,7.716c0.383,8.444,7.459,16.868,16.134,16.868
		c8.886,0,16.095-8.839,16.149-17.485C721.455,556.966,723.285,554.263,723.285,551.132z"/>
	<path fill="#E62519" d="M707.378,580.414c-1.995-1.463-4.329,0.065-5.398,2.523c-1.069-2.458-3.402-3.986-5.398-2.523
		c-2.651,1.944-0.495,5.767,1.07,7.056c1.559,1.283,4.302,3.433,4.328,3.453v0.001v-0.001l0.001,0.001v-0.001
		c0.026-0.021,2.77-2.17,4.327-3.453C707.873,586.181,710.029,582.359,707.378,580.414z"/>
	<path fill="#844819" d="M718.806,558.232c2.648-1.266,4.479-3.969,4.479-7.1c0-4.343-3.521-7.863-7.863-7.863
		c-2.063,0-3.94,0.797-5.344,2.098c-2.222-0.929-4.745-1.426-7.421-1.426v31.775C711.543,575.716,718.752,566.877,718.806,558.232z"
		/>
	<path fill="#433020" d="M698.793,556.618c0,0.885-0.718,1.602-1.603,1.602c-0.884,0-1.602-0.717-1.602-1.602
		s0.718-1.602,1.602-1.602C698.075,555.017,698.793,555.734,698.793,556.618z M708.123,555.017c-0.885,0-1.602,0.717-1.602,1.602
		s0.717,1.602,1.602,1.602s1.602-0.717,1.602-1.602C709.725,555.734,709.008,555.017,708.123,555.017z"/>
	<ellipse fill="#FFFFFF" cx="702.552" cy="566.612" rx="8.061" ry="7.11"/>
	<ellipse fill="#5E442F" cx="702.657" cy="563.662" rx="3.72" ry="2.136"/>
	<path fill="#844819" d="M720.994,598.107h-18.683v15.688h18.683c4.332,0,7.844-3.513,7.844-7.845S725.326,598.107,720.994,598.107z
		"/>
	<path fill="#C1711B" d="M683.87,598.107h18.683v15.688H683.87c-4.332,0-7.844-3.513-7.844-7.845S679.538,598.107,683.87,598.107z"
		/>
	<circle fill="#FFFFFF" cx="626.636" cy="608.923" r="5.083"/>
	<circle fill="#FFFFFF" cx="652.347" cy="608.923" r="5.083"/>
	<path fill="#F8BF00" d="M636.603,598.151h18.395c-1.486-3.618-5.043-6.167-9.197-6.167S638.089,594.532,636.603,598.151z"/>
</g>
</svg>
