<?xml version="1.0" encoding="utf-8"?>
<!-- Generator: Adobe Illustrator 16.0.0, SVG Export Plug-In . SVG Version: 6.00 Build 0)  -->
<!DOCTYPE svg PUBLIC "-//W3C//DTD SVG 1.1//EN" "http://www.w3.org/Graphics/SVG/1.1/DTD/svg11.dtd">
<svg version="1.1" id="Layer_1" xmlns="http://www.w3.org/2000/svg" xmlns:xlink="http://www.w3.org/1999/xlink" x="0px" y="0px"
	 width="158px" height="70.274px" viewBox="603.962 537.251 158 70.274" enable-background="new 603.962 537.251 158 70.274"
	 xml:space="preserve">
<g>
	<path fill="#F3A300" d="M603.962,607.526h158c-8.92-35.322-40.906-61.466-79-61.466
		C644.869,546.06,612.883,572.203,603.962,607.526z"/>
	<rect x="645.294" y="597.139" fill="#E9EAEA" width="40.718" height="10.387"/>
	<rect x="687.116" y="597.139" fill="#FFFFFF" width="40.719" height="10.387"/>
	<path fill="#E62519" d="M696.482,599.625c-0.253-4.292-3.804-7.697-8.159-7.697h-10.644c-4.355,0-7.906,3.405-8.159,7.697v7.9
		h27.03v-7.9H696.482z"/>
	<path fill="#D22417" d="M688.323,591.928h-5.383v15.598h13.61v-7.9h-0.068C696.229,595.333,692.678,591.928,688.323,591.928z"/>
	<path fill="#FFFFFF" d="M732.94,582.879c-11.032,0-19.977,8.944-19.977,19.976v4.671h39.952v-4.671
		C752.916,591.823,743.971,582.879,732.94,582.879z"/>
	<path fill="#E9EAEA" d="M734.08,582.912v24.613h18.836v-4.671C752.916,592.206,744.581,583.504,734.08,582.912z"/>
	<path fill="#FFFFFF" d="M634.735,582.879c-11.032,0-19.977,8.944-19.977,19.976v4.671h39.953v-4.671
		C654.711,591.823,645.766,582.879,634.735,582.879z"/>
	<path fill="#C1711B" d="M663.227,582.065c-1.025-0.004-1.851-0.839-1.845-1.863c0.005-1.023,0.839-1.85,1.864-1.844
		c-1.025-0.006-1.851-0.84-1.846-1.864c0.005-1.023,0.839-1.85,1.864-1.844c0,0,0.242,0.04,0.626-0.053h4.894
		c3.053,0,5.529,2.476,5.529,5.529s-2.476,5.469-5.529,5.469H662.4c-0.615-0.289-1.04-0.952-1.036-1.685
		C661.369,582.886,662.202,582.061,663.227,582.065z"/>
	<path fill="#844819" d="M701.533,582.065c1.024-0.004,1.851-0.839,1.845-1.863c-0.005-1.023-0.839-1.85-1.863-1.844
		c1.024-0.006,1.85-0.84,1.845-1.864c-0.005-1.023-0.839-1.85-1.864-1.844c0,0-0.241,0.04-0.626-0.053h-4.894
		c-3.054,0-5.529,2.476-5.529,5.529s2.476,5.469,5.529,5.469h6.385c0.615-0.289,1.04-0.952,1.036-1.685
		C703.392,582.886,702.558,582.061,701.533,582.065z"/>
	<circle fill="#FFE9D8" cx="682.922" cy="574.978" r="13.628"/>
	<path fill="#C1711B" d="M682.922,561.35c-6.076,0-11.22,3.977-12.979,9.469l6.845,0.034c3.063-0.514,5.443-2.655,5.915-5.348
		c0.443,2.696,2.801,4.863,5.86,5.407l7.374,0.011C694.21,565.376,689.036,561.35,682.922,561.35z"/>
	<circle fill="#433020" cx="677.49" cy="573.592" r="1.005"/>
	<circle fill="#433020" cx="688.121" cy="573.592" r="1.005"/>
	<circle fill="#FFE9D8" cx="733.118" cy="558.054" r="20.77"/>
	<path fill="#C1711B" d="M753.887,557.919c-0.033-5.189-1.97-9.928-5.146-13.552c-0.002-0.002-0.004-0.004-0.006-0.006
		c-0.163-0.187-0.33-0.369-0.5-0.55c-0.002-0.002-0.003-0.003-0.004-0.005c-0.169-0.179-0.342-0.355-0.518-0.528
		c-0.007-0.008-0.015-0.015-0.022-0.022c-0.171-0.169-0.346-0.335-0.522-0.497c-0.004-0.004-0.008-0.008-0.012-0.011
		c-0.179-0.164-0.36-0.325-0.545-0.483c-0.014-0.012-0.027-0.023-0.042-0.035c-0.178-0.151-0.357-0.3-0.541-0.445
		c-0.007-0.005-0.013-0.011-0.02-0.016c-0.188-0.148-0.377-0.293-0.569-0.436c-0.021-0.016-0.042-0.03-0.063-0.046
		c-0.183-0.134-0.368-0.266-0.556-0.394c-0.01-0.007-0.019-0.014-0.028-0.021c-0.195-0.132-0.393-0.261-0.592-0.388
		c-0.027-0.017-0.055-0.033-0.082-0.051c-0.188-0.118-0.379-0.233-0.57-0.345c-0.013-0.007-0.025-0.015-0.038-0.022
		c-0.201-0.116-0.405-0.229-0.611-0.34c-0.034-0.018-0.068-0.036-0.103-0.054c-0.192-0.102-0.387-0.201-0.583-0.297
		c-0.015-0.007-0.03-0.015-0.045-0.021c-0.207-0.102-0.418-0.198-0.63-0.292c-0.039-0.018-0.08-0.035-0.12-0.053
		c-0.197-0.086-0.396-0.17-0.598-0.25c-0.017-0.007-0.032-0.014-0.049-0.021c-0.214-0.085-0.43-0.165-0.646-0.243
		c-0.046-0.017-0.092-0.032-0.138-0.049c-0.203-0.07-0.407-0.14-0.613-0.204c-0.017-0.005-0.033-0.012-0.05-0.017
		c-0.22-0.068-0.44-0.133-0.663-0.194c-0.051-0.014-0.101-0.027-0.151-0.041c-0.21-0.056-0.42-0.109-0.632-0.159
		c-0.017-0.004-0.032-0.008-0.048-0.012c-0.225-0.053-0.451-0.1-0.679-0.145c-0.054-0.011-0.108-0.021-0.162-0.031
		c-0.218-0.041-0.436-0.079-0.655-0.113c-0.014-0.002-0.026-0.005-0.039-0.007c-0.23-0.035-0.462-0.065-0.694-0.093
		c-0.057-0.008-0.113-0.014-0.17-0.02c-0.228-0.025-0.456-0.049-0.686-0.066c-0.008,0-0.015-0.001-0.022-0.002
		c-0.235-0.018-0.472-0.03-0.71-0.04c-0.059-0.003-0.117-0.005-0.176-0.007c-0.238-0.009-0.479-0.014-0.719-0.014
		c-6.459,0-12.229,2.947-16.038,7.57v0.023c0,5.292,4.291,9.582,9.583,9.582h6.455v3.459v12.503v16.267h16.524
		c2.345,0,4.245-1.9,4.245-4.245L753.887,557.919L753.887,557.919z"/>
	<path fill="#844819" d="M753.887,557.919c-0.033-5.189-1.97-9.928-5.146-13.552c-0.002-0.002-0.004-0.004-0.006-0.006
		c-0.163-0.187-0.33-0.369-0.5-0.55c-0.002-0.002-0.003-0.003-0.004-0.005c-0.169-0.179-0.342-0.355-0.518-0.528
		c-0.007-0.008-0.015-0.015-0.022-0.022c-0.171-0.169-0.346-0.335-0.522-0.497c-0.004-0.004-0.008-0.008-0.012-0.011
		c-0.179-0.164-0.36-0.325-0.545-0.483c-0.014-0.012-0.027-0.023-0.042-0.035c-0.178-0.151-0.357-0.3-0.541-0.445
		c-0.007-0.005-0.013-0.011-0.02-0.016c-0.188-0.148-0.377-0.293-0.569-0.436c-0.021-0.016-0.042-0.03-0.063-0.046
		c-0.183-0.134-0.368-0.266-0.556-0.394c-0.01-0.007-0.019-0.014-0.028-0.021c-0.195-0.132-0.393-0.261-0.592-0.388
		c-0.027-0.017-0.055-0.033-0.082-0.051c-0.188-0.118-0.379-0.233-0.57-0.345c-0.013-0.007-0.025-0.015-0.038-0.022
		c-0.201-0.116-0.405-0.229-0.611-0.34c-0.034-0.018-0.068-0.036-0.103-0.054c-0.192-0.102-0.387-0.201-0.583-0.297
		c-0.015-0.007-0.03-0.015-0.045-0.021c-0.207-0.102-0.418-0.198-0.63-0.292c-0.039-0.018-0.08-0.035-0.12-0.053
		c-0.197-0.086-0.396-0.17-0.598-0.25c-0.017-0.007-0.032-0.014-0.049-0.021c-0.214-0.085-0.43-0.165-0.646-0.243
		c-0.046-0.017-0.092-0.032-0.138-0.049c-0.203-0.07-0.407-0.14-0.613-0.204c-0.017-0.005-0.033-0.012-0.05-0.017
		c-0.22-0.068-0.44-0.133-0.663-0.194c-0.051-0.014-0.101-0.027-0.151-0.041c-0.21-0.056-0.42-0.109-0.632-0.159
		c-0.017-0.004-0.032-0.008-0.048-0.012c-0.225-0.053-0.451-0.1-0.679-0.145c-0.054-0.011-0.108-0.021-0.162-0.031
		c-0.218-0.041-0.436-0.079-0.655-0.113c-0.014-0.002-0.026-0.005-0.039-0.007c-0.23-0.035-0.462-0.065-0.694-0.093
		c-0.057-0.008-0.113-0.014-0.17-0.02c-0.228-0.025-0.456-0.049-0.686-0.066c-0.008,0-0.015-0.001-0.022-0.002
		c-0.235-0.018-0.472-0.03-0.71-0.04c-0.059-0.003-0.117-0.005-0.176-0.007c-0.238-0.009-0.479-0.014-0.719-0.014
		c-1.006,0-1.993,0.073-2.961,0.212c0.072,0.011,0.145,0.019,0.217,0.029c0.013,0.002,0.025,0.005,0.039,0.007
		c0.219,0.034,0.438,0.072,0.655,0.113c0.054,0.011,0.108,0.021,0.162,0.031c0.228,0.045,0.454,0.092,0.679,0.145
		c0.016,0.004,0.031,0.008,0.047,0.012c0.213,0.05,0.423,0.104,0.633,0.159c0.051,0.014,0.101,0.027,0.151,0.041
		c0.222,0.062,0.443,0.126,0.662,0.194c0.018,0.005,0.034,0.011,0.051,0.017c0.206,0.064,0.41,0.134,0.613,0.204
		c0.046,0.017,0.092,0.032,0.138,0.049c0.217,0.078,0.433,0.158,0.646,0.243c0.016,0.007,0.032,0.014,0.049,0.021
		c0.201,0.08,0.399,0.164,0.598,0.25c0.04,0.018,0.08,0.035,0.12,0.053c0.212,0.094,0.422,0.19,0.63,0.291
		c0.015,0.008,0.029,0.016,0.044,0.022c0.196,0.096,0.391,0.195,0.584,0.297c0.034,0.018,0.068,0.036,0.103,0.054
		c0.206,0.11,0.409,0.224,0.611,0.34c0.013,0.008,0.024,0.015,0.037,0.022c0.192,0.111,0.382,0.227,0.57,0.345
		c0.027,0.017,0.055,0.034,0.082,0.051c0.2,0.126,0.397,0.256,0.592,0.388c0.01,0.007,0.02,0.014,0.029,0.021
		c0.188,0.128,0.373,0.26,0.556,0.394c0.021,0.016,0.042,0.03,0.062,0.046c0.193,0.142,0.383,0.287,0.57,0.436
		c0.007,0.005,0.013,0.011,0.02,0.016c0.183,0.146,0.363,0.294,0.541,0.445c0.014,0.012,0.027,0.023,0.042,0.035
		c0.185,0.158,0.366,0.319,0.545,0.483c0.004,0.003,0.008,0.007,0.012,0.011c0.177,0.162,0.352,0.328,0.522,0.497
		c0.007,0.008,0.015,0.015,0.022,0.022c0.176,0.173,0.348,0.35,0.517,0.528c0.002,0.002,0.003,0.003,0.005,0.005
		c0.169,0.18,0.336,0.363,0.5,0.55c0.002,0.002,0.004,0.004,0.006,0.006c3.177,3.624,5.113,8.362,5.146,13.552h0.001v24.524
		c0,2.345-1.9,4.246-4.245,4.246h5.921c2.345,0,4.246-1.901,4.246-4.246v-24.524H753.887z"/>
	<circle fill="#433020" cx="717.974" cy="556.757" r="1.43"/>
	<circle fill="#FFE9D8" cx="634.735" cy="558.054" r="20.77"/>
	<circle fill="#433020" cx="649.879" cy="556.757" r="1.43"/>
	<path fill="#C1711B" d="M616.839,565.611c0.646-0.928,1.613-1.654,2.764-2.053c0.945-0.327,1.906-0.586,2.875-0.81
		c0.225-0.102,1.028-0.447,1.243-0.553c0.542-0.263,1.079-0.533,1.613-0.81c2.411-1.252,4.809-2.505,7.372-3.427
		c0.655-0.235,1.351-0.271,2.028-0.156v-3.343l0,0v-9.854h15.827c-3.81-4.479-9.486-7.322-15.827-7.322
		c-0.241,0-0.48,0.006-0.72,0.014c-0.059,0.002-0.117,0.004-0.176,0.007c-0.237,0.01-0.474,0.022-0.71,0.04
		c-0.007,0.001-0.015,0.002-0.022,0.003c-0.229,0.018-0.458,0.04-0.685,0.065c-0.057,0.006-0.114,0.013-0.171,0.02
		c-0.232,0.027-0.464,0.058-0.694,0.093c-0.013,0.002-0.026,0.005-0.039,0.007c-0.22,0.034-0.438,0.072-0.655,0.113
		c-0.054,0.011-0.108,0.021-0.163,0.031c-0.227,0.045-0.454,0.093-0.678,0.145c-0.016,0.004-0.031,0.008-0.047,0.012
		c-0.212,0.05-0.423,0.104-0.632,0.159c-0.05,0.014-0.101,0.027-0.151,0.041c-0.222,0.062-0.443,0.126-0.663,0.194
		c-0.017,0.005-0.034,0.012-0.051,0.017c-0.206,0.064-0.41,0.134-0.613,0.204c-0.046,0.017-0.092,0.033-0.138,0.049
		c-0.217,0.078-0.433,0.158-0.646,0.243c-0.017,0.007-0.033,0.014-0.049,0.021c-0.201,0.08-0.399,0.164-0.597,0.25
		c-0.041,0.018-0.081,0.035-0.121,0.053c-0.212,0.094-0.422,0.19-0.63,0.292c-0.015,0.007-0.029,0.015-0.044,0.021
		c-0.196,0.096-0.391,0.195-0.583,0.297c-0.034,0.019-0.069,0.036-0.103,0.054c-0.206,0.11-0.41,0.224-0.611,0.34
		c-0.013,0.008-0.025,0.016-0.038,0.022c-0.192,0.112-0.382,0.228-0.57,0.345c-0.027,0.018-0.055,0.034-0.082,0.051
		c-0.2,0.127-0.397,0.256-0.592,0.389c-0.01,0.006-0.02,0.013-0.029,0.02c-0.188,0.128-0.373,0.26-0.556,0.395
		c-0.021,0.015-0.042,0.029-0.062,0.045c-0.192,0.143-0.382,0.287-0.57,0.436l-0.02,0.016c-0.183,0.146-0.363,0.294-0.542,0.446
		c-0.014,0.012-0.027,0.023-0.042,0.034c-0.185,0.158-0.366,0.319-0.545,0.483c-0.004,0.004-0.008,0.007-0.012,0.011
		c-0.177,0.162-0.351,0.328-0.522,0.497c-0.007,0.008-0.015,0.015-0.023,0.022c-0.175,0.173-0.348,0.35-0.517,0.528
		c-0.001,0.002-0.003,0.004-0.004,0.005c-0.169,0.181-0.336,0.363-0.5,0.55c-0.001,0.002-0.003,0.004-0.005,0.007
		c-3.177,3.623-5.113,8.361-5.146,13.551h-0.002v8.646C614.893,566.183,615.857,565.873,616.839,565.611z"/>
	<path fill="#C1711B" d="M630.623,537.694c-0.201,0.04-0.402,0.081-0.601,0.128c-0.016,0.004-0.031,0.008-0.047,0.012
		c-0.212,0.05-0.423,0.104-0.632,0.159c-0.05,0.014-0.101,0.027-0.151,0.041c-0.222,0.062-0.443,0.126-0.663,0.194
		c-0.017,0.005-0.034,0.011-0.051,0.017c-0.206,0.064-0.41,0.134-0.613,0.204c-0.046,0.017-0.092,0.032-0.138,0.049
		c-0.217,0.078-0.433,0.158-0.646,0.243c-0.017,0.007-0.033,0.014-0.05,0.021c-0.2,0.08-0.399,0.164-0.597,0.25
		c-0.04,0.018-0.081,0.035-0.121,0.053c-0.212,0.094-0.422,0.19-0.63,0.292c-0.015,0.007-0.029,0.015-0.044,0.021
		c-0.196,0.096-0.391,0.195-0.583,0.297c-0.034,0.018-0.068,0.036-0.103,0.054c-0.206,0.11-0.41,0.224-0.611,0.34
		c-0.013,0.008-0.025,0.016-0.038,0.022c-0.192,0.112-0.382,0.228-0.57,0.345c-0.027,0.018-0.055,0.034-0.082,0.051
		c-0.199,0.127-0.397,0.256-0.592,0.388c-0.01,0.007-0.019,0.014-0.029,0.021c-0.188,0.128-0.373,0.26-0.556,0.394
		c-0.021,0.016-0.042,0.03-0.062,0.046c-0.192,0.143-0.382,0.287-0.57,0.436c-0.006,0.005-0.013,0.011-0.019,0.016
		c-0.184,0.146-0.364,0.294-0.542,0.445c-0.014,0.012-0.028,0.023-0.042,0.035c-0.185,0.158-0.367,0.319-0.545,0.483
		c-0.004,0.003-0.007,0.007-0.011,0.011c-0.177,0.162-0.352,0.328-0.522,0.497c-0.008,0.008-0.016,0.015-0.023,0.022
		c-0.175,0.173-0.348,0.35-0.517,0.528c-0.001,0.002-0.003,0.003-0.004,0.005c-0.17,0.181-0.337,0.363-0.5,0.55
		c-0.002,0.002-0.004,0.004-0.006,0.006c-3.177,3.624-5.113,8.362-5.146,13.552h-0.002v10.75h11.053
		c5.367,0,9.717-4.352,9.717-9.718v-1.032v-3.459v-8.831C634.735,542.351,633.11,539.453,630.623,537.694z"/>
	<path fill="#FFE9D8" d="M629.845,561.258c0,1.531,1.241,2.772,2.772,2.772h6.517c1.531,0,2.772-1.241,2.772-2.772v-4.025
		c0-1.531-1.241-2.772-2.772-2.772h-6.517c-1.531,0-2.772,1.241-2.772,2.772V561.258L629.845,561.258z"/>
	<path fill="#844819" d="M654.494,540.93c0,2.03-1.647,3.677-3.678,3.677H636.36c-2.031,0-3.678-1.646-3.678-3.677l0,0
		c0-2.031,1.646-3.679,3.678-3.679h14.457C652.847,537.251,654.494,538.899,654.494,540.93L654.494,540.93z"/>
	<path fill="#C1711B" d="M643.588,540.93c0-2.031-1.646-3.679-3.678-3.679h-3.55c-2.031,0-3.678,1.647-3.678,3.679
		c0,2.03,1.646,3.677,3.678,3.677h3.55C641.941,544.607,643.588,542.96,643.588,540.93z"/>
	<path fill="#844819" d="M682.922,561.35c-0.06,0-0.119,0.003-0.179,0.004v4.37c0.532,2.594,2.843,4.659,5.819,5.188l7.375,0.011
		C694.21,565.376,689.036,561.35,682.922,561.35z"/>
	<path fill="#E9EAEA" d="M635.876,582.912v24.613h18.835v-4.671C654.711,592.206,646.376,583.504,635.876,582.912z"/>
</g>
</svg>
