<?xml version="1.0" encoding="utf-8"?>
<!-- Generator: Adobe Illustrator 16.0.0, SVG Export Plug-In . SVG Version: 6.00 Build 0)  -->
<!DOCTYPE svg PUBLIC "-//W3C//DTD SVG 1.1//EN" "http://www.w3.org/Graphics/SVG/1.1/DTD/svg11.dtd">
<svg version="1.1" id="Layer_1" xmlns="http://www.w3.org/2000/svg" xmlns:xlink="http://www.w3.org/1999/xlink" x="0px" y="0px"
	 width="481.95px" height="146.183px" viewBox="0.001 -277.999 481.95 146.183"
	 enable-background="new 0.001 -277.999 481.95 146.183" xml:space="preserve">
<g>
	<g>
		<path fill="#FFFFFF" d="M38.623-214.173c0,6.328-5.131,11.457-11.46,11.457h-4.776c-6.329,0-11.458-5.13-11.458-11.457l0,0
			c0-6.33,5.131-11.46,11.458-11.46h4.776C33.493-225.633,38.623-220.501,38.623-214.173L38.623-214.173z"/>
		<path fill="#FFFFFF" d="M61.009-204.403c0,6.329-5.131,11.457-11.458,11.457H11.459c-6.327,0-11.458-5.128-11.458-11.457l0,0
			c0-6.329,5.131-11.458,11.458-11.458H49.55C55.878-215.863,61.009-210.731,61.009-204.403L61.009-204.403z"/>
	</g>
	<g>
		<path fill="#FFFFFF" d="M421.624-260.098c0,9.885,8.017,17.896,17.899,17.896h7.463c9.885,0,17.899-8.012,17.899-17.896l0,0
			c0-9.888-8.017-17.9-17.899-17.9h-7.463C429.639-277.999,421.624-269.986,421.624-260.098L421.624-260.098z"/>
		<path fill="#FFFFFF" d="M386.657-244.836c0,9.885,8.016,17.896,17.899,17.896h59.499c9.883,0,17.896-8.012,17.896-17.896l0,0
			c0-9.887-8.015-17.9-17.896-17.9h-59.499C394.67-262.737,386.657-254.723,386.657-244.836L386.657-244.836z"/>
	</g>
	<path fill="#FFFFFF" d="M274.522-131.816h-14.301c-0.514,0-1.011-0.063-1.487-0.184c-0.478,0.118-0.976,0.184-1.484,0.184h-14.301
		c-3.399,0-6.153-2.756-6.153-6.154c0-3.397,2.754-6.15,6.153-6.15h2.178c0-3.398,2.754-6.153,6.151-6.153h2.565
		c3.398,0,6.153,2.755,6.153,6.153c0,0,0,0.004,0,0.007c0.074-0.003,0.149-0.007,0.225-0.007h14.301c3.397,0,6.152,2.753,6.152,6.15
		C280.675-134.571,277.92-131.816,274.522-131.816z"/>
</g>
</svg>
