<?xml version="1.0" encoding="utf-8"?>
<!-- Generator: Adobe Illustrator 16.0.0, SVG Export Plug-In . SVG Version: 6.00 Build 0)  -->
<!DOCTYPE svg PUBLIC "-//W3C//DTD SVG 1.1//EN" "http://www.w3.org/Graphics/SVG/1.1/DTD/svg11.dtd">
<svg version="1.1" id="Layer_1" xmlns="http://www.w3.org/2000/svg" xmlns:xlink="http://www.w3.org/1999/xlink" x="0px" y="0px"
	 width="425.2px" height="170.08px" viewBox="0 0 425.2 170.08" enable-background="new 0 0 425.2 170.08" xml:space="preserve">
<path fill="#FBCD00" d="M255.655,85.136c0,22.276-18.058,40.333-40.334,40.333c-22.276,0-40.333-18.057-40.333-40.333
	c0-22.276,18.058-40.334,40.333-40.334C237.598,44.802,255.655,62.86,255.655,85.136z M232.547,96.039l-10.885-10.884l0.002-0.002
	l-0.035-0.035l10.887-10.887c1.74-1.741,1.74-4.565-0.002-6.308c-1.74-1.741-4.564-1.741-6.307,0L215.321,78.81l-10.886-10.887
	c-1.741-1.741-4.565-1.741-6.307,0c-1.741,1.742-1.742,4.566-0.001,6.308l10.887,10.887l-0.035,0.035l0.002,0.002l-10.885,10.884
	c-1.741,1.742-1.74,4.566,0.001,6.309c1.741,1.74,4.565,1.74,6.307,0l10.917-10.876l10.917,10.876c1.742,1.74,4.566,1.74,6.307,0
	C234.287,100.605,234.287,97.781,232.547,96.039z"/>
</svg>
