<?xml version="1.0" encoding="utf-8"?>
<!-- Generator: Adobe Illustrator 16.0.0, SVG Export Plug-In . SVG Version: 6.00 Build 0)  -->
<!DOCTYPE svg PUBLIC "-//W3C//DTD SVG 1.1//EN" "http://www.w3.org/Graphics/SVG/1.1/DTD/svg11.dtd">
<svg version="1.1" id="Layer_1" xmlns="http://www.w3.org/2000/svg" xmlns:xlink="http://www.w3.org/1999/xlink" x="0px" y="0px"
	 width="585.331px" height="104.238px" viewBox="0 0 585.331 104.238" enable-background="new 0 0 585.331 104.238"
	 xml:space="preserve">
<g>
	<path fill="#E62519" d="M51.179,61.026c0,4.45-3.418,8.102-7.772,8.473c-0.241,0.021-0.485,0.031-0.731,0.031h-8.992
		c-4.696,0-8.504-3.808-8.504-8.504V38.034c0-4.696,3.808-8.504,8.504-8.504h8.992c4.696,0,8.504,3.808,8.504,8.504V61.026z"/>
	<path fill="#E62519" d="M177.691,1.514c-9.418-4.676-13.592,2.246-17.334,10.291c-2.858,6.145-6.595,14.256-14.369,17.746
		C111.084,29.357,39.5,29.832,39.5,29.832l1.625,32.432l2.125,7.267c0,0,62.25-2.012,101.25-12.357
		c9.125-2.421,15.717-5.164,20.3-7.958c11.494-4.18,22.575-14.831,23.619-23.006C189.542,17.416,187.109,6.191,177.691,1.514z"/>
	<path fill="#E62519" d="M120,16.904c0,2.302-1.865,4.167-4.167,4.167H55.345c-2.301,0-4.167-1.865-4.167-4.167l0,0
		c0-2.301,1.865-4.166,4.167-4.166h60.488C118.135,12.738,120,14.604,120,16.904L120,16.904z"/>
	<path fill="#D22417" d="M59.099,29.718L79.1,67.244c19.214-1.685,42.77-4.514,61.757-9.145l-17.026-28.595
		C102.096,29.511,76.373,29.625,59.099,29.718z"/>
	<path fill="#E62519" d="M11.722,49.301c0-2.635,0.389-5.24,1.121-7.738c-1.024-0.285-2.126-0.449-3.28-0.449
		C4.281,41.113,0,44.373,0,48.395s4.281,7.281,9.562,7.281c0.99,0,1.946-0.115,2.845-0.328
		C11.961,53.374,11.722,51.347,11.722,49.301z"/>
	<circle fill="#E62519" cx="73.261" cy="90.076" r="14.163"/>
	<circle fill="#FFFFFF" cx="73.261" cy="90.076" r="5.413"/>
	<rect x="261.213" fill="#FFFFFF" width="324.118" height="59.255"/>
	<rect x="220.903" y="12.951" fill="#FFFFFF" width="74.427" height="59.257"/>
	<path fill="#E62519" d="M14.257,73.939c-2.302,0-4.167-1.865-4.167-4.167V29.286c0-2.301,1.865-4.166,4.167-4.166l0,0
		c2.301,0,4.166,1.865,4.166,4.166v40.486C18.423,72.074,16.558,73.939,14.257,73.939L14.257,73.939z"/>
</g>
</svg>
