<?xml version="1.0" encoding="utf-8"?>
<!-- Generator: Adobe Illustrator 16.0.0, SVG Export Plug-In . SVG Version: 6.00 Build 0)  -->
<!DOCTYPE svg PUBLIC "-//W3C//DTD SVG 1.1//EN" "http://www.w3.org/Graphics/SVG/1.1/DTD/svg11.dtd">
<svg version="1.1" id="Layer_1" xmlns="http://www.w3.org/2000/svg" xmlns:xlink="http://www.w3.org/1999/xlink" x="0px" y="0px"
	 width="179px" height="104.355px" viewBox="370.586 216.049 179 104.355" enable-background="new 370.586 216.049 179 104.355"
	 xml:space="preserve">
<g>
	<path fill="#FBCD00" d="M406.173,270.608c0.018-2.768,0.179-5.529,0.423-8.283c0.251-2.83,0.56-5.654,0.896-8.476
		c0.565-4.748,1.345-9.463,2.349-14.14c0.729-3.399,1.56-6.773,2.791-10.033c0.967-2.558,2.229-4.954,3.982-7.069
		c1.438-1.733,3.127-3.147,5.238-4.002c0.851-0.345,1.732-0.583,2.659-0.627c0.333-0.016,0.64,0.04,0.948,0.177
		c0.896,0.399,1.572,1.042,2.104,1.85c0.719,1.095,1.118,2.316,1.379,3.584c0.472,2.282,0.533,4.589,0.419,6.909
		c-0.108,2.213-0.584,4.367-1.009,6.527c-0.938,4.77-2.165,9.466-3.697,14.081c-2.592,7.81-5.938,15.267-10.421,22.189
		c-1.174,1.812-2.409,3.585-3.838,5.21c-0.344,0.392-0.744,0.756-1.177,1.046c-0.813,0.537-1.541,0.37-2.09-0.433
		c-0.458-0.668-0.655-1.43-0.744-2.229C406.148,274.8,406.16,272.703,406.173,270.608z"/>
	<path fill="#88BD2F" d="M395.449,242.734c1.19,0,2.412,0,3.685,0c-0.307-2.219-1.398-3.865-3.236-5.086
		c0.106-0.497,0.204-0.997,0.321-1.492c0.845-3.552,2.316-6.812,4.564-9.703c2.782-3.577,6.33-6.145,10.496-7.885
		c1.736-0.726,3.526-1.279,5.393-1.55c0.472-0.069,0.959-0.036,1.439-0.035c0.121,0,0.245,0.045,0.359,0.09
		c0.413,0.158,0.523,0.429,0.289,0.802c-0.146,0.233-0.332,0.456-0.543,0.632c-1.068,0.894-1.955,1.953-2.795,3.052
		c-1.997,2.609-3.501,5.494-4.75,8.52c-1.502,3.64-2.588,7.409-3.45,11.246c-0.702,3.123-1.252,6.272-1.652,9.445
		c-0.275,2.188-0.486,4.383-0.692,6.579c-0.299,3.188-0.453,6.384-0.486,9.585c-0.02,1.973-0.003,3.945,0.047,5.919
		c0.02,0.731,0.069,1.456-0.113,2.173c-0.065,0.253-0.15,0.509-0.274,0.738c-0.272,0.502-0.638,0.555-1.049,0.149
		c-0.188-0.182-0.358-0.393-0.486-0.621c-0.496-0.877-1.007-1.75-1.446-2.657c-1.749-3.62-2.981-7.424-3.912-11.329
		c-0.691-2.904-1.179-5.843-1.476-8.812c-0.294-2.924-0.427-5.856-0.356-8.797c0.007-0.279,0.03-0.557,0.05-0.836
		C395.377,242.835,395.404,242.81,395.449,242.734z"/>
	<path fill="#F17E06" d="M440.85,240.033c-0.007,4.121-0.849,7.708-2.332,11.156c-1.493,3.469-3.441,6.676-5.651,9.725
		c-4.067,5.61-8.735,10.67-14.024,15.147c-0.935,0.792-1.945,1.493-2.936,2.215c-0.798,0.581-1.738,0.805-2.689,0.972
		c-0.196,0.035-0.404,0.028-0.604,0.01c-0.438-0.04-0.617-0.304-0.445-0.703c0.115-0.267,0.271-0.532,0.466-0.744
		c1.469-1.576,2.63-3.382,3.784-5.186c4.555-7.13,8.321-14.648,11.082-22.655c1.266-3.672,2.266-7.417,2.917-11.249
		c0.535-3.161,0.826-6.344,0.746-9.552c-0.062-2.489-0.292-4.963-0.888-7.384c-0.181-0.737,0.606-1.34,1.197-1.124
		c0.45,0.166,0.849,0.402,1.171,0.738c0.709,0.739,1.435,1.469,2.076,2.266c2.626,3.262,4.482,6.917,5.46,11.002
		C440.63,236.547,440.836,238.457,440.85,240.033z"/>
	<path fill="#59BAC3" d="M424.844,285.967c0.063-0.267,0.117-0.522,0.186-0.774c0.351-1.298,1.001-2.405,2.084-3.227
		c1.629-1.234,3.678-1.236,5.315-0.013c0.124,0.091,0.246,0.188,0.404,0.308c0.08-0.14,0.154-0.268,0.225-0.397
		c0.724-1.349,1.678-2.499,2.93-3.389c3.005-2.133,6.891-1.905,9.659,0.565c1.818,1.624,2.881,3.673,3.342,6.043
		c0.125,0.636,0.151,1.294,0.221,1.941c0.015,0.135,0.021,0.271,0.032,0.418c2.936-0.048,4.521,1.646,5.491,4.184
		c0.113-0.088,0.219-0.172,0.326-0.257c1.075-0.83,2.449-0.772,3.45,0.146c0.74,0.681,1.196,1.77,1.104,2.684
		c-0.146,0.007-0.299,0.021-0.45,0.021c-12.014,0.001-24.028,0-36.042,0.008c-0.324,0-0.547-0.104-0.769-0.333
		c-1.748-1.792-1.773-4.979-0.042-6.787C422.996,286.39,423.836,286.008,424.844,285.967z"/>
	<path fill="#E62519" d="M442.395,241.793c-0.004-3.105-0.553-5.789-1.367-8.426c-0.869-2.811-2.065-5.486-3.395-8.104
		c-0.204-0.401-0.407-0.804-0.585-1.217c-0.171-0.394-0.008-0.671,0.423-0.72c0.439-0.05,0.83,0.008,1.208,0.32
		c2.176,1.793,4.009,3.894,5.602,6.207c2.025,2.941,3.548,6.115,4.37,9.605c1.259,5.344,0.595,10.454-1.894,15.328
		c-1.951,3.82-4.499,7.218-7.471,10.295c-5.198,5.382-11.168,9.7-17.931,12.913c-0.569,0.27-1.188,0.438-1.784,0.654
		c-0.014,0.005-0.03,0.009-0.045,0.011c-0.451,0.079-0.754-0.007-0.871-0.257c-0.109-0.23,0.02-0.682,0.289-0.925
		c0.288-0.259,0.593-0.501,0.89-0.75c3.503-2.962,6.889-6.048,10.013-9.411c3.043-3.275,5.808-6.762,8.018-10.663
		c2.053-3.624,3.484-7.474,4.208-11.58C442.284,243.882,442.427,242.68,442.395,241.793z"/>
	<path fill="#88BD2F" d="M405.617,300.029c-0.703-0.114-1.411-0.201-2.106-0.351c-0.862-0.185-1.718-0.405-2.567-0.646
		c-0.354-0.101-0.694-0.269-1.02-0.444c-0.927-0.506-1.405-1.314-1.571-2.344c-0.12-0.751-0.042-1.489,0.024-2.23
		c0.133-1.472,0.174-2.945,0.109-4.422c-0.073-1.66-0.116-3.323-0.23-4.98c-0.141-2.06-0.34-4.117-0.518-6.173
		c-0.05-0.575-0.112-1.144-0.169-1.716c-0.002-0.031-0.013-0.066-0.003-0.093c0.051-0.155,0.062-0.38,0.169-0.444
		c0.204-0.125,0.347,0.092,0.433,0.241c0.178,0.306,0.359,0.621,0.461,0.955c0.391,1.267,0.588,2.572,0.756,3.881
		c0.196,1.539,0.365,3.082,0.567,4.622c0.053,0.396,0.168,0.788,0.282,1.175c0.09,0.302,0.272,0.556,0.548,0.729
		c0.41,0.258,0.649,0.196,0.85-0.244c0.083-0.182,0.158-0.378,0.183-0.572c0.104-0.816,0.21-1.631,0.272-2.451
		c0.057-0.773,0.052-1.552,0.087-2.326c0.009-0.184,0.039-0.375,0.105-0.544c0.124-0.314,0.404-0.469,0.701-0.42
		c0.241,0.04,0.427,0.247,0.436,0.584c0.011,0.401-0.027,0.806-0.056,1.207c-0.085,1.196-0.139,2.393,0.047,3.581
		c0.073,0.469,0.204,0.945,0.401,1.376c0.4,0.877,1.203,1.17,2.091,1.237c0.224,0.018,0.497-0.101,0.687-0.241
		c0.384-0.283,0.758-0.596,1.08-0.948c0.937-1.025,1.657-2.209,2.357-3.401c0.275-0.468,0.539-0.943,0.802-1.42
		c0.175-0.313,0.426-0.527,0.772-0.628c0.261-0.074,0.501-0.025,0.693,0.158c0.205,0.194,0.123,0.436,0.032,0.65
		c-0.079,0.185-0.188,0.357-0.292,0.53c-0.881,1.464-1.767,2.924-2.64,4.391c-0.134,0.224-0.244,0.473-0.307,0.722
		c-0.09,0.363,0.027,0.657,0.265,0.78c0.298,0.151,0.587,0.085,0.827-0.111c0.214-0.177,0.398-0.392,0.578-0.606
		c1.534-1.816,3.063-3.636,4.596-5.453c0.501-0.592,1.005-1.184,1.521-1.765c0.142-0.158,0.313-0.318,0.504-0.399
		c0.128-0.056,0.351-0.029,0.464,0.054c0.087,0.064,0.132,0.299,0.086,0.408c-0.113,0.27-0.265,0.527-0.444,0.759
		c-1.792,2.29-3.453,4.669-4.898,7.194c-1.274,2.228-2.36,4.543-3.313,6.926c-0.224,0.559-0.497,1.104-0.808,1.619
		C407.823,299.49,406.881,300.031,405.617,300.029z"/>
	<path fill="#59BAC3" d="M394.082,242.79c-0.012,0.254-0.017,0.485-0.034,0.716c-0.186,2.582-0.039,5.154,0.271,7.719
		c0.831,6.851,2.714,13.433,5.104,19.884c0.344,0.93,0.737,1.843,1.101,2.767c0.077,0.2,0.136,0.411,0.171,0.624
		c0.037,0.212-0.063,0.343-0.291,0.396c-0.4,0.093-0.774,0.017-1.131-0.151c-0.487-0.228-0.876-0.579-1.202-1.007
		c-1.991-2.616-3.711-5.4-5.212-8.321c-2.268-4.414-3.957-9.036-4.998-13.89c-0.492-2.295-0.838-4.613-0.988-6.957
		c-0.037-0.587-0.071-1.175-0.105-1.751C387.15,242.72,393.431,242.697,394.082,242.79z"/>
	<path fill="#59BAC3" d="M370.665,241.85c0.189-1.244,0.788-2.201,1.803-2.893c0.949-0.647,2.021-0.925,3.155-0.996
		c0.212-0.013,0.427-0.002,0.649-0.002c0.066-0.262,0.109-0.473,0.174-0.678c0.824-2.587,2.434-4.491,4.965-5.521
		c2.29-0.933,4.522-0.36,6.167,1.488c1.108,1.247,1.774,2.721,2.195,4.318c0.04,0.148,0.076,0.298,0.122,0.486
		c0.127-0.019,0.243-0.03,0.357-0.056c0.604-0.14,1.201-0.312,1.81-0.418c1.91-0.339,3.487,0.269,4.735,1.739
		c0.623,0.732,1.047,1.567,1.275,2.503C397.724,241.922,371.341,241.954,370.665,241.85z"/>
	<path fill="#59BAC3" d="M439.589,313.489c0,1.568,0,3.028,0,4.488c0,0.279,0.002,0.561-0.007,0.838
		c-0.029,0.879-0.364,1.299-1.21,1.443c-0.489,0.083-0.99,0.091-1.478-0.054c-0.608-0.179-0.927-0.575-0.97-1.215
		c-0.011-0.154-0.007-0.31-0.007-0.466c0-5.484,0.019-10.969-0.014-16.455c-0.008-1.398,0.794-1.947,1.953-1.902
		c0.351,0.016,0.707,0.089,1.044,0.189c0.509,0.149,0.733,0.542,0.766,1.054c0.008,0.149,0.001,0.302,0.001,0.552
		c0.128-0.13,0.191-0.187,0.245-0.251c0.969-1.146,2.202-1.732,3.702-1.763c1.726-0.034,3.203,0.518,4.337,1.854
		c0.707,0.835,1.131,1.814,1.365,2.874c0.475,2.151,0.464,4.286-0.315,6.373c-0.594,1.595-1.603,2.845-3.208,3.503
		c-1.521,0.626-3.077,0.668-4.624,0.055c-0.511-0.203-0.963-0.5-1.339-0.906C439.78,313.647,439.72,313.604,439.589,313.489z
		 M439.542,307.656c0.008,0.162,0.01,0.474,0.044,0.782c0.089,0.811,0.32,1.574,0.764,2.271c0.981,1.538,3.385,1.64,4.448,0.14
		c0.23-0.324,0.429-0.686,0.567-1.058c0.468-1.257,0.491-2.547,0.215-3.848c-0.146-0.693-0.417-1.326-0.87-1.88
		c-0.989-1.21-2.792-1.22-3.789-0.323c-0.436,0.393-0.753,0.861-0.973,1.399C439.639,305.9,439.543,306.697,439.542,307.656z"/>
	<path fill="#59BAC3" d="M394.825,237.13c-1.369-0.492-2.708-0.598-4.116-0.22c-0.389-1.974-1.32-3.598-2.873-4.903
		c0.046-0.148,0.095-0.307,0.146-0.464c1.555-4.721,4.526-8.332,8.662-11.021c2.999-1.949,6.278-3.226,9.757-4.003
		c0.771-0.172,1.554-0.29,2.336-0.402c0.271-0.04,0.557-0.017,0.829,0.023c0.389,0.057,0.531,0.25,0.52,0.643
		c-0.008,0.354-0.177,0.627-0.468,0.813c-0.235,0.15-0.483,0.281-0.735,0.4c-2.655,1.254-5.128,2.781-7.251,4.834
		c-2.157,2.084-3.734,4.552-4.854,7.322c-0.864,2.138-1.438,4.357-1.867,6.618C394.891,236.874,394.862,236.975,394.825,237.13z"/>
	<path fill="#E62519" d="M518.901,307.068c0.005,0.013,0.005,0.034,0.013,0.038c1.414,0.667,1.841,1.887,1.844,3.328
		c0,0.383-0.06,0.775-0.147,1.151c-0.22,0.939-0.764,1.647-1.602,2.133c-0.835,0.485-1.751,0.75-2.7,0.782
		c-1.971,0.063-3.941,0.054-5.912,0.072c-0.124,0.001-0.249-0.022-0.37-0.041c-0.827-0.116-1.183-0.497-1.184-1.327
		c-0.005-3.897-0.005-7.797,0-11.695c0.001-0.732,0.422-1.172,1.16-1.259c0.105-0.013,0.215-0.026,0.324-0.026
		c1.973,0.01,3.946,0.009,5.916,0.035c0.653,0.01,1.294,0.148,1.906,0.381c1.383,0.527,2.081,1.552,2.181,3.01
		c0.091,1.328-0.322,2.444-1.361,3.306c-0.024,0.019-0.043,0.043-0.061,0.067C518.9,307.033,518.903,307.053,518.901,307.068z
		 M512.49,311.744c0.911,0,1.765,0.001,2.617,0c0.202-0.002,0.404-0.002,0.605-0.022c0.5-0.055,0.867-0.304,1.085-0.768
		c0.457-0.972-0.111-2.096-1.156-2.276c-0.139-0.024-0.279-0.031-0.419-0.031c-0.792-0.004-1.584-0.004-2.376,0
		c-0.119,0-0.236,0.021-0.356,0.032C512.49,309.704,512.49,310.696,512.49,311.744z M512.488,305.846
		c1.023,0,1.999,0.015,2.975-0.011c0.197-0.005,0.419-0.132,0.576-0.266c0.415-0.351,0.562-1.174,0.352-1.732
		c-0.212-0.559-0.574-0.786-1.283-0.79c-0.746-0.004-1.492-0.003-2.239,0c-0.12,0-0.24,0.02-0.38,0.03
		C512.488,303.998,512.488,304.894,512.488,305.846z"/>
	<path fill="#E62519" d="M526.683,308.376c0.096,1.07,0.352,2.01,1.1,2.751c0.509,0.503,1.154,0.708,1.85,0.781
		c0.9,0.095,1.762-0.024,2.559-0.486c0.376-0.218,0.771-0.402,1.147-0.619c1.061-0.611,2.105-0.158,2.397,1.037
		c0.159,0.661-0.03,1.191-0.54,1.623c-0.79,0.665-1.713,1.053-2.708,1.279c-1.724,0.392-3.443,0.393-5.15-0.104
		c-2.047-0.595-3.429-1.915-4.069-3.936c-0.715-2.25-0.668-4.509,0.252-6.698c0.873-2.083,2.43-3.421,4.66-3.89
		c1.279-0.269,2.571-0.231,3.818,0.17c1.984,0.641,3.165,2.052,3.71,4.026c0.244,0.873,0.314,1.769,0.319,2.675
		c0.005,0.943-0.471,1.244-1.259,1.365c-0.244,0.036-0.496,0.024-0.745,0.024c-2.267,0.002-4.535,0.001-6.804,0.001
		C527.053,308.376,526.887,308.376,526.683,308.376z M532.23,305.55c-0.093-1.77-1.102-2.732-2.772-2.689
		c-1.452,0.038-2.571,1.131-2.596,2.689C528.642,305.55,530.421,305.55,532.23,305.55z"/>
	<path fill="#88BD2F" d="M484.821,315.025c-1.783-0.007-3.404-0.478-4.773-1.656c-1.161-1-1.844-2.288-2.17-3.767
		c-0.45-2.045-0.342-4.051,0.623-5.941c1.038-2.03,2.72-3.223,4.966-3.596c1.447-0.24,2.881-0.167,4.258,0.379
		c2.022,0.803,3.336,2.283,3.956,4.351c0.601,2.012,0.556,4.031-0.256,5.976c-1.09,2.61-3.099,3.986-5.906,4.218
		C485.287,315.006,485.052,315.012,484.821,315.025z M481.525,307.482c-0.02,0.93,0.105,1.815,0.527,2.637
		c0.769,1.493,2.075,1.965,3.631,1.645c1.215-0.248,1.903-1.105,2.284-2.229c0.33-0.972,0.362-1.976,0.239-2.989
		c-0.084-0.686-0.274-1.334-0.632-1.931c-0.399-0.665-0.955-1.151-1.712-1.348c-1.633-0.424-3.165,0.103-3.924,1.866
		C481.613,305.886,481.506,306.683,481.525,307.482z"/>
	<path fill="#59BAC3" d="M457.855,309.38c0.095-0.217,0.158-0.352,0.213-0.487c0.984-2.467,1.968-4.931,2.951-7.396
		c0.039-0.099,0.075-0.202,0.119-0.303c0.344-0.77,0.776-1.142,1.896-1.092c0.017,0.002,0.029,0.006,0.045,0.008
		c1.528,0.122,1.986,1.288,1.488,2.532c-0.404,1.007-0.863,1.995-1.299,2.989c-1.898,4.352-3.801,8.705-5.7,13.059
		c-0.182,0.416-0.41,0.796-0.726,1.128c-0.644,0.674-1.968,0.589-2.543,0.123c-0.522-0.422-0.718-1.036-0.503-1.714
		c0.088-0.282,0.211-0.551,0.335-0.818c0.513-1.097,1.022-2.196,1.556-3.283c0.136-0.279,0.128-0.507,0.007-0.787
		c-1.513-3.488-3.016-6.981-4.517-10.476c-0.122-0.283-0.239-0.578-0.285-0.882c-0.136-0.877,0.244-1.496,1.104-1.73
		c0.409-0.112,0.855-0.13,1.283-0.121c0.782,0.017,1.242,0.488,1.506,1.187c0.28,0.738,0.558,1.479,0.839,2.22
		c0.674,1.784,1.35,3.57,2.024,5.357C457.702,309.029,457.764,309.162,457.855,309.38z"/>
	<path fill="#59BAC3" d="M430.062,307.13c0.082,0.136,0.158,0.27,0.242,0.399c0.987,1.541,1.976,3.084,2.962,4.628
		c0.108,0.168,0.209,0.345,0.298,0.523c0.225,0.458,0.126,0.878-0.167,1.264c-0.592,0.778-1.703,0.937-2.447,0.724
		c-0.141-0.042-0.283-0.143-0.38-0.254c-0.215-0.242-0.423-0.497-0.599-0.77c-0.958-1.486-1.914-2.976-2.85-4.479
		c-0.171-0.274-0.356-0.389-0.672-0.362c-0.273,0.024-0.55,0.005-0.871,0.005c0,0.202,0,0.354,0,0.506
		c0,1.242,0.003,2.483-0.003,3.728c-0.001,0.23-0.021,0.468-0.079,0.688c-0.125,0.49-0.438,0.821-0.938,0.933
		c-0.599,0.132-1.202,0.142-1.797-0.028c-0.607-0.177-0.872-0.514-0.917-1.137c-0.012-0.171-0.012-0.344-0.012-0.514
		c0-3.711,0-7.424,0-11.136c0-0.108-0.002-0.217,0.001-0.325c0.022-0.743,0.294-1.101,1.016-1.311
		c0.547-0.156,1.104-0.16,1.655-0.017c0.738,0.197,1.064,0.607,1.071,1.375c0.011,1.119,0.003,2.237,0.003,3.355
		c0,0.292,0,0.582,0,0.896c0.443,0,0.841,0,1.272,0c0.082-0.121,0.178-0.259,0.269-0.401c0.918-1.438,1.833-2.881,2.757-4.316
		c0.149-0.232,0.328-0.451,0.513-0.659c0.244-0.275,0.581-0.365,0.929-0.349c0.437,0.021,0.854,0.149,1.228,0.391
		c0.691,0.446,0.911,1.151,0.581,1.904c-0.067,0.153-0.166,0.297-0.259,0.438c-0.884,1.352-1.771,2.701-2.656,4.051
		C430.161,306.959,430.117,307.038,430.062,307.13z"/>
	<path fill="#E62519" d="M493.36,307.72c-0.007-1.545,0.245-2.954,0.937-4.261c1.012-1.92,2.616-3.033,4.736-3.389
		c1.624-0.27,3.218-0.167,4.73,0.558c0.68,0.326,1.303,0.732,1.797,1.305c0.442,0.514,0.801,1.076,0.799,1.789
		c-0.003,0.806-0.634,1.485-1.435,1.566c-0.506,0.054-0.936-0.055-1.314-0.433c-0.395-0.394-0.828-0.752-1.266-1.098
		c-0.893-0.704-1.911-0.773-2.96-0.477c-0.761,0.214-1.255,0.774-1.618,1.454c-0.326,0.614-0.455,1.282-0.524,1.966
		c-0.089,0.872-0.054,1.74,0.162,2.592c0.076,0.298,0.187,0.593,0.324,0.868c0.66,1.312,1.755,1.826,3.173,1.72
		c0.767-0.059,1.401-0.37,1.946-0.894c0.28-0.269,0.547-0.553,0.833-0.815c0.512-0.47,1.04-0.543,1.671-0.247
		c0.899,0.423,1.24,1.362,0.824,2.266c-0.224,0.487-0.56,0.895-0.974,1.233c-1.11,0.914-2.4,1.39-3.818,1.563
		c-1.155,0.142-2.303,0.1-3.415-0.227c-2.282-0.668-3.674-2.22-4.287-4.492C493.449,309.408,493.342,308.531,493.36,307.72z"/>
	<path fill="#E62519" d="M544.858,303.329c0,0.233,0,0.401,0,0.571c0,3.075,0,6.152-0.001,9.228c0,1.015-0.409,1.46-1.422,1.595
		c-0.503,0.065-0.995,0.039-1.472-0.122c-0.541-0.183-0.834-0.57-0.854-1.15c-0.005-0.156-0.003-0.312-0.003-0.466
		c0-3.015,0-6.026,0-9.041c0-0.183,0-0.367,0-0.582c-0.157-0.013-0.275-0.03-0.393-0.031c-0.87-0.003-1.741,0.002-2.611-0.003
		c-0.862-0.005-1.363-0.459-1.436-1.321c-0.021-0.256-0.009-0.529,0.056-0.78c0.155-0.62,0.558-0.937,1.194-0.989
		c0.154-0.014,0.31-0.014,0.466-0.014c3.107,0,6.213,0,9.321,0c0.154,0,0.311,0,0.465,0.014c0.646,0.053,1.119,0.445,1.228,1.075
		c0.051,0.285,0.053,0.595-0.002,0.878c-0.152,0.782-0.605,1.135-1.407,1.139c-0.869,0.004-1.74,0.001-2.609,0.001
		C545.224,303.329,545.073,303.329,544.858,303.329z"/>
	<path fill="#88BD2F" d="M470.715,303.329c0,0.24,0,0.423,0,0.606c0,3.027,0.001,6.057-0.002,9.084c0,0.2-0.014,0.404-0.054,0.6
		c-0.11,0.521-0.447,0.844-0.952,0.979c-0.58,0.154-1.168,0.15-1.749-0.002c-0.615-0.16-0.938-0.55-1.002-1.188
		c-0.015-0.154-0.014-0.311-0.014-0.465c0-3.635,0-7.268,0.002-10.903c0-0.246,0.01-0.499,0.056-0.739
		c0.12-0.626,0.549-0.999,1.188-1.06c0.168-0.017,0.341-0.018,0.51-0.018c2.221,0,4.441-0.001,6.662,0
		c0.187,0,0.373,0.003,0.558,0.023c0.604,0.067,0.974,0.384,1.104,0.966c0.092,0.415,0.077,0.833-0.066,1.239
		c-0.208,0.589-0.618,0.873-1.282,0.876c-1.458,0.005-2.918,0.002-4.379,0.002C471.125,303.329,470.956,303.329,470.715,303.329z"/>
	<path fill="#59BAC3" d="M451.982,271.197c0-0.252,0-0.421,0-0.589c0-1.695,0-3.388,0-5.081c0-0.236-0.017-0.484,0.188-0.646
		c0.324-0.256,0.707-0.237,1.065-0.116c0.308,0.103,0.354,0.396,0.354,0.694c-0.004,1.586-0.002,3.17-0.002,4.756
		c0,0.308,0,0.614,0,0.93c0.284,0.026,0.517,0.032,0.744,0.073c0.345,0.061,0.501,0.213,0.51,0.559
		c0.019,0.746,0.016,1.492,0.001,2.239c-0.004,0.275-0.172,0.466-0.447,0.524c-0.165,0.036-0.339,0.059-0.506,0.044
		c-0.445-0.038-0.635-0.24-0.651-0.691c-0.014-0.399-0.003-0.802-0.003-1.266c-0.208,0-0.373,0-0.539,0c-1.274,0-2.549,0-3.822,0
		c-0.11,0-0.218,0.004-0.327-0.002c-0.613-0.035-0.811-0.226-0.813-0.833c-0.005-2.083-0.007-4.166,0-6.248
		c0.003-0.736,0.623-1.101,1.291-0.777c0.203,0.098,0.288,0.279,0.323,0.482c0.024,0.137,0.016,0.279,0.016,0.419
		c0.001,1.647,0,3.293,0,4.942c0,0.169,0,0.337,0,0.57C450.236,271.215,451.079,271.19,451.982,271.197z"/>
	<path fill="#59BAC3" d="M477.26,280.293c-0.261,0.743-0.52,1.487-0.786,2.229c-0.158,0.438-0.346,0.568-0.792,0.581
		c-0.526,0.015-0.726-0.113-0.898-0.621c-0.247-0.715-0.48-1.434-0.787-2.157c-0.015,0.094-0.043,0.186-0.043,0.28
		c-0.004,0.605,0.002,1.211-0.004,1.816c-0.005,0.668-0.608,1.016-1.193,0.676c-0.124-0.071-0.248-0.265-0.248-0.402
		c-0.017-1.692-0.013-3.385-0.009-5.078c0.001-0.225,0.14-0.371,0.333-0.468c0.662-0.334,1.38-0.052,1.617,0.643
		c0.348,1.011,0.689,2.025,1.034,3.039c0.049,0.141,0.107,0.277,0.202,0.523c0.175-0.505,0.316-0.905,0.45-1.308
		c0.252-0.748,0.496-1.501,0.751-2.25c0.234-0.696,1.017-1.005,1.649-0.636c0.13,0.076,0.218,0.249,0.287,0.395
		c0.042,0.092,0.02,0.213,0.02,0.321c0,1.508,0.001,3.015-0.001,4.521c-0.001,0.683-0.492,0.995-1.126,0.73
		c-0.298-0.126-0.34-0.384-0.343-0.655c-0.006-0.574-0.002-1.147-0.002-1.724c0-0.15,0-0.301,0-0.452
		C477.335,280.295,477.296,280.294,477.26,280.293z"/>
	<path fill="#59BAC3" d="M506.77,277.684c0.355-0.335,0.743-0.596,1.243-0.679c1.004-0.164,1.982,0.261,2.415,1.184
		c0.597,1.279,0.607,2.591-0.042,3.861c-0.72,1.404-2.589,1.541-3.499,0.833c-0.048-0.037-0.1-0.067-0.191-0.129
		c-0.021,0.127-0.045,0.223-0.046,0.32c-0.004,0.574,0.005,1.151-0.005,1.726c-0.008,0.523-0.212,0.705-0.762,0.71
		c-0.534,0.003-0.756-0.187-0.793-0.695c-0.01-0.106-0.006-0.216-0.006-0.326c0-2.112,0-4.227,0-6.339
		c0-0.095-0.004-0.188,0.002-0.281c0.027-0.514,0.206-0.724,0.67-0.797c0.462-0.073,0.762,0.096,0.948,0.528
		C506.717,277.624,506.742,277.646,506.77,277.684z M506.568,280.114c0.094,0.394,0.145,0.768,0.272,1.109
		c0.179,0.473,0.538,0.746,1.068,0.752c0.513,0.006,0.855-0.26,1.058-0.701c0.34-0.746,0.338-1.509-0.003-2.252
		c-0.193-0.419-0.519-0.69-1.013-0.697c-0.512-0.008-0.871,0.249-1.063,0.689C506.736,279.363,506.672,279.748,506.568,280.114z"/>
	<path fill="#59BAC3" d="M475.849,267.255c0.508-0.532,1.047-0.782,1.712-0.765c0.926,0.025,1.629,0.428,2.012,1.262
		c0.554,1.203,0.559,2.438,0.017,3.653c-0.627,1.408-2.499,1.885-3.772,0.853c-0.017,0.119-0.043,0.213-0.043,0.309
		c-0.005,0.573,0.002,1.148-0.005,1.723c-0.006,0.53-0.194,0.705-0.744,0.719c-0.55,0.012-0.777-0.17-0.819-0.663
		c-0.011-0.124-0.007-0.248-0.007-0.372c0-2.097,0-4.193,0-6.292c0-0.062,0-0.124,0-0.186c0.014-0.717,0.323-0.984,1.026-0.907
		C475.583,266.629,475.789,266.817,475.849,267.255z M478.318,269.835c0.008-0.552-0.041-0.98-0.261-1.373
		c-0.46-0.824-1.538-0.859-1.994-0.037c-0.451,0.814-0.444,1.678,0,2.492c0.414,0.761,1.447,0.768,1.926,0.045
		C478.239,270.587,478.316,270.165,478.318,269.835z"/>
	<path fill="#59BAC3" d="M485.547,272.266c0,0.697-0.002,1.334,0.002,1.97c0.001,0.275-0.013,0.56-0.297,0.679
		c-0.337,0.14-0.706,0.165-1.028-0.042c-0.113-0.073-0.18-0.241-0.23-0.382c-0.037-0.096-0.017-0.214-0.017-0.322
		c0-2.22,0-4.44,0-6.663c0-0.109-0.006-0.219,0.009-0.327c0.04-0.266,0.179-0.491,0.446-0.537c0.248-0.045,0.52-0.03,0.773,0.009
		c0.274,0.043,0.372,0.279,0.389,0.59c0.11-0.091,0.173-0.134,0.225-0.187c0.921-0.934,2.893-0.769,3.555,0.75
		c0.507,1.163,0.52,2.354,0.02,3.526c-0.695,1.629-2.688,1.851-3.664,1.023C485.696,272.33,485.652,272.319,485.547,272.266z
		 M485.476,269.67c0.086,0.362,0.136,0.713,0.254,1.046c0.178,0.503,0.553,0.766,1.101,0.76c0.533-0.006,0.869-0.296,1.06-0.763
		c0.283-0.689,0.278-1.391,0.01-2.084c-0.182-0.471-0.521-0.773-1.043-0.792c-0.544-0.021-0.922,0.273-1.113,0.756
		C485.608,268.93,485.562,269.306,485.476,269.67z"/>
	<path fill="#59BAC3" d="M519.957,277.875c0.103-0.067,0.165-0.106,0.226-0.147c1.281-0.891,2.911-0.378,3.413,1.094
		c0.299,0.874,0.316,1.772,0.007,2.652c-0.464,1.318-1.639,1.798-2.557,1.819c-1.43,0.032-2.436-0.832-2.712-2.133
		c-0.276-1.299-0.21-2.598,0.223-3.858c0.332-0.965,0.986-1.638,1.968-1.968c0.205-0.07,0.407-0.152,0.613-0.216
		c0.346-0.105,0.658-0.256,0.936-0.497c0.349-0.303,0.768-0.229,1.052,0.142c0.225,0.293,0.162,0.669-0.204,0.928
		c-0.236,0.169-0.514,0.284-0.785,0.391c-0.361,0.142-0.735,0.246-1.1,0.374c-0.533,0.191-0.879,0.569-1.05,1.106
		C519.959,277.646,519.968,277.74,519.957,277.875z M522.239,280.285c-0.102-0.376-0.147-0.771-0.314-1.109
		c-0.349-0.704-1.184-0.764-1.679-0.155c-0.482,0.591-0.529,1.864-0.131,2.511c0.406,0.659,1.542,0.633,1.821-0.116
		C522.068,281.058,522.136,280.677,522.239,280.285z"/>
	<path fill="#59BAC3" d="M506.949,269.467c0.691,0.518,0.905,1.224,0.646,2.003c-0.226,0.679-0.771,0.994-1.404,1.054
		c-0.971,0.094-1.95,0.091-2.927,0.088c-0.412-0.001-0.565-0.208-0.566-0.636c-0.006-1.584-0.006-3.165,0-4.748
		c0.001-0.398,0.161-0.617,0.535-0.618c0.96-0.005,1.93-0.049,2.877,0.074c1.432,0.188,1.878,1.542,0.937,2.658
		C507.017,269.373,506.993,269.41,506.949,269.467z M504.24,271.419c0.45,0,0.881,0.025,1.307-0.01
		c0.333-0.025,0.525-0.287,0.526-0.6c0.001-0.333-0.208-0.621-0.537-0.646c-0.423-0.033-0.852-0.009-1.296-0.009
		C504.24,270.601,504.24,270.992,504.24,271.419z M504.234,268.949c0.416,0,0.788,0.017,1.158-0.006
		c0.316-0.018,0.482-0.234,0.489-0.566c0.006-0.302-0.155-0.539-0.444-0.561c-0.395-0.029-0.795-0.007-1.203-0.007
		C504.234,268.204,504.234,268.54,504.234,268.949z"/>
	<path fill="#59BAC3" d="M489.736,279.813c-0.092,0.142-0.186,0.279-0.273,0.422c-0.5,0.803-1.002,1.606-1.497,2.414
		c-0.233,0.377-0.56,0.563-1.011,0.533c-0.461-0.03-0.637-0.2-0.646-0.666c-0.006-0.342-0.002-0.683-0.002-1.025
		c0-1.242-0.002-2.482,0.001-3.725c0.002-0.51,0.217-0.714,0.748-0.729c0.554-0.015,0.797,0.192,0.804,0.719
		c0.011,0.746,0.003,1.491,0.003,2.237c0,0.169,0,0.338,0.07,0.547c0.075-0.101,0.158-0.196,0.224-0.303
		c0.545-0.902,1.084-1.81,1.634-2.709c0.271-0.438,0.698-0.587,1.156-0.44c0.287,0.094,0.439,0.281,0.456,0.577
		c0.012,0.215,0.004,0.435,0.004,0.651c0.001,1.334,0.002,2.671,0,4.005c-0.001,0.713-0.495,1.055-1.177,0.822
		c-0.268-0.091-0.388-0.261-0.393-0.616c-0.008-0.745-0.002-1.491-0.002-2.234c0-0.153,0-0.302,0-0.454
		C489.802,279.829,489.768,279.822,489.736,279.813z"/>
	<path fill="#59BAC3" d="M467.492,280.557c-0.024,1.083,0.902,1.719,1.918,1.343c0.261-0.097,0.505-0.24,0.752-0.367
		c0.414-0.214,0.714-0.163,0.935,0.168c0.238,0.356,0.166,0.727-0.202,1.014c-0.404,0.316-0.882,0.465-1.374,0.528
		c-0.6,0.079-1.208,0.083-1.8-0.092c-0.96-0.282-1.56-0.924-1.806-1.886c-0.206-0.817-0.177-1.633,0.108-2.429
		c0.414-1.145,1.389-1.908,2.817-1.847c1.922,0.084,2.513,1.515,2.498,2.959c-0.003,0.336-0.134,0.476-0.467,0.535
		c-0.196,0.036-0.398,0.051-0.601,0.052c-0.775,0.007-1.553,0.001-2.327,0.004C467.792,280.539,467.641,280.551,467.492,280.557z
		 M467.55,279.305c0.706,0,1.412,0,2.117,0c0.041-0.607-0.319-1.036-0.893-1.071C468.025,278.187,467.586,278.559,467.55,279.305z"
		/>
	<path fill="#59BAC3" d="M526.43,280.557c0.025,1.367,1.146,1.596,1.932,1.34c0.263-0.087,0.503-0.237,0.751-0.365
		c0.416-0.214,0.718-0.162,0.936,0.169c0.245,0.371,0.177,0.72-0.2,1.013c-0.417,0.324-0.911,0.477-1.42,0.537
		c-0.57,0.067-1.146,0.074-1.71-0.086c-0.904-0.255-1.522-0.82-1.799-1.722c-0.271-0.871-0.255-1.744,0.059-2.604
		c0.459-1.257,1.578-1.965,2.909-1.838c1.383,0.133,2.166,0.884,2.351,2.26c0.027,0.2,0.058,0.399,0.059,0.603
		c0.002,0.404-0.135,0.567-0.526,0.633c-0.182,0.031-0.371,0.04-0.557,0.041c-0.775,0.005-1.552,0.001-2.329,0.004
		C526.733,280.539,526.582,280.551,526.43,280.557z M526.513,279.306c0.702,0,1.402,0,2.104,0c0.03-0.669-0.345-1.067-0.993-1.076
		C526.926,278.221,526.505,278.617,526.513,279.306z"/>
	<path fill="#59BAC3" d="M510.48,270.067c0.25-0.41,0.497-0.818,0.745-1.229c0.361-0.599,0.729-1.192,1.082-1.795
		c0.214-0.369,0.524-0.506,0.933-0.474c0.476,0.037,0.669,0.226,0.671,0.707c0.006,1.57,0.005,3.139,0,4.708
		c-0.001,0.475-0.148,0.634-0.619,0.702c-0.045,0.006-0.093,0.014-0.139,0.016c-0.565,0.02-0.804-0.199-0.81-0.769
		c-0.008-0.7-0.003-1.397-0.003-2.099c0-0.152,0-0.307,0-0.461c-0.023-0.012-0.046-0.023-0.068-0.034
		c-0.077,0.099-0.162,0.194-0.229,0.301c-0.517,0.832-1.026,1.665-1.548,2.494c-0.311,0.495-0.76,0.665-1.271,0.515
		c-0.216-0.062-0.354-0.187-0.376-0.417c-0.016-0.153-0.033-0.309-0.033-0.463c-0.003-1.447-0.004-2.891,0-4.335
		c0.001-0.755,0.506-1.093,1.211-0.816c0.245,0.096,0.347,0.288,0.346,0.549c-0.005,0.669-0.001,1.336,0,2.005
		c0,0.289,0,0.58,0,0.87C510.407,270.049,510.445,270.058,510.48,270.067z"/>
	<path fill="#59BAC3" d="M457.026,270.034c0.036,1.401,1.209,1.673,2.032,1.345c0.257-0.104,0.494-0.259,0.745-0.381
		c0.355-0.174,0.633-0.102,0.849,0.209c0.211,0.307,0.189,0.682-0.093,0.922c-0.187,0.157-0.402,0.303-0.628,0.39
		c-0.958,0.372-1.93,0.411-2.905,0.049c-0.677-0.251-1.159-0.715-1.413-1.39c-0.396-1.049-0.38-2.101,0.097-3.119
		c0.815-1.742,2.812-1.847,3.928-1.242c0.481,0.261,0.846,0.654,1.005,1.175c0.133,0.438,0.207,0.904,0.245,1.364
		c0.037,0.467-0.156,0.653-0.628,0.671c-0.527,0.018-1.054,0.006-1.583,0.007C458.135,270.034,457.594,270.034,457.026,270.034z
		 M459.246,268.817c-0.028-0.716-0.45-1.124-1.089-1.097c-0.642,0.028-1.07,0.479-1.028,1.097
		C457.824,268.817,458.519,268.817,459.246,268.817z"/>
	<path fill="#59BAC3" d="M513.462,280.558c0.168,1.26,1.078,1.762,2.164,1.252c0.195-0.091,0.387-0.198,0.579-0.294
		c0.387-0.195,0.679-0.137,0.896,0.18c0.241,0.348,0.19,0.705-0.154,0.983c-0.437,0.354-0.958,0.536-1.501,0.571
		c-0.535,0.031-1.092,0.02-1.615-0.089c-0.938-0.191-1.57-0.792-1.854-1.711c-0.265-0.869-0.254-1.748,0.054-2.608
		c0.452-1.258,1.574-1.938,2.908-1.851c1.78,0.118,2.454,1.522,2.402,3.006c-0.011,0.284-0.139,0.422-0.419,0.479
		c-0.195,0.04-0.398,0.058-0.599,0.059c-0.792,0.007-1.584,0.002-2.376,0.004C513.796,280.539,513.642,280.551,513.462,280.558z
		 M513.56,279.301c0.713,0,1.425,0,2.141,0c-0.05-0.756-0.408-1.088-1.118-1.069C513.961,278.246,513.571,278.649,513.56,279.301z"
		/>
	<path fill="#59BAC3" d="M524.303,269.312c-0.514,0.828-1.028,1.656-1.543,2.482c-0.091,0.146-0.183,0.289-0.271,0.435
		c-0.187,0.307-0.473,0.441-0.813,0.469c-0.536,0.043-0.791-0.178-0.794-0.714c-0.009-1.568,0-3.135-0.006-4.705
		c-0.001-0.306,0.067-0.578,0.389-0.66c0.347-0.089,0.729-0.146,1.01,0.141c0.109,0.111,0.134,0.34,0.138,0.516
		c0.014,0.776,0.006,1.554,0.007,2.33c0,0.148,0.014,0.295,0.093,0.463c0.083-0.123,0.169-0.243,0.246-0.368
		c0.531-0.876,1.058-1.755,1.59-2.628c0.28-0.458,0.585-0.587,1.099-0.485c0.308,0.061,0.462,0.209,0.512,0.518
		c0.022,0.137,0.027,0.279,0.027,0.417c0.001,1.412,0.001,2.826,0.001,4.238c0,0.016,0,0.031,0,0.046
		c-0.01,0.737-0.348,1.011-1.065,0.863c-0.37-0.075-0.495-0.209-0.504-0.608c-0.013-0.684-0.004-1.368-0.005-2.051
		c0-0.227,0-0.454,0-0.682C524.377,269.324,524.34,269.317,524.303,269.312z"/>
	<path fill="#59BAC3" d="M497.353,280.565c0.512-0.848,1.022-1.695,1.535-2.545c0.12-0.199,0.231-0.404,0.367-0.594
		c0.275-0.393,0.84-0.524,1.238-0.265c0.127,0.081,0.206,0.253,0.272,0.401c0.039,0.093,0.015,0.214,0.017,0.321
		c0,1.493,0.002,2.984-0.002,4.476c0,0.695-0.544,1.041-1.197,0.77c-0.269-0.114-0.349-0.331-0.349-0.602
		c0.001-0.745,0-1.491,0-2.236c0-0.153,0-0.302,0-0.565c-0.134,0.159-0.205,0.227-0.256,0.306c-0.534,0.856-1.067,1.713-1.591,2.575
		c-0.242,0.397-0.565,0.604-1.035,0.575c-0.464-0.028-0.64-0.195-0.642-0.667c-0.006-1.353-0.002-2.703-0.002-4.056
		c0-0.247-0.004-0.498,0.002-0.745c0.01-0.425,0.147-0.595,0.56-0.66c0.137-0.022,0.283-0.022,0.417-0.002
		c0.39,0.059,0.543,0.227,0.548,0.623c0.009,0.808,0.003,1.613,0.003,2.423c0,0.149,0,0.299,0,0.447
		C497.276,280.553,497.315,280.558,497.353,280.565z"/>
	<path fill="#59BAC3" d="M494.272,272.041c-0.257,0.187-0.46,0.393-0.705,0.505c-0.671,0.307-1.365,0.294-2.027-0.022
		c-0.579-0.276-0.857-0.774-0.877-1.425c-0.024-0.738,0.254-1.301,0.904-1.659c0.499-0.274,1.052-0.362,1.608-0.426
		c0.352-0.041,0.706-0.074,1.055-0.109c0.122-0.719-0.179-1.1-0.855-1.129c-0.404-0.018-0.769,0.071-1.092,0.318
		c-0.099,0.075-0.196,0.154-0.305,0.215c-0.298,0.165-0.662,0.099-0.888-0.156c-0.243-0.271-0.275-0.607-0.02-0.884
		c0.186-0.198,0.42-0.379,0.67-0.484c0.918-0.384,1.874-0.406,2.824-0.128c0.797,0.233,1.2,0.817,1.218,1.778
		c0.023,1.196,0.012,2.394,0.003,3.589c-0.003,0.452-0.166,0.615-0.605,0.668c-0.486,0.06-0.767-0.11-0.878-0.536
		C494.295,272.126,494.287,272.095,494.272,272.041z M494.267,269.881c-0.535,0.095-1.012,0.151-1.473,0.273
		c-0.191,0.051-0.385,0.21-0.511,0.372c-0.228,0.294-0.108,0.738,0.195,0.883c0.349,0.166,1.178,0.044,1.461-0.227
		C494.289,270.849,494.314,270.428,494.267,269.881z"/>
	<path fill="#59BAC3" d="M547.325,279.403c0.09-0.764-0.233-1.15-0.933-1.16c-0.335-0.006-0.644,0.083-0.922,0.271
		c-0.128,0.088-0.25,0.184-0.382,0.263c-0.323,0.196-0.673,0.139-0.922-0.141c-0.222-0.253-0.249-0.624-0.006-0.892
		c0.16-0.179,0.372-0.332,0.589-0.437c0.613-0.295,1.273-0.371,1.949-0.333c0.217,0.012,0.435,0.036,0.646,0.078
		c0.981,0.194,1.503,0.826,1.518,1.88c0.016,1.18,0.006,2.36,0.003,3.539c-0.002,0.479-0.152,0.659-0.558,0.706
		c-0.53,0.061-0.804-0.097-0.929-0.53c-0.013-0.04-0.03-0.077-0.058-0.149c-0.356,0.432-0.791,0.698-1.327,0.716
		c-0.367,0.013-0.749-0.004-1.101-0.096c-0.642-0.168-1.034-0.622-1.132-1.279c-0.107-0.726,0.069-1.376,0.712-1.795
		c0.279-0.183,0.61-0.313,0.937-0.389c0.466-0.104,0.949-0.138,1.425-0.199C547.001,279.435,547.168,279.42,547.325,279.403z
		 M547.384,280.376c-0.506,0.076-0.938,0.124-1.358,0.217c-0.189,0.04-0.38,0.144-0.532,0.267c-0.219,0.177-0.3,0.431-0.211,0.713
		c0.089,0.272,0.307,0.391,0.571,0.393c0.246,0.003,0.495-0.018,0.734-0.07c0.424-0.092,0.664-0.39,0.746-0.801
		C547.372,280.885,547.363,280.666,547.384,280.376z"/>
	<path fill="#59BAC3" d="M533.014,279.372c0.707,0,1.352,0,2.049,0c0-0.181,0-0.333,0-0.483c0-0.419-0.008-0.839,0.006-1.258
		c0.009-0.326,0.102-0.44,0.418-0.529c0.16-0.046,0.336-0.066,0.503-0.058c0.49,0.029,0.665,0.213,0.666,0.706
		c0.006,1.568,0.005,3.137,0,4.705c-0.001,0.411-0.117,0.624-0.422,0.687c-0.364,0.073-0.76,0.132-1.042-0.188
		c-0.099-0.109-0.118-0.313-0.123-0.478c-0.019-0.541-0.015-1.085-0.021-1.629c0-0.013-0.015-0.025-0.059-0.109
		c-0.615-0.025-1.27-0.012-1.95-0.006c-0.011,0.179-0.024,0.312-0.024,0.448c-0.003,0.42,0,0.839-0.003,1.259
		c0,0.107,0.004,0.222-0.025,0.322c-0.097,0.337-0.45,0.481-0.98,0.415c-0.389-0.049-0.566-0.218-0.568-0.6
		c-0.007-1.647-0.006-3.293-0.001-4.939c0.002-0.327,0.094-0.463,0.413-0.531c0.231-0.05,0.492-0.056,0.726-0.009
		c0.332,0.065,0.429,0.215,0.437,0.563C533.02,278.215,533.014,278.772,533.014,279.372z"/>
	<path fill="#59BAC3" d="M528.065,270.151c-0.397-0.283-0.705-0.612-0.851-1.083c-0.354-1.133,0.235-2.16,1.4-2.39
		c0.257-0.051,0.522-0.077,0.785-0.081c0.607-0.012,1.21-0.014,1.817,0c0.485,0.012,0.682,0.214,0.684,0.686
		c0.003,1.555,0.003,3.108,0,4.664c-0.002,0.503-0.152,0.686-0.637,0.738c-0.758,0.083-0.963-0.248-0.939-0.809
		c0.02-0.432,0.005-0.864,0.005-1.328c-0.28,0-0.523,0-0.814,0c-0.22,0.409-0.45,0.846-0.684,1.281
		c-0.102,0.191-0.202,0.384-0.311,0.573c-0.26,0.453-1.152,0.343-1.378-0.04c-0.128-0.221-0.085-0.417,0.026-0.617
		c0.205-0.365,0.414-0.728,0.621-1.092C527.881,270.49,527.966,270.327,528.065,270.151z M530.309,267.799
		c-0.317,0-0.596-0.009-0.871,0.003c-0.429,0.019-0.634,0.239-0.647,0.681c-0.014,0.452,0.197,0.765,0.594,0.805
		c0.299,0.029,0.606,0.007,0.925,0.007C530.309,268.783,530.309,268.323,530.309,267.799z"/>
	<path fill="#59BAC3" d="M465.674,270.238c-0.7,0-1.333,0-2.014,0c-0.01,0.13-0.03,0.262-0.031,0.394
		c-0.004,0.466,0.007,0.933-0.005,1.397c-0.011,0.411-0.176,0.592-0.581,0.646c-0.167,0.022-0.342,0.015-0.507-0.017
		c-0.358-0.063-0.477-0.202-0.487-0.564c-0.013-0.373-0.004-0.744-0.004-1.117c0-1.226-0.003-2.453,0-3.68
		c0.002-0.547,0.168-0.712,0.721-0.731c0.094-0.003,0.188,0.003,0.28,0.014c0.416,0.05,0.57,0.21,0.578,0.635
		c0.01,0.542,0.002,1.086,0.002,1.623c0.336,0.098,1.438,0.118,2.015,0.036c0.01-0.113,0.029-0.233,0.031-0.353
		c0.003-0.373-0.002-0.745,0.002-1.117c0.003-0.275-0.059-0.583,0.266-0.734c0.34-0.158,0.701-0.164,1.034-0.006
		c0.129,0.06,0.212,0.247,0.28,0.393c0.039,0.09,0.016,0.213,0.016,0.322c0,1.491-0.002,2.98,0.002,4.471
		c0,0.288,0.006,0.59-0.284,0.736c-0.349,0.176-0.724,0.158-1.077-0.014c-0.19-0.093-0.234-0.278-0.235-0.473
		c-0.002-0.435-0.001-0.87-0.002-1.305C465.674,270.628,465.674,270.46,465.674,270.238z"/>
	<path fill="#59BAC3" d="M540.297,279.431c0.436-0.681,0.858-1.349,1.292-2.01c0.271-0.413,0.562-0.485,0.992-0.273
		c0.418,0.205,0.538,0.562,0.296,0.965c-0.221,0.373-0.474,0.727-0.711,1.091c-0.161,0.246-0.323,0.492-0.508,0.78
		c0.114,0.186,0.233,0.381,0.356,0.573c0.325,0.509,0.659,1.015,0.979,1.528c0.257,0.411,0.212,0.674-0.128,0.924
		c-0.266,0.195-0.868,0.293-1.1-0.055c-0.222-0.336-0.446-0.672-0.666-1.009c-0.203-0.312-0.419-0.617-0.595-0.944
		c-0.161-0.298-0.368-0.397-0.716-0.266c-0.008,0.122-0.021,0.258-0.024,0.394c-0.002,0.403,0,0.808-0.001,1.212
		c0,0.107,0.004,0.218-0.013,0.324c-0.052,0.353-0.266,0.505-0.707,0.517c-0.525,0.014-0.762-0.118-0.832-0.479
		c-0.021-0.104-0.022-0.216-0.022-0.323c-0.001-1.506,0.021-3.013-0.01-4.519c-0.016-0.741,0.452-0.855,0.95-0.815
		c0.46,0.037,0.627,0.229,0.632,0.692c0.008,0.555,0.002,1.112,0.002,1.692C539.955,279.431,540.104,279.431,540.297,279.431z"/>
	<path fill="#59BAC3" d="M500.64,269.45c0.148,0.112,0.223,0.168,0.297,0.224c0.899,0.664,0.812,2.381-0.383,2.861
		c-1.022,0.413-2.063,0.396-3.078-0.034c-0.223-0.093-0.424-0.264-0.594-0.439c-0.263-0.277-0.239-0.645,0.018-0.922
		c0.271-0.293,0.596-0.344,0.918-0.13c0.18,0.118,0.343,0.271,0.531,0.378c0.343,0.198,0.709,0.31,1.111,0.178
		c0.361-0.119,0.51-0.331,0.486-0.693c-0.025-0.355-0.255-0.624-0.609-0.649c-0.356-0.026-0.716,0.002-1.072-0.02
		c-0.407-0.021-0.604-0.229-0.614-0.611c-0.01-0.375,0.161-0.588,0.539-0.62c0.34-0.029,0.686-0.007,1.024-0.036
		c0.337-0.029,0.499-0.192,0.569-0.517c0.083-0.385-0.124-0.674-0.521-0.716c-0.354-0.038-0.68,0.048-0.978,0.236
		c-0.118,0.074-0.228,0.164-0.345,0.239c-0.359,0.228-0.765,0.164-0.987-0.151c-0.229-0.324-0.147-0.695,0.223-0.968
		c0.435-0.323,0.942-0.492,1.471-0.532c0.473-0.036,0.962-0.02,1.433,0.058c1.522,0.249,1.642,1.905,0.829,2.659
		C500.841,269.307,500.762,269.358,500.64,269.45z"/>
	<path fill="#59BAC3" d="M462.53,283.323c-0.306-0.043-0.617-0.06-0.916-0.132c-0.866-0.212-1.454-0.759-1.749-1.589
		c-0.334-0.937-0.335-1.891,0.014-2.828c0.477-1.279,1.629-1.865,2.956-1.8c0.567,0.027,1.115,0.176,1.561,0.535
		c0.246,0.2,0.464,0.463,0.613,0.738c0.178,0.335,0.051,0.678-0.228,0.865c-0.303,0.201-0.58,0.173-0.885-0.089
		c-0.178-0.153-0.346-0.318-0.534-0.449c-0.717-0.505-1.607-0.256-1.923,0.555c-0.25,0.64-0.262,1.311-0.028,1.959
		c0.327,0.913,1.387,1.181,2.13,0.555c0.131-0.11,0.241-0.241,0.369-0.355c0.286-0.261,0.54-0.282,0.842-0.082
		c0.276,0.183,0.421,0.503,0.275,0.808c-0.122,0.256-0.31,0.509-0.532,0.683C463.927,283.142,463.258,283.323,462.53,283.323z"/>
	<path fill="#59BAC3" d="M481.927,279.24c0.324,0,0.601-0.002,0.876,0.001c0.497,0.007,0.993,0.021,1.456,0.239
		c0.431,0.203,0.723,0.517,0.842,0.991c0.353,1.384-0.443,2.52-1.871,2.605c-0.759,0.046-1.522,0.02-2.283,0.009
		c-0.368-0.005-0.526-0.176-0.568-0.544c-0.01-0.093-0.006-0.187-0.006-0.279c-0.001-1.46-0.001-2.921,0-4.382
		c0-0.278-0.028-0.58,0.281-0.731c0.339-0.17,0.693-0.158,1.036-0.006c0.195,0.086,0.24,0.266,0.237,0.467
		c-0.004,0.373,0,0.744,0,1.117C481.927,278.88,481.927,279.031,481.927,279.24z M481.955,280.463c0,0.478,0,0.933,0,1.44
		c0.28,0,0.541,0.003,0.798-0.001c0.636-0.011,0.968-0.498,0.744-1.093c-0.068-0.185-0.181-0.338-0.392-0.347
		C482.726,280.452,482.347,280.463,481.955,280.463z"/>
	<path fill="#59BAC3" d="M469.9,267.921c-0.438,0-0.837,0.012-1.235-0.005c-0.373-0.015-0.531-0.17-0.598-0.525
		c-0.083-0.439,0.166-0.788,0.617-0.792c1.366-0.013,2.733-0.012,4.1-0.001c0.412,0.003,0.636,0.25,0.64,0.642
		c0.006,0.43-0.203,0.662-0.646,0.678c-0.399,0.015-0.801,0.004-1.249,0.004c-0.012,0.207-0.025,0.372-0.026,0.535
		c-0.001,1.133-0.001,2.267-0.001,3.4c0,0.284,0.021,0.586-0.284,0.732c-0.339,0.163-0.696,0.161-1.033-0.01
		c-0.236-0.12-0.284-0.354-0.283-0.596c0-0.747-0.001-1.491-0.001-2.235C469.9,269.16,469.9,268.571,469.9,267.921z"/>
	<path fill="#59BAC3" d="M518.18,267.922c0,0.222,0,0.388,0,0.555c0,1.117,0.002,2.236-0.001,3.352
		c-0.002,0.75-0.639,1.122-1.306,0.771c-0.243-0.127-0.286-0.341-0.286-0.59c0.005-0.821,0.002-1.645,0.002-2.467
		c0-0.513,0-1.023,0-1.568c-0.142-0.019-0.259-0.045-0.376-0.047c-0.296-0.009-0.592,0.007-0.886-0.011
		c-0.418-0.027-0.604-0.244-0.601-0.667c0.003-0.41,0.206-0.646,0.624-0.65c1.365-0.012,2.731-0.012,4.097,0
		c0.417,0.003,0.624,0.242,0.627,0.648c0.002,0.442-0.194,0.656-0.646,0.672C519.029,267.933,518.63,267.922,518.18,267.922z"/>
</g>
</svg>
