<?xml version="1.0" encoding="utf-8"?>
<!-- Generator: Adobe Illustrator 16.0.0, SVG Export Plug-In . SVG Version: 6.00 Build 0)  -->
<!DOCTYPE svg PUBLIC "-//W3C//DTD SVG 1.1//EN" "http://www.w3.org/Graphics/SVG/1.1/DTD/svg11.dtd">
<svg version="1.1" id="Layer_1" xmlns="http://www.w3.org/2000/svg" xmlns:xlink="http://www.w3.org/1999/xlink" x="0px" y="0px"
	 width="830.005px" height="249.063px" viewBox="-0.002 -412.198 830.005 249.063"
	 enable-background="new -0.002 -412.198 830.005 249.063" xml:space="preserve">
<g>
	<g>
		<path fill="#AFDCE1" d="M376.583-344.147l-24.775,24.774c2.188,0.479,4.827,0.811,8.498,0.811c13.062,0,13.062-4.205,26.122-4.205
			c13.062,0,13.062,4.205,26.122,4.205c6.067,0,9.315-0.908,12.367-1.881l-23.705-23.704
			C394.44-350.92,383.356-350.92,376.583-344.147z"/>
		<path fill="#AFDCE1" d="M785.306-362.175c-6.773-6.772-17.856-6.772-24.629,0l-24.774,24.773c2.188,0.479,4.827,0.811,8.498,0.811
			c13.062,0,13.062-4.204,26.122-4.204c13.062,0,13.062,4.204,26.123,4.204c6.068,0,9.317-0.908,12.366-1.879L785.306-362.175z"/>
	</g>
	<g>
		<path fill="#6CC5CB" d="M424.915-320.444c-3.05,0.973-6.298,1.881-12.365,1.881c-13.062,0-13.062-4.205-26.122-4.205
			s-13.061,4.205-26.122,4.205c-3.671,0-6.31-0.332-8.498-0.811l-4.898,4.899l-4.953,4.953l14.604,14.604l1.979,1.977
			c0.563,0.019,1.146,0.03,1.769,0.03c13.062,0,13.062-4.204,26.122-4.204c13.062,0,13.062,4.204,26.122,4.204
			c13.06,0,13.061-4.204,26.122-4.204c5.208,0,8.338,0.669,11.049,1.474l-18.833-18.833L424.915-320.444z"/>
		<path fill="#6CC5CB" d="M814.981-332.5l-5.97-5.97c-3.049,0.973-6.298,1.879-12.366,1.879c-13.062,0-13.062-4.204-26.123-4.204
			s-13.061,4.204-26.122,4.204c-3.671,0-6.31-0.332-8.498-0.811l-4.898,4.899l-17.598,17.597c1.41-0.146,3.004-0.234,4.872-0.234
			c13.062,0,13.062,4.205,26.122,4.205c13.062,0,13.062-4.205,26.122-4.205c13.061,0,13.062,4.205,26.123,4.205
			c13.061,0,13.061-4.205,26.121-4.205c1.797,0,3.341,0.082,4.711,0.219l2.523-2.524v-0.036L814.981-332.5z"/>
	</g>
	<g>
		<path fill="#3FA8AC" d="M449.721-295.639c-2.711-0.805-5.841-1.474-11.049-1.474c-13.062,0-13.062,4.204-26.122,4.204
			c-13.062,0-13.062-4.204-26.122-4.204s-13.061,4.204-26.122,4.204c-0.621,0-1.204-0.013-1.769-0.029l14.721,14.721l5.255,5.255
			l1.88,1.881c1.68-0.231,3.636-0.375,6.035-0.375c13.062,0,13.062,4.204,26.122,4.204c13.06,0,13.061-4.204,26.122-4.204
			c13.061,0,13.062,4.204,26.122,4.204c5.602,0,8.8-0.773,11.655-1.656l-9.308-9.309L449.721-295.639z"/>
		<path fill="#3FA8AC" d="M822.765-315.14c-13.062,0-13.062,4.205-26.121,4.205c-13.062,0-13.062-4.205-26.123-4.205
			c-13.061,0-13.061,4.205-26.122,4.205c-13.061,0-13.061-4.205-26.122-4.205c-1.868,0-3.462,0.088-4.872,0.234l-4.751,4.752
			l0.473,0.472l13.438,13.438l1.329,1.329l7.575,7.573c3.223,1.038,6.486,2.062,12.934,2.062c13.062,0,13.062-4.205,26.122-4.205
			c13.062,0,13.062,4.205,26.123,4.205c0.414,0,0.814-0.004,1.203-0.014l9.628-9.628l1.324-1.323l13.438-13.438l5.238-5.239
			C826.106-315.058,824.562-315.14,822.765-315.14z"/>
	</g>
	<g>
		<path fill="#379999" d="M464.794-267.251c-13.062,0-13.062-4.204-26.122-4.204c-13.062,0-13.062,4.204-26.122,4.204
			c-13.062,0-13.062-4.204-26.122-4.204c-2.399,0-4.355,0.144-6.035,0.375l9.65,9.648l8.87,8.872l10.896,10.893
			c0.849,0.046,1.754,0.071,2.742,0.071c13.061,0,13.061-4.204,26.122-4.204c13.061,0,13.062,4.204,26.122,4.204
			c6.153,0,9.408-0.935,12.498-1.921l9.043-9.043l3.23-3.232l-13.116-13.115C473.594-268.026,470.396-267.251,464.794-267.251z"/>
		<path fill="#379999" d="M796.645-285.28c-13.062,0-13.062-4.205-26.123-4.205s-13.061,4.205-26.122,4.205
			c-6.446,0-9.71-1.023-12.934-2.062l14.378,14.379l2.373,2.373l8.956,8.956c3.362-1.081,6.626-2.194,13.349-2.194
			c2.173,0,3.979,0.117,5.549,0.312l7.073-7.073l2.373-2.373l12.33-12.33C797.456-285.283,797.058-285.28,796.645-285.28z"/>
	</g>
	<g>
		<path fill="#FFFFFF" d="M283.395-368.08l-6.81-6.811c-9.694-9.694-25.559-9.694-35.251,0l-4.382,4.382l-8.937,8.936
			l-28.054,28.056c4.476,1.435,9.14,2.81,18.075,2.81c18.692,0,18.692-6.018,37.388-6.018s18.694,6.018,37.387,6.018
			c12.441,0,16.606-2.663,23.508-4.446l-26.418-26.418L283.395-368.08z"/>
		<path fill="#FFFFFF" d="M86.394-404.047l-35.459,35.46c3.131,0.684,6.908,1.159,12.162,1.159c18.694,0,18.694-6.019,37.388-6.019
			c18.694,0,18.694,6.019,37.389,6.019c8.686,0,13.335-1.299,17.698-2.689l-33.927-33.93
			C110.773-414.919,97.267-414.91,86.394-404.047z"/>
		<path fill="#FFFFFF" d="M657.233-361.573l-6.507-6.507l-6.812-6.811c-9.692-9.694-25.558-9.694-35.252,0l-4.382,4.382
			l-8.935,8.936l-28.053,28.056c4.476,1.435,9.14,2.81,18.073,2.81c18.694,0,18.694-6.018,37.39-6.018
			c18.692,0,18.692,6.018,37.388,6.018c12.44,0,16.606-2.663,23.508-4.446L657.233-361.573z"/>
	</g>
	<g>
		<path fill="#D39925" d="M341.793-309.682l-25.474-25.474c-6.9,1.783-11.065,4.446-23.508,4.446
			c-18.691,0-18.691-6.018-37.387-6.018s-18.694,6.018-37.388,6.018c-8.937,0-13.601-1.375-18.075-2.81l-3.896,3.894l19.942,19.942
			l13.322,13.321l1.146,1.147c7.814-1.76,11.666-4.795,24.944-4.795c18.694,0,18.694,6.02,37.387,6.02
			c18.693,0,18.693-6.02,37.388-6.02c0.771,0,1.498,0.015,2.21,0.033c12.235,0.338,15.818,3.462,24.15,5.058l-14.604-14.604
			L341.793-309.682z"/>
		<path fill="#D39925" d="M155.573-370.119c-4.363,1.392-9.014,2.689-17.698,2.689c-18.693,0-18.693-6.019-37.389-6.019
			c-18.692,0-18.692,6.02-37.389,6.02c-5.254,0-9.031-0.477-12.162-1.159l-7.014,7.015l-25.185,25.185
			c2.02-0.211,4.302-0.337,6.975-0.337c18.691,0,18.691,6.018,37.387,6.018s18.694-6.018,37.388-6.018
			c18.694,0,18.694,6.018,37.389,6.018c18.691,0,18.691-6.018,37.387-6.018c7.455,0,11.935,0.958,15.813,2.107l-26.955-26.956
			L155.573-370.119z"/>
		<path fill="#D39925" d="M722.563-296.244l-13.438-13.438l-0.473-0.472l-25.003-25.002c-6.901,1.783-11.065,4.446-23.508,4.446
			c-18.694,0-18.694-6.018-37.388-6.018c-18.694,0-18.694,6.018-37.39,6.018c-8.935,0-13.599-1.375-18.075-2.81l-23.837,23.836
			l-11.999,11.999c4.052-1.244,8.611-2.323,16.523-2.323c18.693,0,18.693,6.02,37.387,6.02c18.694,0,18.694-6.02,37.39-6.02
			c18.692,0,18.692,6.02,37.388,6.02c18.693,0,18.693-6.02,37.387-6.02c0.333,0,0.646,0.006,0.967,0.011
			c10.222,0.118,14.67,2.096,20.115,3.752c1.612,0.489,3.313,0.951,5.279,1.329L722.563-296.244z"/>
	</g>
	<g>
		<path fill="#A86C20" d="M378.513-272.962l-5.255-5.255l-14.721-14.722l-1.979-1.977c-8.332-1.597-11.915-4.721-24.15-5.059
			c-0.712-0.021-1.438-0.033-2.211-0.033c-18.692,0-18.692,6.02-37.387,6.02c-18.691,0-18.691-6.02-37.387-6.02
			c-13.279,0-17.13,3.035-24.944,4.795l22.25,22.25l10.054,10.053c10.963,1.228,13.812,5.064,26.979,5.582
			c0.961,0.038,1.971,0.061,3.049,0.061c18.693,0,18.693-6.019,37.389-6.019c18.692,0,18.692,6.019,37.388,6.019
			c11.797,0,16.15-2.396,22.456-4.165l-9.65-9.648L378.513-272.962z"/>
		<path fill="#A86C20" d="M196.068-329.625l-4.992-4.992c-3.882-1.15-8.36-2.107-15.814-2.107c-18.694,0-18.694,6.018-37.387,6.018
			c-18.693,0-18.693-6.018-37.389-6.018c-18.692,0-18.692,6.017-37.389,6.017c-18.694,0-18.694-6.018-37.387-6.018
			c-2.673,0-4.955,0.126-6.975,0.337L0-317.653v0.378v2.734v4.856v13.438v1.196c1.692-0.352,3.199-0.762,4.63-1.196
			c4.005-1.219,7.474-2.61,13.091-3.31c2.258-0.281,4.857-0.453,7.989-0.453c18.691,0,18.691,6.02,37.387,6.02
			s18.694-6.02,37.388-6.02c18.694,0,18.694,6.02,37.389,6.02c14.853,0,17.913-3.797,27.917-5.357c2.586-0.404,5.63-0.66,9.47-0.66
			c0.949,0,1.837,0.02,2.695,0.05c16.036,0.55,16.946,5.97,34.691,5.97c0.949,0,1.837-0.02,2.694-0.049
			c6.388-0.22,10.384-1.208,13.99-2.323l-13.321-13.322L196.068-329.625z"/>
		<path fill="#A86C20" d="M748.218-270.589l-2.373-2.373l-14.378-14.379l-7.575-7.573c-1.966-0.378-3.667-0.84-5.279-1.329
			c-5.443-1.656-9.895-3.634-20.114-3.752c-0.32-0.005-0.635-0.011-0.968-0.011c-18.692,0-18.692,6.02-37.387,6.02
			s-18.694-6.02-37.388-6.02c-18.694,0-18.694,6.02-37.39,6.02c-18.691,0-18.691-6.02-37.387-6.02
			c-7.913,0-12.474,1.079-16.523,2.323l-24.721,24.722l-13.205,13.205c4.188,1.312,8.798,2.489,17.063,2.489
			c18.691,0,18.691-6.019,37.387-6.019s18.693,6.019,37.387,6.019c18.694,0,18.694-6.019,37.39-6.019
			c17.15,0,18.577,5.062,33.133,5.897c1.309,0.075,2.713,0.12,4.255,0.12c10.958,0,15.494-2.067,21.135-3.778
			c3.983-1.208,8.518-2.239,16.252-2.239c4.213,0,7.474,0.308,10.214,0.78c9.427,1.628,12.693,5.237,27.176,5.237
			c11.797,0,16.149-2.396,22.456-4.165l-0.201-0.201L748.218-270.589z"/>
		<path fill="#A86C20" d="M827.476-314.921l-5.238,5.239L808.8-296.244l-1.324,1.323c2.913,0.561,6.405,0.934,11.056,0.934
			c4.875,0,8.476-0.411,11.471-1.018v-1.239v-13.438v-4.896v-2.869L827.476-314.921z"/>
	</g>
	<g>
		<path fill="#844819" d="M252.73-272.962l-22.25-22.25l-1.146-1.147c-3.606,1.115-7.604,2.104-13.99,2.323
			c-0.857,0.029-1.746,0.049-2.694,0.049c-17.746,0-18.657-5.419-34.691-5.971c-0.857-0.029-1.746-0.049-2.695-0.049
			c-3.84,0-6.884,0.256-9.47,0.66c-10.004,1.562-13.064,5.357-27.917,5.357c-18.693,0-18.693-6.02-37.389-6.02
			c-18.692,0-18.692,6.02-37.388,6.02s-18.694-6.02-37.387-6.02c-3.132,0-5.731,0.172-7.989,0.453
			c-5.617,0.698-9.085,2.091-13.091,3.31c-1.431,0.436-2.938,0.847-4.63,1.196v6.164v15.921v2.373v7.36v4.9
			c3.317-0.688,5.902-1.61,8.667-2.477c4.183-1.311,8.791-2.482,17.042-2.482c3.689,0,6.646,0.236,9.167,0.613
			c9.483,1.417,12.74,4.839,25.063,5.341c0.991,0.041,2.038,0.062,3.154,0.062c18.694,0,18.694-6.018,37.388-6.018
			c13.051,0,16.995,2.931,24.542,4.701c3.267,0.767,7.2,1.315,12.847,1.315c0.947,0,1.838-0.02,2.693-0.049
			c16.035-0.55,16.947-5.969,34.692-5.969c0.949,0,1.837,0.019,2.695,0.049c16.034,0.55,16.946,5.969,34.691,5.969
			c0.949,0,1.837-0.02,2.694-0.049c16.036-0.55,16.948-5.969,34.69-5.969c0.949,0,1.84,0.019,2.695,0.049
			c4.839,0.166,8.31,0.772,11.271,1.543l-1.218-1.216L252.73-272.962z"/>
		<path fill="#844819" d="M818.531-293.989c-4.649,0-8.144-0.373-11.056-0.934l-9.628,9.628l-12.33,12.33l-2.373,2.373l-7.073,7.073
			l-0.434,0.434c0.749-0.059,1.524-0.106,2.352-0.141c0.992-0.04,2.038-0.062,3.155-0.062c10.276,0,14.904,1.817,20.093,3.456
			c4.25,1.342,8.877,2.562,17.295,2.562c4.875,0,8.476-0.411,11.471-1.018v-4.979v-7.324v-2.373v-15.958v-6.084
			C827.005-294.4,823.406-293.989,818.531-293.989z"/>
	</g>
	<path fill="#8D8025" d="M818.531-257.268c-8.418,0-13.044-1.222-17.295-2.562c-5.188-1.639-9.815-3.456-20.093-3.456
		c-1.117,0-2.163,0.022-3.155,0.062c-0.825,0.033-1.603,0.083-2.352,0.142l0.434-0.435c-1.569-0.194-3.376-0.312-5.549-0.312
		c-6.722,0-9.985,1.113-13.349,2.194l0.199,0.201c-6.304,1.77-10.657,4.165-22.455,4.165c-14.48,0-17.75-3.609-27.175-5.237
		c-2.741-0.474-6-0.78-10.214-0.78c-7.736,0-12.27,1.03-16.252,2.239c-5.641,1.711-10.177,3.778-21.135,3.778
		c-1.542,0-2.946-0.044-4.255-0.12c-14.558-0.836-15.981-5.897-33.133-5.897c-18.694,0-18.694,6.019-37.39,6.019
		c-18.691,0-18.691-6.019-37.387-6.019s-18.693,6.019-37.387,6.019c-8.267,0-12.875-1.178-17.063-2.489l-3.964,3.965l-3.232,3.231
		l-9.043,9.043c-3.088,0.987-6.342,1.921-12.496,1.921c-13.062,0-13.062-4.204-26.122-4.204c-13.062,0-13.062,4.204-26.122,4.204
		c-0.987,0-1.895-0.025-2.742-0.07l-10.896-10.894l-8.87-8.872c-6.306,1.77-10.659,4.165-22.456,4.165
		c-18.694,0-18.694-6.019-37.39-6.019c-18.692,0-18.692,6.019-37.387,6.019c-1.078,0-2.088-0.021-3.049-0.061
		c-13.167-0.518-16.017-4.354-26.98-5.582l1.218,1.216c-2.961-0.771-6.432-1.377-11.271-1.543c-0.855-0.029-1.746-0.049-2.695-0.049
		c-17.743,0-18.655,5.419-34.69,5.969c-0.857,0.03-1.746,0.05-2.694,0.05c-17.746,0-18.658-5.419-34.691-5.97
		c-0.857-0.029-1.746-0.049-2.695-0.049c-17.745,0-18.657,5.419-34.692,5.969c-0.855,0.03-1.747,0.05-2.693,0.05
		c-5.646,0-9.58-0.551-12.847-1.315c-7.548-1.771-11.492-4.702-24.542-4.702c-18.692,0-18.692,6.019-37.388,6.019
		c-1.117,0-2.163-0.021-3.154-0.062c-12.325-0.502-15.581-3.926-25.063-5.342c-2.521-0.377-5.479-0.613-9.167-0.613
		c-8.251,0-12.86,1.173-17.042,2.482c-2.766,0.866-5.35,1.789-8.667,2.477v13.395v7.128v1.562v14.302
		c8.342-1.727,12.006-4.958,25.71-4.958c0.336,0,0.651,0.006,0.977,0.01c0.324-0.003,0.643-0.01,0.979-0.01
		c18.356,0,18.7,5.799,36.409,6.008c3.933-0.046,7.013-0.367,9.617-0.839c7.267-1.319,10.892-3.81,19.256-4.773
		c2.15-0.247,4.615-0.395,7.537-0.395c0.336,0,0.653,0.006,0.979,0.01c0.324-0.003,0.641-0.01,0.977-0.01
		c0.592,0,1.163,0.006,1.719,0.018c16.68,0.351,17.554,5.788,34.692,5.99c0.591-0.007,1.165-0.021,1.718-0.039
		c16.035-0.55,16.947-5.969,34.692-5.969c0.336,0,0.653,0.006,0.977,0.01c0.324-0.003,0.643-0.01,0.979-0.01
		c0.589,0,1.158,0.006,1.711,0.018c16.477,0.346,17.521,5.657,34.056,5.984c0.591-0.013,1.156-0.031,1.708-0.056
		c15.438-0.668,16.551-5.946,34.062-5.946c0.223,0,0.432,0.005,0.648,0.006c0.214-0.001,0.417-0.006,0.638-0.006
		c0.332,0,0.646,0.006,0.966,0.01c0.327-0.004,0.646-0.01,0.987-0.01c0.59,0,1.157,0.006,1.712,0.018
		c1.979,0.042,3.731,0.156,5.32,0.324c11.625,1.229,14.188,5.373,28.735,5.66c0.59-0.013,1.156-0.031,1.707-0.056
		c1.271-0.056,2.441-0.144,3.536-0.255c1.279-0.156,2.466-0.36,3.57-0.604c0.005,0.036,0.009,0.07,0.014,0.106
		c9.245-1.646,12.581-5.194,26.939-5.194c0.558,0,1.097,0.005,1.619,0.016c0.524-0.011,1.063-0.016,1.62-0.016
		c0.589,0,1.158,0.006,1.71,0.018c0.559-0.012,1.131-0.018,1.727-0.018c17.505,0,18.618,5.275,34.04,5.946
		c15.437-0.668,16.55-5.946,34.061-5.946c0.556,0,1.095,0.005,1.619,0.016c0.522-0.011,1.062-0.016,1.617-0.016
		c0.591,0,1.158,0.006,1.712,0.018c0.558-0.012,1.132-0.018,1.726-0.018c12.871,0,16.881,2.853,24.23,4.63l0.812,0.812
		c2.08,0.299,4.453,0.503,7.288,0.561c11.13-0.221,15.243-2.698,21.766-4.4l-0.045,0.046c3.517-0.932,7.719-1.642,14.113-1.646
		c0.021,0,0.043,0,0.064,0c18.67,0,18.696,6,37.314,6.017c0.025,0,0.048,0,0.074,0c4.814,0,8.387-0.4,11.359-0.993
		c0.562-0.111,1.104-0.229,1.626-0.354c7.457-1.774,11.434-4.668,24.399-4.668c18.693,0,18.693,6.018,37.387,6.018
		c18.694,0,18.694-6.018,37.39-6.018c8.675,0,13.322,1.296,17.684,2.685c5.035,1.604,9.687,3.333,19.704,3.333
		c18.693,0,18.693-6.018,37.387-6.018c18.694,0,18.694,6.018,37.39,6.018c0.493,0,0.969-0.006,1.438-0.015v-0.958
		c1.374,0.312,2.873,0.562,4.527,0.732c0.245-0.021,0.48-0.044,0.719-0.067c-0.004,0.045-0.012,0.09-0.016,0.135
		c1.021,0.088,2.107,0.144,3.262,0.162c16.054-0.212,17.789-5.033,31.875-5.878c1.354-0.081,2.812-0.128,4.419-0.128
		c0.336,0,0.653,0.006,0.977,0.01c0.324-0.003,0.643-0.01,0.979-0.01c3.84,0,6.884,0.256,9.471,0.66
		c9.778,1.525,12.937,5.183,26.941,5.348c4.379-0.052,7.703-0.442,10.491-1.006v-14.345v-1.602v-7.091v-13.352
		C827.005-257.679,823.406-257.268,818.531-257.268z"/>
	<path fill="#74AD35" d="M825.715-163.135H830v-30.72v-5.668v-19.756v-2.271v-0.35c-2.789,0.562-6.113,0.955-10.492,1.007
		c-14.006-0.165-17.163-3.822-26.941-5.349c-2.586-0.403-5.63-0.66-9.471-0.66c-0.336,0-0.653,0.007-0.979,0.011
		c-0.322-0.003-0.641-0.011-0.977-0.011c-1.606,0-3.065,0.048-4.419,0.128c-14.087,0.846-15.822,5.666-31.875,5.879
		c-1.152-0.02-2.239-0.073-3.263-0.162c0.005-0.045,0.013-0.09,0.017-0.136c-0.237,0.022-0.474,0.048-0.719,0.068
		c-1.654-0.171-3.153-0.423-4.527-0.733v0.958c-0.469,0.009-0.943,0.016-1.438,0.016c-18.693,0-18.693-6.019-37.389-6.019
		c-18.692,0-18.692,6.019-37.387,6.019c-10.021,0-14.668-1.729-19.704-3.333c-4.36-1.39-9.009-2.686-17.684-2.686
		c-18.694,0-18.694,6.019-37.39,6.019c-18.691,0-18.691-6.019-37.387-6.019c-12.967,0-16.943,2.896-24.399,4.668
		c-0.521,0.125-1.062,0.243-1.626,0.354c-2.974,0.594-6.544,0.994-11.359,0.994c-0.025,0-0.048,0-0.074,0
		c-18.618-0.018-18.646-6.018-37.314-6.018c-0.021,0-0.043,0-0.064,0c-6.396,0.006-10.597,0.716-14.113,1.646l0.045-0.045
		c-6.521,1.702-10.636,4.182-21.766,4.399c-2.835-0.056-5.208-0.261-7.288-0.561l-0.812-0.812c-7.351-1.776-11.358-4.63-24.229-4.63
		c-0.594,0-1.168,0.006-1.725,0.019c-0.555-0.013-1.122-0.019-1.713-0.019c-0.556,0-1.095,0.005-1.617,0.017
		c-0.524-0.012-1.063-0.017-1.619-0.017c-17.511,0-18.624,5.279-34.061,5.947c-15.422-0.672-16.535-5.947-34.04-5.947
		c-0.596,0-1.168,0.006-1.727,0.019c-0.553-0.013-1.122-0.019-1.71-0.019c-0.557,0-1.095,0.005-1.62,0.017
		c-0.522-0.012-1.062-0.017-1.619-0.017c-14.358,0-17.694,3.549-26.939,5.195c-0.004-0.036-0.008-0.071-0.014-0.107
		c-1.104,0.243-2.29,0.448-3.57,0.604c-1.094,0.112-2.266,0.2-3.536,0.256c-0.551,0.023-1.117,0.043-1.707,0.055
		c-14.547-0.286-17.11-4.432-28.735-5.659c-1.588-0.168-3.341-0.283-5.32-0.324c-0.555-0.013-1.122-0.019-1.713-0.019
		c-0.339,0-0.659,0.006-0.986,0.011c-0.321-0.004-0.634-0.011-0.966-0.011c-0.221,0-0.424,0.005-0.638,0.006
		c-0.218-0.001-0.427-0.006-0.648-0.006c-17.514,0-18.626,5.279-34.062,5.947c-0.552,0.023-1.118,0.043-1.708,0.055
		c-16.534-0.326-17.579-5.639-34.056-5.983c-0.554-0.013-1.122-0.019-1.711-0.019c-0.336,0-0.653,0.006-0.979,0.011
		c-0.322-0.004-0.641-0.011-0.977-0.011c-17.745,0-18.657,5.418-34.692,5.97c-0.554,0.02-1.127,0.031-1.718,0.039
		c-17.14-0.202-18.014-5.641-34.693-5.99c-0.555-0.013-1.127-0.019-1.718-0.019c-0.336,0-0.651,0.006-0.977,0.011
		c-0.324-0.004-0.643-0.011-0.979-0.011c-2.921,0-5.387,0.146-7.538,0.396c-8.363,0.964-11.989,3.455-19.255,4.772
		c-2.604,0.474-5.687,0.793-9.618,0.839c-17.709-0.207-18.052-6.008-36.408-6.008c-0.336,0-0.653,0.006-0.979,0.011
		c-0.324-0.004-0.641-0.011-0.977-0.011c-13.704,0-17.368,3.231-25.71,4.958v0.359v2.304v19.756v5.667v30.721h825.716
		L825.715-163.135L825.715-163.135z"/>
</g>
</svg>
