<?xml version="1.0" encoding="utf-8"?>
<!-- Generator: Adobe Illustrator 16.0.0, SVG Export Plug-In . SVG Version: 6.00 Build 0)  -->
<!DOCTYPE svg PUBLIC "-//W3C//DTD SVG 1.1//EN" "http://www.w3.org/Graphics/SVG/1.1/DTD/svg11.dtd">
<svg version="1.1" id="Layer_1" xmlns="http://www.w3.org/2000/svg" xmlns:xlink="http://www.w3.org/1999/xlink" x="0px" y="0px"
	 width="158px" height="62.182px" viewBox="606.738 484.805 158 62.182" enable-background="new 606.738 484.805 158 62.182"
	 xml:space="preserve">
<g>
	<path fill="#F28800" d="M606.738,546.89h158c-8.92-35.322-40.906-61.465-79-61.465C647.645,485.425,615.658,511.568,606.738,546.89
		z"/>
	<rect x="693.335" y="495.556" fill="#C1711B" width="30.588" height="34.075"/>
	<path fill="#E62519" d="M696.123,522.544h23.29c8.657,0,15.676,7.019,15.676,15.676v8.767h-54.643v-8.767
		C680.446,529.563,687.465,522.544,696.123,522.544z"/>
	<circle fill="#FFE9D8" cx="708.629" cy="501.053" r="16.248"/>
	<path fill="#FFE9D8" d="M695.764,504.909c0,0.906-0.734,1.64-1.64,1.64h-1.928c-0.905,0-1.64-0.734-1.64-1.64v-7.713
		c0-0.906,0.734-1.641,1.64-1.641h1.928c0.905,0,1.64,0.734,1.64,1.641V504.909z"/>
	<path fill="#FFE9D8" d="M726.242,504.909c0,0.906-0.734,1.64-1.64,1.64h-1.928c-0.905,0-1.64-0.734-1.64-1.64v-7.713
		c0-0.906,0.734-1.641,1.64-1.641h1.928c0.905,0,1.64,0.734,1.64,1.641V504.909z"/>
	<path fill="#FFFFFF" d="M652.153,522.544h23.291c8.657,0,15.676,7.019,15.676,15.676v8.767h-54.643v-8.767
		C636.477,529.563,643.496,522.544,652.153,522.544z"/>
	<path fill="#844819" d="M708.629,484.805c-7.044,0-13.04,4.483-15.294,10.751h5.816c1.918,0,3.473-1.555,3.473-3.473
		c0,1.918,1.556,3.473,3.474,3.473h17.825C721.669,489.288,715.673,484.805,708.629,484.805z"/>
	<path fill="#C1711B" d="M708.629,484.805c-2.154,0-4.21,0.421-6.091,1.183v6.857c0.055-0.245,0.086-0.5,0.086-0.762
		c0,1.918,1.556,3.473,3.474,3.473h17.824C721.669,489.288,715.673,484.805,708.629,484.805z"/>
	<path fill="none" stroke="#546E72" stroke-width="12" stroke-miterlimit="10" d="M706.75,507.116"/>
	<circle fill="#433020" cx="702.192" cy="501.864" r="1.382"/>
	<circle fill="#433020" cx="715.325" cy="501.864" r="1.382"/>
	<path fill="#E9EAEA" d="M652.153,522.544h12.658v24.442h-28.334v-8.767C636.477,529.563,643.496,522.544,652.153,522.544z"/>
	<circle fill="#FFE9D8" cx="664.659" cy="501.053" r="16.248"/>
	<path fill="#FFE9D8" d="M651.796,504.909c0,0.906-0.734,1.64-1.64,1.64h-1.927c-0.906,0-1.64-0.734-1.64-1.64v-7.713
		c0-0.906,0.734-1.641,1.64-1.641h1.927c0.906,0,1.64,0.734,1.64,1.641V504.909z"/>
	<path fill="#FFE9D8" d="M682.273,504.909c0,0.906-0.734,1.64-1.64,1.64h-1.927c-0.906,0-1.641-0.734-1.641-1.64v-7.713
		c0-0.906,0.735-1.641,1.641-1.641h1.927c0.906,0,1.64,0.734,1.64,1.641V504.909z"/>
	<path fill="#844819" d="M664.659,484.805c-7.044,0-13.04,4.483-15.293,10.751h5.816c1.917,0,3.473-1.555,3.473-3.473
		c0,1.918,1.555,3.473,3.473,3.473h17.825C677.7,489.288,671.704,484.805,664.659,484.805z"/>
	<path fill="#C1711B" d="M664.659,484.805c-2.154,0-4.209,0.421-6.091,1.183v6.857c0.056-0.245,0.087-0.5,0.087-0.762
		c0,1.918,1.555,3.473,3.473,3.473h17.825C677.7,489.288,671.704,484.805,664.659,484.805z"/>
	<path fill="#546E72" d="M660.881,505.557h-6.282c-1.261,0-2.287-1.025-2.287-2.286v-2.812c0-1.261,1.026-2.286,2.287-2.286h6.282
		c1.26,0,2.286,1.025,2.286,2.286v2.812C663.167,504.531,662.141,505.557,660.881,505.557z M654.599,499.554
		c-0.499,0-0.904,0.406-0.904,0.904v2.812c0,0.498,0.405,0.903,0.904,0.903h6.282c0.498,0,0.904-0.405,0.904-0.903v-2.812
		c0-0.498-0.406-0.904-0.904-0.904H654.599z M675.35,505.557h-6.282c-1.261,0-2.286-1.026-2.286-2.287v-2.812
		c0-1.261,1.025-2.286,2.286-2.286h6.282c1.261,0,2.286,1.025,2.286,2.286v2.812C677.636,504.531,676.611,505.557,675.35,505.557z
		 M669.068,499.554c-0.499,0-0.904,0.405-0.904,0.904v2.812c0,0.499,0.405,0.904,0.904,0.904h6.282c0.499,0,0.904-0.405,0.904-0.904
		v-2.812c0-0.499-0.405-0.904-0.904-0.904H669.068z"/>
	<path fill="#546E72" d="M668.185,502.825h-1.382c0-1.002-0.815-1.817-1.817-1.817c-1.002,0-1.818,0.815-1.818,1.817h-1.382
		c0-1.765,1.436-3.2,3.2-3.2C666.749,499.625,668.185,501.061,668.185,502.825z"/>
	<path fill="none" stroke="#546E72" stroke-width="12" stroke-miterlimit="10" d="M662.781,507.116"/>
	<path fill="#D22417" d="M696.123,522.544h12.657v24.442h-28.334v-8.767C680.446,529.563,687.465,522.544,696.123,522.544z"/>
	<g>
		<circle fill="#E62519" cx="664.608" cy="531.761" r="2.557"/>
		<path fill="#E62519" d="M664.638,536.444c-1.429,0-2.587,1.158-2.587,2.587v7.956h5.175v-7.956
			C667.226,537.602,666.067,536.444,664.638,536.444z"/>
	</g>
</g>
</svg>
