<?xml version="1.0" encoding="utf-8"?>
<!-- Generator: Adobe Illustrator 16.0.0, SVG Export Plug-In . SVG Version: 6.00 Build 0)  -->
<!DOCTYPE svg PUBLIC "-//W3C//DTD SVG 1.1//EN" "http://www.w3.org/Graphics/SVG/1.1/DTD/svg11.dtd">
<svg version="1.1" id="Layer_1" xmlns="http://www.w3.org/2000/svg" xmlns:xlink="http://www.w3.org/1999/xlink" x="0px" y="0px"
	 width="158px" height="60.383px" viewBox="605.925 463.135 158 60.383" enable-background="new 605.925 463.135 158 60.383"
	 xml:space="preserve">
<g>
	<path fill="#F3A300" d="M605.925,523.517h155.218c-8.763-34.701-40.187-60.383-77.609-60.383
		C646.111,463.135,614.687,488.816,605.925,523.517z"/>
	<rect x="642.191" y="463.135" fill="#FFFFFF" width="82.685" height="60.383"/>
	<rect x="655.887" y="477.196" fill="#E9EAEA" width="53.793" height="6.056"/>
	<rect x="655.887" y="490.298" fill="#E9EAEA" width="53.793" height="6.056"/>
	<rect x="655.887" y="503.4" fill="#E9EAEA" width="53.793" height="6.056"/>
	<path fill="#E62519" d="M725.527,520.517L703.96,498.95c-2.742-2.742-2.742-7.188,0-9.93s7.188-2.742,9.93,0l11.638,11.638
		l26.411-26.411c2.742-2.742,7.188-2.742,9.93,0s2.742,7.188,0,9.93L725.527,520.517z"/>
	<path fill="#D22417" d="M751.938,474.247l-26.411,26.411l-0.651-0.651v19.859l0.651,0.651l36.341-36.341
		c2.742-2.742,2.742-7.188,0-9.93S754.68,471.505,751.938,474.247z"/>
</g>
</svg>
