<?xml version="1.0" encoding="utf-8"?>
<!-- Generator: Adobe Illustrator 16.0.0, SVG Export Plug-In . SVG Version: 6.00 Build 0)  -->
<!DOCTYPE svg PUBLIC "-//W3C//DTD SVG 1.1//EN" "http://www.w3.org/Graphics/SVG/1.1/DTD/svg11.dtd">
<svg version="1.1" id="Layer_1" xmlns="http://www.w3.org/2000/svg" xmlns:xlink="http://www.w3.org/1999/xlink" x="0px" y="0px"
	 width="140px" height="108.344px" viewBox="0 0 140 108.344" enable-background="new 0 0 140 108.344" xml:space="preserve">
<g>
	<path fill="#FFFFFF" d="M131.992,43.986c0,8.51-6.897,15.409-15.409,15.409H48.999c-8.513,0-15.413-6.899-15.413-15.409v-11.74
		c0-8.51,6.9-15.41,15.413-15.41h67.584c8.512,0,15.409,6.9,15.409,15.41V43.986z"/>
	<path fill="#FFFFFF" d="M23.383,91.877C10.49,91.877,0,81.391,0,68.497c0-12.892,10.49-23.38,23.383-23.38h40.264
		c3.941,0,7.136,3.193,7.136,7.134c0,3.942-3.194,7.137-7.136,7.137H23.383c-5.024,0-9.113,4.085-9.113,9.109
		c0,5.026,4.089,9.111,9.113,9.111c3.941,0,7.135,3.194,7.135,7.134C30.518,88.684,27.324,91.877,23.383,91.877z"/>
	<path fill="#E9EAEA" d="M63.646,45.117H23.383c-5.198,0-9.989,1.725-13.876,4.604c-1.801,2.786-2.859,6.103-2.859,9.666
		c0,7.804,5.008,14.415,11.98,16.845c-2.605-1.605-4.358-4.458-4.358-7.735c0-5.024,4.089-9.109,9.113-9.109h40.264
		c3.941,0,7.136-3.194,7.136-7.137C70.782,48.311,67.588,45.117,63.646,45.117z"/>
	<path fill="#E9EAEA" d="M33.586,31.641v12.346c0,8.51,6.9,15.409,15.413,15.409h67.584c8.512,0,15.409-6.899,15.409-15.409V31.641
		H33.586z"/>
	<path fill="#FFFFFF" d="M77.437,44.451c4.176,0,7.559,3.385,7.559,7.561l0,0c0,4.172-3.383,7.556-7.559,7.556H51.532
		c-4.17,0-7.559-3.384-7.559-7.556l0,0c0-4.176,3.389-7.561,7.559-7.561H77.437z"/>
	<path fill="#FFFFFF" d="M68.307,45.279c0,7.945-6.438,14.381-14.378,14.381h-5.962c-7.94,0-14.381-6.436-14.381-14.381v-8.856
		c0-7.944,6.44-14.382,14.381-14.382h5.962c7.94,0,14.378,6.438,14.378,14.382V45.279z"/>
	<path d="M48.999,16.836c-8.513,0-15.413,6.9-15.413,15.41v11.255c2.662,1.526,5.741,2.415,9.03,2.415h7.527
		c10.03,0,18.163-8.129,18.163-18.164V16.836H48.999z"/>
	<path fill="#FFFFFF" d="M116.09,53.121c4.175,0,7.559,3.383,7.559,7.561l0,0c0,4.173-3.384,7.557-7.559,7.557H98.747
		c-4.17,0-7.559-3.384-7.559-7.557l0,0c0-4.178,3.389-7.561,7.559-7.561H116.09z"/>
	<path fill="#FFFFFF" d="M91.188,43.339c0-4.178,3.383-7.562,7.561-7.562l0,0c4.172,0,7.556,3.384,7.556,7.562V60.68
		c0,4.169-3.384,7.559-7.556,7.559l0,0c-4.178,0-7.561-3.39-7.561-7.559V43.339z"/>
	<path fill="#FFFFFF" d="M140,27.816c0,0.741-0.603,1.34-1.344,1.34h-8.55c-0.742,0-1.344-0.599-1.344-1.34l0,0
		c0-0.742,0.602-1.344,1.344-1.344h8.55C139.397,26.473,140,27.074,140,27.816L140,27.816z"/>
	<path fill="#FFFFFF" d="M140,33.134c0,0.74-0.603,1.339-1.344,1.339h-8.55c-0.742,0-1.344-0.599-1.344-1.339l0,0
		c0-0.742,0.602-1.343,1.344-1.343h8.55C139.397,31.791,140,32.392,140,33.134L140,33.134z"/>
	<path fill="#FFFFFF" d="M140,38.451c0,0.74-0.603,1.34-1.344,1.34h-8.55c-0.742,0-1.344-0.6-1.344-1.34l0,0
		c0-0.742,0.602-1.344,1.344-1.344h8.55C139.397,37.107,140,37.709,140,38.451L140,38.451z"/>
	<path fill="#FFFFFF" d="M131.992,100.781c0,4.179-3.383,7.562-7.561,7.562l0,0c-4.173,0-7.556-3.384-7.556-7.562V30.218
		c0-4.169,3.383-7.558,7.556-7.558l0,0c4.178,0,7.561,3.389,7.561,7.558V100.781z"/>
	<path fill="#FFFFFF" d="M108.481,9.377c1.048-0.166,2.115-0.279,3.211-0.279s2.159,0.113,3.207,0.279
		C118.509,3.744,124.808,0,131.995,0v18.534v1.771v8.219h-0.044c0.011,0.293,0.044,0.579,0.044,0.879
		c0,11.218-9.091,20.306-20.303,20.306c-11.219,0-20.307-9.088-20.307-20.306c0-0.3,0.031-0.586,0.045-0.879h-0.045v-8.219v-1.771V0
		C98.573,0,104.872,3.744,108.481,9.377z"/>
	<path d="M108.481,9.377c0.717-0.114,1.447-0.184,2.183-0.229v17.407c0,8.353-6.661,15.112-14.95,15.356
		c-2.703-3.451-4.328-7.787-4.328-12.51c0-0.3,0.031-0.586,0.045-0.879h-0.045v-8.219v-1.771V0
		C98.573,0,104.872,3.744,108.481,9.377z"/>
	<path fill="#59BAC3" d="M104.97,29.398c0,1.903-1.538,3.439-3.434,3.439c-1.897,0-3.434-1.536-3.434-3.439
		c0-1.885,1.536-3.428,3.434-3.428C103.432,25.971,104.97,27.514,104.97,29.398z"/>
	<path d="M115.335,41.521h-2.188v-1.972l2.255-1.561c0.196-0.136,0.246-0.406,0.11-0.602c-0.137-0.197-0.406-0.246-0.603-0.11
		l-2.195,1.519l-2.195-1.519c-0.196-0.136-0.466-0.087-0.603,0.11c-0.136,0.195-0.086,0.466,0.11,0.602l2.255,1.561v1.972h-2.188
		c-0.238,0-0.433,0.194-0.433,0.433c0,0.239,0.194,0.434,0.433,0.434h2.188h0.865h2.188c0.238,0,0.433-0.194,0.433-0.434
		C115.768,41.715,115.573,41.521,115.335,41.521z"/>
	<path d="M103.587,29.402c0,1.137-0.919,2.055-2.051,2.055c-1.135,0-2.051-0.918-2.051-2.055c0-1.127,0.916-2.049,2.051-2.049
		C102.668,27.354,103.587,28.275,103.587,29.402z"/>
	<path fill="#59BAC3" d="M125.897,29.398c0,1.903-1.539,3.439-3.434,3.439c-1.897,0-3.434-1.536-3.434-3.439
		c0-1.885,1.536-3.428,3.434-3.428C124.358,25.971,125.897,27.514,125.897,29.398z"/>
	<path d="M124.515,29.402c0,1.137-0.919,2.055-2.051,2.055c-1.135,0-2.051-0.918-2.051-2.055c0-1.127,0.916-2.049,2.051-2.049
		C123.596,27.354,124.515,28.275,124.515,29.402z"/>
	<path d="M23.383,77.608c-1.146,0-2.235-0.237-3.247-0.624v14.642c1.064,0.149,2.144,0.251,3.247,0.251
		c3.941,0,7.135-3.193,7.135-7.135C30.518,80.803,27.324,77.608,23.383,77.608z"/>
	<rect x="95.141" y="30.098" width="12.279" height="3.927"/>
	<rect x="116.324" y="30.098" fill="#FFFFFF" width="12.279" height="3.927"/>
</g>
</svg>
