<?xml version="1.0" encoding="utf-8"?>
<!-- Generator: Adobe Illustrator 16.0.0, SVG Export Plug-In . SVG Version: 6.00 Build 0)  -->
<!DOCTYPE svg PUBLIC "-//W3C//DTD SVG 1.1//EN" "http://www.w3.org/Graphics/SVG/1.1/DTD/svg11.dtd">
<svg version="1.1" id="Layer_1" xmlns="http://www.w3.org/2000/svg" xmlns:xlink="http://www.w3.org/1999/xlink" x="0px" y="0px"
	 width="792px" height="532.49px" viewBox="60.264 12.368 792 532.49" enable-background="new 60.264 12.368 792 532.49"
	 xml:space="preserve">
<g>
	<g>
		<path fill="#FFFFFF" d="M373.754,386.519c0,2.115,1.714,3.829,3.829,3.829h29.713c2.115,0,3.829-1.714,3.829-3.829v-9.587
			c0-2.114-1.714-3.829-6.53-3.829H374.88c0.588,0-1.126,1.715-1.126,3.829V386.519L373.754,386.519z"/>
		<path fill="#FFFFFF" d="M420.019,400.256c0.837,1.952-0.065,4.214-2.017,5.054l0,0c-1.955,0.84-4.216-0.062-5.055-2.017
			l-8.817-18.506c-0.839-1.953,0.063-4.216,2.017-5.055l0,0c1.954-0.839,4.216,0.063,5.055,2.018L420.019,400.256z"/>
		<path fill="#FFFFFF" d="M394.103,400.256c-0.839,1.952,0.064,4.214,2.016,5.054l0,0c1.954,0.84,4.217-0.062,5.057-2.017
			l7.838-18.506c0.839-1.953-0.064-4.216-2.017-5.055l0,0c-1.954-0.839-4.217,0.063-5.056,2.018L394.103,400.256z"/>
		<g>
			<g>
				<path fill="#FFFFFF" d="M356.317,360.619h15.937c0.536,0,0.983,0.437,0.983,0.978v4.655c0,0.058-0.053,0.101-0.062,0.157
					c-0.18,2.437-2.159,6.695-4.642,6.695h-8.489c-2.484,0-4.462-1.984-4.642-4.42c-0.009-0.062-0.062-0.102-0.062-0.163v-6.924
					C355.339,361.055,355.774,360.619,356.317,360.619z"/>
				<path fill="#C1711B" d="M363.571,362.157c0.179-2.435,2.159-4.378,4.642-4.378h6.202c2.484,0,4.463,1.937,4.643,4.375
					c0.008,0.062,0.063,0.1,0.063,0.162v8.29c0,0.541-0.436,0.978-0.978,0.978h-3.562v1.521h-11.075v-2.498v-5.997v-2.294
					C363.508,362.258,363.559,362.216,363.571,362.157z"/>
				<path fill="#FFFFFF" d="M362.247,362.157c0.178-2.435,2.819-4.378,5.302-4.378h1.986c-2.483,0-4.462,1.943-4.641,4.378
					c-0.012,0.059-0.062,0.101-0.062,0.158v2.294v5.997v2.498h-2.647v-2.498v-5.997v-2.294
					C362.185,362.258,362.235,362.216,362.247,362.157z"/>
			</g>
			<path fill="#C1711B" d="M367.463,373.103c0,3.888,3.153,6.998,7.032,6.998l0,0c3.886,0,7.038-3.111,7.038-6.998v-8.288
				c0-3.886-3.152-7.036-7.038-7.036l0,0c-3.88,0-7.032,3.151-7.032,7.036V373.103z"/>
		</g>
		<path d="M356.317,360.619h2.356c0,0.012,0.006,0.021,0.006,0.031c0,1.229-0.999,2.227-2.228,2.227h-1.114v-1.281
			C355.339,361.055,355.774,360.619,356.317,360.619z"/>
		<circle cx="364.989" cy="363.407" r="1.351"/>
		<path fill="#844819" d="M381.529,373.098c-0.054,4.567-3.767,8.253-8.347,8.253c-4.57,0-8.287-3.686-8.339-8.253H381.529z"/>
		<path fill="#FFFFFF" d="M420.75,371.329c0,4.625-3.749,8.374-8.375,8.374c-0.608,0-1.196-0.07-1.766-0.192l-0.346-6.407
			c1.599,0,2.03,0.047,2.669-0.561c0.389-0.409,0.632-0.959,0.632-1.569v-7.926C417.625,363.628,420.75,367.109,420.75,371.329z"/>
		<rect x="405.62" y="373.103" fill="#FFFFFF" width="7.372" height="2.688"/>
		<path fill="#FFFFFF" d="M373.754,402.811c0,2.093,1.696,3.79,3.79,3.79l0,0c2.093,0,3.79-1.697,3.79-3.79v-18.153
			c0-2.093-1.697-3.79-3.79-3.79l0,0c-2.094,0-3.79,1.697-3.79,3.79V402.811z"/>
		<path fill="#C1711B" d="M405.443,373.103l-2.963,7.764c0,0-1.953,2.943-4.204,2.943c-2.25,0-13.263,0-13.263,0
			s-3.453,0.087-3.453-3.709c0-1.895,0-4.684,0-6.998H405.443L405.443,373.103z"/>
		<path fill="#844819" d="M404.945,376.288l-2.466,4.58c0,0-1.953,2.943-4.204,2.943c-0.263,0-0.583,0-0.942,0
			c-1.849-0.888-2.688-3.079-1.872-4.982l2.474-5.725h8.385L404.945,376.288z"/>
	</g>
	<g>
		<path fill="#844819" d="M295.835,408.475c0,1.01-0.819,1.829-1.828,1.829h-4.76c-1.009,0-1.828-0.819-1.828-1.829l0,0
			c0-1.01,0.819-1.828,1.828-1.828h4.76C295.016,406.647,295.835,407.465,295.835,408.475L295.835,408.475z"/>
		<path fill="#FFE9D8" d="M309.006,401.032l-17.621-2.871c-2.26,0-8.003,0.121-8.003-2.14s1.833-4.093,4.094-4.093l17.964-1.895
			l12.828-13.463c2.265-2.41,6.056-2.526,8.464-0.261c2.41,2.267,2.526,6.057,0.26,8.466l-13.622,14.37
			C312.236,400.349,310.657,401.032,309.006,401.032z"/>
		<path fill="#D22417" d="M318.267,376.571l-12.904,13.471c2.066,3.562,5.454,6.256,9.492,7.417l12.136-12.683
			c2.267-2.409,2.15-6.199-0.26-8.466C324.323,374.045,320.532,374.161,318.267,376.571z"/>
		<path fill="#E62519" d="M337.785,403.723c1.743,4.659-0.621,9.847-5.281,11.589l0,0c-4.659,1.743-9.848-0.621-11.59-5.281
			l-8.999-24.065c-1.743-4.66,0.623-9.847,5.282-11.59l0,0c4.66-1.741,9.846,0.623,11.59,5.281L337.785,403.723z"/>
		<path fill="#FFE9D8" d="M316.845,379.344c-0.156-0.568-0.191-1.112-0.135-1.625c-1.937,0.114-3.872,0.216-5.812,0.239
			c-2.734,0.032-4.145-1.995-4.242-4.108h-11.702l2.707-16.117c1.535-2.062,0.316-4.184-1.745-4.739
			c-2.058-0.559-4.182,0.661-4.738,2.722l-5.725,15.793c-0.907,3.354-0.298,6.752,1.668,9.319c1.967,2.569,5.087,4.042,8.562,4.042
			l8.742,0.689c0.354-1.345-0.752-3.213,4.035-2.638c2.633,0.315,6.826,0.05,10.121-1.155
			C317.748,381.156,317.104,380.285,316.845,379.344z"/>
		<path fill="#FFE9D8" d="M291.807,355.163c0,0.961,1.592,3.076,2.553,3.076l7.228-1.481c1.247-0.521,1.597-1.197,1.597-2.158l0,0
			c0-0.963-0.78-1.742-1.742-1.742h-6.965c-0.962,0-3.162,1.423-3.162,2.385L291.807,355.163z"/>
		<g>
			<circle fill="#FFE9D8" cx="315.507" cy="357.952" r="13.976"/>
			<circle fill="#433020" cx="305.318" cy="357.081" r="0.962"/>
			<path fill="#C1711B" d="M329.413,356.558c-0.015-0.139-0.042-0.271-0.061-0.406c-0.039-0.309-0.08-0.615-0.139-0.917l0,0
				l-0.001-0.003v-0.003c-0.003-0.01-0.006-0.02-0.006-0.029c-0.08-0.391-0.179-0.774-0.288-1.154
				c-0.01-0.033-0.016-0.066-0.027-0.099c-0.014-0.049-0.032-0.095-0.046-0.144c-0.586-1.89-1.555-3.606-2.826-5.061l-0.005-0.003
				c-0.108-0.126-0.222-0.25-0.336-0.372c-0.002-0.002-0.002-0.002-0.002-0.002c-0.084-0.088-0.172-0.174-0.256-0.259
				c-0.021-0.022-0.041-0.044-0.062-0.063v-0.002c-0.01-0.011-0.021-0.021-0.031-0.032c-0.006-0.006-0.011-0.009-0.016-0.015
				c-0.115-0.113-0.233-0.225-0.351-0.336c-0.003-0.001-0.005-0.005-0.005-0.005c-0.123-0.112-0.245-0.221-0.37-0.326
				c-0.008-0.008-0.019-0.015-0.026-0.023c-0.064-0.055-0.127-0.104-0.191-0.155c-0.008-0.007-0.016-0.013-0.023-0.021l-0.002-0.002
				c-0.052-0.04-0.1-0.081-0.148-0.121l-0.015-0.012c-0.126-0.099-0.252-0.196-0.383-0.293c-0.014-0.01-0.028-0.021-0.041-0.03
				c-0.124-0.09-0.249-0.179-0.375-0.265c-0.006-0.004-0.014-0.009-0.021-0.014l-0.014-0.008l-0.005-0.003
				c-0.018-0.013-0.032-0.023-0.052-0.034c-0.107-0.074-0.218-0.146-0.328-0.217c-0.019-0.01-0.036-0.021-0.056-0.034
				c-0.126-0.078-0.254-0.157-0.384-0.231c-0.008-0.006-0.018-0.01-0.024-0.015c-0.091-0.054-0.186-0.104-0.278-0.156l-0.005-0.001
				c-0.006-0.004-0.012-0.007-0.018-0.011c-0.036-0.021-0.073-0.042-0.11-0.062l-0.07-0.037c-0.13-0.067-0.26-0.135-0.394-0.198
				c-0.008-0.005-0.017-0.011-0.026-0.016c-0.142-0.067-0.282-0.134-0.424-0.197c-0.028-0.011-0.058-0.021-0.083-0.032
				c-0.029-0.017-0.062-0.027-0.093-0.04v-0.003c-0.013-0.005-0.03-0.01-0.042-0.017c-0.089-0.037-0.177-0.075-0.267-0.111
				c-0.011-0.004-0.021-0.01-0.031-0.012c-0.144-0.06-0.289-0.112-0.436-0.166c-0.031-0.01-0.061-0.021-0.093-0.031
				c-0.138-0.047-0.274-0.095-0.412-0.139c-0.013-0.004-0.024-0.007-0.034-0.013c-0.012-0.002-0.022-0.005-0.034-0.01l-0.016-0.004
				c-0.003,0-0.004,0-0.004,0c-0.132-0.042-0.263-0.08-0.392-0.116c-0.034-0.009-0.068-0.017-0.102-0.026
				c-0.141-0.037-0.283-0.073-0.426-0.108c-0.01-0.001-0.021-0.004-0.032-0.007c-0.097-0.022-0.194-0.04-0.29-0.062
				c0,0-0.006-0.002-0.008-0.002c-0.019-0.005-0.038-0.01-0.054-0.012c-0.035-0.006-0.07-0.015-0.104-0.021
				c-0.036-0.008-0.073-0.015-0.11-0.021c-0.146-0.028-0.293-0.054-0.44-0.077c-0.009,0-0.018-0.003-0.026-0.003
				c-0.155-0.025-0.31-0.045-0.466-0.063l-0.115-0.014c-0.155-0.015-0.307-0.031-0.462-0.043l-0.016-0.002
				c-0.158-0.013-0.318-0.021-0.477-0.026c-0.04-0.003-0.079-0.003-0.119-0.006c-0.16-0.006-0.321-0.009-0.484-0.009
				c-0.23,0-0.46,0.007-0.688,0.018c-0.133-0.021-0.265-0.039-0.405-0.039h-2.388c-0.896,0-1.672,0.478-2.106,1.188
				c-1.963,0.86-3.692,2.149-5.062,3.762h7.169h2.388h1.093v0.689v5.939v2.25v0.077v0.694c0,3.612,2.927,6.538,6.538,6.538h5.459
				c1.248-2.091,1.979-4.529,1.979-7.142C329.484,357.484,329.458,357.016,329.413,356.558z"/>
			<g>
				<path fill="#844819" d="M329.413,356.558c-0.015-0.139-0.042-0.271-0.061-0.406c-0.039-0.309-0.08-0.615-0.139-0.917
					l-0.001-0.003v-0.003c-0.003-0.01-0.006-0.02-0.006-0.029c-0.08-0.391-0.179-0.774-0.288-1.154
					c-0.01-0.033-0.016-0.066-0.027-0.099c-0.014-0.049-0.032-0.095-0.046-0.144c-0.586-1.89-1.555-3.606-2.826-5.061l-0.005-0.003
					c-0.108-0.126-0.222-0.25-0.336-0.372c-0.002-0.002-0.002-0.002-0.002-0.002c-0.084-0.088-0.172-0.174-0.256-0.259
					c-0.021-0.022-0.041-0.044-0.062-0.063v-0.002c-0.01-0.011-0.021-0.021-0.031-0.032c-0.006-0.006-0.011-0.009-0.016-0.015
					c-0.115-0.113-0.233-0.225-0.351-0.336c-0.003-0.001-0.005-0.005-0.005-0.005c-0.123-0.112-0.245-0.221-0.37-0.326
					c-0.008-0.008-0.019-0.015-0.026-0.023c-0.064-0.055-0.127-0.104-0.191-0.155c-0.008-0.007-0.016-0.013-0.023-0.021
					l-0.002-0.002c-0.052-0.04-0.1-0.081-0.148-0.121l-0.015-0.012c-0.126-0.099-0.252-0.196-0.383-0.293
					c-0.014-0.01-0.028-0.021-0.041-0.03c-0.124-0.09-0.249-0.179-0.375-0.265c-0.006-0.004-0.014-0.009-0.021-0.014l-0.014-0.008
					l-0.005-0.003c-0.018-0.013-0.032-0.023-0.052-0.034c-0.107-0.074-0.218-0.146-0.328-0.217c-0.019-0.01-0.036-0.021-0.056-0.034
					c-0.126-0.078-0.254-0.157-0.384-0.231c-0.008-0.006-0.018-0.01-0.024-0.015c-0.091-0.054-0.186-0.104-0.278-0.156l-0.005-0.001
					c-0.006-0.004-0.012-0.007-0.018-0.011c-0.036-0.021-0.073-0.042-0.11-0.062l-0.07-0.037c-0.13-0.067-0.26-0.135-0.394-0.198
					c-0.008-0.005-0.017-0.011-0.026-0.016c-0.142-0.067-0.282-0.134-0.424-0.197c-0.028-0.011-0.058-0.021-0.083-0.032
					c-0.029-0.017-0.062-0.027-0.093-0.04v-0.003c-0.013-0.005-0.03-0.01-0.042-0.017c-0.089-0.037-0.177-0.075-0.267-0.111
					c-0.011-0.004-0.021-0.01-0.031-0.012c-0.144-0.06-0.289-0.112-0.436-0.166c-0.031-0.01-0.061-0.021-0.093-0.031
					c-0.057-0.021-0.113-0.04-0.171-0.059c0.087,0.119,0.173,0.238,0.256,0.36l0.005,0.005c1.272,1.851,2.24,4.041,2.826,6.452
					c0.015,0.061,0.032,0.119,0.045,0.18c0.013,0.043,0.019,0.086,0.027,0.127c0.11,0.484,0.208,0.973,0.288,1.471
					c0.002,0.015,0.004,0.023,0.007,0.038v0.004c0,0,0.001,0.002,0.001,0.005c0.06,0.381,0.101,0.773,0.139,1.165
					c0.019,0.174,0.047,0.342,0.06,0.517c0.046,0.586,0.071,1.179,0.071,1.78c0,2.999-0.595,5.811-1.624,8.286h5.445
					c1.249-2.091,1.979-4.529,1.979-7.142C329.484,357.484,329.458,357.016,329.413,356.558z"/>
			</g>
			<path fill="#C1711B" d="M305.172,348.906h14.788c0-2.717-2.204-4.92-4.919-4.92h-14.789
				C300.252,346.703,302.453,348.906,305.172,348.906z"/>
			<path fill="#FFE9D8" d="M318.797,360.109c0,1.03-0.834,1.863-1.864,1.863h-4.384c-1.032,0-1.865-0.834-1.865-1.863v-2.708
				c0-1.032,0.834-1.866,1.865-1.866h4.384c1.031,0,1.864,0.834,1.864,1.866V360.109z"/>
		</g>
		<path fill="#FFE9D8" d="M290.68,395.943c-0.248-1.047,0.06-1.911,0.635-2.521c-1.043-0.908-2.404-1.462-3.895-1.462
			c-3.283,0-5.944,2.662-5.944,5.943c0,2.102,1.093,3.94,2.738,4.997c0.018-0.008,0.037-0.012,0.056-0.019
			c0.285,0.134,0.601,0.209,0.936,0.209c1.222,0,2.214-0.992,2.214-2.214c0-0.074-0.004-0.147-0.012-0.22
			c0.005-0.006,0.008-0.012,0.012-0.017v-2.738h2.73c0.084,0.01,0.17,0.017,0.257,0.017c0.257,0,0.5-0.054,0.729-0.134
			C290.98,397.173,290.824,396.559,290.68,395.943z"/>
		<path fill="#E62519" d="M320.781,373.85h-16.138c-1.224,2.272-1.919,4.872-1.919,7.636c0,1.401,0.179,2.76,0.515,4.056
			l17.542,1.306c3.462,0,6.269-3.502,6.269-6.965C327.05,376.422,324.242,373.85,320.781,373.85z"/>
		<path fill="#D22417" d="M320.875,386.843c-0.804-2.167-1.365-3.658-1.528-4.052c-0.867-2.089-2.649-2.442-2.649-2.442h-13.931
			c-0.027,0.376-0.043,0.755-0.043,1.138c0,1.401,0.179,2.76,0.515,4.056l17.542,1.306
			C320.813,386.848,320.843,386.844,320.875,386.843z"/>
		<rect x="287.42" y="397.903" fill="#C1711B" width="3.895" height="21.773"/>
		<polygon fill="#D22417" points="313.022,382.188 319.852,384.101 333.45,417.191 323.236,414.928 320.45,408.791 313.542,390.317 
			310.763,388.348 310.763,383.043 		"/>
	</g>
	<path fill="#D22417" d="M458.266,398.709h-5.414v14.335h5.414c3.958,0,7.167-3.209,7.167-7.167S462.224,398.709,458.266,398.709z"
		/>
	<path fill="#FBCD00" d="M343.148,409.627c-2.258,4.122-2.26,4.126-2.26,4.126s-1.683,5.218-8.078,5.218c-5.515,0-20.4,0-24.401,0
		c0,0-0.371,0-1.011,0c-4.001,0-18.886,0-24.4,0c-6.396,0-8.078-5.218-8.078-5.218s-0.002-0.004-2.26-4.126h-87.736
		c0,31.832,33.039,57.646,77.401,57.646h93.396c40.92,0,69.815-25.814,69.815-57.646H343.148z"/>
	<path fill="#F3A300" d="M340.888,413.754c0,0-1.683,5.217-8.078,5.217c-5.515,0-20.4,0-24.401,0c0,0-0.371,0-1.011,0
		c-0.559,0-1.337,0-2.266,0v48.304h50.59c40.92,0,69.815-25.814,69.815-57.646h-82.388
		C340.891,413.749,340.888,413.754,340.888,413.754z"/>
	<path fill="#FBCD00" d="M795.269,80.335h-24.086c-3.859,0-9.162,2.41-11.782,5.354l-16.734,18.796l-1.054,1.183l-22.187,24.917
		l-0.004,0.004l-4.762,5.351c0,0,8.494,2.132,20.33,6.555c0.062-0.081,0.12-0.162,0.18-0.244
		c6.431,2.481,14.823,6.104,24.541,11.194c6.374,3.34,11.835,6.377,16.458,9.066v46.379c-4.623,2.689-10.084,5.728-16.458,9.066
		c-9.718,5.091-18.11,8.712-24.541,11.193c-0.06-0.081-0.118-0.161-0.18-0.245c-11.836,4.424-20.33,6.557-20.33,6.557l4.762,5.35
		l0.004,0.004l22.187,24.917l1.054,1.182l16.734,18.796c2.62,2.944,7.923,5.354,11.782,5.354h24.086c3.86,0,7.017-3.282,7.017-7.297
		v-8.511v-68.334v-8.442v-7.298v-10.966v-7.299v-8.441V96.536v-8.905C802.285,83.618,799.129,80.335,795.269,80.335z"/>
	<path fill="#F8BF00" d="M776.169,185.699v23.189c-4.623,2.689-10.084,5.728-16.458,9.066c-9.718,5.091-18.11,8.712-24.541,11.193
		c-0.06-0.081-0.118-0.161-0.18-0.245c-11.836,4.424-20.33,6.557-20.33,6.557l4.762,5.35l0.004,0.004l22.187,24.917l1.054,1.182
		l16.734,18.796c2.62,2.944,7.923,5.354,11.782,5.354h24.086c3.86,0,7.017-3.282,7.017-7.297v-8.511v-68.334v-8.442v-7.298v-5.482
		H776.169L776.169,185.699z"/>
	<path fill="#E62519" d="M458.569,425.004l-0.183-0.776c-0.029-0.115-0.052-0.234-0.083-0.352l-4.43-18.704l4.43-18.705
		c0.031-0.119,0.054-0.236,0.083-0.352l0.183-0.777l-0.002-0.002c1.123-5.31,0.604-11.674-1.563-15.999
		c-2.856-5.699-7.488-5.699-10.345,0c-2.333,4.655-2.759,11.673-1.279,17.196l4.411,18.639l-4.411,18.637
		c-1.481,5.522-1.055,12.54,1.279,17.196c2.856,5.7,7.488,5.7,10.345,0c2.167-4.326,2.686-10.689,1.563-15.999L458.569,425.004z"/>
	<path fill="#FBCD00" d="M852.264,185.698c0,79.089-323.599,143.202-492.29,143.202h-76.007
		c-168.707,0-223.703-64.113-223.703-143.202l0,0c0-79.089,54.996-143.2,223.703-143.2h76.007
		C528.665,42.499,852.264,106.61,852.264,185.698L852.264,185.698z"/>
	<path fill="#F8BF00" d="M60.264,185.699c0,79.088,54.997,143.201,223.702,143.201h76.007c168.688,0,492.287-64.113,492.289-143.201
		H60.264z"/>
	<path fill="#F8BF00" d="M60.264,185.699c0,53.449,54.997,96.778,223.702,96.778h76.007c168.688,0,492.287-43.329,492.289-96.778
		H60.264z"/>
	<path fill="#F3A300" d="M359.974,282.478h-76.007c-168.706,0-223.703-43.329-223.703-96.778
		c0,79.088,54.997,143.201,223.703,143.201h76.007c168.688,0,492.288-64.113,492.29-143.201
		C852.262,239.149,528.663,282.478,359.974,282.478z"/>
	<path fill="#F3A300" d="M722.147,185.699l33.823,59.433c0,0,7.212-2.01,17.67-6.751c10.458-4.744,14.179-4.789,17.672-9.404
		c10.264-13.561,10.824-43.278,10.824-43.278H722.147z"/>
	<path fill="#F8BF00" d="M305.133,264.706l-140.856-10.097v17.67c10.231,0,18.537,14.789,18.673,24.987
		c-0.002,0.062-0.008,0.122-0.008,0.185c0,2.663,2.158,4.818,4.818,4.818c2.665,0,4.822-2.155,4.822-4.818
		c0-0.134-0.01-0.265-0.02-0.394c0.246-10.102,8.506-18.217,18.668-18.217c10.197,0,18.478,11.706,18.67,21.855
		c-0.006,0.095-0.015,0.188-0.015,0.288c0,2.662,2.158,4.819,4.82,4.819c2.664,0,4.82-2.157,4.82-4.819
		c0-0.1-0.009-0.193-0.016-0.289c0.193-10.149,8.476-18.32,18.672-18.32c10.16,0,18.421,8.115,18.668,18.217
		c-0.011,0.131-0.019,0.261-0.019,0.393c0,2.662,2.157,4.819,4.819,4.819c2.663,0,4.82-2.157,4.82-4.819
		c0-0.062-0.007-0.122-0.01-0.185c0.138-10.198,8.443-18.425,18.674-18.425c10.229,0,18.537,8.227,18.672,18.425
		c-0.001,0.062-0.009,0.122-0.009,0.185c0,2.662,2.159,4.819,4.82,4.819c2.664,0,4.821-2.157,4.821-4.819
		c0-0.133-0.01-0.264-0.02-0.393c0.246-10.102,8.506-18.217,18.668-18.217c10.197,0,18.478,8.171,18.67,18.321
		c-0.005,0.095-0.014,0.189-0.014,0.288c0,2.662,2.158,4.819,4.819,4.819c2.663,0,4.821-2.157,4.821-4.819
		c0-0.099-0.009-0.193-0.016-0.289c0.193-10.149,8.476-19.33,18.671-19.33c10.16,0,18.421,7.106,18.668,17.207
		c-0.01,0.13-0.021,0.26-0.021,0.392c0,2.664,2.158,4.82,4.821,4.82c2.662,0,4.821-2.156,4.821-4.82
		c0-0.062-0.008-0.122-0.011-0.184c0.139-10.199,8.443-19.939,18.673-19.939v-17.669L305.133,264.706z"/>
	<circle fill="#169AB1" cx="305.617" cy="511.727" r="11.652"/>
	<path fill="#169AB1" d="M308.514,489.039c0,1.866-1.514,3.381-3.382,3.381l0,0c-1.868,0-3.381-1.515-3.381-3.381v-9.933
		c0-1.867,1.513-3.382,3.381-3.382l0,0c1.868,0,3.382,1.515,3.382,3.382V489.039z"/>
	<path fill="#D22417" d="M458.569,425.004l-0.183-0.776c-0.029-0.115-0.052-0.234-0.083-0.352l-4.43-18.704l1.562-6.591
		l-6.562,27.346c0,0-2.662,7.228-2.917,13.434c0.213,0.573,0.445,1.126,0.706,1.645c2.856,5.7,7.488,5.7,10.345,0
		c2.167-4.326,2.686-10.689,1.563-15.999L458.569,425.004z"/>
	<path fill="#E62519" d="M458.266,398.709h-5.414v7.168h12.58C465.433,401.919,462.224,398.709,458.266,398.709z"/>
	<path fill="#FFFFFF" d="M334.684,426.289h-57.739c-3.966,0-7.952-2.488-9.694-6.051l-3.152-6.459h-77.637
		c-3.508,0-6.353-2.844-6.353-6.353s2.844-6.353,6.353-6.353h78.834c3.967,0,7.954,2.49,9.695,6.054l3.152,6.457h55.481l3.518-6.671
		c1.813-3.44,5.796-5.841,9.681-5.841h78.101c3.508,0,6.353,2.844,6.353,6.353s-2.844,6.353-6.353,6.353h-77.039l-3.518,6.67
		C342.553,423.886,338.572,426.289,334.684,426.289z"/>
	<path fill="#E3E3E3" d="M424.923,401.073h-78.101c-3.886,0-7.868,2.4-9.681,5.841l-3.518,6.671H305.23v12.704h29.454
		c3.888,0,7.87-2.402,9.682-5.841l3.518-6.67h77.039c3.508,0,6.353-2.844,6.353-6.353S428.431,401.073,424.923,401.073z"/>
	<g>
		<path fill="#D22417" d="M654.438,470.433h-11.304c-0.234,0-0.469,0.022-0.699,0.052c-5.682,0-9.909,0.488-17.153,7.735
			l-5.585,5.006l4.561,6.925l4.972-4.082l-4.145,19.767c-0.465,2.89,1.499,5.232,4.387,5.232h16.812c2.89,0,5.609-2.342,6.076-5.232
			l6.464-30.169C659.291,472.778,657.326,470.433,654.438,470.433z"/>
		<g>
			<path fill="#E62519" d="M626.932,482.181c8.004-6.042,8.392-6.531,14.072-6.531c0.229-0.03,0.466-0.053,0.699-0.053h15.143
				c0.697,0,1.342,0.142,1.91,0.389l0.066-0.32c0.468-2.889-1.497-5.233-4.387-5.233h-11.303c-0.234,0-0.469,0.022-0.699,0.052
				c-5.682,0-9.909,0.488-17.154,7.735l-5.584,5.006l2.275,3.4L626.932,482.181z"/>
			<path fill="#E62519" d="M634.762,492.124l-5.513-5.99l-4.166,19.701c-0.352,2.19,0.693,4.064,5.069,3.349L634.762,492.124z"/>
		</g>
		<path fill="#FFE9D8" d="M601.924,501.109c-1.262,1.011-1.466,2.853-0.456,4.113c0.159,0.197,0.62-2.214,0.813-2.066
			c1.041,0.78,2.517,0.791,3.581-0.062l18.395-12.942l-4.561-6.925L601.924,501.109z"/>
		<g>
			<path fill="#D22417" d="M659.182,474.815c-0.809-3.124-3.998-5.003-7.122-4.192c-3.127,0.81-3.82,3.936-3.012,7.062l5.975,15.916
				h7.962L659.182,474.815z"/>
			<path fill="#FFE9D8" d="M663.295,510.945c0.278,0,0.08,0.089,0.363,0.017c1.812-0.47,2.921-0.708,2.452-2.521l-3.125-14.841
				h-7.962l6.25,14.506C661.666,509.632,661.786,510.945,663.295,510.945z"/>
		</g>
		<path fill="#FFE9D8" d="M642.374,501.115L642.374,501.115L642.374,501.115c-0.858-1.055-2.062-1.854-3.754-1.854h-17.035
			c-3.263,0-5.905,2.643-5.905,5.903c0,0.335,0.034,0.659,0.089,0.977h-0.005l0.018,0.089c0,0,0,0,0,0.003v0.002l5.611,28.211
			h14.921l7.048-24.311C643.362,510.135,645.03,504.505,642.374,501.115z"/>
		<path fill="#FFE9D8" d="M657.955,509.985c0.367,0.88,1.016,0.72,1.516,0.538c0.39-0.144,0.422,0.574,0.634,1.175l0.019-0.001
			v1.463c0,0.68,0.55,1.229,1.228,1.229c0.679,0,1.229-0.55,1.229-1.229c0,0.68,0.549,1.229,1.229,1.229
			c0.677,0,1.229-0.55,1.229-1.229c0,0.68,0.549,1.229,1.228,1.229s1.229-0.55,1.229-1.229v-2.155c0-0.088-0.011-0.172-0.029-0.257
			c0.035-0.441,0.05-0.885-0.025-1.157c-0.166-0.607-0.224-0.833-0.513-1.213c-0.485-0.632-1.178-0.632-1.178-0.632l-4.516,0.02
			l-2.839,0.972C658.394,508.736,657.584,509.106,657.955,509.985z"/>
		<circle fill="#FFE9D8" cx="656.994" cy="465.74" r="13.622"/>
		<path fill="#C1711B" d="M670.616,465.739c0-7.521-6.099-13.621-13.622-13.621c-7.521,0-13.621,6.1-13.621,13.621
			c0,1.659,0.315,3.245,0.857,4.718l10.906,0.054c2.645-0.442,4.7-2.291,5.107-4.615c0.382,2.327,2.419,4.197,5.059,4.668
			l4.411,0.021C670.287,469.077,670.616,467.449,670.616,465.739z"/>
		<path fill="#844819" d="M684.502,462.411c1.107-0.007,1.999-0.906,1.995-2.013c-0.007-1.107-0.91-1.999-2.016-1.996
			c1.107-0.003,1.999-0.907,1.994-2.014c-0.008-1.106-0.905-2-2.014-1.991c0,0-0.263,0.044-0.678-0.057h-5.289
			c-3.299,0-5.974,2.672-5.974,5.973s2.675,5.909,5.974,5.909h6.902c0.663-0.312,1.121-1.028,1.119-1.817
			C686.509,463.298,685.61,462.404,684.502,462.411z"/>
		<path fill="#C1711B" d="M629.726,462.411c-1.11-0.005-2.001-0.906-1.995-2.013c0.005-1.107,0.907-1.999,2.015-1.994
			c-1.107-0.005-2.001-0.907-1.995-2.016c0.006-1.104,0.908-1.998,2.016-1.991c0,0,0.263,0.044,0.678-0.057h5.286
			c3.301,0,5.975,2.672,5.975,5.973c0,3.302-2.674,5.909-5.975,5.909h-6.899c-0.666-0.312-1.125-1.028-1.12-1.817
			C627.713,463.298,628.615,462.406,629.726,462.411z"/>
		<path fill="#844819" d="M660.436,452.575v14.066c0.653,1.975,2.517,3.503,4.866,3.924l4.411,0.021
			c0.574-1.508,0.903-3.136,0.903-4.846C670.616,459.408,666.289,454.1,660.436,452.575z"/>
		<circle fill="#546E72" cx="654.474" cy="473.752" r="1.199"/>
		<path fill="#546E72" d="M664.636,473.752c0,0.664-0.539,1.201-1.2,1.201c-0.666,0-1.2-0.538-1.2-1.201
			c0-0.662,0.535-1.201,1.2-1.201C664.097,472.55,664.636,473.09,664.636,473.752z"/>
		<path fill="#FFE9D8" d="M602.61,509.367c0,0.583-0.474,1.057-1.057,1.057l0,0c-0.586,0-1.059-0.474-1.059-1.057v-5.319
			c0-0.584,0.473-1.057,1.059-1.057l0,0c0.583,0,1.057,0.473,1.057,1.057V509.367z"/>
		<circle fill="#FFE9D8" cx="603.422" cy="503.736" r="2.927"/>
		<path fill="#FFE9D8" d="M601.933,510l3.896-4.602c0,0,0.235-1.586-0.583-2.408c-0.816-0.823-3.873,0.745-3.873,0.745L601.933,510z
			"/>
		<path fill="#D22417" d="M628.856,541.102c0,2.076-1.683,3.756-3.756,3.756l0,0c-2.075,0-3.755-1.68-3.755-3.756v-7.635
			c0-2.075,1.68-3.756,3.755-3.756l0,0c2.073,0,3.756,1.681,3.756,3.756V541.102z"/>
		<path fill="#D22417" d="M636.365,541.102c0,2.076-1.68,3.756-3.754,3.756l0,0c-2.074,0-3.755-1.68-3.755-3.756v-7.635
			c0-2.075,1.681-3.756,3.755-3.756l0,0c2.074,0,3.754,1.681,3.754,3.756V541.102z"/>
		<path fill="#FFE9D8" d="M632.632,521.289c-2.087,0-3.775,1.69-3.775,3.777c0-2.087-1.69-3.777-3.776-3.777
			c-2.087,0-3.777,1.69-3.777,3.777v7.68c0,2.085,1.69,3.775,3.777,3.775c2.086,0,3.776-1.69,3.776-3.775
			c0,2.085,1.69,3.775,3.775,3.775s3.776-1.69,3.776-3.775v-7.68C636.408,522.98,634.716,521.289,632.632,521.289z"/>
	</g>
	<g>
		<path fill="#FFFFFF" d="M560.556,149.697c0,20.019-16.229,36.25-36.249,36.25h-84.243c-20.021,0-36.25-16.229-36.25-36.25l0,0
			c0-20.02,16.229-36.25,36.25-36.25h84.243C544.326,113.448,560.556,129.677,560.556,149.697L560.556,149.697z"/>
	</g>
	<g>
		<path fill="#FFFFFF" d="M687.998,149.698c0,20.018-16.229,36.249-36.251,36.249h-84.241c-20.021,0-36.25-16.229-36.25-36.249l0,0
			c0-20.021,16.229-36.25,36.25-36.25h84.241C671.768,113.448,687.998,129.677,687.998,149.698L687.998,149.698z"/>
	</g>
	<g>
		<path fill="#FFFFFF" d="M653.276,185.945c0,20.021-16.229,36.25-36.249,36.25h-84.243c-20.02,0-36.249-16.229-36.249-36.25l0,0
			c0-20.019,16.229-36.249,36.249-36.249h84.243C637.046,149.697,653.276,165.926,653.276,185.945L653.276,185.945z"/>
	</g>
	<g>
		<rect x="60.264" y="12.368" fill="#FFFFFF" width="792" height="147.503"/>
	</g>
	<g>
		<path fill="#FFFFFF" d="M586.212,52.98c0,20.019-16.229,36.25-36.25,36.25H465.72c-20.02,0-36.249-16.229-36.249-36.25l0,0
			c0-20.02,16.229-36.25,36.249-36.25h84.242C569.984,16.73,586.212,32.96,586.212,52.98L586.212,52.98z"/>
	</g>
	<g>
		<path fill="#FFFFFF" d="M649.264,89.745c0,20.02-16.229,36.251-36.248,36.251h-84.244c-20.019,0-36.248-16.23-36.248-36.251l0,0
			c0-20.019,16.229-36.249,36.248-36.249h84.244C633.035,53.496,649.264,69.726,649.264,89.745L649.264,89.745z"/>
	</g>
	<path fill="#FFFFFF" d="M211.466,112.134H60.264v72.5h151.201c20.021,0,36.25-16.23,36.25-36.251
		C247.715,128.364,231.486,112.134,211.466,112.134z"/>
</g>
</svg>
