<?xml version="1.0" encoding="utf-8"?>
<!-- Generator: Adobe Illustrator 16.0.0, SVG Export Plug-In . SVG Version: 6.00 Build 0)  -->
<!DOCTYPE svg PUBLIC "-//W3C//DTD SVG 1.1//EN" "http://www.w3.org/Graphics/SVG/1.1/DTD/svg11.dtd">
<svg version="1.1" id="Layer_1" xmlns="http://www.w3.org/2000/svg" xmlns:xlink="http://www.w3.org/1999/xlink" x="0px" y="0px"
	 width="1244px" height="338.11px" viewBox="30.369 643.507 1244 338.11" enable-background="new 30.369 643.507 1244 338.11"
	 xml:space="preserve">
<g id="Layer_2">
</g>
<g id="Layer_1_1_">
	<g>
		<g>
			<rect x="1224.999" y="894.568" fill="#FFFFFF" width="21.67" height="5.988"/>
			<rect x="1238.607" y="895.787" fill="#FFFFFF" width="4.212" height="3.955"/>
			<path fill="#FFFFFF" d="M1269.598,891.017h-21.346c-2.635,0-4.771,2.135-4.771,4.77s2.137,4.771,4.771,4.771h19.868h1.478h4.771
				v-4.771C1274.368,893.152,1272.231,891.017,1269.598,891.017z"/>
			<path fill="#C1711B" d="M1269.598,891.017h-5.701c2.634,0,4.771,2.135,4.771,4.77v4.771h0.932h4.77v-4.771
				C1274.368,893.152,1272.231,891.017,1269.598,891.017z"/>
			<path fill="#FFFFFF" d="M1247.073,871.735h-8.467v8.47v2.622v17.73h16.938v-20.353
				C1255.543,875.53,1251.751,871.735,1247.073,871.735z"/>
			<path fill="#C1711B" d="M1247.073,871.735h-8.467v7.449h8.467c4.678,0,8.471,3.794,8.471,8.469v-7.449
				C1255.543,875.53,1251.751,871.735,1247.073,871.735z"/>
			<path fill="#E62519" d="M1228.795,898.706c0,1.022-0.828,1.851-1.849,1.851h-11.618c-1.021,0-1.849-0.828-1.849-1.851l0,0
				c0-1.022,0.827-1.848,1.849-1.848h11.618C1227.967,896.858,1228.795,897.683,1228.795,898.706L1228.795,898.706z"/>
			<path fill="#FFFFFF" d="M1230.389,897.562c0,1.654-1.342,2.995-2.995,2.995h-5.647c-1.653,0-2.993-1.34-2.993-2.995l0,0
				c0-1.653,1.339-2.994,2.993-2.994h5.647C1229.047,894.568,1230.389,895.909,1230.389,897.562L1230.389,897.562z"/>
		</g>
		<g>
			<path fill="#FFFFFF" d="M374.918,703.67c0,19.53-15.833,35.364-35.366,35.364h-82.186c-19.532,0-35.365-15.833-35.365-35.364l0,0
				c0-19.531,15.833-35.366,35.365-35.366h82.186C359.084,668.303,374.918,684.137,374.918,703.67L374.918,703.67z"/>
		</g>
		<path fill="#FFFFFF" d="M445.736,785.009c0,19.531-15.834,35.365-35.365,35.365h-82.187c-19.532,0-35.365-15.833-35.365-35.365
			l0,0c0-19.531,15.833-35.364,35.365-35.364h82.187C429.901,749.644,445.736,765.477,445.736,785.009L445.736,785.009z"/>
		<path fill="#FFFFFF" d="M415.891,833.593c0,19.531-15.833,35.365-35.365,35.365h-82.187c-19.531,0-35.365-15.833-35.365-35.365
			l0,0c0-19.531,15.833-35.364,35.365-35.364h82.187C400.057,798.228,415.891,814.061,415.891,833.593L415.891,833.593z"/>
		<g>
			<path fill="#FFFFFF" d="M1126.904,678.872c0,19.531-15.832,35.365-35.365,35.365h-82.187c-19.53,0-35.365-15.833-35.365-35.365
				l0,0c0-19.531,15.835-35.365,35.365-35.365h82.187C1111.072,643.507,1126.904,659.341,1126.904,678.872L1126.904,678.872z"/>
		</g>
		<g>
			<path fill="#FFFFFF" d="M1172.403,727.183c0,19.529-15.832,35.364-35.364,35.364h-82.188c-19.53,0-35.363-15.834-35.363-35.364
				l0,0c0-19.532,15.832-35.366,35.363-35.366h82.188C1156.571,691.817,1172.403,707.65,1172.403,727.183L1172.403,727.183z"/>
		</g>
		<g>
			<path fill="#FFFFFF" d="M1213.48,692.091c0,19.531-15.834,35.364-35.366,35.364h-82.186c-19.532,0-35.366-15.832-35.366-35.364
				l0,0c0-19.53,15.833-35.365,35.366-35.365h82.186C1197.646,656.725,1213.48,672.56,1213.48,692.091L1213.48,692.091z"/>
		</g>
		<path fill="#FFFFFF" d="M358.057,968.255c0,7.38-5.981,13.362-13.362,13.362h-59.746c-7.38,0-13.362-5.981-13.362-13.362l0,0
			c0-7.38,5.981-13.362,13.362-13.362h59.746C352.075,954.892,358.057,960.874,358.057,968.255L358.057,968.255z"/>
		<path fill="#FFFFFF" d="M345.428,956.094c0,7.38-5.981,13.362-13.361,13.362h-20.246c-7.379,0-13.362-5.981-13.362-13.362l0,0
			c0-7.379,5.982-13.363,13.362-13.363h20.246C339.447,942.731,345.428,948.714,345.428,956.094L345.428,956.094z"/>
		<path fill="#FFFFFF" d="M1178.3,825.126h31.863c1.144,0,2.254-0.143,3.316-0.406c1.061,0.263,2.17,0.406,3.314,0.406h31.862
			c7.573,0,13.712-6.139,13.712-13.711s-6.139-13.71-13.712-13.71h-4.853c0-7.572-6.139-13.711-13.712-13.711h-5.715
			c-7.573,0-13.712,6.139-13.712,13.711l0.001,0.012c-0.166-0.005-0.335-0.012-0.501-0.012h-31.863
			c-7.571,0-13.711,6.138-13.711,13.71S1170.729,825.126,1178.3,825.126z"/>
		<path fill="#FFFFFF" d="M766.79,938.677c0-0.031,0.002-0.062,0.002-0.094c0-7.172-5.813-12.984-12.983-12.984
			c-7.001,0-12.704,5.542-12.971,12.479c-6.165,0.523-11.008,5.69-11.008,11.989c0,6.65,5.39,12.038,12.038,12.038H762.9
			c6.648,0,12.038-5.388,12.038-12.038C774.938,944.782,771.529,940.294,766.79,938.677z"/>
		<path fill="#FFFFFF" d="M189.616,884.511c0,16.275-13.196,29.471-29.472,29.471H59.84c-16.278,0-29.471-13.195-29.471-29.471l0,0
			c0-16.276,13.193-29.472,29.471-29.472h100.305C176.422,855.039,189.616,868.234,189.616,884.511L189.616,884.511z"/>
		<path fill="#FFFFFF" d="M131.253,857.69c0,16.274-13.195,29.47-29.472,29.47h-14.14c-16.275,0-29.469-13.195-29.469-29.47l0,0
			c0-16.277,13.194-29.472,29.469-29.472h14.139C118.057,828.218,131.253,841.412,131.253,857.69L131.253,857.69z"/>
	</g>
</g>
</svg>
