<?xml version="1.0" encoding="utf-8"?>
<!-- Generator: Adobe Illustrator 16.0.0, SVG Export Plug-In . SVG Version: 6.00 Build 0)  -->
<!DOCTYPE svg PUBLIC "-//W3C//DTD SVG 1.1//EN" "http://www.w3.org/Graphics/SVG/1.1/DTD/svg11.dtd">
<svg version="1.1" id="Layer_1" xmlns="http://www.w3.org/2000/svg" xmlns:xlink="http://www.w3.org/1999/xlink" x="0px" y="0px"
	 width="476px" height="183.935px" viewBox="0 0 476 183.935" enable-background="new 0 0 476 183.935" xml:space="preserve">
<g>
	<path fill="#FFFFFF" d="M154.337,99.322c0,25.224-20.447,45.672-45.672,45.672H89.623c-25.223,0-45.671-20.448-45.671-45.672l0,0
		c0-25.224,20.448-45.672,45.671-45.672h19.042C133.89,53.65,154.337,74.099,154.337,99.322L154.337,99.322z"/>
	<path fill="#FFFFFF" d="M243.56,138.263c0,25.224-20.447,45.672-45.673,45.672H46.074c-25.223,0-45.671-20.448-45.671-45.672l0,0
		c0-25.224,20.448-45.672,45.671-45.672h151.813C223.112,92.591,243.56,113.039,243.56,138.263L243.56,138.263z"/>
	<path fill="#FFFFFF" d="M473.402,138.263c0,25.224-20.447,45.672-45.672,45.672h-53.301c-25.224,0-45.671-20.448-45.671-45.672l0,0
		c0-25.224,20.448-45.672,45.671-45.672h53.301C452.955,92.591,473.402,113.039,473.402,138.263L473.402,138.263z"/>
</g>
</svg>
