<?xml version="1.0" encoding="utf-8"?>
<!-- Generator: Adobe Illustrator 16.0.0, SVG Export Plug-In . SVG Version: 6.00 Build 0)  -->
<!DOCTYPE svg PUBLIC "-//W3C//DTD SVG 1.1//EN" "http://www.w3.org/Graphics/SVG/1.1/DTD/svg11.dtd">
<svg version="1.1" id="Layer_1" xmlns="http://www.w3.org/2000/svg" xmlns:xlink="http://www.w3.org/1999/xlink" x="0px" y="0px"
	 width="218.652px" height="207px" viewBox="-360.148 1.45 218.652 207" enable-background="new -360.148 1.45 218.652 207"
	 xml:space="preserve">
<g>
	<g>
		<circle fill="#59BAC3" cx="-199.399" cy="147.463" r="10.297"/>
		<path fill="#D22417" d="M-194.968,184.098c0.095,0,0.189-0.006,0.284-0.018c1.242-0.155,2.123-1.288,1.968-2.53l-1.004-13.808
			c-0.207-1.658-1.718-0.688-3.378-0.48c-1.658,0.209-2.835,1.721-2.629,3.378l2.512,11.474
			C-197.069,183.26-196.095,184.098-194.968,184.098z"/>
		<circle fill="#F8CFB1" cx="-199.648" cy="147.473" r="7.375"/>
		<path fill="#844819" d="M-199.648,140.096c-4.075,0-7.375,3.303-7.375,7.376c0,0.686,0.097,1.348,0.271,1.98h0.126
			c1.065,0,1.93-0.864,1.93-1.93v-1.872h1.93h2.958h3.716c1.065,0,1.93-0.863,1.93-1.93v3.8c0,0.961,0.703,1.756,1.624,1.903
			c0.171-0.622,0.265-1.276,0.265-1.954C-192.274,143.4-195.576,140.096-199.648,140.096z"/>
		<circle fill="#844819" cx="-197.627" cy="148.011" r="0.54"/>
		<path fill="#844819" d="M-201.133,148.01c0,0.3-0.24,0.541-0.538,0.541c-0.301,0-0.539-0.241-0.539-0.541
			c0-0.295,0.238-0.538,0.539-0.538C-201.373,147.472-201.133,147.715-201.133,148.01z"/>
		<path fill="#D22417" d="M-199.648,170.64h3.229c1.525,0,2.762-1.237,2.762-2.761v-2.909v-0.923v-4.301h-2.147l-1.412-3.571h-2.432
			V170.64L-199.648,170.64z"/>
		<path fill="#E62519" d="M-197.88,164.966c0.029,0,0.056,0.002,0.082,0.004c0.055-0.002,0.107-0.004,0.159-0.004H-197.88z"/>
		<path fill="#E62519" d="M-199.497,170.64h-3.229c-1.526,0-2.765-1.237-2.765-2.761v-2.909v-0.923v-4.301h2.148l1.41-3.571h2.435
			V170.64L-199.497,170.64z"/>
		<path fill="#E62519" d="M-204.175,184.098c-0.093,0-0.187-0.006-0.282-0.018c-1.242-0.155-2.123-1.288-1.971-2.53l1.007-13.808
			c0.204-1.658,1.716-0.688,3.378-0.48c1.657,0.209,2.836,1.721,2.628,3.378l-2.511,11.474
			C-202.071,183.26-203.048,184.098-204.175,184.098z"/>
		<path fill="#844819" d="M-204.046,181.154h-2.366c-1.202,0-2.177,0.975-2.177,2.178c0,0.271,0.052,0.528,0.14,0.768h6.44
			c0.088-0.238,0.142-0.497,0.142-0.768C-201.867,182.129-202.844,181.154-204.046,181.154z"/>
		<path fill="#844819" d="M-192.646,181.154h-2.365c-1.202,0-2.179,0.975-2.179,2.178c0,0.271,0.054,0.528,0.143,0.768h6.439
			c0.088-0.238,0.14-0.497,0.14-0.768C-190.469,182.129-191.442,181.154-192.646,181.154z"/>
		<path fill="#D22417" d="M-189.52,161.049h-8.358c-1.372,0-2.484-1.113-2.484-2.486c0-1.37,1.112-2.484,2.484-2.484h7.063
			l3.417-4.884c0.786-1.124,2.337-1.399,3.462-0.612c1.126,0.787,1.396,2.338,0.611,3.462l-4.158,5.945
			C-187.95,160.654-188.711,161.049-189.52,161.049z"/>
		<path fill="#E62519" d="M-200.494,161.049h-8.356c-0.812,0-1.572-0.395-2.038-1.06l-4.159-5.946
			c-0.785-1.124-0.513-2.674,0.612-3.461c1.126-0.787,2.676-0.512,3.462,0.61l3.417,4.885h7.064c1.37,0,2.484,1.114,2.484,2.484
			C-198.008,159.936-199.122,161.049-200.494,161.049z"/>
	</g>
	<g>
		<circle fill="#59BAC3" cx="-168.283" cy="12.255" r="10.805"/>
		<path fill="#D22417" d="M-155.038,31.65c1.436,1.434,1.436,3.762,0,5.198l-2.655,0.154c-1.433,1.434-3.761,1.435-5.198,0
			l-5.737-7.563c-1.435-1.435-1.435-3.762,0-5.2l1.335-1.072c1.434-1.436,3.763-1.436,5.197-0.001L-155.038,31.65z"/>
		<circle fill="#F8CFB1" cx="-168.283" cy="12.624" r="7.738"/>
		<path fill="#D22417" d="M-181.703,23.661c-1.331-0.966-1.888-2.532-1.238-3.554c0.669-1.05,2.356-1.125,3.77-0.169l4.839,3.295
			l9.201-1.505c1.687-0.275,3.275,0.867,3.551,2.552c0.275,1.684-0.866,3.275-2.552,3.55l-10.031,1.199
			c-0.766,0.126-1.551-0.042-2.2-0.47l-5.226-4.821C-181.627,23.715-181.666,23.687-181.703,23.661z"/>
		<path fill="#D22417" d="M-156.451,53.135c-0.925,0-1.676-0.751-1.676-1.677l-5.318-15.187c0-1.44,5.555-4.296,6.994-4.296
			c1.44,0,2.606,1.169,2.606,2.608l-0.931,16.875C-154.774,52.384-155.525,53.135-156.451,53.135z"/>
		<path fill="#844819" d="M-162.624,17.9c2.832-3.035,2.771-7.79-0.188-10.747c-1.974-1.974-4.748-2.659-7.277-2.054l-0.1,0.098
			c-1.523,1.526-1.523,4,0,5.524l6.367,6.364C-163.466,17.441-163.059,17.709-162.624,17.9z"/>
		<path fill="#844819" d="M-158.123,51.296l0.01,2.69c0.004,1.368,1.115,2.47,2.482,2.467c0.307-0.001,0.599-0.061,0.871-0.163
			l-0.023-7.317c-0.271-0.103-0.565-0.161-0.873-0.16C-157.022,48.817-158.127,49.929-158.123,51.296z"/>
		<path fill="#D22417" d="M-144.756,48.486c-0.734,0.562-1.786,0.425-2.35-0.311l-14.727-11.211c-0.877-1.142,2.517-4.64,3.66-5.516
			c1.144-0.876,2.78-0.659,3.657,0.483l10.07,14.205C-143.883,46.871-144.021,47.923-144.756,48.486z"/>
		<path fill="#844819" d="M-147.201,48.045l1.643,2.13c0.836,1.083,2.387,1.282,3.471,0.447c0.242-0.188,0.438-0.412,0.592-0.66
			l-4.469-5.792c-0.278,0.084-0.547,0.218-0.789,0.406C-147.837,45.409-148.037,46.963-147.201,48.045z"/>
		<path fill="#FBCD00" d="M-150.574,37.073c0.255,0.253,0.82,0.096,1.286-0.371l4.433-4.433c0.465-0.466,0.65-1.059,0.397-1.313
			l-5.262-5.26c-1.959-1.958-8.73-6.038-10.422-4.348c-1.689,1.689,2.347,8.505,4.305,10.463L-150.574,37.073z"/>
		<path fill="#F19500" d="M-149.288,36.702l2.26-2.259l-13.105-13.102c-0.004,0.002-0.006,0.005-0.008,0.007
			c-1.689,1.689,2.347,8.505,4.305,10.463l0.795,0.796c0.021,0.064,0.086,0.085,0.132,0.132l4.335,4.335
			C-150.319,37.326-149.754,37.169-149.288,36.702z"/>
	</g>
	<g>
		<path fill="#E3E3E3" d="M-304.433,172.188v-3.746c-0.747-0.436-1.63-0.927-2.659-1.466c-1.57-0.822-10.633-1.407-11.672-1.809
			c-0.01,0.014-0.02,0.026-0.029,0.04c-1.912-0.715-3.286-1.061-3.286-1.061l0.771-0.863l20.262-24.952
			c0.423-0.476,1.279-0.864,1.903-0.864h16.538c0.625,0,1.135,0.53,1.135,1.18v1.374v28.739v1.365v1.178v0.887h-22.963V172.188z"/>
		<path fill="#FFFFFF" d="M-304.433,173.73v3.746c-0.747,0.436-1.63,0.925-2.659,1.466c-1.57,0.821-10.633,1.407-11.672,1.807
			c-0.01-0.013-0.02-0.024-0.029-0.039c-1.912,0.715-3.286,1.059-3.286,1.059l0.771,0.865l20.262,24.951
			c0.423,0.478,1.279,0.865,1.903,0.865h16.538c0.625,0,1.135-0.53,1.135-1.179v-1.376v-28.738v-1.364v-1.18v-0.885h-22.963V173.73z
			"/>
		<path fill="#FFFFFF" d="M-284.219,183.629c1.519,0,2.75-1.183,2.75-2.702v-14.46c0-1.52-1.231-2.789-2.75-2.789h-31.593
			c-11.757,0-44.335,4.392-44.335,9.904s32.578,10.047,44.335,10.047H-284.219z"/>
		<path fill="#E3E3E3" d="M-281.469,180.927v-7.368h-78.678c0,0.008-0.001,0.017-0.001,0.023c0,5.513,32.578,10.047,44.335,10.047
			h4.776c0.25,0.074,0.514,0,0.787,0h26.03C-282.7,183.629-281.469,182.446-281.469,180.927z"/>
		<g>
			<path fill="#FFFFFF" d="M-276.722,159.873h-13.83c-3.78,0-6.843,3.063-6.843,6.843v0.11c0,3.78,3.063,6.843,6.843,6.843h13.831
				L-276.722,159.873L-276.722,159.873z"/>
			<path fill="#E3E3E3" d="M-290.551,173.67h13.831v-6.952h-20.674v0.109C-297.395,170.606-294.332,173.67-290.551,173.67z"/>
		</g>
		<g>
			<path fill="#FFFFFF" d="M-276.722,173.73h-13.83c-3.78,0-6.843,3.062-6.843,6.841v0.11c0,3.779,3.063,6.844,6.843,6.844h13.831
				L-276.722,173.73L-276.722,173.73z"/>
			<path fill="#E3E3E3" d="M-290.551,187.527h13.831v-6.954h-20.674v0.108C-297.395,184.463-294.332,187.527-290.551,187.527z"/>
		</g>
		<rect x="-340.586" y="167.611" fill="#59BAC3" width="4.454" height="12.07"/>
	</g>
	<path fill="none" stroke="#59BAC3" stroke-miterlimit="10" d="M-277.609,175.444h23.121c0,0,10.239,0.131,10.239-7.833
		s1.815-11.437,7.432-11.437c5.615,0,23.782,0,23.782,0"/>
</g>
</svg>
