<?xml version="1.0" encoding="utf-8"?>
<!-- Generator: Adobe Illustrator 16.0.0, SVG Export Plug-In . SVG Version: 6.00 Build 0)  -->
<!DOCTYPE svg PUBLIC "-//W3C//DTD SVG 1.1//EN" "http://www.w3.org/Graphics/SVG/1.1/DTD/svg11.dtd">
<svg version="1.1" id="Layer_1" xmlns="http://www.w3.org/2000/svg" xmlns:xlink="http://www.w3.org/1999/xlink" x="0px" y="0px"
	 width="224.334px" height="208px" viewBox="0 0 224.334 208" enable-background="new 0 0 224.334 208" xml:space="preserve">
<g>
	<g>
		<circle fill="#59BAC3" cx="161.497" cy="147.179" r="10.345"/>
		<path fill="#D22417" d="M165.949,183.985c0.096,0,0.19-0.006,0.287-0.018c1.247-0.156,2.132-1.294,1.976-2.542l-1.009-13.873
			c-0.208-1.666-1.726-0.69-3.394-0.482c-1.665,0.209-2.847,1.729-2.64,3.394l2.523,11.526
			C163.838,183.143,164.817,183.985,165.949,183.985z"/>
		<circle fill="#F8CFB1" cx="161.247" cy="147.188" r="7.409"/>
		<path fill="#844819" d="M161.247,139.777c-4.093,0-7.409,3.319-7.409,7.41c0,0.689,0.097,1.355,0.272,1.99h0.128
			c1.07,0,1.938-0.869,1.938-1.939v-1.881h1.938h2.972h3.734c1.07,0,1.938-0.867,1.938-1.938v3.818c0,0.965,0.707,1.764,1.631,1.912
			c0.173-0.626,0.267-1.283,0.267-1.963C168.656,143.097,165.339,139.777,161.247,139.777z"/>
		<circle fill="#844819" cx="163.279" cy="147.729" r="0.542"/>
		<path fill="#844819" d="M159.756,147.729c0,0.3-0.242,0.542-0.541,0.542c-0.302,0-0.541-0.242-0.541-0.542
			c0-0.298,0.239-0.541,0.541-0.541C159.514,147.188,159.756,147.431,159.756,147.729z"/>
		<path fill="#D22417" d="M161.247,170.464h3.245c1.533,0,2.774-1.243,2.774-2.774v-2.923v-0.927v-4.321h-2.158l-1.417-3.587h-2.444
			V170.464z"/>
		<path fill="#E62519" d="M163.025,164.763c0.028,0,0.055,0.003,0.081,0.004c0.055-0.002,0.108-0.004,0.161-0.004H163.025z"/>
		<path fill="#E62519" d="M161.4,170.464h-3.245c-1.533,0-2.777-1.243-2.777-2.774v-2.923v-0.927v-4.321h2.159l1.416-3.587h2.447
			V170.464z"/>
		<path fill="#E62519" d="M156.7,183.985c-0.093,0-0.188-0.006-0.284-0.018c-1.248-0.156-2.133-1.294-1.979-2.542l1.011-13.873
			c0.206-1.666,1.724-0.69,3.394-0.482c1.665,0.209,2.848,1.729,2.64,3.394l-2.523,11.526
			C158.814,183.143,157.832,183.985,156.7,183.985z"/>
		<path fill="#844819" d="M156.829,181.027h-2.377c-1.208,0-2.188,0.979-2.188,2.188c0,0.271,0.053,0.531,0.142,0.771h6.47
			c0.088-0.239,0.142-0.499,0.142-0.771C159.018,182.006,158.037,181.027,156.829,181.027z"/>
		<path fill="#844819" d="M168.282,181.027h-2.377c-1.207,0-2.188,0.979-2.188,2.188c0,0.271,0.053,0.531,0.143,0.771h6.469
			c0.089-0.239,0.141-0.499,0.141-0.771C170.47,182.006,169.491,181.027,168.282,181.027z"/>
		<path fill="#D22417" d="M171.423,160.828h-8.397c-1.379,0-2.496-1.118-2.496-2.498c0-1.377,1.117-2.496,2.496-2.496h7.096
			l3.433-4.907c0.79-1.128,2.348-1.405,3.478-0.614c1.131,0.791,1.404,2.348,0.615,3.477l-4.179,5.974
			C173,160.431,172.236,160.828,171.423,160.828z"/>
		<path fill="#E62519" d="M160.398,160.828h-8.396c-0.815,0-1.579-0.397-2.047-1.065l-4.178-5.974
			c-0.79-1.129-0.516-2.686,0.615-3.477c1.13-0.791,2.687-0.514,3.477,0.614l3.432,4.907h7.098c1.378,0,2.497,1.119,2.497,2.496
			C162.896,159.71,161.776,160.828,160.398,160.828z"/>
	</g>
	<g>
		<circle fill="#59BAC3" cx="192.759" cy="11.341" r="10.855"/>
		<path fill="#D22417" d="M206.066,30.826c1.442,1.441,1.442,3.78,0,5.223l-2.668,0.154c-1.44,1.441-3.779,1.442-5.223,0
			l-5.764-7.598c-1.441-1.442-1.441-3.78,0-5.224l1.341-1.077c1.441-1.442,3.78-1.442,5.222-0.001L206.066,30.826z"/>
		<circle fill="#F8CFB1" cx="192.759" cy="11.712" r="7.774"/>
		<path fill="#D22417" d="M179.276,22.8c-1.338-0.971-1.896-2.544-1.244-3.571c0.672-1.055,2.367-1.131,3.788-0.17l4.861,3.311
			l9.244-1.512c1.694-0.276,3.29,0.871,3.567,2.564c0.277,1.692-0.87,3.29-2.563,3.567l-10.078,1.204
			c-0.77,0.127-1.559-0.042-2.211-0.472l-5.251-4.843C179.352,22.854,179.313,22.826,179.276,22.8z"/>
		<path fill="#D22417" d="M204.646,52.411c-0.929,0-1.684-0.754-1.684-1.685l-5.343-15.258c0-1.447,5.58-4.316,7.026-4.316
			c1.448,0,2.62,1.174,2.62,2.62l-0.936,16.954C206.33,51.657,205.576,52.411,204.646,52.411z"/>
		<path fill="#844819" d="M198.444,17.012c2.845-3.049,2.783-7.826-0.188-10.797c-1.983-1.983-4.771-2.671-7.312-2.063l-0.099,0.098
			c-1.532,1.533-1.532,4.018,0,5.55l6.396,6.394C197.598,16.551,198.008,16.821,198.444,17.012z"/>
		<path fill="#844819" d="M202.966,50.564l0.009,2.702c0.004,1.374,1.121,2.482,2.494,2.479c0.309-0.001,0.603-0.061,0.875-0.164
			l-0.022-7.351c-0.273-0.103-0.569-0.161-0.877-0.16C204.071,48.074,202.962,49.191,202.966,50.564z"/>
		<path fill="#D22417" d="M216.395,47.741c-0.738,0.565-1.795,0.427-2.36-0.312l-14.795-11.263
			c-0.881-1.147,2.529-4.661,3.677-5.542c1.148-0.88,2.793-0.662,3.674,0.486l10.117,14.271
			C217.272,46.118,217.133,47.175,216.395,47.741z"/>
		<path fill="#844819" d="M213.938,47.298l1.651,2.14c0.839,1.088,2.399,1.288,3.487,0.449c0.244-0.188,0.441-0.414,0.595-0.663
			l-4.49-5.819c-0.279,0.084-0.549,0.219-0.793,0.407C213.3,44.649,213.099,46.211,213.938,47.298z"/>
		<path fill="#FBCD00" d="M210.55,36.275c0.255,0.254,0.824,0.096,1.292-0.373l4.454-4.453c0.467-0.468,0.653-1.064,0.398-1.319
			l-5.286-5.285c-1.968-1.967-8.771-6.065-10.47-4.368c-1.697,1.697,2.358,8.545,4.325,10.512L210.55,36.275z"/>
		<path fill="#F19500" d="M211.842,35.902l2.27-2.269L200.946,20.47c-0.003,0.002-0.005,0.005-0.008,0.007
			c-1.697,1.697,2.358,8.545,4.325,10.512l0.799,0.799c0.02,0.065,0.086,0.086,0.132,0.133l4.355,4.355
			C210.805,36.529,211.374,36.371,211.842,35.902z"/>
	</g>
	<g>
		<path fill="#E3E3E3" d="M55.974,172.019v-3.763c-0.75-0.437-1.637-0.931-2.671-1.473c-1.577-0.826-10.682-1.414-11.726-1.816
			c-0.01,0.014-0.02,0.026-0.029,0.04c-1.921-0.719-3.301-1.065-3.301-1.065l0.774-0.868l20.357-25.068
			c0.425-0.479,1.285-0.869,1.912-0.869h16.615c0.627,0,1.14,0.533,1.14,1.185v1.381v28.873v1.371v1.184v0.89H55.974z"/>
		<path fill="#FFFFFF" d="M55.974,173.568v3.764c-0.75,0.437-1.637,0.93-2.671,1.472c-1.577,0.826-10.682,1.414-11.726,1.816
			c-0.01-0.013-0.02-0.025-0.029-0.039c-1.921,0.718-3.301,1.064-3.301,1.064l0.774,0.868l20.357,25.068
			c0.425,0.479,1.285,0.869,1.912,0.869h16.615c0.627,0,1.14-0.533,1.14-1.185v-1.381v-28.873v-1.371v-1.184v-0.89H55.974z"/>
		<path fill="#FFFFFF" d="M76.282,183.513c1.526,0,2.764-1.188,2.764-2.714v-14.528c0-1.527-1.237-2.803-2.764-2.803h-31.74
			C32.73,163.468,0,167.881,0,173.42c0,5.538,32.73,10.093,44.542,10.093H76.282z"/>
		<path fill="#E3E3E3" d="M79.046,180.799v-7.402H0.001c0,0.008-0.001,0.016-0.001,0.023c0,5.538,32.73,10.093,44.542,10.093h4.798
			c0.251,0.075,0.516,0,0.791,0h26.151C77.809,183.513,79.046,182.325,79.046,180.799z"/>
		<g>
			<path fill="#FFFFFF" d="M83.815,159.647H69.921c-3.798,0-6.875,3.077-6.875,6.875v0.11c0,3.797,3.077,6.875,6.875,6.875h13.895
				V159.647z"/>
			<path fill="#E3E3E3" d="M69.921,173.508h13.895v-6.985h-20.77v0.11C63.046,170.43,66.123,173.508,69.921,173.508z"/>
		</g>
		<g>
			<path fill="#FFFFFF" d="M83.815,173.568H69.921c-3.798,0-6.875,3.077-6.875,6.874v0.11c0,3.798,3.077,6.876,6.875,6.876h13.895
				V173.568z"/>
			<path fill="#E3E3E3" d="M69.921,187.429h13.895v-6.986h-20.77v0.11C63.046,184.351,66.123,187.429,69.921,187.429z"/>
		</g>
		<rect x="19.653" y="167.421" fill="#59BAC3" width="4.474" height="12.127"/>
	</g>
	<path fill="none" stroke="#59BAC3" stroke-miterlimit="10" d="M82.923,175.291h23.229c0,0,10.286,0.131,10.286-7.87
		s1.825-11.489,7.467-11.489s23.893,0,23.893,0"/>
</g>
</svg>
