<?xml version="1.0" encoding="utf-8"?>
<!-- Generator: Adobe Illustrator 16.0.0, SVG Export Plug-In . SVG Version: 6.00 Build 0)  -->
<!DOCTYPE svg PUBLIC "-//W3C//DTD SVG 1.1//EN" "http://www.w3.org/Graphics/SVG/1.1/DTD/svg11.dtd">
<svg version="1.1" id="Layer_2" xmlns="http://www.w3.org/2000/svg" xmlns:xlink="http://www.w3.org/1999/xlink" x="0px" y="0px"
	 width="506px" height="298.84px" viewBox="-48.372 275.631 506 298.84" enable-background="new -48.372 275.631 506 298.84"
	 xml:space="preserve">
<g>
	<g>
		<rect id="SVGID_1_" x="-48.372" y="275.631" fill="#4B5B65" width="506" height="298.84"/>
	</g>
	<g>
		<defs>
			<rect id="SVGID_2_" x="-48.372" y="275.631" width="506" height="298.84"/>
		</defs>
		<clipPath id="SVGID_3_">
			<use xlink:href="#SVGID_2_"  overflow="visible"/>
		</clipPath>
		<g clip-path="url(#SVGID_3_)">
			<path fill="#5F6F75" d="M265.075,574.471L143.243,452.539c-8.025-8.025-14.312-23.202-14.312-34.551V222.367h8.791v195.621
				c0,8.995,5.374,21.971,11.737,28.334l128.041,128.148H265.075z"/>
			<path fill="#57BAC2" d="M369.069,574.471L221.163,426.434c-8.447-8.445-13.494-20.623-13.494-32.574V222.367h76.443v158.912
				L477.64,574.471H369.069z"/>
			<path fill="#F2A402" d="M-78.015,525.543l-6.215-6.215l192.27-192.271c3.791-3.793,10.695-6.651,16.056-6.651H280.16
				c3.016,0,7.705-1.943,9.838-4.076l82.254-82.252l6.216,6.214l-82.254,82.254c-3.79,3.789-10.693,6.65-16.054,6.65H124.097
				c-3.017,0-7.706,1.942-9.841,4.075L-78.015,525.543z"/>
			<g>
				<polygon fill="#768E94" points="171.61,408.244 159.323,420.488 159.323,388 171.61,375.67 				"/>
				<polygon fill="#617880" points="147.565,422.521 157.926,432.838 157.926,400.354 147.565,389.947 				"/>
				<polygon fill="#617880" points="171.61,408.244 177.088,413.678 177.088,381.191 171.61,375.67 				"/>
				<polygon fill="#768E94" points="165.718,425.093 157.926,432.838 157.926,400.354 165.718,392.52 				"/>
				<polygon fill="#768E94" points="184.643,406.167 177.088,413.678 177.088,381.191 184.643,373.594 				"/>
				<polygon fill="#91A6AC" points="147.565,389.947 174.321,363.191 184.693,373.566 177.078,381.18 171.602,375.703 
					159.315,387.992 164.78,393.455 157.906,400.331 				"/>
			</g>
			<path fill="#57BAC2" d="M166.132,449.02c-0.686,0-1.37-0.263-1.892-0.784c-1.045-1.044-1.045-2.738,0-3.784l28.58-28.578V357.67
				c0-0.709,0.281-1.389,0.784-1.893l16.722-16.723c1.047-1.044,2.74-1.044,3.785,0c1.045,1.047,1.045,2.74,0,3.787l-15.941,15.937
				v58.2c0,0.711-0.282,1.391-0.784,1.894l-29.364,29.363C167.5,448.757,166.815,449.02,166.132,449.02z"/>
			<path fill="#57BAC2" d="M100.191,514.445c-0.687,0-1.371-0.261-1.894-0.782c-1.043-1.047-1.043-2.738,0-3.787l43.256-43.257
				c1.047-1.044,2.741-1.044,3.785,0c1.046,1.046,1.046,2.738,0,3.785l-43.255,43.259
				C101.557,514.185,100.874,514.445,100.191,514.445z"/>
			<path fill="#E62519" d="M182.504,358.458c0-9.042-7.33-16.376-16.373-16.376c-9.044,0-16.376,7.334-16.376,16.376
				c0,4.858,2.118,9.218,5.476,12.218l-0.053,0.051l10.954,10.951l10.95-10.951l-0.051-0.051
				C180.389,367.676,182.504,363.316,182.504,358.458z"/>
			<path fill="#D22417" d="M177.082,370.727l-0.051-0.051c3.358-3,5.473-7.359,5.473-12.218c0-9.042-7.33-16.376-16.373-16.376
				v39.596L177.082,370.727z"/>
			<circle fill="#FFFFFF" cx="165.718" cy="358.436" r="6.496"/>
			
				<text transform="matrix(0.7071 0.7071 -0.7071 0.7071 251.5496 412.1729)" fill="#FFFFFF" font-family="'VAGRoundedLTCYR-Light'" font-size="19.1106">р. Нева</text>
			
				<text transform="matrix(0.7071 -0.7071 0.7071 0.7071 47.1809 378.8809)" fill="#A1ACAF" font-family="'VAGRoundedLTCYR-Light'" font-size="9.1731">КАД</text>
			<text transform="matrix(1 0 0 1 133.9749 301.8027)" fill="#A1ACAF" font-family="'VAGRoundedLTCYR-Light'" font-size="9.1732">Пролетарская</text>
			
				<text transform="matrix(0.7071 -0.7071 0.7071 0.7071 321.2156 314.0977)" fill="#A1ACAF" font-family="'VAGRoundedLTCYR-Light'" font-size="9.1731">КАД</text>
			<text transform="matrix(0 -1 1 0 121.4504 449.0537)" fill="#A1ACAF" font-family="'VAGRoundedLTCYR-Light'" font-size="9.173">пр. Обуховской обороны</text>
			
				<text transform="matrix(0.7071 0.7071 -0.7071 0.7071 174.3528 459.9707)" fill="#A1ACAF" font-family="'VAGRoundedLTCYR-Light'" font-size="9.1731">Шлиссельбурский пр</text>
			<circle fill="#FFFFFF" cx="118.644" cy="299.001" r="8.982"/>
			<g>
				<path fill="#57BAC2" d="M122.993,300.312c0.093,0.583,0.16,0.927,0.16,1.219c0,0.542-0.357,0.993-1.046,0.993
					c-0.49,0-0.902-0.293-0.992-0.943l-0.411-3.137h-0.028l-0.938,2.9c-0.227,0.689-0.412,1.18-1.153,1.18
					c-0.743,0-0.926-0.451-1.208-1.246l-0.978-2.834h-0.027l-0.319,3.021c-0.066,0.688-0.516,1.059-1.004,1.059
					c-0.688,0-1.046-0.451-1.046-0.993c0-0.372,0.068-0.769,0.174-1.416l0.567-3.576c0.133-0.807,0.662-1.219,1.43-1.219
					c0.741,0,1.165,0.332,1.39,1.02l1.006,3.085h0.026l1.059-3.071c0.236-0.701,0.676-1.033,1.469-1.033
					c0.768,0,1.19,0.465,1.31,1.273L122.993,300.312z"/>
			</g>
			<text transform="matrix(1 0 0 1 132.5271 554.5781)" fill="#A1ACAF" font-family="'VAGRoundedLTCYR-Light'" font-size="9.1732">Рыбацкое</text>
			<circle fill="#FFFFFF" cx="117.198" cy="551.772" r="8.982"/>
			<g>
				<path fill="#57BAC2" d="M121.548,553.085c0.093,0.582,0.16,0.925,0.16,1.217c0,0.542-0.357,0.993-1.046,0.993
					c-0.491,0-0.902-0.291-0.992-0.939l-0.412-3.137h-0.027l-0.942,2.898c-0.225,0.688-0.409,1.178-1.15,1.178
					c-0.744,0-0.929-0.449-1.208-1.244l-0.979-2.832h-0.025l-0.32,3.016c-0.066,0.688-0.517,1.058-1.003,1.058
					c-0.689,0-1.046-0.448-1.046-0.992c0-0.371,0.066-0.769,0.172-1.417l0.569-3.574c0.131-0.807,0.662-1.218,1.431-1.218
					c0.74,0,1.163,0.331,1.39,1.02l1.003,3.083h0.028l1.058-3.07c0.238-0.701,0.676-1.032,1.471-1.032
					c0.766,0,1.19,0.464,1.31,1.271L121.548,553.085z"/>
			</g>
			<polyline fill="none" stroke="#FFFFFF" stroke-linecap="round" stroke-linejoin="round" stroke-miterlimit="10" points="
				84.267,299.203 90.221,293.252 96.208,299.238 			"/>
			
				<line fill="none" stroke="#FFFFFF" stroke-linecap="round" stroke-linejoin="round" stroke-miterlimit="10" x1="90.211" y1="306.787" x2="90.211" y2="293.252"/>
			<polyline fill="none" stroke="#FFFFFF" stroke-linecap="round" stroke-linejoin="round" stroke-miterlimit="10" points="
				86.8,552.589 92.754,558.54 98.74,552.556 			"/>
			
				<line fill="none" stroke="#FFFFFF" stroke-linecap="round" stroke-linejoin="round" stroke-miterlimit="10" x1="92.743" y1="545.005" x2="92.743" y2="558.54"/>
		</g>
	</g>
</g>
</svg>
